<?xml version="1.0" encoding="utf-8"?>
<!-- Generator: Adobe Illustrator 17.1.0, SVG Export Plug-In . SVG Version: 6.00 Build 0)  -->
<!DOCTYPE svg PUBLIC "-//W3C//DTD SVG 1.1//EN" "http://www.w3.org/Graphics/SVG/1.1/DTD/svg11.dtd">
<svg version="1.1" id="Layer_1" xmlns="http://www.w3.org/2000/svg" xmlns:xlink="http://www.w3.org/1999/xlink" x="0px" y="0px"
	 viewBox="0 0 24 24" enable-background="new 0 0 24 24" xml:space="preserve">
<g>
	<path fill="#333333" d="M7,2v5H2V2H7 M9,0H0v9h9V0L9,0z"/>
</g>
<g>
	<rect x="3" y="3" fill="#333333" width="3" height="3"/>
</g>
<g>
	<rect x="11" fill="#333333" width="2" height="2"/>
</g>
<g>
	<rect x="11" y="4" fill="#333333" width="2" height="2"/>
</g>
<g>
	<rect x="11" y="6" fill="#333333" width="2" height="2"/>
</g>
<g>
	<rect y="10" fill="#333333" width="2" height="2"/>
</g>
<g>
	<rect x="2" y="12" fill="#333333" width="2" height="2"/>
</g>
<g>
	<rect x="4" y="10" fill="#333333" width="2" height="2"/>
</g>
<g>
	<rect x="8" y="10" fill="#333333" width="2" height="2"/>
</g>
<g>
	<rect x="10" y="10" fill="#333333" width="2" height="2"/>
</g>
<g>
	<rect x="13" y="10" fill="#333333" width="2" height="2"/>
</g>
<g>
	<rect x="4" y="12" fill="#333333" width="2" height="2"/>
</g>
<g>
	<rect x="20" y="12" fill="#333333" width="2" height="2"/>
</g>
<g>
	<rect x="6" y="10" fill="#333333" width="2" height="2"/>
</g>
<g>
	<rect x="7" y="10" fill="#333333" width="2" height="2"/>
</g>
<g>
	<rect x="8" y="12" fill="#333333" width="2" height="2"/>
</g>
<g>
	<rect x="10" y="12" fill="#333333" width="2" height="2"/>
</g>
<g>
	<g>
		<rect x="11" y="20" fill="#333333" width="2" height="2"/>
	</g>
</g>
<g>
	<g>
		<rect x="11" y="18" fill="#333333" width="2" height="2"/>
	</g>
</g>
<g>
	<g>
		<rect x="22" y="12" fill="#333333" width="2" height="2"/>
	</g>
</g>
<g>
	<g>
		<rect x="20" y="10" fill="#333333" width="2" height="2"/>
	</g>
</g>
<g>
	<g>
		<rect x="18" y="12" fill="#333333" width="2" height="2"/>
	</g>
</g>
<g>
	<g>
		<rect x="14" y="12" fill="#333333" width="2" height="2"/>
	</g>
</g>
<g>
	<g>
		<rect x="13" y="12" fill="#333333" width="2" height="2"/>
	</g>
</g>
<g>
	<g>
		<rect x="15" y="20" fill="#333333" width="2" height="2"/>
	</g>
</g>
<g>
	<g>
		<rect x="13" y="18" fill="#333333" width="2" height="2"/>
	</g>
</g>
<g>
	<g>
		<rect x="15" y="16" fill="#333333" width="2" height="2"/>
	</g>
</g>
<g>
	<g>
		<rect x="13" y="16" fill="#333333" width="2" height="2"/>
	</g>
</g>
<g>
	<g>
		<rect x="13" y="12" fill="#333333" width="2" height="2"/>
	</g>
</g>
<g>
	<g>
		<rect x="19" y="22" fill="#333333" width="2" height="2"/>
	</g>
</g>
<g>
	<g>
		<rect x="15" y="22" fill="#333333" width="2" height="2"/>
	</g>
</g>
<g>
	<g>
		<rect x="20" y="16" fill="#333333" width="2" height="2"/>
	</g>
</g>
<g>
	<g>
		<rect x="17" y="20" fill="#333333" width="2" height="2"/>
	</g>
</g>
<g>
	<g>
		<rect x="19" y="18" fill="#333333" width="2" height="2"/>
	</g>
</g>
<g>
	<g>
		<rect x="17" y="18" fill="#333333" width="2" height="2"/>
	</g>
</g>
<g>
	<g>
		<rect x="19" y="16" fill="#333333" width="2" height="2"/>
	</g>
</g>
<g>
	<g>
		<rect x="22" y="22" fill="#333333" width="2" height="2"/>
	</g>
</g>
<g>
	<g>
		<rect x="20" y="20" fill="#333333" width="2" height="2"/>
	</g>
</g>
<g>
	<g>
		<rect x="22" y="18" fill="#333333" width="2" height="2"/>
	</g>
</g>
<g>
	<g>
		<rect x="20" y="18" fill="#333333" width="2" height="2"/>
	</g>
</g>
<g>
	<g>
		<rect x="22" y="16" fill="#333333" width="2" height="2"/>
	</g>
</g>
<g>
	<g>
		<rect x="11" y="12" fill="#333333" width="2" height="2"/>
	</g>
</g>
<g>
	<g>
		<rect x="16" y="10" fill="#333333" width="2" height="2"/>
	</g>
</g>
<g>
	<g>
		<rect x="14" y="10" fill="#333333" width="2" height="2"/>
	</g>
</g>
<g>
	<g>
		<rect x="13" y="10" fill="#333333" width="2" height="2"/>
	</g>
</g>
<g>
	<path fill="#333333" d="M7,17v5H2v-5H7 M9,15H0v9h9V15L9,15z"/>
</g>
<g>
	<rect x="3" y="18" fill="#333333" width="3" height="3"/>
</g>
<g>
	<path fill="#333333" d="M22,2v5h-5V2H22 M24,0h-9v9h9V0L24,0z"/>
</g>
<g>
	<rect x="18" y="3" fill="#333333" width="3" height="3"/>
</g>
</svg>
