<?xml version="1.0" standalone="no"?>
<!DOCTYPE svg PUBLIC "-//W3C//DTD SVG 20010904//EN"
 "http://www.w3.org/TR/2001/REC-SVG-20010904/DTD/svg10.dtd">
<svg version="1.0" xmlns="http://www.w3.org/2000/svg"
 width="1922.000000pt" height="290.000000pt" viewBox="0 0 1922.000000 290.000000"
 preserveAspectRatio="xMidYMid meet">
<metadata>
Created by potrace 1.13, written by Peter Selinger 2001-2015
</metadata>
<g transform="translate(0.000000,290.000000) scale(0.100000,-0.100000)"
fill="#000000" stroke="none">
<path d="M195 2704 c-54 -13 -75 -27 -75 -48 0 -30 18 -46 53 -46 46 0 92 -27
110 -66 15 -31 17 -101 17 -730 0 -737 -1 -748 -47 -772 -10 -5 -42 -12 -72
-15 -63 -7 -81 -20 -81 -58 0 -50 19 -54 315 -57 295 -3 317 1 323 50 4 32
-29 58 -73 58 -54 0 -108 21 -142 55 l-33 33 0 658 1 659 292 -724 c209 -516
299 -728 314 -738 40 -27 57 -4 117 159 31 84 153 416 271 738 l214 585 -2
-688 -2 -689 -28 -23 c-15 -13 -44 -27 -65 -30 -71 -11 -87 -19 -90 -47 -6
-50 12 -53 363 -53 353 0 365 2 365 56 0 33 -27 49 -81 49 -41 0 -66 15 -84
50 -22 42 -23 1412 -1 1464 17 42 51 66 93 66 58 0 83 16 83 53 0 18 -5 38
-12 45 -9 9 -74 12 -232 12 -259 0 -287 -7 -329 -82 -13 -23 -120 -307 -238
-631 -156 -429 -217 -584 -224 -573 -5 8 -118 288 -250 623 l-241 607 -49 25
c-47 25 -56 26 -254 28 -114 1 -215 0 -226 -3z"/>
<path d="M9711 2699 c-73 -14 -94 -44 -131 -180 -44 -169 -35 -232 32 -216 37
10 76 54 113 128 19 36 50 80 70 97 l36 32 157 0 c176 0 193 -5 218 -66 20
-49 21 -1359 0 -1407 -19 -47 -59 -69 -132 -75 -74 -6 -103 -27 -85 -61 7 -11
24 -24 39 -28 15 -5 171 -8 347 -8 344 0 365 3 365 50 0 29 -34 55 -73 55 -45
0 -95 26 -117 62 -19 32 -20 49 -20 711 0 582 2 682 15 707 29 56 43 60 231
60 210 0 216 -3 285 -130 55 -102 94 -132 134 -106 31 21 31 33 -4 179 -31
128 -48 157 -111 186 -31 14 -109 16 -680 18 -355 1 -665 -3 -689 -8z"/>
<path d="M4939 2633 c-95 -32 -201 -87 -217 -114 -12 -18 -11 -24 7 -43 29
-30 40 -100 51 -316 14 -271 13 -1082 -2 -1115 -6 -14 -22 -28 -37 -31 -45 -9
-56 -20 -53 -50 2 -16 8 -33 13 -39 11 -11 407 -20 447 -10 20 5 23 11 20 48
-3 37 -7 43 -34 52 -68 22 -65 2 -62 381 l3 342 30 43 c94 134 333 125 420
-15 l30 -49 3 -333 3 -333 -23 -20 c-12 -12 -34 -21 -49 -21 -51 0 -72 -48
-37 -85 10 -11 415 -20 455 -10 21 5 24 11 21 43 -3 37 -5 38 -78 72 -13 6
-16 57 -21 331 -7 359 -12 392 -72 471 -71 93 -196 138 -386 138 -123 0 -209
-20 -266 -64 l-34 -26 -3 363 c-3 367 -6 396 -41 410 -8 3 -47 -6 -88 -20z"/>
<path d="M13260 2636 c-117 -41 -220 -101 -220 -128 0 -5 9 -21 20 -36 11 -15
24 -54 31 -87 12 -64 26 -1287 15 -1330 -5 -18 -17 -27 -45 -35 -21 -6 -41
-16 -44 -23 -10 -27 6 -69 30 -78 34 -13 409 -12 434 1 28 15 26 74 -3 94 -12
9 -30 16 -39 16 -44 0 -44 -9 -49 810 -6 920 7 844 -130 796z"/>
<path d="M3972 2314 c-35 -24 -49 -62 -57 -152 -11 -124 -62 -182 -162 -182
-56 0 -73 -19 -73 -81 0 -44 3 -51 26 -59 14 -6 66 -10 115 -10 l89 0 0 -277
c0 -401 14 -499 78 -566 51 -54 76 -61 207 -60 139 1 187 15 236 71 26 29 30
41 26 69 -4 19 -11 41 -18 49 -20 24 -62 17 -91 -16 -22 -26 -33 -30 -75 -30
-29 0 -58 7 -72 16 -48 34 -51 59 -51 413 l0 329 144 4 c167 4 186 12 186 79
0 61 -27 73 -182 77 -113 4 -130 7 -138 23 -6 10 -15 64 -20 120 -11 112 -31
166 -71 186 -33 17 -70 16 -97 -3z"/>
<path d="M15290 2029 c-30 -11 -77 -24 -105 -30 -72 -14 -82 -27 -56 -75 20
-37 21 -53 21 -444 0 -302 -3 -411 -13 -429 -6 -13 -28 -29 -47 -35 -32 -10
-35 -14 -35 -51 0 -33 4 -40 25 -46 14 -4 118 -7 232 -8 229 -1 245 3 232 57
-9 38 -21 50 -55 57 -16 4 -34 15 -39 25 -13 25 -13 594 0 642 13 44 66 93
119 109 23 7 79 10 142 7 83 -4 113 -9 151 -28 l46 -23 45 26 c48 28 77 65 77
96 0 52 -132 102 -270 103 -102 1 -232 -43 -291 -99 l-27 -25 -7 73 c-6 56
-13 77 -31 96 -28 27 -42 28 -114 2z"/>
<path d="M7381 2016 c-7 -8 -11 -27 -9 -43 2 -22 11 -31 44 -43 58 -21 73 -37
104 -105 57 -128 453 -891 468 -902 21 -17 67 -16 81 0 6 7 68 152 139 322 71
170 133 310 138 312 5 2 78 -132 163 -297 84 -165 162 -311 172 -324 27 -34
55 -38 84 -13 15 14 92 182 215 472 105 247 198 458 208 469 22 24 90 55 123
56 32 0 49 17 49 51 0 51 -14 54 -261 57 -218 3 -228 3 -248 -17 -35 -35 -10
-76 56 -92 27 -7 53 -23 68 -41 46 -54 38 -91 -81 -396 -59 -150 -111 -269
-115 -265 -19 19 -290 600 -295 633 -7 42 13 70 49 70 55 0 88 60 50 91 -21
18 -443 26 -486 10 -25 -10 -28 -15 -25 -48 3 -34 7 -39 43 -51 22 -7 48 -21
58 -30 22 -20 97 -164 97 -187 0 -26 -192 -497 -199 -488 -4 4 -70 139 -146
298 -171 359 -177 388 -85 412 32 9 35 12 35 48 0 33 -4 40 -25 46 -14 4 -122
7 -241 8 -177 1 -219 -2 -228 -13z"/>
<path d="M17091 2000 c-140 -37 -223 -88 -292 -181 -55 -72 -78 -145 -91 -278
-18 -199 20 -345 118 -450 104 -112 221 -151 457 -151 160 0 257 12 323 40 75
33 144 108 144 159 0 52 -98 110 -158 94 -13 -3 -47 -38 -77 -79 -30 -40 -69
-81 -87 -90 -50 -27 -186 -31 -245 -9 -67 26 -135 93 -169 168 -29 61 -29 64
-29 247 0 152 3 194 18 236 41 117 112 190 215 220 45 14 64 14 118 4 94 -18
122 -41 170 -139 23 -46 48 -87 55 -92 26 -16 112 -10 146 11 63 38 56 97 -19
176 -61 65 -147 109 -238 124 -106 16 -275 12 -359 -10z"/>
<path d="M6471 1999 c-111 -22 -237 -106 -294 -196 -54 -85 -79 -179 -84 -313
-4 -76 -1 -147 6 -181 27 -128 112 -249 216 -309 90 -52 188 -71 363 -71 83 1
182 5 220 11 116 18 221 82 244 151 16 44 -56 119 -130 134 -29 6 -37 2 -70
-32 -20 -21 -53 -61 -72 -88 -43 -60 -77 -73 -188 -74 -95 -1 -132 11 -189 63
-60 54 -95 139 -101 248 l-5 88 355 0 c196 0 370 3 388 6 67 14 88 111 54 254
-19 83 -51 136 -116 195 -102 92 -216 125 -423 124 -71 -1 -150 -5 -174 -10z
m326 -88 c73 -34 144 -161 147 -266 l1 -50 -277 -3 c-219 -2 -278 0 -278 10 0
28 31 141 46 171 55 106 135 157 248 157 48 0 85 -7 113 -19z"/>
<path d="M11467 2003 c-4 -3 -7 -19 -7 -34 0 -31 31 -59 65 -59 11 0 30 -7 42
-15 12 -9 123 -216 258 -482 l236 -467 -112 -258 c-122 -282 -141 -310 -218
-323 -77 -13 -110 -107 -56 -160 47 -48 171 -27 216 36 11 16 168 380 350 811
181 430 337 790 347 801 23 26 86 57 115 57 12 0 28 5 35 12 19 19 15 66 -7
78 -21 11 -467 15 -495 4 -21 -8 -20 -51 2 -62 9 -5 39 -13 66 -17 35 -5 58
-15 78 -35 48 -49 42 -80 -83 -395 -62 -154 -115 -284 -119 -288 -4 -4 -71
128 -150 295 -114 241 -143 312 -144 347 -1 48 14 63 77 76 22 4 27 11 27 33
0 51 -5 52 -270 52 -136 0 -250 -3 -253 -7z"/>
<path d="M14111 1999 c-111 -22 -237 -106 -294 -196 -54 -85 -79 -179 -84
-313 -4 -76 -1 -147 6 -181 27 -128 112 -249 216 -309 90 -52 188 -71 363 -71
83 1 182 5 220 11 116 18 221 82 244 151 16 44 -56 119 -130 134 -29 6 -37 2
-70 -32 -20 -21 -53 -61 -72 -88 -43 -60 -77 -73 -188 -74 -95 -1 -132 11
-189 63 -60 54 -95 139 -101 248 l-5 88 355 0 c196 0 370 3 388 6 67 14 88
111 54 254 -19 83 -51 136 -116 195 -102 92 -216 125 -423 124 -71 -1 -150 -5
-174 -10z m326 -88 c73 -34 144 -161 147 -266 l1 -50 -277 -3 c-219 -2 -278 0
-278 10 0 28 31 141 46 171 55 106 135 157 248 157 48 0 85 -7 113 -19z"/>
<path d="M2755 1959 c-130 -27 -169 -45 -213 -94 -50 -57 -68 -114 -48 -153
32 -62 111 -60 169 5 60 67 90 94 136 121 42 25 55 27 146 27 105 -1 142 -12
192 -58 54 -48 82 -202 46 -246 -20 -22 -204 -74 -397 -111 -174 -33 -246 -73
-290 -162 -48 -95 -28 -211 47 -274 46 -39 122 -71 199 -84 112 -20 324 25
433 92 39 24 42 23 60 -12 26 -50 74 -98 106 -105 41 -9 87 11 104 46 21 39
19 47 -16 87 -56 63 -59 80 -59 329 0 163 -4 243 -14 280 -45 170 -156 277
-328 318 -83 19 -163 18 -273 -6z m413 -811 c-38 -30 -140 -78 -198 -93 -162
-43 -280 10 -280 126 0 122 76 176 313 225 43 8 101 28 130 43 l52 27 3 -155
c2 -152 2 -156 -20 -173z"/>
<path d="M18332 1965 c-227 -50 -331 -173 -353 -421 -14 -145 3 -244 61 -361
83 -168 237 -253 458 -253 123 0 229 22 329 70 191 90 266 248 247 520 -17
256 -132 395 -370 445 -86 18 -287 18 -372 0z m282 -89 c102 -31 171 -107 201
-221 20 -80 20 -293 -1 -384 -49 -216 -227 -316 -402 -227 -142 72 -209 229
-199 466 7 161 32 236 100 304 29 29 68 57 87 63 51 16 159 15 214 -1z"/>
<path d="M16304 1199 c-18 -5 -46 -25 -63 -44 -27 -31 -31 -43 -31 -91 0 -110
46 -148 168 -142 69 3 76 6 103 36 25 28 29 41 29 88 0 72 -28 119 -84 145
-45 20 -74 22 -122 8z"/>
</g>
</svg>
