<?xml version="1.0" standalone="no"?>
<!DOCTYPE svg PUBLIC "-//W3C//DTD SVG 20010904//EN"
 "http://www.w3.org/TR/2001/REC-SVG-20010904/DTD/svg10.dtd">
<svg version="1.0" xmlns="http://www.w3.org/2000/svg"
 width="350.000000pt" height="53.000000pt" viewBox="0 0 350.000000 53.000000"
 preserveAspectRatio="xMidYMid meet">
<metadata>
Created by potrace 1.13, written by Peter Selinger 2001-2015
</metadata>
<g transform="translate(0.000000,53.000000) scale(0.100000,-0.100000)"
fill="#000000" stroke="none">
<path d="M38 479 c23 -9 23 -10 20 -154 l-3 -145 24 0 c20 0 22 3 13 12 -8 8
-12 51 -12 129 0 111 11 157 25 107 7 -25 49 -136 70 -183 8 -16 17 -39 20
-50 5 -16 9 -12 26 24 23 51 23 52 6 45 -12 -4 -21 14 -69 146 -28 76 -33 80
-92 79 -42 0 -47 -2 -28 -10z"/>
<path d="M304 465 c-9 -13 -14 -30 -11 -37 4 -8 6 -6 6 5 1 9 6 17 12 17 7 0
10 -43 7 -135 l-3 -135 30 0 30 0 -3 145 c-3 144 -3 145 20 154 19 8 15 10
-24 10 -40 1 -50 -3 -64 -24z"/>
<path d="M1749 463 c-15 -41 -5 -50 20 -15 16 23 30 32 51 32 45 0 52 -24 48
-171 l-3 -129 25 0 25 0 -3 136 c-4 151 0 164 54 164 27 0 37 -5 46 -25 11
-25 28 -34 28 -14 0 6 -5 19 -10 30 -10 17 -22 19 -141 19 l-129 0 -11 -27z"/>
<path d="M877 469 c-13 -8 -15 -14 -7 -29 5 -10 10 -73 10 -139 0 -109 2 -121
18 -121 15 0 17 8 14 59 -2 33 1 69 8 80 7 14 7 21 0 21 -6 0 -10 28 -10 70 0
72 -3 77 -33 59z"/>
<path d="M2400 471 c-12 -8 -14 -33 -12 -150 l3 -141 26 0 c19 0 24 4 19 16
-3 9 -6 76 -6 150 0 74 -3 134 -7 134 -5 0 -15 -5 -23 -9z"/>
<path d="M720 396 c0 -19 -6 -27 -25 -32 -32 -8 -32 -24 0 -24 23 0 24 -3 27
-77 l3 -78 43 -3 c23 -2 42 1 42 7 0 5 -12 9 -27 8 -28 -2 -28 -2 -31 71 l-3
72 31 0 c16 0 30 5 30 10 0 6 -13 10 -29 10 -25 0 -30 5 -33 27 -4 35 -28 43
-28 9z"/>
<path d="M276 395 c-9 -26 -7 -32 5 -12 6 10 9 21 6 23 -2 3 -7 -2 -11 -11z"/>
<path d="M1185 362 c-37 -12 -52 -27 -63 -61 -20 -56 8 -121 51 -121 19 0 19
1 4 18 -9 10 -18 29 -19 43 -3 23 -1 24 75 27 l79 3 -6 27 c-7 27 -39 62 -58
62 -5 0 -2 -10 6 -22 28 -39 21 -48 -39 -48 -39 0 -55 4 -55 13 0 17 20 42 45
55 22 12 12 14 -20 4z"/>
<path d="M1358 352 c9 -10 35 -55 57 -100 22 -44 43 -81 46 -82 7 0 40 82 35
88 -2 2 -7 -6 -11 -17 -10 -33 -19 -26 -49 40 -22 48 -25 63 -16 75 11 12 5
14 -34 14 -44 0 -45 -1 -28 -18z"/>
<path d="M1491 349 c15 -15 19 -28 15 -52 -3 -18 -3 -26 0 -19 10 23 21 12 50
-48 15 -33 32 -60 35 -60 16 0 21 42 7 53 -8 7 -25 35 -38 64 -19 43 -21 55
-10 68 11 13 7 15 -34 15 l-46 0 21 -21z"/>
<path d="M1623 359 c21 -12 22 -50 1 -90 -8 -17 -13 -33 -10 -36 5 -6 46 80
46 97 0 4 10 15 23 23 21 15 20 16 -28 16 -39 0 -46 -2 -32 -10z"/>
<path d="M2100 357 c9 -7 36 -52 60 -100 44 -88 44 -89 27 -119 -9 -16 -17
-36 -17 -43 0 -8 -9 -19 -20 -25 -24 -13 -27 -33 -4 -28 17 3 107 203 101 222
-3 6 -8 -1 -12 -16 -4 -16 -11 -28 -16 -28 -15 0 -61 109 -54 130 6 18 2 20
-37 20 -35 -1 -40 -3 -28 -13z"/>
<path d="M2245 357 c14 -11 17 -22 12 -45 -9 -42 0 -41 19 3 8 19 19 35 24 35
6 0 10 5 10 10 0 6 -19 10 -42 10 -38 0 -40 -1 -23 -13z"/>
<path d="M2575 362 c-38 -13 -52 -27 -64 -65 -11 -32 -10 -42 6 -75 12 -25 26
-38 43 -41 24 -3 24 -2 7 16 -9 11 -17 32 -17 46 0 27 0 27 75 27 69 0 75 2
75 20 0 12 -11 32 -25 45 -31 31 -52 33 -31 3 28 -39 21 -48 -39 -48 -69 0
-75 22 -15 63 25 17 20 20 -15 9z"/>
<path d="M2773 363 c-9 -3 -13 -32 -13 -94 0 -88 0 -89 25 -89 24 0 25 2 25
69 0 80 12 97 65 88 19 -3 35 -2 35 3 0 16 -47 22 -71 10 -18 -10 -23 -10 -31
4 -9 17 -14 18 -35 9z"/>
<path d="M3093 351 c-36 -23 -48 -55 -40 -108 6 -37 30 -62 60 -63 17 0 16 4
-7 31 -54 63 -12 163 60 145 13 -4 24 -13 24 -21 0 -18 19 -30 31 -18 14 14
-23 43 -62 49 -24 3 -44 -1 -66 -15z"/>
<path d="M488 348 c-16 -5 -28 -16 -28 -24 0 -18 9 -18 32 3 10 9 32 16 50 15
23 -1 28 2 18 8 -18 12 -37 11 -72 -2z"/>
<path d="M988 340 c31 -19 32 -21 32 -90 0 -60 2 -70 18 -70 15 0 17 9 14 76
-4 75 -4 76 -37 90 -50 20 -65 17 -27 -6z"/>
<path d="M3325 348 c-32 -17 -45 -39 -45 -79 0 -40 31 -89 57 -89 14 0 13 3
-3 21 -27 30 -27 115 0 135 51 37 96 3 96 -71 0 -31 -6 -55 -17 -67 -14 -15
-14 -18 -1 -18 36 0 63 59 52 116 -5 29 -13 39 -40 50 -40 17 -72 17 -99 2z"/>
<path d="M252 325 c-17 -37 -14 -45 4 -12 9 16 14 31 11 33 -2 2 -9 -7 -15
-21z"/>
<path d="M586 316 c5 -19 2 -31 -7 -37 -10 -6 -11 -9 -1 -9 7 0 12 -13 12 -30
0 -22 -7 -33 -27 -44 -19 -10 -23 -15 -11 -16 9 0 20 5 24 11 5 8 10 6 16 -5
18 -32 26 -15 21 47 -3 34 -12 73 -19 87 l-14 25 6 -29z"/>
<path d="M470 246 c-20 -25 -8 -61 20 -64 22 -2 23 -1 8 8 -22 14 -23 28 -1
52 14 16 14 18 1 18 -9 0 -21 -7 -28 -14z"/>
<path d="M1257 199 c-18 -20 -17 -20 5 -17 12 2 24 11 26 21 5 23 -10 22 -31
-4z"/>
<path d="M2647 199 c-18 -20 -17 -20 5 -17 12 2 24 11 26 21 5 23 -10 22 -31
-4z"/>
<path d="M3187 199 c-18 -20 -17 -20 5 -17 12 2 24 11 26 21 5 23 -10 22 -31
-4z"/>
<path d="M2956 202 c-7 -12 7 -27 27 -28 10 -1 17 5 17 17 0 19 -34 27 -44 11z"/>
</g>
</svg>
