<?xml version="1.0" standalone="no"?>
<!DOCTYPE svg PUBLIC "-//W3C//DTD SVG 20010904//EN"
 "http://www.w3.org/TR/2001/REC-SVG-20010904/DTD/svg10.dtd">
<svg version="1.0" xmlns="http://www.w3.org/2000/svg"
 width="350.000000pt" height="50.000000pt" viewBox="0 0 350.000000 50.000000"
 preserveAspectRatio="xMidYMid meet">
<metadata>
Created by potrace 1.13, written by Peter Selinger 2001-2015
</metadata>
<g transform="translate(0.000000,50.000000) scale(0.100000,-0.100000)"
fill="#000000" stroke="none">
<path d="M188 440 c-56 -17 -97 -51 -122 -102 -33 -66 -33 -110 0 -176 28 -57
80 -95 146 -107 73 -14 169 39 208 114 17 33 15 132 -3 167 -23 44 -67 81
-116 99 -48 16 -72 18 -113 5z m151 -44 c58 -40 89 -121 71 -186 -23 -85 -117
-150 -197 -136 -184 34 -205 272 -32 346 41 17 115 6 158 -24z"/>
<path d="M170 300 c0 -13 7 -20 20 -20 13 0 20 7 20 20 0 13 -7 20 -20 20 -13
0 -20 -7 -20 -20z"/>
<path d="M270 300 c0 -13 7 -20 20 -20 13 0 20 7 20 20 0 13 -7 20 -20 20 -13
0 -20 -7 -20 -20z"/>
<path d="M190 160 c0 -5 23 -10 50 -10 28 0 50 5 50 10 0 6 -22 10 -50 10 -27
0 -50 -4 -50 -10z"/>
<path d="M1220 390 c-14 -4 -19 -8 -12 -9 20 -2 17 -240 -3 -255 -12 -9 -5
-11 35 -11 41 0 49 3 44 15 -4 8 -9 38 -12 67 -4 49 -3 53 23 65 24 11 29 10
41 -7 16 -22 18 -88 4 -116 -10 -17 -7 -19 24 -19 19 0 41 -3 50 -6 9 -3 16
-1 16 5 0 6 -6 11 -14 11 -10 0 -15 19 -18 71 -2 47 -9 73 -18 80 -16 10 -63
7 -92 -6 -16 -6 -18 0 -18 59 0 70 -2 71 -50 56z"/>
<path d="M2475 390 c-16 -4 -22 -8 -13 -9 23 -1 31 -49 27 -157 -3 -58 -8 -89
-17 -92 -27 -9 -9 -17 38 -17 28 0 50 3 50 8 0 4 -4 7 -10 7 -6 0 -10 52 -10
135 0 149 3 142 -65 125z"/>
<path d="M473 373 c13 -3 17 -15 16 -51 0 -85 -15 -186 -27 -190 -24 -8 -11
-17 23 -17 19 0 35 3 35 8 0 4 -4 7 -10 7 -11 0 -13 145 -2 172 5 12 19 -13
45 -82 21 -55 42 -100 47 -100 4 0 28 47 52 105 38 91 44 101 49 77 11 -45 10
-172 -1 -172 -5 0 -10 -3 -10 -7 0 -5 23 -8 50 -8 46 0 65 8 39 17 -7 2 -15
47 -20 113 -8 98 -7 111 8 123 14 10 11 12 -24 12 -40 0 -41 -1 -65 -57 -14
-32 -31 -73 -38 -90 -7 -18 -16 -30 -20 -28 -5 3 -23 44 -41 90 l-32 85 -46
-1 c-25 -1 -38 -3 -28 -6z"/>
<path d="M1957 358 c-9 -31 1 -36 19 -10 18 26 69 30 78 6 3 -9 6 -61 6 -116
0 -91 -2 -100 -20 -105 -39 -10 -19 -18 45 -18 64 0 84 8 45 18 -18 5 -20 14
-20 105 0 55 3 107 6 116 9 23 44 20 71 -6 l23 -21 0 26 0 27 -124 0 c-119 0
-124 -1 -129 -22z"/>
<path d="M1083 343 c-7 -2 -13 -16 -13 -29 0 -15 -6 -24 -15 -24 -8 0 -15 -4
-15 -10 0 -5 7 -10 15 -10 12 0 15 -14 15 -68 0 -40 5 -73 12 -80 16 -16 50
-15 74 3 18 14 18 14 -8 15 -28 0 -28 1 -28 65 0 63 1 65 25 65 14 0 25 5 25
10 0 6 -11 10 -25 10 -21 0 -25 5 -25 30 0 29 -9 35 -37 23z"/>
<path d="M861 273 c-14 -13 -18 -22 -12 -32 12 -19 43 -6 39 16 -5 30 31 28
42 -3 6 -15 9 -28 8 -29 -2 -1 -24 -12 -50 -23 -42 -18 -48 -25 -48 -51 0 -24
5 -32 24 -37 13 -3 33 -1 45 5 15 9 26 8 40 -1 16 -9 25 -9 48 2 22 11 24 14
11 17 -14 4 -18 15 -18 57 0 69 -19 96 -69 96 -22 0 -48 -8 -60 -17z m79 -96
c0 -44 -43 -64 -56 -25 -4 15 -1 25 12 35 27 20 44 16 44 -10z"/>
<path d="M1499 277 c-45 -35 -52 -105 -14 -142 30 -31 73 -32 109 -4 33 26 29
33 -9 19 -36 -14 -78 11 -73 42 2 17 12 21 53 25 27 2 52 6 54 9 3 3 -1 17
-10 32 -11 21 -23 28 -54 29 -22 2 -47 -3 -56 -10z m65 -13 c11 -28 7 -34 -24
-34 -31 0 -39 17 -18 38 17 17 35 15 42 -4z"/>
<path d="M1653 278 c9 -7 29 -47 45 -88 17 -41 36 -75 43 -75 7 0 20 21 28 48
8 26 18 47 21 47 4 0 17 -22 28 -50 12 -27 25 -50 30 -50 6 0 24 36 42 80 18
44 40 85 49 90 12 7 7 9 -23 10 -29 0 -36 -3 -29 -12 12 -15 -7 -94 -22 -91
-5 1 -16 21 -26 45 -9 24 -23 43 -30 43 -7 0 -20 -21 -28 -47 -8 -27 -18 -48
-22 -48 -4 0 -14 20 -22 45 -14 41 -14 46 1 55 13 7 1 9 -42 10 -50 0 -57 -2
-43 -12z"/>
<path d="M2230 270 c11 -11 20 -24 20 -30 0 -5 14 -38 31 -74 25 -53 29 -68
19 -85 -6 -12 -20 -21 -31 -21 -19 0 -37 -25 -26 -37 3 -3 17 -3 30 1 20 5 35
29 77 123 28 64 59 123 68 130 15 11 11 12 -23 13 -27 0 -35 -3 -26 -9 11 -7
11 -16 -4 -55 -10 -26 -21 -49 -25 -51 -4 -2 -18 18 -30 46 -21 43 -22 52 -10
60 10 6 -2 9 -37 9 l-53 0 20 -20z"/>
<path d="M2625 266 c-19 -19 -25 -36 -25 -66 0 -78 74 -116 134 -69 33 26 29
33 -9 19 -36 -14 -78 11 -73 42 2 17 12 21 53 25 27 2 51 6 53 8 2 2 -2 16
-10 32 -11 23 -20 29 -55 31 -35 3 -48 -2 -68 -22z m75 -5 c15 -28 13 -31 -20
-31 -31 0 -39 17 -18 38 17 17 26 15 38 -7z"/>
<path d="M2815 280 c-11 -5 -14 -9 -7 -9 15 -1 17 -141 2 -141 -5 0 -10 -3
-10 -7 0 -5 23 -8 50 -8 28 0 50 1 50 3 0 2 -7 10 -15 18 -19 19 -19 84 -1
110 11 14 17 16 27 7 16 -16 39 -5 39 18 0 23 -32 26 -54 4 -8 -8 -17 -15 -20
-15 -3 0 -6 7 -6 15 0 16 -24 19 -55 5z"/>
<path d="M3102 274 c-51 -36 -52 -123 -1 -149 38 -20 62 -19 90 4 l23 19 -39
-2 c-34 -1 -41 3 -53 28 -11 21 -12 39 -6 65 11 45 40 53 54 17 11 -29 28 -34
36 -11 16 40 -59 61 -104 29z"/>
<path d="M3285 265 c-27 -26 -34 -80 -15 -114 23 -44 118 -51 154 -12 9 10 19
35 23 54 13 80 -103 132 -162 72z m89 -7 c19 -27 21 -98 3 -122 -27 -36 -67 9
-67 75 0 63 35 89 64 47z"/>
<path d="M2982 161 c-19 -11 -11 -45 11 -49 9 -2 20 4 23 13 9 21 -16 47 -34
36z"/>
</g>
</svg>
