<?xml version="1.0" standalone="no"?>
<!DOCTYPE svg PUBLIC "-//W3C//DTD SVG 20010904//EN"
 "http://www.w3.org/TR/2001/REC-SVG-20010904/DTD/svg10.dtd">
<svg version="1.0" xmlns="http://www.w3.org/2000/svg"
 width="175.000000pt" height="25.000000pt" viewBox="0 0 175.000000 25.000000"
 preserveAspectRatio="xMidYMid meet">
<metadata>
Created by potrace 1.13, written by Peter Selinger 2001-2015
</metadata>
<g transform="translate(0.000000,25.000000) scale(0.100000,-0.100000)"
fill="#000000" stroke="none">
<path d="M458 223 c8 -3 12 -28 12 -74 0 -38 3 -69 8 -69 4 0 6 34 4 75 -3 62
-6 75 -20 74 -11 0 -12 -2 -4 -6z"/>
<path d="M1178 223 c8 -3 12 -28 12 -74 0 -38 3 -69 8 -69 4 0 6 34 4 75 -3
62 -6 75 -20 74 -11 0 -12 -2 -4 -6z"/>
<path d="M40 198 c0 -13 3 -18 8 -11 4 6 15 -14 26 -49 10 -33 23 -55 27 -51
11 11 -32 125 -49 131 -7 2 -12 -6 -12 -20z"/>
<path d="M156 204 c-3 -8 -2 -12 4 -9 6 4 10 -17 10 -54 0 -37 4 -61 11 -61 6
0 9 25 7 70 -3 67 -17 92 -32 54z"/>
<path d="M948 150 c5 -91 22 -91 22 0 0 49 -4 70 -12 70 -10 0 -12 -19 -10
-70z"/>
<path d="M382 138 c-2 -65 -1 -68 21 -67 16 1 17 3 5 6 -13 3 -18 18 -21 66
l-3 62 -2 -67z"/>
<path d="M293 156 c4 -10 7 -33 7 -52 0 -26 4 -34 18 -33 10 0 12 3 5 6 -7 2
-13 22 -13 43 0 21 -5 42 -12 46 -8 5 -9 2 -5 -10z"/>
<path d="M528 163 c7 -2 12 -22 12 -44 0 -21 5 -39 10 -39 6 0 10 15 10 33 0
33 -15 58 -34 56 -6 0 -5 -3 2 -6z"/>
<path d="M660 156 c0 -9 5 -16 10 -16 6 0 10 4 10 9 0 6 -4 13 -10 16 -5 3
-10 -1 -10 -9z"/>
<path d="M723 155 c9 -8 18 -28 22 -45 4 -16 11 -30 16 -30 6 0 7 9 3 23 -5
12 -8 32 -9 45 0 16 -6 22 -23 22 -21 0 -22 -2 -9 -15z"/>
<path d="M1037 163 c7 -2 22 -24 32 -49 22 -49 26 -52 35 -27 4 10 4 14 0 10
-9 -9 -36 52 -28 64 3 5 -7 9 -23 8 -15 0 -22 -3 -16 -6z"/>
<path d="M1317 151 c3 -12 9 -21 14 -21 14 0 11 16 -5 29 -12 10 -13 8 -9 -8z"/>
<path d="M1390 125 c0 -25 5 -45 10 -45 6 0 10 20 10 45 0 25 -4 45 -10 45 -5
0 -10 -20 -10 -45z"/>
<path d="M1435 160 c3 -5 8 -10 11 -10 2 0 4 5 4 10 0 6 -5 10 -11 10 -5 0 -7
-4 -4 -10z"/>
<path d="M1580 155 c7 -9 15 -13 17 -11 7 7 -7 26 -19 26 -6 0 -6 -6 2 -15z"/>
<path d="M1652 158 c-17 -17 -15 -63 3 -78 13 -11 14 -10 7 11 -5 13 -6 36 -1
51 9 32 8 33 -9 16z"/>
<path d="M1705 153 c11 -10 15 -27 13 -45 -5 -33 -2 -35 12 -7 9 16 8 26 -5
45 -8 13 -20 24 -26 24 -6 0 -3 -7 6 -17z"/>
<path d="M606 144 c-11 -29 -6 -53 13 -64 27 -14 51 -12 26 2 -28 16 -35 29
-28 55 6 26 -2 31 -11 7z"/>
<path d="M797 147 c-3 -9 -3 -17 2 -17 5 0 11 -15 15 -32 5 -25 9 -30 16 -18
5 8 5 17 1 20 -4 3 -12 18 -18 34 -7 24 -11 27 -16 13z"/>
<path d="M1267 153 c-11 -11 -8 -58 5 -71 7 -7 21 -12 33 -12 18 0 17 2 -5 13
-19 10 -25 21 -25 45 0 18 0 32 -1 32 0 0 -4 -3 -7 -7z"/>
<path d="M1528 144 c-25 -25 5 -75 44 -73 7 0 4 4 -7 8 -12 5 -22 20 -25 40
-3 18 -8 29 -12 25z"/>
<path d="M250 90 c0 -11 4 -20 9 -20 5 0 7 9 4 20 -3 11 -7 20 -9 20 -2 0 -4
-9 -4 -20z"/>
<path d="M1470 79 c0 -5 5 -7 10 -4 6 3 10 8 10 11 0 2 -4 4 -10 4 -5 0 -10
-5 -10 -11z"/>
</g>
</svg>
