<?xml version="1.0" standalone="no"?>
<!DOCTYPE svg PUBLIC "-//W3C//DTD SVG 20010904//EN"
 "http://www.w3.org/TR/2001/REC-SVG-20010904/DTD/svg10.dtd">
<svg version="1.0" xmlns="http://www.w3.org/2000/svg"
 width="724.000000pt" height="102.000000pt" viewBox="0 0 724.000000 102.000000"
 preserveAspectRatio="xMidYMid meet">
<metadata>
Created by potrace 1.13, written by Peter Selinger 2001-2015
</metadata>
<g transform="translate(0.000000,102.000000) scale(0.100000,-0.100000)"
fill="#000000" stroke="none">
<path d="M1935 958 c-102 -16 -107 -18 -103 -35 2 -10 14 -20 27 -23 38 -9 43
-48 39 -315 -3 -259 -6 -275 -54 -275 -17 0 -24 -6 -24 -20 0 -19 7 -20 135
-20 127 0 135 1 135 19 0 13 -8 21 -22 23 -29 4 -37 44 -37 186 l-1 103 41 18
c50 23 89 15 106 -20 14 -26 17 -178 5 -244 -6 -31 -12 -41 -30 -43 -14 -2
-22 -10 -22 -23 0 -18 8 -19 135 -19 128 0 135 1 135 20 0 14 -7 20 -24 20
-42 0 -49 22 -56 178 -6 159 -13 183 -60 207 -45 23 -100 18 -166 -15 -32 -16
-60 -30 -61 -30 -2 0 -3 72 -3 160 0 146 -2 160 -17 159 -10 -1 -45 -6 -78
-11z"/>
<path d="M4935 958 c-102 -16 -107 -18 -103 -35 2 -10 14 -20 27 -23 38 -9 43
-48 39 -315 -3 -259 -6 -275 -54 -275 -17 0 -24 -6 -24 -20 0 -19 7 -20 145
-20 138 0 145 1 145 20 0 14 -7 20 -24 20 -49 0 -51 10 -54 347 -3 286 -5 313
-20 312 -9 -1 -44 -6 -77 -11z"/>
<path d="M3651 859 c-14 -88 -14 -89 9 -89 13 0 25 11 34 34 21 50 50 66 123
66 60 0 63 -1 70 -27 5 -16 8 -134 8 -264 0 -262 -2 -269 -61 -269 -27 0 -34
-4 -34 -20 0 -19 7 -20 170 -20 163 0 170 1 170 20 0 16 -7 20 -34 20 -58 0
-61 10 -64 244 -2 116 0 234 5 261 l8 50 50 3 c62 4 91 -11 112 -60 17 -39 39
-49 49 -23 4 9 3 44 0 78 l-7 63 -298 0 -299 1 -11 -68z"/>
<path d="M80 900 c0 -16 6 -20 30 -20 18 0 33 -6 37 -15 7 -20 -35 -469 -48
-512 -7 -21 -19 -35 -40 -42 -16 -5 -29 -17 -29 -25 0 -14 17 -16 105 -16 98
0 105 1 105 20 0 13 -7 20 -20 20 -11 0 -26 10 -34 23 -12 19 -12 48 -1 216 8
106 16 195 17 197 2 1 44 -101 93 -228 50 -127 95 -238 101 -246 6 -8 17 -13
25 -10 8 4 61 121 118 262 58 140 107 254 109 252 6 -7 30 -440 25 -453 -3 -7
-18 -13 -34 -13 -22 0 -29 -5 -29 -20 0 -20 5 -20 143 -18 118 3 142 5 142 18
0 10 -12 16 -32 18 -17 2 -34 10 -37 18 -9 23 -38 446 -34 501 3 45 5 48 33
53 18 3 31 12 33 23 3 16 -5 17 -104 15 l-107 -3 -83 -200 c-46 -110 -87 -208
-92 -219 -6 -14 -29 35 -94 200 l-85 219 -107 3 c-101 3 -106 2 -106 -18z"/>
<path d="M1602 845 c-64 -20 -72 -30 -72 -91 0 -52 0 -53 -32 -56 -25 -2 -34
-8 -36 -25 -3 -20 1 -23 32 -23 l36 0 0 -166 0 -166 29 -29 c25 -25 37 -29 81
-29 81 0 156 43 131 74 -9 10 -20 12 -41 6 -19 -6 -34 -4 -47 5 -16 12 -18 32
-21 159 l-4 146 61 0 c58 0 61 1 61 25 0 24 -3 25 -61 25 l-60 0 3 76 c2 46
-1 78 -7 80 -5 1 -29 -3 -53 -11z"/>
<path d="M1077 695 c-55 -19 -87 -52 -87 -90 0 -38 16 -55 51 -55 38 0 59 25
59 70 0 31 4 39 22 43 13 4 33 0 45 -8 22 -15 26 -24 37 -91 l5 -32 -90 -32
c-115 -41 -149 -73 -149 -138 0 -26 6 -54 13 -63 35 -46 119 -53 182 -15 l39
24 23 -24 c36 -39 130 -30 190 18 9 7 10 16 3 29 -8 15 -15 17 -35 9 -22 -9
-27 -6 -35 16 -6 14 -10 76 -10 137 0 126 -13 161 -72 197 -39 24 -133 26
-191 5z m133 -275 c0 -57 -2 -61 -31 -79 -56 -34 -103 10 -79 73 8 23 74 65
103 66 4 0 7 -27 7 -60z"/>
<path d="M2591 693 c-88 -43 -136 -132 -129 -235 5 -81 31 -133 81 -166 36
-24 50 -27 123 -27 75 0 86 3 125 30 49 35 75 74 66 99 -6 15 -9 15 -35 -4
-42 -31 -103 -42 -148 -27 -45 15 -70 48 -78 104 l-6 42 132 3 133 3 3 45 c4
56 -26 106 -78 132 -45 23 -143 23 -189 1z m118 -52 c5 -9 11 -32 13 -51 l3
-35 -62 -3 -63 -3 0 31 c0 65 83 111 109 61z"/>
<path d="M5301 693 c-88 -43 -136 -132 -129 -235 5 -81 31 -133 81 -166 36
-24 50 -27 123 -27 75 0 86 3 125 30 49 35 75 74 66 99 -6 15 -9 15 -35 -4
-42 -31 -103 -42 -148 -27 -45 15 -70 48 -78 104 l-6 42 132 3 133 3 3 45 c4
56 -26 106 -78 132 -45 23 -143 23 -189 1z m118 -52 c5 -9 11 -32 13 -51 l3
-35 -62 -3 -63 -3 0 31 c0 65 83 111 109 61z"/>
<path d="M5755 700 c-16 -4 -47 -11 -67 -14 -48 -9 -54 -40 -9 -49 22 -5 30
-13 35 -38 8 -41 8 -173 0 -233 -6 -41 -10 -47 -38 -54 -17 -5 -32 -16 -34
-25 -3 -15 11 -17 143 -17 134 0 146 1 143 17 -2 11 -15 20 -33 23 -36 6 -42
27 -44 147 -2 127 28 181 77 143 34 -27 67 -25 91 6 26 33 27 58 1 84 -33 33
-74 26 -125 -21 l-44 -40 -3 38 c-3 34 -6 38 -33 40 -16 1 -43 -2 -60 -7z"/>
<path d="M6400 695 c-81 -37 -130 -120 -130 -223 0 -135 70 -212 195 -212 84
0 175 56 175 107 0 29 -4 29 -45 -3 -61 -46 -136 -29 -171 38 -23 44 -23 181
-1 224 30 58 79 50 97 -17 7 -26 19 -44 35 -51 82 -37 119 69 43 124 -42 29
-146 36 -198 13z"/>
<path d="M6855 691 c-82 -38 -125 -111 -125 -212 0 -73 18 -116 70 -163 48
-43 105 -59 191 -54 83 4 152 43 183 103 28 54 33 153 12 210 -21 53 -81 110
-133 124 -60 17 -153 13 -198 -8z m152 -57 c30 -33 45 -94 45 -179 0 -82 -12
-118 -46 -140 -21 -14 -29 -15 -52 -3 -58 28 -88 129 -73 247 12 105 69 138
126 75z"/>
<path d="M2910 682 c0 -10 12 -22 29 -28 24 -10 34 -27 76 -135 95 -248 98
-254 126 -257 33 -4 39 5 79 113 18 50 37 101 42 115 9 22 15 11 60 -103 l50
-128 31 3 c31 3 34 7 88 143 91 225 96 235 136 251 59 25 36 39 -70 42 -91 3
-97 1 -97 -17 0 -13 8 -21 23 -23 33 -5 32 -33 -6 -138 l-34 -94 -41 104 c-22
58 -44 117 -47 133 -6 22 -13 27 -40 27 l-32 0 -43 -122 c-23 -68 -46 -126
-49 -130 -9 -11 -74 190 -67 208 3 8 15 14 26 14 13 0 20 7 20 20 0 19 -7 20
-130 20 -118 0 -130 -2 -130 -18z"/>
<path d="M4240 685 c0 -9 11 -20 24 -25 34 -12 45 -32 120 -207 35 -83 72
-163 81 -176 14 -22 14 -28 -4 -70 -21 -49 -44 -67 -86 -67 -42 0 -65 -17 -65
-48 0 -38 17 -52 64 -52 73 0 95 28 181 230 130 308 160 368 192 382 31 14 44
28 37 40 -3 4 -45 8 -95 8 -82 0 -89 -1 -89 -20 0 -13 7 -20 20 -20 35 0 33
-23 -10 -120 -66 -150 -55 -148 -111 -24 -27 60 -49 115 -49 122 0 7 11 17 25
22 14 5 25 16 25 25 0 13 -20 15 -130 15 -110 0 -130 -2 -130 -15z"/>
<path d="M6060 380 c-26 -26 -26 -81 -2 -103 25 -23 78 -21 102 3 26 26 26 81
2 103 -25 23 -78 21 -102 -3z"/>
</g>
</svg>
