<?xml version="1.0" standalone="no"?>
<!DOCTYPE svg PUBLIC "-//W3C//DTD SVG 20010904//EN"
 "http://www.w3.org/TR/2001/REC-SVG-20010904/DTD/svg10.dtd">
<svg version="1.0" xmlns="http://www.w3.org/2000/svg"
 width="350.000000pt" height="49.000000pt" viewBox="0 0 350.000000 49.000000"
 preserveAspectRatio="xMidYMid meet">
<metadata>
Created by potrace 1.13, written by Peter Selinger 2001-2015
</metadata>
<g transform="translate(0.000000,49.000000) scale(0.100000,-0.100000)"
fill="#000000" stroke="none">
<path d="M944 452 c3 -5 -9 -7 -27 -6 -18 2 -24 1 -14 -2 16 -5 18 -18 15
-155 l-3 -149 33 0 c26 0 32 4 32 21 0 11 -3 18 -7 16 -5 -3 -7 60 -5 139 2
126 1 144 -13 144 -9 0 -14 -4 -11 -8z"/>
<path d="M2394 452 c3 -5 -9 -7 -27 -6 -18 2 -24 1 -14 -2 16 -5 18 -18 15
-155 l-3 -149 37 0 c31 0 35 3 31 20 -3 11 -8 18 -12 16 -3 -2 -5 61 -3 140 3
127 1 144 -13 144 -9 0 -14 -4 -11 -8z"/>
<path d="M59 433 c22 -4 23 -8 17 -51 -3 -26 -8 -83 -12 -127 -4 -44 -11 -88
-16 -98 -7 -14 -4 -17 17 -17 15 0 24 4 20 10 -4 6 -11 8 -16 5 -5 -4 -5 5 1
20 6 15 10 54 10 88 0 73 7 104 25 111 9 3 11 -2 7 -16 -3 -14 -1 -19 6 -14 8
5 10 1 5 -10 -4 -11 -3 -15 4 -11 7 5 9 -1 5 -15 -3 -13 -1 -19 5 -15 7 5 9
-1 5 -15 -3 -11 -1 -19 4 -16 5 4 10 -4 11 -15 0 -12 11 -44 23 -71 l22 -49
44 103 c25 57 43 105 41 107 -3 2 -14 -21 -27 -52 -12 -30 -27 -55 -32 -55 -5
0 -6 -6 -2 -12 5 -9 3 -9 -9 1 -9 7 -15 17 -12 21 8 12 -36 120 -46 114 -5 -3
-6 3 -2 12 4 11 3 15 -4 11 -7 -5 -9 1 -5 15 3 13 1 19 -5 15 -7 -5 -9 0 -6
13 5 18 1 20 -48 19 -30 -1 -43 -4 -30 -6z"/>
<path d="M305 408 c-15 -36 -12 -47 7 -30 10 8 12 -2 10 -50 -2 -33 0 -58 5
-55 4 3 7 -26 5 -64 l-4 -69 35 0 c31 0 34 2 29 25 -2 14 -7 23 -11 21 -3 -2
-5 30 -3 71 2 41 0 73 -5 70 -4 -3 -6 19 -5 48 3 46 7 54 25 58 12 2 0 5 -26
6 -45 1 -49 -1 -62 -31z"/>
<path d="M1768 410 c-3 -16 -1 -30 4 -30 4 0 8 5 8 11 0 19 33 38 67 39 42 0
45 -12 41 -168 l-3 -122 35 0 35 0 -5 143 -5 143 35 3 c28 2 40 -4 58 -26 16
-19 20 -21 13 -7 -7 15 -7 24 1 32 9 9 -24 12 -134 12 l-146 0 -4 -30z"/>
<path d="M773 400 c-20 -8 -21 -16 -22 -126 -1 -73 3 -122 10 -130 15 -18 50
-18 75 0 18 14 18 15 -6 14 -14 -1 -32 -6 -40 -12 -13 -9 -13 -8 -3 5 9 11 13
55 12 137 0 67 -1 122 -2 121 -1 0 -12 -4 -24 -9z"/>
<path d="M508 319 c-10 -5 -18 -19 -18 -30 0 -30 32 -20 41 14 8 29 4 32 -23
16z m9 -24 c0 -8 -4 -12 -9 -9 -5 3 -6 10 -3 15 9 13 12 11 12 -6z"/>
<path d="M565 320 c3 -5 12 -7 19 -4 7 3 19 -3 26 -13 12 -15 12 -16 0 -5 -20
18 -30 15 -30 -9 0 -11 4 -17 10 -14 6 3 7 -1 4 -9 -3 -9 -11 -16 -18 -16 -7
0 -7 -3 1 -8 7 -4 13 -29 14 -55 2 -36 6 -47 16 -43 8 3 11 1 8 -4 -9 -15 28
-12 49 3 18 13 18 14 0 14 -11 0 -21 -4 -24 -8 -3 -4 -4 23 -2 61 5 82 -12
120 -54 120 -14 0 -23 -4 -19 -10z"/>
<path d="M718 323 c6 -2 18 -2 25 0 6 3 1 5 -13 5 -14 0 -19 -2 -12 -5z"/>
<path d="M813 323 c9 -2 25 -2 35 0 9 3 1 5 -18 5 -19 0 -27 -2 -17 -5z"/>
<path d="M1020 319 c-12 -8 -8 -9 15 -7 24 2 29 0 27 -16 -2 -10 0 -16 5 -13
4 3 8 -21 8 -53 0 -32 -3 -56 -7 -53 -5 2 -8 -5 -8 -16 0 -17 6 -21 33 -21
l32 0 -6 86 c-3 58 -10 88 -20 95 -19 12 -60 11 -79 -2z"/>
<path d="M1243 318 c-13 -6 -23 -15 -23 -20 0 -5 5 -6 12 -2 7 4 8 3 4 -5 -4
-6 -12 -9 -17 -6 -16 10 -32 -41 -25 -80 8 -39 52 -75 94 -75 31 0 78 25 86
46 5 14 4 15 -8 5 -19 -16 -105 -21 -114 -7 -3 6 -5 22 -3 35 1 13 -1 21 -6
18 -5 -3 -9 3 -9 13 0 10 5 16 11 13 8 -2 10 7 7 26 -3 25 0 33 19 40 13 5 17
10 9 10 -8 0 -25 -5 -37 -11z"/>
<path d="M1308 323 c6 -2 12 -14 12 -24 0 -13 4 -18 13 -13 6 4 3 -2 -7 -14
l-19 -22 36 0 c30 0 37 4 37 20 0 27 -35 60 -62 59 -13 0 -17 -3 -10 -6z m43
-20 c13 -16 12 -17 -3 -4 -17 13 -22 21 -14 21 2 0 10 -8 17 -17z"/>
<path d="M1423 319 c9 -5 23 -7 30 -3 9 6 9 4 -1 -8 -10 -13 -10 -17 3 -22 9
-3 13 -10 10 -16 -9 -14 4 -52 16 -45 5 3 6 0 4 -8 -7 -16 21 -87 34 -87 5 0
16 18 25 40 20 49 20 54 2 38 -8 -7 -11 -17 -8 -22 3 -5 0 -6 -6 -2 -6 4 -8
14 -5 23 4 9 2 14 -3 11 -5 -4 -9 4 -10 15 -1 12 -5 36 -9 54 -6 26 -4 32 11
36 11 3 -10 5 -46 6 -49 0 -61 -2 -47 -10z"/>
<path d="M1693 323 c9 -2 17 -7 17 -10 0 -20 -35 -113 -42 -113 -5 0 -6 -6 -2
-12 6 -10 4 -10 -8 0 -10 8 -14 21 -10 34 4 16 2 19 -8 13 -8 -5 -11 -4 -7 2
10 15 -15 83 -30 83 -13 0 -21 -15 -38 -69 -6 -21 -5 -22 8 -10 8 8 12 19 9
24 -3 6 -1 6 4 2 5 -5 9 -14 9 -20 0 -25 40 -117 50 -117 11 0 78 150 78 176
0 7 3 11 7 9 3 -2 12 0 20 6 10 6 1 8 -30 8 -25 -1 -37 -3 -27 -6z"/>
<path d="M2070 321 c8 -6 18 -7 22 -5 4 3 5 -3 1 -12 -4 -11 -3 -15 4 -11 7 5
9 -1 5 -15 -4 -16 -2 -19 8 -13 8 5 11 4 7 -2 -9 -14 21 -86 32 -79 4 3 7 -5
7 -17 -1 -16 4 -21 19 -19 12 2 16 0 9 -5 -5 -4 -15 -24 -20 -43 -8 -27 -16
-36 -39 -40 -32 -6 -45 -27 -20 -36 27 -11 51 22 111 158 39 85 66 133 79 139
14 5 8 8 -25 7 -25 0 -37 -2 -27 -5 9 -2 17 -6 17 -8 0 -17 -55 -125 -66 -129
-9 -3 -11 0 -7 11 4 11 2 14 -5 9 -8 -5 -10 -1 -5 10 5 13 3 15 -7 9 -8 -5
-11 -4 -7 2 4 6 0 27 -8 47 -19 44 -19 44 3 49 9 3 -10 5 -43 6 -40 0 -55 -2
-45 -8z"/>
<path d="M2535 299 c-21 -26 -25 -40 -23 -78 2 -28 8 -45 15 -44 6 1 17 -5 25
-15 12 -15 11 -16 -4 -3 -10 7 -18 9 -18 4 0 -12 45 -33 71 -33 29 0 75 26 83
47 6 14 5 16 -5 6 -7 -7 -21 -13 -32 -13 -10 0 -16 -4 -13 -8 2 -4 -4 -8 -14
-8 -10 0 -16 4 -13 9 3 5 -5 7 -18 5 -19 -2 -23 1 -21 16 2 12 -1 16 -9 10 -8
-4 -10 -3 -5 5 4 6 7 30 8 54 0 23 7 50 16 60 14 15 14 17 -1 17 -8 0 -27 -14
-42 -31z"/>
<path d="M2610 321 c8 -6 17 -8 21 -5 4 2 3 -12 -1 -31 -8 -34 -7 -35 21 -35
24 0 29 4 29 24 0 32 -25 56 -58 56 -20 0 -23 -3 -12 -9z"/>
<path d="M2760 320 c-18 -6 -20 -8 -7 -9 17 -1 18 -10 15 -86 l-3 -85 33 0
c34 0 34 0 27 40 -4 21 -7 64 -7 95 -1 59 -5 62 -58 45z"/>
<path d="M2842 307 c-12 -13 -22 -27 -22 -33 0 -5 5 -1 11 9 5 9 16 17 24 17
7 0 16 6 19 13 3 6 4 3 3 -8 -3 -28 27 -26 31 3 5 31 -37 30 -66 -1z"/>
<path d="M3069 301 c-24 -24 -29 -38 -29 -75 0 -51 21 -81 65 -92 28 -7 78 10
97 34 12 14 10 14 -17 0 -33 -17 -71 -9 -81 17 -3 8 -9 13 -13 11 -4 -3 -4 22
-1 55 4 37 12 64 20 69 12 8 12 10 2 10 -8 0 -27 -13 -43 -29z m12 -138 c13
-16 12 -17 -3 -4 -17 13 -22 21 -14 21 2 0 10 -8 17 -17z m28 3 c9 -11 9 -16
-1 -22 -7 -4 -10 -4 -6 1 4 4 3 14 -3 22 -6 7 -9 13 -6 13 2 0 10 -6 16 -14z"/>
<path d="M3142 323 c9 -2 19 -15 22 -29 7 -25 30 -32 41 -13 11 17 -26 49 -54
48 -15 -1 -19 -3 -9 -6z m57 -37 c0 -7 -2 -6 -6 2 -2 6 -8 10 -12 8 -4 -3 -8
1 -8 9 0 11 4 12 14 4 7 -6 13 -17 12 -23z"/>
<path d="M3291 304 c-64 -53 -30 -154 57 -170 61 -12 139 40 116 77 -4 8 -3 9
4 5 8 -5 12 0 12 13 0 87 -119 134 -189 75z m152 -15 c20 -21 20 -22 1 -6 -26
21 -34 21 -34 1 0 -8 3 -13 8 -11 4 3 5 -19 4 -49 -4 -55 3 -64 28 -41 12 10
12 9 0 -6 -7 -10 -19 -16 -26 -13 -7 3 -15 -2 -18 -10 -6 -16 -52 -19 -61 -4
-3 5 -11 7 -18 4 -7 -2 -24 8 -37 23 -18 20 -19 23 -4 10 11 -9 24 -14 29 -10
4 5 5 2 1 -4 -4 -7 -2 -13 4 -13 7 0 9 7 6 16 -3 9 -6 25 -6 35 0 11 -4 18 -8
15 -4 -2 -8 4 -8 14 0 10 4 16 8 14 4 -3 8 8 8 24 0 39 8 44 58 39 29 -3 51
-12 65 -28z m-133 17 c0 -2 -8 -10 -17 -17 -16 -13 -17 -12 -4 4 13 16 21 21
21 13z"/>
<path d="M513 220 c-26 -15 -33 -27 -33 -50 0 -23 5 -31 24 -36 14 -3 33 -1
43 5 17 10 17 10 1 11 -10 0 -18 5 -18 11 0 5 -5 7 -10 4 -15 -9 11 48 29 63
23 19 0 14 -36 -8z m7 -14 c0 -2 -7 -7 -16 -10 -8 -3 -12 -2 -9 4 6 10 25 14
25 6z"/>
<path d="M2930 175 c-11 -13 -11 -19 3 -32 21 -21 49 -9 45 19 -4 28 -30 35
-48 13z m36 -6 c10 -17 -13 -36 -27 -22 -12 12 -4 33 11 33 5 0 12 -5 16 -11z"/>
<path d="M2940 160 c0 -5 5 -10 10 -10 6 0 10 5 10 10 0 6 -4 10 -10 10 -5 0
-10 -4 -10 -10z"/>
</g>
</svg>
