<?xml version="1.0" standalone="no"?>
<!DOCTYPE svg PUBLIC "-//W3C//DTD SVG 20010904//EN"
 "http://www.w3.org/TR/2001/REC-SVG-20010904/DTD/svg10.dtd">
<svg version="1.0" xmlns="http://www.w3.org/2000/svg"
 width="220.000000pt" height="31.000000pt" viewBox="0 0 220.000000 31.000000"
 preserveAspectRatio="xMidYMid meet">
<metadata>
Created by potrace 1.13, written by Peter Selinger 2001-2015
</metadata>
<g transform="translate(0.000000,31.000000) scale(0.100000,-0.100000)"
fill="#000000" stroke="none">
<path d="M587 283 c-4 -3 -7 -48 -7 -100 0 -82 2 -93 18 -93 15 0 17 8 15 52
-1 29 -2 74 -3 101 0 44 -7 56 -23 40z"/>
<path d="M1497 283 c-4 -3 -7 -48 -7 -100 0 -88 1 -93 21 -93 15 0 19 4 15 16
-3 9 -6 54 -6 100 0 77 -5 95 -23 77z"/>
<path d="M38 273 c6 -2 12 -19 12 -36 0 -29 1 -30 15 -11 13 16 14 16 9 2 -3
-10 -2 -18 2 -18 5 0 10 -11 10 -25 1 -14 8 -33 15 -42 8 -8 14 -21 15 -27 4
-36 7 -38 19 -11 14 32 11 50 -7 39 -6 -4 -8 -2 -4 4 3 6 2 13 -4 17 -6 4 -8
10 -5 15 3 5 1 11 -4 15 -6 3 -8 12 -5 19 3 7 -2 18 -10 25 -8 7 -12 19 -9 27
4 10 -3 14 -28 13 -19 0 -28 -3 -21 -6z"/>
<path d="M205 270 c3 -5 1 -10 -4 -10 -6 0 -11 -5 -11 -11 0 -5 3 -8 8 -5 4 2
6 -14 4 -36 -3 -22 0 -38 4 -35 5 3 7 -15 5 -39 -3 -39 -1 -44 18 -44 12 0 21
6 21 16 0 8 -3 13 -7 11 -5 -3 -9 30 -10 73 -1 66 1 79 15 83 9 3 2 5 -16 6
-20 1 -31 -3 -27 -9z"/>
<path d="M1145 271 l40 -6 0 -88 c0 -75 2 -87 17 -87 15 0 18 13 20 88 l3 87
27 0 c15 1 30 4 34 8 4 4 -35 6 -87 6 -64 -1 -81 -4 -54 -8z"/>
<path d="M471 169 c-1 -71 1 -78 20 -84 12 -4 26 -2 32 4 8 8 6 11 -6 11 -14
0 -17 10 -17 49 0 43 3 50 23 54 l22 4 -22 2 c-15 1 -23 7 -23 19 0 10 -6 19
-14 19 -11 0 -14 -19 -15 -78z"/>
<path d="M175 219 c-4 -6 -5 -12 -2 -15 2 -3 7 2 10 11 7 17 1 20 -8 4z"/>
<path d="M365 194 c10 -11 13 -20 7 -26 -6 -6 -7 -22 -2 -39 5 -16 9 -33 9
-37 0 -4 7 -9 16 -10 13 -3 15 1 11 15 -3 10 -7 37 -8 60 -1 23 -5 40 -10 37
-4 -3 -8 0 -8 5 0 6 -7 11 -16 11 -14 0 -14 -2 1 -16z"/>
<path d="M655 200 c4 -6 14 -9 24 -5 13 5 14 4 4 -6 -7 -7 -13 -32 -13 -56 0
-35 3 -43 18 -43 16 0 18 6 12 53 -4 28 -7 54 -6 57 1 3 -10 7 -23 8 -15 3
-21 0 -16 -8z"/>
<path d="M779 200 c-21 -12 -33 -58 -20 -73 5 -7 10 -15 10 -19 1 -5 4 -9 8
-10 11 -5 12 35 1 55 -7 14 -7 17 1 13 7 -4 11 1 11 13 0 10 6 22 13 24 6 3 8
6 2 6 -5 0 -17 -4 -26 -9z"/>
<path d="M829 191 c6 -10 7 -21 4 -25 -3 -3 3 -6 15 -6 24 0 25 1 16 24 -3 9
-10 13 -15 10 -5 -3 -9 0 -9 5 0 6 -5 11 -10 11 -7 0 -7 -6 -1 -19z"/>
<path d="M898 203 c6 -2 12 -11 12 -19 0 -9 5 -12 12 -8 6 4 8 3 4 -4 -3 -6
-1 -23 6 -39 6 -15 12 -31 12 -35 1 -3 5 -10 10 -15 5 -4 6 -3 3 3 -4 7 0 14
8 18 8 3 15 11 15 18 0 9 -3 8 -10 -2 -7 -11 -10 -11 -10 -2 0 7 -5 10 -12 6
-7 -5 -8 -3 -2 7 5 8 9 29 9 46 0 31 -2 33 -35 32 -19 0 -29 -3 -22 -6z"/>
<path d="M1056 202 c6 -4 13 -12 15 -17 2 -6 11 -3 22 7 16 17 16 18 -15 18
-18 0 -28 -4 -22 -8z"/>
<path d="M1302 203 c9 -2 20 -17 23 -34 4 -16 11 -27 16 -24 5 4 6 -2 2 -11
-5 -13 -3 -16 10 -11 9 3 19 1 23 -5 4 -6 3 -8 -4 -4 -15 9 -20 -5 -12 -34 l7
-25 12 29 c9 23 9 32 -1 45 -29 36 -37 58 -25 70 8 8 1 11 -28 10 -22 -1 -32
-3 -23 -6z"/>
<path d="M1407 204 c7 -3 9 -13 6 -22 -4 -13 -3 -14 5 -3 5 7 16 17 23 22 10
6 5 8 -16 8 -16 0 -25 -3 -18 -5z"/>
<path d="M1596 194 c-18 -18 -21 -28 -5 -19 6 4 5 -1 -2 -12 -13 -22 -4 -77
11 -68 6 3 10 28 10 55 0 29 5 50 13 53 8 4 9 6 0 6 -6 1 -19 -6 -27 -15z"/>
<path d="M1649 201 c8 -5 11 -16 8 -25 -5 -11 -1 -16 13 -16 11 0 20 6 20 13
0 18 -21 37 -39 37 -13 0 -14 -2 -2 -9z"/>
<path d="M1747 203 c-4 -3 -7 -30 -7 -60 0 -44 3 -53 18 -53 14 0 17 9 15 53
0 28 -2 55 -2 60 -1 9 -15 9 -24 0z"/>
<path d="M1797 204 c-9 -10 2 -24 19 -24 8 0 14 7 14 15 0 15 -21 21 -33 9z"/>
<path d="M1937 199 c-9 -6 -15 -14 -12 -20 4 -5 1 -9 -4 -9 -21 0 -12 -58 11
-74 26 -19 48 -21 48 -5 0 6 -6 9 -13 6 -8 -3 -14 0 -15 6 -1 7 -5 27 -8 45
-4 20 -2 38 6 47 14 17 12 18 -13 4z"/>
<path d="M1980 191 c13 -26 29 -28 26 -3 -2 9 -11 19 -20 20 -15 3 -16 1 -6
-17z"/>
<path d="M2072 191 c-22 -18 -31 -71 -12 -71 6 0 9 -5 8 -12 -2 -7 2 -13 7
-13 6 -1 19 -5 29 -10 31 -14 70 15 73 53 5 63 -58 95 -105 53z m74 1 c-2 -4
-1 -26 4 -49 4 -24 3 -40 -1 -37 -5 3 -9 0 -9 -6 0 -6 -10 -10 -22 -8 -25 3
-39 41 -31 82 4 21 11 26 35 26 16 0 27 -3 24 -8z"/>
<path d="M310 185 c0 -8 4 -15 10 -15 5 0 7 7 4 15 -4 8 -8 15 -10 15 -2 0 -4
-7 -4 -15z"/>
<path d="M993 183 c-3 -10 -8 -22 -11 -27 -3 -5 0 -6 6 -2 11 7 15 -1 38 -64
4 -12 6 -13 14 0 5 8 5 19 0 26 -6 6 -7 14 -3 17 9 10 -18 38 -31 30 -6 -3 -6
0 2 8 15 16 16 29 2 29 -6 0 -13 -8 -17 -17z"/>
<path d="M156 173 c-6 -14 -5 -15 5 -6 7 7 10 15 7 18 -3 3 -9 -2 -12 -12z"/>
<path d="M42 148 c-1 -14 -5 -35 -8 -45 -5 -14 -4 -15 5 -7 7 7 11 26 8 45 -3
28 -4 29 -5 7z"/>
<path d="M1056 143 c-6 -14 -5 -15 5 -6 7 7 10 15 7 18 -3 3 -9 -2 -12 -12z"/>
<path d="M1396 143 c-6 -14 -5 -15 5 -6 7 7 10 15 7 18 -3 3 -9 -2 -12 -12z"/>
<path d="M307 133 c-13 -12 -7 -41 9 -47 24 -9 28 -7 15 7 -6 8 -8 17 -4 20 3
4 0 7 -8 7 -11 0 -11 2 1 10 8 5 10 10 4 10 -6 0 -14 -3 -17 -7z"/>
<path d="M837 105 c-15 -8 -25 -9 -21 -3 4 6 1 9 -6 6 -8 -2 -16 -10 -18 -16
-6 -19 34 -14 59 8 29 23 24 25 -14 5z"/>
<path d="M1657 105 c-15 -8 -25 -9 -21 -3 4 6 1 9 -5 7 -7 -3 -12 -9 -12 -14
0 -18 28 -16 52 4 29 24 24 26 -14 6z"/>
<path d="M1851 98 c1 -19 2 -20 6 -4 4 15 7 16 15 5 8 -12 9 -12 6 0 -7 25
-28 24 -27 -1z"/>
<path d="M1336 40 c-17 -6 -18 -7 -3 -13 9 -3 19 -2 23 4 9 15 2 18 -20 9z"/>
</g>
</svg>
