<?xml version="1.0" standalone="no"?>
<!DOCTYPE svg PUBLIC "-//W3C//DTD SVG 20010904//EN"
 "http://www.w3.org/TR/2001/REC-SVG-20010904/DTD/svg10.dtd">
<svg version="1.0" xmlns="http://www.w3.org/2000/svg"
 width="836.000000pt" height="120.000000pt" viewBox="0 0 836.000000 120.000000"
 preserveAspectRatio="xMidYMid meet">
<metadata>
Created by potrace 1.13, written by Peter Selinger 2001-2015
</metadata>
<g transform="translate(0.000000,120.000000) scale(0.100000,-0.100000)"
fill="#000000" stroke="none">
<path d="M487 1070 c-80 -14 -191 -73 -253 -134 -66 -67 -120 -175 -135 -270
-31 -197 81 -405 264 -492 141 -67 273 -67 414 0 139 66 240 204 264 360 31
196 -81 405 -264 492 -103 49 -186 61 -290 44z m246 -79 c67 -26 162 -109 201
-176 122 -207 38 -484 -179 -591 -124 -61 -284 -57 -400 12 -66 38 -150 134
-176 201 -33 83 -33 243 0 326 25 63 108 161 168 198 101 63 267 76 386 30z"/>
<path d="M390 720 l0 -60 60 0 60 0 0 60 0 60 -60 0 -60 0 0 -60z"/>
<path d="M630 720 l0 -60 60 0 60 0 0 60 0 60 -60 0 -60 0 0 -60z"/>
<path d="M450 390 l0 -30 120 0 120 0 0 30 0 30 -120 0 -120 0 0 -30z"/>
<path d="M2985 954 c-27 -7 -69 -13 -92 -13 -31 -1 -43 -5 -43 -16 0 -9 9 -15
23 -15 46 0 47 -8 47 -297 0 -260 -1 -274 -20 -293 -11 -11 -29 -20 -40 -20
-11 0 -20 -7 -20 -15 0 -13 21 -15 130 -15 109 0 130 2 130 15 0 8 -4 15 -9
15 -5 0 -17 7 -25 16 -13 12 -16 41 -16 153 l0 137 35 17 c47 22 81 21 105 -3
18 -18 20 -33 20 -154 0 -109 -3 -138 -16 -150 -8 -9 -22 -16 -30 -16 -8 0
-14 -7 -14 -15 0 -13 22 -15 135 -15 113 0 135 2 135 15 0 8 -9 15 -20 15 -11
0 -29 9 -40 20 -18 18 -20 34 -21 143 0 67 -6 140 -12 161 -26 85 -109 104
-215 49 l-62 -32 0 159 c0 87 -3 161 -7 163 -5 2 -30 -2 -58 -9z"/>
<path d="M5995 954 c-27 -7 -69 -13 -92 -13 -31 -1 -43 -5 -43 -16 0 -9 9 -15
23 -15 46 0 47 -8 47 -297 0 -260 -1 -274 -20 -293 -11 -11 -29 -20 -40 -20
-11 0 -20 -7 -20 -15 0 -13 22 -15 140 -15 105 0 140 3 140 13 0 6 -15 19 -33
27 l-32 15 -3 315 c-1 173 -6 317 -10 320 -4 4 -29 1 -57 -6z"/>
<path d="M4669 856 c-9 -56 -9 -70 2 -77 10 -6 19 3 33 32 23 50 59 69 131 69
50 0 56 -2 65 -26 6 -14 10 -135 10 -270 0 -231 -1 -245 -20 -264 -11 -11 -33
-20 -50 -20 -20 0 -30 -5 -30 -15 0 -13 26 -15 170 -15 144 0 170 2 170 15 0
10 -10 15 -30 15 -17 0 -39 9 -50 20 -19 19 -20 33 -20 264 0 135 4 256 10
270 8 23 15 26 55 26 61 0 103 -23 121 -66 18 -42 44 -46 44 -5 0 15 -3 48 -6
72 l-6 44 -294 0 -293 0 -12 -69z"/>
<path d="M1107 913 c-14 -13 -6 -23 17 -23 39 0 56 -25 51 -73 -3 -23 -14
-139 -26 -257 -21 -222 -26 -241 -70 -255 -11 -4 -19 -13 -19 -21 0 -11 20
-14 100 -14 82 0 100 3 100 15 0 8 -11 17 -25 21 -48 12 -49 18 -35 249 7 118
16 215 19 215 3 0 49 -112 102 -248 61 -159 101 -248 111 -250 11 -2 43 64
123 260 60 145 111 267 115 271 4 4 13 -100 20 -232 14 -257 12 -266 -33 -273
-12 -2 -21 -7 -20 -13 2 -6 59 -11 138 -13 111 -2 135 0 135 11 0 8 -14 17
-30 21 -18 3 -34 14 -40 28 -5 13 -16 137 -26 277 -16 245 -16 255 2 268 10 7
26 13 36 13 10 0 18 7 18 15 0 12 -18 15 -98 15 l-97 0 -94 -226 c-57 -136
-97 -221 -102 -213 -4 7 -45 108 -91 226 l-83 213 -96 0 c-53 0 -99 -3 -102
-7z"/>
<path d="M2604 834 c-45 -16 -54 -32 -54 -96 0 -33 -3 -37 -27 -40 -20 -2 -29
-9 -31 -25 -3 -20 1 -23 27 -23 l30 0 3 -165 c3 -164 3 -165 30 -192 23 -23
36 -27 81 -27 57 0 122 29 122 55 0 10 -11 13 -42 11 -58 -5 -63 9 -63 177 l0
140 58 3 c50 3 57 6 60 26 3 21 0 22 -57 22 l-61 0 0 75 c0 84 -1 85 -76 59z"/>
<path d="M2116 696 c-54 -20 -89 -48 -100 -79 -12 -33 6 -57 43 -57 43 0 56
15 56 62 0 42 1 43 37 46 30 3 40 -1 54 -23 9 -14 19 -47 21 -73 l5 -47 -84
-28 c-104 -36 -145 -66 -154 -113 -20 -108 93 -158 198 -89 45 30 44 30 51 5
5 -21 44 -40 81 -40 32 0 111 43 111 60 0 10 -11 15 -35 15 l-35 0 -5 135 c-6
151 -19 188 -71 216 -44 22 -126 27 -173 10z m92 -358 c-48 -37 -98 -13 -98
47 0 42 25 71 75 88 l40 14 3 -66 c3 -58 1 -67 -20 -83z"/>
<path d="M3632 697 c-49 -18 -99 -63 -124 -110 -32 -63 -31 -167 2 -227 42
-75 119 -110 210 -95 63 11 163 95 146 123 -3 5 -27 -1 -53 -14 -54 -28 -118
-31 -152 -8 -28 20 -51 72 -51 114 l0 30 119 0 c137 0 147 5 136 70 -17 98
-129 154 -233 117z m74 -35 c19 -12 34 -49 34 -81 l0 -31 -65 0 -66 0 7 38
c11 60 56 97 90 74z"/>
<path d="M6352 697 c-49 -18 -99 -63 -124 -110 -32 -63 -31 -167 2 -227 42
-75 119 -110 210 -95 63 11 163 95 146 123 -3 5 -27 -1 -53 -14 -54 -28 -118
-31 -152 -8 -28 20 -51 72 -51 114 l0 30 119 0 c137 0 147 5 136 70 -17 98
-129 154 -233 117z m74 -35 c19 -12 34 -49 34 -81 l0 -31 -65 0 -66 0 7 38
c11 60 56 97 90 74z"/>
<path d="M6758 691 c-80 -16 -101 -35 -53 -47 33 -8 36 -25 33 -184 l-3 -135
-32 -14 c-18 -8 -33 -21 -33 -28 0 -10 30 -13 135 -13 113 0 135 2 135 15 0 8
-9 15 -19 15 -43 0 -51 24 -51 156 0 111 2 126 20 144 24 24 43 25 60 5 7 -8
25 -15 40 -15 57 0 82 75 35 106 -35 23 -72 11 -115 -36 l-35 -39 -10 41 c-5
23 -14 42 -20 43 -5 1 -45 -5 -87 -14z"/>
<path d="M7466 698 c-60 -16 -121 -81 -141 -152 -50 -173 79 -324 237 -277 43
13 118 75 118 97 0 19 -5 18 -48 -11 -104 -71 -201 24 -190 186 6 78 29 122
67 127 30 5 49 -13 61 -60 17 -62 84 -72 104 -15 13 35 -14 73 -67 98 -46 20
-82 22 -141 7z"/>
<path d="M7918 695 c-130 -42 -186 -207 -113 -331 81 -138 333 -134 405 6 60
118 13 270 -98 317 -51 21 -141 25 -194 8z m113 -35 c10 -6 29 -30 41 -53 19
-35 22 -59 23 -144 0 -88 -3 -105 -21 -130 -60 -80 -150 -7 -161 131 -13 156
37 239 118 196z"/>
<path d="M3920 685 c0 -8 11 -17 25 -21 32 -8 41 -25 116 -222 33 -86 67 -164
75 -172 26 -26 47 2 94 123 25 64 48 119 51 122 3 3 28 -51 54 -121 70 -184
84 -181 167 27 76 192 94 225 129 239 16 7 29 19 29 26 0 11 -20 14 -90 14
-69 0 -90 -3 -90 -13 0 -8 11 -19 25 -25 14 -6 25 -18 25 -26 0 -28 -73 -217
-80 -209 -4 4 -28 62 -53 128 -42 112 -47 120 -74 123 -27 3 -29 0 -72 -123
-24 -69 -47 -127 -52 -130 -6 -4 -79 198 -79 220 0 2 14 12 30 20 17 9 28 20
25 25 -4 6 -62 10 -131 10 -103 0 -124 -3 -124 -15z"/>
<path d="M5280 687 c0 -8 11 -19 25 -25 28 -13 39 -33 105 -187 27 -62 60
-138 75 -168 30 -60 29 -80 -5 -134 -17 -28 -25 -33 -60 -33 -70 0 -102 -62
-47 -91 26 -15 86 3 114 33 12 13 64 123 116 245 114 266 133 302 174 328 56
35 43 45 -57 45 -73 0 -90 -3 -90 -15 0 -8 6 -15 13 -15 7 0 21 -6 31 -13 16
-12 14 -21 -36 -135 -29 -67 -56 -122 -59 -122 -5 0 -109 232 -109 244 0 4 11
11 25 16 14 5 25 16 25 25 0 13 -19 15 -120 15 -94 0 -120 -3 -120 -13z"/>
<path d="M7105 375 c-14 -13 -25 -33 -25 -45 0 -27 43 -70 70 -70 27 0 70 43
70 70 0 27 -43 70 -70 70 -11 0 -32 -11 -45 -25z"/>
</g>
</svg>
