<?xml version="1.0" standalone="no"?>
<!DOCTYPE svg PUBLIC "-//W3C//DTD SVG 20010904//EN"
 "http://www.w3.org/TR/2001/REC-SVG-20010904/DTD/svg10.dtd">
<svg version="1.0" xmlns="http://www.w3.org/2000/svg"
 width="345.000000pt" height="40.000000pt" viewBox="0 0 345.000000 40.000000"
 preserveAspectRatio="xMidYMid meet">
<metadata>
Created by potrace 1.13, written by Peter Selinger 2001-2015
</metadata>
<g transform="translate(0.000000,40.000000) scale(0.100000,-0.100000)"
fill="#000000" stroke="none">
<path d="M848 382 c-43 -4 -45 -7 -22 -29 13 -13 15 -35 12 -119 -3 -89 -6
-105 -23 -118 -19 -14 -15 -15 43 -16 l63 0 -15 22 c-9 12 -16 42 -16 65 0 36
4 45 25 55 19 8 28 8 40 -2 21 -17 20 -98 -2 -122 -15 -17 -13 -18 47 -18 l64
0 -22 20 c-18 17 -22 32 -22 79 0 82 -19 94 -107 66 -21 -7 -22 -4 -25 56 l-3
64 -37 -3z"/>
<path d="M2150 370 c0 -5 7 -10 15 -10 12 0 15 -19 15 -114 0 -106 -1 -115
-22 -129 -22 -15 -20 -16 45 -16 38 -1 67 3 67 9 0 6 -7 10 -15 10 -13 0 -15
21 -15 130 l0 130 -45 0 c-25 0 -45 -4 -45 -10z"/>
<path d="M1624 361 c-2 -2 -4 -18 -4 -34 l0 -30 21 27 c16 21 28 26 53 24 l31
-3 3 -108 3 -107 -28 -12 -28 -12 43 -4 c23 -2 61 -2 85 0 42 4 42 4 15 16
-28 11 -28 12 -28 106 0 52 3 101 6 110 9 23 50 20 74 -6 23 -25 30 -22 23 12
l-4 25 -131 0 c-71 0 -132 -2 -134 -4z"/>
<path d="M43 348 c14 -12 15 -23 3 -115 -9 -81 -16 -106 -32 -118 -18 -13 -16
-14 29 -15 49 0 56 5 34 24 -10 8 -13 31 -9 89 2 42 7 77 11 77 3 0 24 -43 45
-95 22 -52 43 -95 47 -95 3 0 28 48 55 106 l49 106 7 -38 c13 -76 9 -146 -9
-160 -16 -12 -8 -13 52 -13 68 -1 69 0 49 17 -19 15 -23 31 -29 124 -6 98 -5
107 12 111 10 3 -4 5 -30 6 l-48 1 -41 -86 c-23 -47 -44 -81 -48 -77 -4 4 -21
43 -40 86 l-33 77 -45 0 c-39 0 -43 -2 -29 -12z"/>
<path d="M693 330 c-13 -5 -23 -17 -23 -26 0 -9 -8 -23 -17 -30 -17 -13 -17
-13 0 -14 14 0 17 -10 17 -61 0 -78 11 -99 54 -99 41 0 70 27 34 32 -21 3 -23
9 -26 66 -3 61 -2 62 23 62 14 0 25 5 25 10 0 6 -11 10 -25 10 -21 0 -25 5
-25 30 0 32 -3 34 -37 20z"/>
<path d="M3377 294 c-4 -4 -27 -8 -52 -9 -72 -3 -107 -51 -71 -101 13 -17 12
-21 -2 -37 -12 -13 -13 -22 -6 -34 8 -13 6 -21 -8 -35 -40 -40 16 -85 93 -73
59 10 99 40 99 74 0 38 -11 45 -84 51 -71 6 -88 27 -25 32 32 2 47 9 61 29 19
25 19 28 4 58 -13 24 -14 31 -3 31 7 0 18 -5 25 -12 14 -14 38 4 28 21 -8 12
-49 15 -59 5z m-39 -72 c3 -36 0 -42 -17 -42 -23 0 -36 31 -27 66 11 43 40 27
44 -24z m36 -138 c37 -14 3 -64 -44 -64 -33 0 -60 23 -60 51 0 16 7 19 44 19
24 0 51 -3 60 -6z"/>
<path d="M2575 285 c-5 -2 -23 -6 -40 -10 -26 -6 -27 -8 -12 -16 23 -14 25
-139 2 -139 -8 0 -15 -4 -15 -10 0 -6 27 -10 60 -10 33 0 60 4 60 10 0 6 -7
10 -15 10 -13 0 -15 11 -13 58 l3 57 35 0 c28 0 36 4 38 21 4 30 -22 37 -52
13 -21 -17 -26 -18 -26 -5 0 17 -10 25 -25 21z"/>
<path d="M3105 284 c-5 -1 -23 -5 -40 -9 -26 -6 -27 -8 -12 -16 13 -8 17 -23
17 -68 0 -49 -4 -61 -22 -74 -22 -15 -20 -16 47 -16 60 0 68 1 53 13 -14 10
-18 28 -18 71 l0 57 34 -6 c26 -5 35 -3 40 11 4 9 0 23 -8 32 -14 13 -19 13
-45 -7 -28 -20 -30 -20 -33 -3 -2 10 -7 17 -13 15z"/>
<path d="M458 269 c-25 -14 -23 -49 2 -49 14 0 20 7 20 21 0 15 5 20 23 17 28
-4 39 -58 12 -58 -9 0 -33 -7 -52 -16 -29 -15 -34 -21 -31 -48 2 -25 8 -32 30
-34 15 -2 37 2 50 9 16 9 23 9 26 0 5 -16 67 -14 82 4 10 13 9 15 -9 15 -19 0
-21 6 -21 55 0 42 -5 60 -20 75 -22 22 -82 27 -112 9z m72 -108 c0 -29 -14
-42 -37 -34 -19 7 -16 40 5 52 27 16 32 13 32 -18z"/>
<path d="M1119 251 c-40 -40 -41 -100 -3 -130 34 -27 100 -28 134 -1 31 23 23
33 -16 19 -42 -16 -84 2 -84 36 0 24 3 25 60 25 53 0 60 2 60 20 0 62 -99 82
-151 31z m89 -13 c3 -14 -3 -18 -27 -18 -29 0 -41 17 -24 34 13 13 48 1 51
-16z"/>
<path d="M1290 271 c0 -5 6 -11 13 -14 7 -3 28 -39 47 -81 18 -42 38 -76 45
-76 7 0 23 24 35 52 l23 53 23 -53 c12 -28 29 -52 37 -52 8 0 26 29 42 68 15
37 36 74 46 84 27 24 24 28 -21 28 -38 0 -54 -14 -28 -22 10 -4 9 -14 -1 -46
-8 -23 -17 -42 -20 -42 -4 0 -15 23 -26 50 -11 28 -25 50 -32 50 -8 0 -24 -24
-37 -52 -23 -51 -24 -52 -33 -28 -21 51 -24 70 -14 70 6 0 11 5 11 10 0 6 -25
10 -55 10 -30 0 -55 -4 -55 -9z"/>
<path d="M1890 270 c0 -5 5 -10 10 -10 6 0 29 -39 52 -86 44 -92 44 -116 -1
-122 -25 -4 -39 -28 -25 -42 5 -5 20 -7 33 -3 18 5 35 30 73 112 28 58 62 118
76 134 l26 27 -42 0 c-38 0 -57 -13 -32 -22 7 -2 3 -22 -10 -51 -12 -26 -25
-45 -29 -43 -4 3 -16 24 -27 47 -14 32 -15 44 -6 47 30 10 7 22 -43 22 -30 0
-55 -4 -55 -10z"/>
<path d="M2329 251 c-38 -38 -41 -97 -6 -129 34 -32 97 -30 134 4 22 20 24 24
8 19 -66 -22 -96 -13 -110 33 -6 21 -4 22 59 22 69 0 75 5 55 43 -17 31 -28
37 -72 37 -29 0 -46 -7 -68 -29z m89 -13 c3 -14 -3 -18 -27 -18 -29 0 -41 17
-24 34 13 13 48 1 51 -16z"/>
<path d="M2825 258 c-15 -14 -28 -38 -32 -60 -5 -32 -1 -41 25 -68 26 -25 38
-30 80 -30 82 0 124 52 100 122 -20 57 -123 79 -173 36z m105 -17 c5 -11 10
-40 10 -65 0 -35 -5 -48 -20 -56 -32 -17 -60 19 -60 78 0 27 3 52 7 55 13 14
53 6 63 -12z"/>
<path d="M2694 135 c-4 -9 -2 -21 4 -27 16 -16 47 -5 47 17 0 26 -42 34 -51
10z"/>
</g>
</svg>
