<?xml version="1.0" standalone="no"?>
<!DOCTYPE svg PUBLIC "-//W3C//DTD SVG 20010904//EN"
 "http://www.w3.org/TR/2001/REC-SVG-20010904/DTD/svg10.dtd">
<svg version="1.0" xmlns="http://www.w3.org/2000/svg"
 width="120.000000pt" height="18.000000pt" viewBox="0 0 120.000000 18.000000"
 preserveAspectRatio="xMidYMid meet">
<metadata>
Created by potrace 1.13, written by Peter Selinger 2001-2015
</metadata>
<g transform="translate(0.000000,18.000000) scale(0.100000,-0.100000)"
fill="#000000" stroke="none">
<path d="M285 100 c0 -39 3 -50 16 -50 12 0 15 7 11 26 -4 20 -1 25 9 22 8 -3
14 -15 13 -27 0 -11 5 -21 13 -21 7 0 13 6 13 14 0 28 -12 46 -31 46 -12 0
-19 7 -19 20 0 11 -6 20 -12 20 -9 0 -13 -17 -13 -50z"/>
<path d="M745 100 c0 -38 4 -50 15 -50 12 0 14 11 12 50 -5 67 -27 67 -27 0z"/>
<path d="M20 111 c0 -16 -3 -36 -6 -45 -3 -9 -1 -16 5 -16 6 0 11 15 12 33 l1
32 15 -35 c13 -30 16 -32 24 -17 7 12 6 22 -5 33 -9 8 -16 22 -16 30 0 8 -7
14 -15 14 -10 0 -15 -10 -15 -29z"/>
<path d="M89 119 c-8 -15 -8 -19 0 -15 7 5 11 -4 11 -23 0 -26 4 -31 23 -31
16 0 18 3 8 9 -9 6 -12 21 -9 45 5 41 -14 50 -33 15z"/>
<path d="M578 133 c17 -4 22 -11 22 -38 0 -18 -6 -36 -12 -38 -7 -3 -2 -6 12
-6 24 -1 25 2 22 38 -3 32 0 40 15 44 10 3 -4 5 -32 4 -27 0 -40 -2 -27 -4z"/>
<path d="M234 116 c-11 -28 0 -61 21 -63 11 -2 14 0 8 3 -15 7 -17 41 -4 46 5
2 3 9 -5 16 -12 11 -15 10 -20 -2z"/>
<path d="M1141 111 c-19 -5 -24 -13 -25 -49 -1 -23 1 -42 6 -42 4 0 8 7 8 16
0 10 7 14 18 12 9 -2 16 -10 14 -17 -1 -7 2 -10 8 -6 21 13 10 35 -17 36 -28
0 -28 0 -4 10 14 6 21 15 18 23 -3 8 -1 17 6 20 17 7 -4 5 -32 -3z m9 -21 c0
-5 -4 -10 -10 -10 -5 0 -10 5 -10 10 0 6 5 10 10 10 6 0 10 -4 10 -10z"/>
<path d="M155 100 c-3 -5 -1 -10 4 -10 6 0 11 5 11 10 0 6 -2 10 -4 10 -3 0
-8 -4 -11 -10z"/>
<path d="M185 91 c2 -11 0 -23 -6 -26 -5 -4 -9 -1 -9 4 0 6 -4 11 -10 11 -5 0
-10 -6 -10 -14 0 -10 10 -14 31 -14 26 1 30 4 27 26 -2 14 -8 27 -15 29 -8 3
-11 -3 -8 -16z"/>
<path d="M386 98 c-5 -10 -6 -25 -2 -33 6 -16 41 -21 50 -6 4 5 -3 7 -13 4
-15 -4 -20 1 -23 24 -3 23 -6 25 -12 11z"/>
<path d="M416 96 c3 -9 11 -16 16 -16 13 0 5 23 -10 28 -7 2 -10 -2 -6 -12z"/>
<path d="M463 80 c10 -27 27 -41 27 -22 -1 24 -14 52 -25 52 -11 0 -11 -6 -2
-30z"/>
<path d="M497 96 c-4 -9 -2 -16 3 -16 6 0 10 -7 10 -15 0 -23 16 -18 28 10 15
32 15 46 1 22 -10 -17 -12 -17 -23 -1 -12 15 -13 15 -19 0z"/>
<path d="M660 105 c0 -11 24 -55 31 -55 4 0 10 7 13 16 3 8 2 12 -3 9 -5 -3
-12 4 -16 15 -5 17 -25 29 -25 15z"/>
<path d="M710 99 c0 -5 5 -7 10 -4 6 3 10 8 10 11 0 2 -4 4 -10 4 -5 0 -10 -5
-10 -11z"/>
<path d="M795 90 c-3 -11 -3 -24 0 -30 8 -12 42 -13 49 -1 3 5 -2 8 -12 7 -12
-1 -17 6 -16 22 2 27 -12 29 -21 2z"/>
<path d="M830 95 c0 -8 5 -15 10 -15 6 0 10 7 10 15 0 8 -4 15 -10 15 -5 0
-10 -7 -10 -15z"/>
<path d="M868 80 c-4 -24 -1 -30 14 -30 15 0 18 5 13 19 -4 13 0 23 12 30 16
9 15 10 -8 11 -22 0 -28 -5 -31 -30z"/>
<path d="M964 95 c-9 -21 15 -47 40 -43 15 2 21 10 21 27 0 13 -5 26 -11 28
-7 2 -10 -6 -6 -23 4 -20 1 -25 -9 -22 -8 3 -14 15 -13 27 1 24 -14 28 -22 6z"/>
<path d="M1057 89 c4 -12 0 -25 -8 -30 -11 -6 -8 -9 9 -9 17 0 22 6 22 24 0
13 6 27 13 29 6 3 0 6 -15 6 -22 1 -25 -2 -21 -20z"/>
<path d="M670 30 c-9 -6 -10 -10 -3 -10 6 0 15 5 18 10 8 12 4 12 -15 0z"/>
</g>
</svg>
