<?xml version="1.0" encoding="UTF-8" standalone="no"?><svg width="119" height="99" viewBox="0 0 119 99" xmlns="http://www.w3.org/2000/svg" xmlns:xlink="http://www.w3.org/1999/xlink"><svg width="28.07" height="33" viewBox="0 0 256 301" preserveAspectRatio="xMidYMid" id="android-icon" y="32.66"><path d="M78.39.858a8.824 8.824 0 0 0-4.19 1.09c-4.22 2.337-5.766 7.756-3.43 11.97l9.524 17.197C57.35 45.31 42.147 69.558 42.147 97.233v5.142c-4.407-5.07-10.884-8.27-18.12-8.27C10.766 94.104 0 104.87 0 118.128v74.008c0 13.258 10.767 24.025 24.026 24.025 7.237 0 13.714-3.202 18.12-8.272v10.368c0 13.977 11.437 25.413 25.414 25.413h6.448v32.924c0 13.26 10.767 24.026 24.026 24.026 13.26 0 24.025-10.767 24.025-24.026V243.67h11.155v32.924c0 13.26 10.767 24.026 24.026 24.026 13.26 0 24.026-10.767 24.026-24.026V243.67h6.45c13.975 0 25.412-11.435 25.412-25.412V207.89c4.406 5.07 10.884 8.273 18.12 8.273 13.26 0 24.026-10.767 24.026-24.025v-74.01c0-13.258-10.766-24.024-24.025-24.024-7.238 0-13.716 3.2-18.122 8.27V98.105v-.246c.002-.26 0-.468 0-.625 0-27.67-15.238-51.894-38.174-66.09l9.55-17.224c2.336-4.216.79-9.635-3.428-11.973a8.824 8.824 0 0 0-4.19-1.09c-3.115-.028-6.172 1.613-7.782 4.518l-9.986 18.04c-9.764-3.603-20.388-5.578-31.48-5.578-11.082 0-21.726 1.954-31.482 5.55L86.17 5.375C84.56 2.47 81.505.83 78.39.858z" fill="#FFF"/><path d="M24.026 100.362c-9.894 0-17.767 7.873-17.767 17.767v74.008c0 9.894 7.872 17.767 17.766 17.767 9.894 0 17.768-7.873 17.768-17.767v-74.01c0-9.893-7.874-17.766-17.768-17.766zm207.224 0c-9.895 0-17.768 7.873-17.768 17.767v74.008c0 9.894 7.873 17.767 17.768 17.767 9.894 0 17.767-7.873 17.767-17.767v-74.01c0-9.893-7.873-17.766-17.767-17.766zM98.034 184.818c-9.894 0-17.768 7.873-17.768 17.768v74.008c0 9.894 7.874 17.767 17.768 17.767 9.894 0 17.767-7.872 17.767-17.766v-74.008c0-9.895-7.872-17.768-17.766-17.768zm59.207 0c-9.894 0-17.767 7.873-17.767 17.768v74.008c0 9.894 7.873 17.767 17.768 17.767s17.768-7.872 17.768-17.766v-74.008c0-9.895-7.873-17.768-17.767-17.768z" fill="#A4C639"/><path d="M78.443 7.117a2.47 2.47 0 0 0-1.197.326c-1.267.702-1.683 2.158-.98 3.428l12.517 22.612c-24.08 12.53-40.346 36.34-40.378 63.67H206.87c-.033-27.33-16.298-51.14-40.378-63.67l12.516-22.61c.704-1.27.287-2.727-.98-3.43a2.467 2.467 0 0 0-1.197-.325c-.898-.01-1.75.44-2.23 1.306l-12.68 22.855c-10.372-4.6-22.006-7.183-34.283-7.183-12.277 0-23.91 2.582-34.283 7.183L80.674 8.423a2.486 2.486 0 0 0-2.23-1.306zM48.405 103.41v114.848a19.113 19.113 0 0 0 19.155 19.155h120.155a19.113 19.113 0 0 0 19.155-19.155v-114.85H48.405z" fill="#A4C639"/><path d="M91.068 54.923c-3.617 0-6.612 2.994-6.612 6.61 0 3.62 2.995 6.613 6.612 6.613 3.618 0 6.612-2.994 6.612-6.612 0-3.617-2.994-6.61-6.612-6.61zm73.138 0c-3.618 0-6.612 2.994-6.612 6.61 0 3.62 2.994 6.613 6.612 6.613 3.617 0 6.612-2.994 6.612-6.612 0-3.617-2.995-6.61-6.612-6.61z" fill="#FFF"/></svg><svg width="26.82" height="33" viewBox="0 0 256 315" preserveAspectRatio="xMidYMid" id="apple" x="40"><path d="M213.803 167.03c.442 47.58 41.74 63.413 42.197 63.615-.35 1.116-6.6 22.563-21.757 44.716-13.104 19.154-26.705 38.236-48.13 38.632-21.05.387-27.82-12.484-51.888-12.484-24.06 0-31.582 12.088-51.51 12.87-20.68.784-36.428-20.71-49.64-39.792-27-39.033-47.633-110.3-19.928-158.406 13.763-23.89 38.36-39.017 65.056-39.405 20.307-.387 39.475 13.662 51.89 13.662 12.405 0 35.698-16.895 60.185-14.414 10.25.427 39.026 4.14 57.503 31.186-1.488.922-34.334 20.043-33.977 59.82M174.24 50.2C185.217 36.91 192.607 18.407 190.59 0c-15.826.636-34.962 10.546-46.314 23.828-10.173 11.763-19.082 30.59-16.678 48.633 17.64 1.366 35.66-8.963 46.64-22.26"/></svg><svg width="33" height="33" viewBox="0 0 256 256" preserveAspectRatio="xMidYMid" id="delicious" x="66.82"><path fill="#FFF" d="M0 0h128v128H0z"/><path fill="#333" d="M0 128h128v128H0z"/><path fill="#EEE" d="M128 128h128v128H128z"/><path fill="#39F" d="M128 0h128v128H128z"/></svg><svg width="33" height="33" viewBox="0 0 256 256" preserveAspectRatio="xMidYMid" id="facebook" y="65.66"><path d="M241.87 256c7.803 0 14.13-6.325 14.13-14.128V14.13C256 6.324 249.673 0 241.87 0H14.13C6.323 0 0 6.325 0 14.13V241.87c0 7.803 6.324 14.13 14.13 14.13h227.74" fill="#395185"/><path d="M176.635 256v-99.136h33.277l4.982-38.635h-38.26V93.56c0-11.185 3.108-18.808 19.15-18.808l20.458-.01V40.19c-3.54-.47-15.684-1.523-29.812-1.523-29.498 0-49.692 18.005-49.692 51.07v28.494h-33.362v38.634h33.362V256h39.897" fill="#FFF"/></svg><svg width="33" height="33" viewBox="0 0 256 256" preserveAspectRatio="xMidYMid" id="pinterest" x="33" y="65.66"><path d="M0 128.002c0 52.414 31.518 97.442 76.62 117.24-.36-8.94-.065-19.67 2.227-29.394 2.46-10.39 16.47-69.748 16.47-69.748s-4.09-8.173-4.09-20.252c0-18.97 10.995-33.136 24.687-33.136 11.643 0 17.268 8.745 17.268 19.217 0 11.703-7.465 29.21-11.304 45.425-3.207 13.578 6.808 24.653 20.203 24.653 24.253 0 40.587-31.15 40.587-68.055 0-28.054-18.895-49.052-53.262-49.052-38.828 0-63.017 28.957-63.017 61.3 0 11.153 3.288 19.017 8.438 25.107 2.368 2.797 2.697 3.922 1.84 7.134-.614 2.356-2.024 8.026-2.608 10.273-.852 3.242-3.48 4.4-6.41 3.204-17.883-7.3-26.212-26.886-26.212-48.902 0-36.36 30.666-79.96 91.482-79.96 48.87 0 81.035 35.363 81.035 73.324 0 50.212-27.916 87.725-69.066 87.725-13.82 0-26.818-7.47-31.27-15.955 0 0-7.432 29.492-9.006 35.187-2.713 9.87-8.025 19.733-12.882 27.42a127.897 127.897 0 0 0 36.277 5.25c70.684 0 127.996-57.31 127.996-128.005C256 57.31 198.69 0 128.006 0 57.315 0 0 57.31 0 128.002z" fill="#CB1F27"/></svg><svg width="23.66" height="33" viewBox="0 0 256 357" preserveAspectRatio="xMidYMid" id="reddit" x="66" y="65.66"><path d="M215.787 4.498c10.6 0 19.192 8.593 19.192 19.192 0 10.6-8.593 19.193-19.193 19.193-10.6 0-19.193-8.593-19.193-19.193 0-10.6 8.592-19.192 19.193-19.192M127.888 66.725c60.902 0 110.272 32.22 110.272 71.967s-49.37 71.968-110.272 71.968c-60.9 0-110.27-32.22-110.27-71.968 0-39.747 49.37-71.967 110.27-71.967" fill="#FFF"/><path d="M127.888 210.66c-18.676 0-36.263-3.035-51.68-8.382-2.232 12.394-3.455 25.806-3.455 39.81 0 53.36 17.733 98.026 41.665 110.488h26.942c23.922-12.462 41.664-57.127 41.664-110.488 0-14.004-1.223-27.417-3.456-39.81-15.416 5.347-33.004 8.382-51.68 8.382" fill="#FFF"/><path d="M175.997 324.805c-4.01 0-7.81.704-11.24 1.96-4.71 8.75-10.152 15.854-16.114 20.87.075 1.7.422 3.327.934 4.905h52.856c.56-1.775.964-3.604.964-5.54 0-12.247-12.264-22.195-27.4-22.195M90.94 326.62c-3.328-1.165-6.996-1.815-10.853-1.815-15.128 0-27.383 9.948-27.383 22.194 0 1.936.397 3.765.973 5.54h52.83c.48-1.5.827-3.042.928-4.652-6.114-5.056-11.69-12.3-16.495-21.268M72.753 242.088c0-11.566.847-22.72 2.395-33.24-16.126 6.114-27.823 24.294-27.823 45.774 0 24.003 14.606 43.888 33.675 47.416-5.226-17.404-8.247-37.935-8.247-59.95M180.61 208.715c1.56 10.558 2.414 21.757 2.414 33.373 0 22.04-3.028 42.592-8.267 60.008 19.25-3.338 34.046-23.316 34.046-47.474 0-21.644-11.877-39.934-28.194-45.907M47.428 89.487c-4.466-5.273-11.132-8.625-18.584-8.625-13.446 0-24.346 10.9-24.346 24.347 0 9.924 5.942 18.456 14.46 22.247 3.5-14.568 13.697-27.685 28.47-37.97M227.996 80.862c-7.672 0-14.51 3.552-18.973 9.098 14.545 10.308 24.54 23.394 27.894 37.902 9.03-3.56 15.425-12.357 15.425-22.653 0-13.447-10.9-24.348-24.346-24.348" fill="#FFF"/><path d="M255.922 105.21c0-15.4-12.528-27.928-27.926-27.928a27.784 27.784 0 0 0-19.52 7.964c-.22-.146-.435-.295-.658-.44-20.044-13.083-46.217-20.66-74.22-21.568l16.04-50.7 43.4 10.215c-.012.31-.023.623-.023.937 0 12.557 10.215 22.773 22.772 22.773 12.557 0 22.772-10.216 22.772-22.773 0-12.556-10.216-22.772-22.773-22.772-9.758 0-18.098 6.17-21.334 14.813L148.046 4.808a3.583 3.583 0 0 0-4.234 2.405l-17.7 55.947c-29.477.295-57.172 7.952-78.153 21.646l-.035.023a27.867 27.867 0 0 0-19.08-7.548C13.444 77.282.917 89.81.917 105.21c0 10.027 5.402 19.21 13.966 24.163a51.82 51.82 0 0 0-.847 9.32c0 20.472 12.047 39.61 33.922 53.886 7.324 4.78 15.468 8.824 24.22 12.078-.092.555-.192 1.105-.28 1.662-16.924 7.488-28.155 26.59-28.155 48.302 0 12.275 3.68 24.163 10.358 33.473 6.26 8.728 14.774 14.7 24.15 17.007 1.832 5.818 3.914 11.303 6.222 16.383a37.437 37.437 0 0 0-4.387-.26c-17.073 0-30.964 11.562-30.964 25.774 0 2.093.377 4.268 1.15 6.647a3.58 3.58 0 0 0 3.403 2.473h59.796l.068.036h28.696l.068-.036h60.13a3.58 3.58 0 0 0 3.414-2.505c.77-2.45 1.128-4.552 1.128-6.616 0-14.213-13.897-25.775-30.98-25.775-1.59 0-3.163.1-4.713.298 2.304-5.067 4.384-10.537 6.215-16.34 9.46-2.22 18.06-8.162 24.4-16.917 6.762-9.338 10.485-21.285 10.485-33.644 0-21.934-11.38-41.098-28.533-48.463-.08-.504-.17-1-.252-1.502 8.752-3.254 16.896-7.298 24.22-12.08 21.875-14.275 33.922-33.413 33.922-53.886 0-2.952-.26-5.876-.753-8.762 9.162-4.79 14.935-14.194 14.935-24.72zM215.787 8.077c8.608 0 15.612 7.003 15.612 15.612 0 8.61-7.005 15.613-15.613 15.613S200.174 32.3 200.174 23.69s7.005-15.612 15.613-15.612zm-207.71 97.13c0-11.45 9.317-20.766 20.767-20.766 4.802 0 9.395 1.655 13.063 4.63-12.514 9.518-21.078 20.815-25.15 33.02a20.8 20.8 0 0 1-8.68-16.883zm113.56 108.917c.89.03 1.78.055 2.67.073.175.004.347.01.52.013a173.78 173.78 0 0 0 6.122 0c.173-.002.347-.008.52-.012.892-.018 1.78-.042 2.668-.073l.235-.01c14.865-.547 29.2-2.976 42.365-7.112l.33 2.236a219.924 219.924 0 0 1 1.775 16.19l.016.24c.09 1.27.17 2.54.24 3.814.015.273.026.545.04.818.056 1.1.108 2.198.148 3.3.02.582.034 1.17.05 1.754.023.812.05 1.624.066 2.44.026 1.427.04 2.858.04 4.292 0 1.44-.016 2.874-.042 4.305-.012.652-.032 1.303-.05 1.955-.018.718-.038 1.435-.063 2.15a241.528 241.528 0 0 1-.17 3.813c-.874 16.586-3.52 32.545-7.785 46.735a150.808 150.808 0 0 1-3.516 10.344c-1.943 5.073-4.09 9.757-6.4 14.008-.113.212-.23.42-.345.63-.174.314-.347.628-.522.937-.064.112-.13.224-.193.336-3.692 6.444-7.776 11.805-12.115 15.894-.06.056-.12.11-.177.165a43.042 43.042 0 0 1-1.6 1.425c-1.942 1.648-3.93 3.046-5.95 4.175h-25.26c-1.912-1.068-3.792-2.377-5.633-3.91-.23-.19-.458-.387-.687-.586-.124-.108-.25-.213-.373-.323-.15-.133-.3-.272-.45-.41-4.57-4.162-8.87-9.728-12.734-16.484-.05-.094-.105-.186-.16-.28l-.572-1.027c-.1-.185-.203-.37-.304-.556-2.308-4.247-4.45-8.927-6.39-13.994a151.243 151.243 0 0 1-3.526-10.384c-4.257-14.176-6.898-30.126-7.77-46.698-.02-.373-.04-.744-.056-1.118a217.484 217.484 0 0 1-.178-4.85c-.016-.65-.036-1.3-.048-1.95a237.15 237.15 0 0 1-.043-4.302c0-1.43.015-2.858.04-4.283.016-.795.042-1.587.064-2.38.017-.602.03-1.205.052-1.806.038-1.073.09-2.144.144-3.215l.04-.89c.07-1.243.148-2.484.236-3.722.008-.105.014-.21.02-.315.395-5.44.982-10.822 1.76-16.107l.283-1.917c.022-.15.042-.3.066-.45 13.164 4.136 27.502 6.565 42.37 7.113l.228.01zm-45.815 82.687c-14.55-5.89-24.917-22.897-24.917-42.19 0-17.04 7.76-32.16 19.82-39.614a231.67 231.67 0 0 0-.343 3.17l-.06.6c-.168 1.704-.317 3.416-.45 5.135-.038.505-.078 1.01-.113 1.516a227.296 227.296 0 0 0-.298 5.045c-.032.663-.065 1.326-.09 1.99a233.947 233.947 0 0 0-.15 5.092c-.03 1.51-.05 3.02-.05 4.53a241.932 241.932 0 0 0 .096 6.635c.006.238.01.477.018.715.03.987.068 1.97.11 2.953l.06 1.23c.028.594.058 1.186.092 1.777.028.496.055.992.086 1.488.023.363.05.726.074 1.09.08 1.204.17 2.405.268 3.602l.03.36c1.023 12.178 2.977 23.95 5.816 34.875zm23.062 52.148h-42.43c-.114-.68-.17-1.328-.17-1.96 0-10.265 10.678-18.615 23.804-18.615 2.894 0 5.71.404 8.39 1.2 4.126 7.454 8.733 13.613 13.73 18.41l.363.348c.216.203.428.42.645.617h-4.33zM199.817 347c0 .62-.057 1.268-.175 1.96H152.56c.212-.192.418-.405.63-.602l.405-.39c4.958-4.767 9.534-10.88 13.634-18.264a29.247 29.247 0 0 1 8.767-1.32c13.134 0 23.82 8.35 23.82 18.615zm-14.79-132.192c12.135 7.388 20.196 22.85 20.196 39.814 0 19.523-10.54 36.61-25.31 42.34 2.857-10.947 4.823-22.75 5.852-34.96a225.375 225.375 0 0 0 .27-3.5 208.7 208.7 0 0 0 .11-1.615l.082-1.432c.033-.61.065-1.22.095-1.835a242.01 242.01 0 0 0 .168-4.175c.006-.227.01-.457.017-.686.024-.858.043-1.718.058-2.58l.014-.897c.014-1.062.024-2.127.024-3.195a237.465 237.465 0 0 0-.077-5.883c-.03-1.232-.07-2.46-.118-3.69-.027-.65-.058-1.295-.09-1.943-.045-.955-.095-1.91-.152-2.86-.047-.77-.097-1.54-.15-2.306-.04-.562-.084-1.123-.128-1.684a229.08 229.08 0 0 0-.443-5.025c-.023-.23-.044-.458-.068-.687a216.956 216.956 0 0 0-.353-3.202zM180.8 198.06l-2.406.835c-13.43 4.66-28.398 7.405-43.66 8.04l-.472.02c-.862.032-1.725.057-2.588.077-.225.005-.45.012-.676.016a161.765 161.765 0 0 1-6.22 0c-.225-.004-.448-.01-.673-.016-.864-.02-1.728-.045-2.592-.077l-.466-.02c-15.262-.635-30.232-3.38-43.664-8.04l-2.394-.83c-32.112-11.8-53.793-33.994-53.793-59.373 0-3.368.39-6.678 1.126-9.917l.116-.482c3.216-13.39 12.564-25.794 27.033-35.868l2.318-1.614c19.372-12.646 46.33-20.506 76.098-20.506 30.107 0 57.336 8.038 76.753 20.937l2.313 1.64c14.24 10.093 23.396 22.468 26.477 35.788l.02.087a44.595 44.595 0 0 1 1.13 9.937c0 25.376-21.675 47.566-53.78 59.368zm58.412-75.366c-3.93-12.254-12.376-23.61-24.793-33.197a20.657 20.657 0 0 1 13.576-5.055c11.45 0 20.766 9.316 20.766 20.767 0 7.213-3.645 13.72-9.55 17.484z"/><path d="M89.69 106.693c-9.794 0-18.01 8.217-18.01 18.01 0 9.796 8.216 17.745 18.01 17.745 9.794 0 17.743-7.95 17.743-17.744s-7.95-18.01-17.742-18.01M167.42 106.693c-9.8 0-18.035 8.212-18.035 18.01 0 9.8 8.234 17.745 18.034 17.745 9.8 0 17.742-7.944 17.742-17.744s-7.943-18.01-17.743-18.01" fill="#FF4500"/><path d="M169.05 169.294a3.58 3.58 0 0 0-5.064-.002c-7.007 7-18.597 10.405-35.43 10.405-.048 0-.093.012-.14.014-.047 0-.092-.013-.14-.013-16.833 0-28.42-3.404-35.42-10.404a3.58 3.58 0 0 0-5.063 5.062c8.41 8.413 21.653 12.502 40.483 12.502.048 0 .093-.013.14-.014.047 0 .092.014.14.014 18.827 0 32.072-4.09 40.492-12.5a3.58 3.58 0 0 0 .002-5.063"/></svg><svg width="18.94" height="33" viewBox="0 0 256 446" preserveAspectRatio="xMidYMid" id="tumblr-icon" x="99.82"><path d="M234.576 355.8c-8.28 3.95-24.125 7.387-35.953 7.7-35.64.96-42.56-25.04-42.872-43.92V180.92h89.45v-67.42h-89.114V.042H90.83c-1.07 0-2.945.937-3.19 3.325C83.822 38.093 67.553 99.04 0 123.39v57.532h45.08v145.553c0 49.812 36.757 120.602 133.792 118.95 32.717-.558 69.072-14.283 77.128-26.088L234.576 355.8" fill="#303D4D"/></svg><svg width="40" height="32.66" viewBox="0 0 256 209" preserveAspectRatio="xMidYMid" id="twitter"><path d="M256 25.45c-9.42 4.177-19.542 7-30.166 8.27 10.845-6.5 19.172-16.793 23.093-29.057a105.183 105.183 0 0 1-33.35 12.745C205.994 7.2 192.344.822 177.238.822c-29.007 0-52.524 23.516-52.524 52.52 0 4.117.465 8.125 1.36 11.97-43.65-2.19-82.35-23.1-108.255-54.876-4.52 7.757-7.11 16.78-7.11 26.404 0 18.222 9.274 34.297 23.366 43.716a52.312 52.312 0 0 1-23.79-6.57c-.003.22-.003.44-.003.66 0 25.448 18.104 46.676 42.13 51.5a52.592 52.592 0 0 1-23.718.9c6.683 20.867 26.08 36.052 49.062 36.476-17.975 14.086-40.622 22.483-65.228 22.483-4.24 0-8.42-.25-12.53-.734 23.243 14.903 50.85 23.598 80.51 23.598 96.607 0 149.434-80.03 149.434-149.435 0-2.278-.05-4.543-.152-6.795A106.748 106.748 0 0 0 256 25.45" fill="#55acee"/></svg></svg>