<?xml version="1.0" encoding="utf-8"?>
<!-- Generated by IcoMoon.io -->
<!DOCTYPE svg PUBLIC "-//W3C//DTD SVG 1.1//EN" "http://www.w3.org/Graphics/SVG/1.1/DTD/svg11.dtd">
<svg version="1.1" xmlns="http://www.w3.org/2000/svg" xmlns:xlink="http://www.w3.org/1999/xlink" width="256" height="256" viewBox="0 0 256 256">
<path d="M128 256c70.692 0 128-57.308 128-128s-57.308-128-128-128-128 57.307-128 128 57.307 128 128 128zM128 24c57.438 0 104 46.563 104 104s-46.563 104-104 104-104-46.563-104-104 46.563-104 104-104zM64 80c0-8.837 7.163-16 16-16s16 7.163 16 16c0 8.837-7.163 16-16 16s-16-7.163-16-16zM160 80c0-8.837 7.163-16 16-16s16 7.163 16 16c0 8.837-7.163 16-16 16s-16-7.163-16-16zM181.526 160h16.216c2.311 18.126-8.113 36.132-25.989 42.64-20.726 7.544-43.725-3.179-51.27-23.904-4.527-12.436-18.326-18.87-30.762-14.343-11.391 4.147-17.739 16.075-15.247 27.606h-16.215c-2.31-18.127 8.112-36.132 25.989-42.64 20.726-7.544 43.725 3.179 51.271 23.904 4.526 12.437 18.327 18.87 30.761 14.343 11.391-4.146 17.739-16.075 15.247-27.606z" fill="#444444"></path>
</svg>
