<?xml version="1.0" encoding="utf-8"?>
<!-- Generated by IcoMoon.io -->
<!DOCTYPE svg PUBLIC "-//W3C//DTD SVG 1.1//EN" "http://www.w3.org/Graphics/SVG/1.1/DTD/svg11.dtd">
<svg version="1.1" xmlns="http://www.w3.org/2000/svg" xmlns:xlink="http://www.w3.org/1999/xlink" width="256" height="256" viewBox="0 0 256 256">
<path d="M128 0c-70.692 0-128 57.307-128 128s57.306 128 128 128c70.692 0 128-57.308 128-128s-57.308-128-128-128zM176 64c8.837 0 16 7.163 16 16s-7.163 16-16 16-16-7.163-16-16c0-8.837 7.163-16 16-16zM80 64c8.837 0 16 7.163 16 16s-7.163 16-16 16-16-7.163-16-16c0-8.837 7.163-16 16-16zM171.752 202.64c-20.726 7.545-43.725-3.178-51.27-23.904-4.527-12.435-18.326-18.869-30.762-14.343-11.391 4.147-17.739 16.074-15.247 27.606h-16.215c-2.311-18.127 8.112-36.133 25.989-42.64 20.726-7.545 43.725 3.178 51.27 23.904 4.527 12.435 18.327 18.869 30.762 14.343 11.391-4.146 17.739-16.073 15.247-27.606h16.216c2.31 18.126-8.113 36.133-25.99 42.64z" fill="#444444"></path>
</svg>
