<?xml version="1.0" encoding="utf-8"?>
<!-- Generated by IcoMoon.io -->
<!DOCTYPE svg PUBLIC "-//W3C//DTD SVG 1.1//EN" "http://www.w3.org/Graphics/SVG/1.1/DTD/svg11.dtd">
<svg version="1.1" xmlns="http://www.w3.org/2000/svg" xmlns:xlink="http://www.w3.org/1999/xlink" width="256" height="256" viewBox="0 0 256 256">
<path d="M128 0c-70.692 0-128 57.307-128 128s57.306 128 128 128c70.692 0 128-57.308 128-128s-57.308-128-128-128zM128 208c-12.114 0-23.596-2.699-33.886-7.52l8.29-13.819c7.839 3.428 16.492 5.339 25.595 5.339 23.302 0 43.693-12.454 54.885-31.070l13.72 8.233c-13.991 23.267-39.478 38.836-68.606 38.836zM208 96c0 8.8-7.2 16-16 16h-32c-8.8 0-16-7.2-16-16h-32c0 8.8-7.2 16-16 16h-32c-8.8 0-16-7.2-16-16v-24c0-4.4 3.6-8 8-8h48c4.4 0 8 3.6 8 8v8h32v-8c0-4.4 3.6-8 8-8h48c4.4 0 8 3.6 8 8v24z" fill="#444444"></path>
</svg>
