<?xml version="1.0" encoding="utf-8"?>
<!-- Generated by IcoMoon.io -->
<!DOCTYPE svg PUBLIC "-//W3C//DTD SVG 1.1//EN" "http://www.w3.org/Graphics/SVG/1.1/DTD/svg11.dtd">
<svg version="1.1" xmlns="http://www.w3.org/2000/svg" xmlns:xlink="http://www.w3.org/1999/xlink" width="256" height="256" viewBox="0 0 256 256">
<path d="M128 256c70.692 0 128-57.308 128-128s-57.308-128-128-128-128 57.307-128 128 57.307 128 128 128zM128 24c57.438 0 104 46.563 104 104s-46.563 104-104 104-104-46.563-104-104 46.563-104 104-104zM200 64c4.4 0 8 3.6 8 8v24c0 8.8-7.2 16-16 16h-32c-8.8 0-16-7.2-16-16h-32c0 8.8-7.2 16-16 16h-32c-8.8 0-16-7.2-16-16v-24c0-4.4 3.6-8 8-8h48c4.4 0 8 3.6 8 8v8h32v-8c0-4.4 3.6-8 8-8h48zM128 192c23.302 0 43.693-12.454 54.887-31.070l13.72 8.233c-13.992 23.267-39.479 38.836-68.607 38.836-12.114 0-23.596-2.699-33.885-7.52l8.29-13.82c7.838 3.429 16.491 5.34 25.594 5.34z" fill="#444444"></path>
</svg>
