<?xml version="1.0" encoding="utf-8"?>
<!-- Generated by IcoMoon.io -->
<!DOCTYPE svg PUBLIC "-//W3C//DTD SVG 1.1//EN" "http://www.w3.org/Graphics/SVG/1.1/DTD/svg11.dtd">
<svg version="1.1" xmlns="http://www.w3.org/2000/svg" xmlns:xlink="http://www.w3.org/1999/xlink" width="256" height="256" viewBox="0 0 256 256">
<path d="M128 0c-70.692 0-128 57.307-128 128s57.307 128 128 128 128-57.308 128-128-57.308-128-128-128zM80 184c0 4.418-3.582 8-8 8s-8-3.582-8-8v-16c0-4.418 3.582-8 8-8s8 3.582 8 8v16zM80 136c0 4.418-3.582 8-8 8s-8-3.582-8-8v-16c0-4.418 3.582-8 8-8s8 3.582 8 8v16zM88 96h-32c-4.418 0-8-3.582-8-8s3.582-8 8-8h32c4.418 0 8 3.582 8 8s-3.582 8-8 8zM157.656 211.656c-1.562 1.563-3.609 2.344-5.656 2.344s-4.095-0.781-5.656-2.344c-1.145-1.145-7.355-3.656-18.344-3.656s-17.198 2.511-18.344 3.656c-3.124 3.124-8.189 3.124-11.314 0s-3.124-8.19 0-11.314c7.531-7.53 23.249-8.343 29.657-8.343s22.127 0.813 29.657 8.344c3.125 3.124 3.125 8.189 0 11.313zM192 184c0 4.418-3.582 8-8 8s-8-3.582-8-8v-16c0-4.418 3.582-8 8-8s8 3.582 8 8v16zM192 136c0 4.418-3.582 8-8 8s-8-3.582-8-8v-16c0-4.418 3.582-8 8-8s8 3.582 8 8v16zM200 96h-32c-4.418 0-8-3.582-8-8s3.582-8 8-8h32c4.418 0 8 3.582 8 8s-3.582 8-8 8z" fill="#444444"></path>
</svg>
