<?xml version="1.0" encoding="utf-8"?>
<!-- Generated by IcoMoon.io -->
<!DOCTYPE svg PUBLIC "-//W3C//DTD SVG 1.1//EN" "http://www.w3.org/Graphics/SVG/1.1/DTD/svg11.dtd">
<svg version="1.1" xmlns="http://www.w3.org/2000/svg" xmlns:xlink="http://www.w3.org/1999/xlink" width="256" height="256" viewBox="0 0 256 256">
<path d="M256 16c0-11.379-2.381-22.2-6.663-32-8.394 19.209-24.112 34.483-43.624 42.294-21.548-16.49-48.484-26.294-77.713-26.294s-56.165 9.805-77.713 26.294c-19.512-7.811-35.23-23.085-43.623-42.294-4.282 9.8-6.663 20.621-6.663 32 0 18.394 6.213 35.332 16.647 48.844-10.592 18.635-16.647 40.188-16.647 63.156 0 70.692 57.308 128 128 128s128-57.308 128-128c0-22.968-6.054-44.52-16.647-63.156 10.435-13.513 16.647-30.451 16.647-48.844zM144.024 95.129c0.508-11.864 11.303-19.737 20.398-24.284 8.685-4.343 17.276-6.515 17.637-6.606 4.286-1.072 8.63 1.534 9.702 5.821s-1.535 8.63-5.821 9.701c-4.406 1.112-9.631 3.030-14.234 5.338 2.662 2.858 4.293 6.688 4.293 10.901 0 8.837-7.163 16-16 16s-16-7.163-16-16c0-0.293 0.010-0.583 0.025-0.871zM64.24 70.060c1.072-4.287 5.415-6.893 9.701-5.821 0.362 0.091 8.951 2.263 17.637 6.606 9.095 4.548 19.89 12.421 20.398 24.285 0.016 0.288 0.025 0.579 0.025 0.871 0 8.837-7.163 16-16 16s-16-7.163-16-16c0-4.213 1.632-8.044 4.293-10.901-4.603-2.308-9.828-4.225-14.234-5.338-4.285-1.072-6.892-5.415-5.82-9.701zM128 208c-29.127 0-54.616-15.569-68.606-38.836l20.582-12.349c9.793 16.287 27.636 27.185 48.024 27.185s38.231-10.898 48.024-27.185l20.582 12.349c-13.99 23.267-39.479 38.836-68.606 38.836z" fill="#444444"></path>
</svg>
