<?xml version="1.0" encoding="utf-8"?>
<!-- Generated by IcoMoon.io -->
<!DOCTYPE svg PUBLIC "-//W3C//DTD SVG 1.1//EN" "http://www.w3.org/Graphics/SVG/1.1/DTD/svg11.dtd">
<svg version="1.1" xmlns="http://www.w3.org/2000/svg" xmlns:xlink="http://www.w3.org/1999/xlink" width="256" height="256" viewBox="0 0 256 256">
<path d="M64 164v24c0 2.168 1.832 4 4 4h28v-32h-28c-2.168 0-4 1.832-4 4z" fill="#444444"></path>
<path d="M112 160h32v32h-32v-32z" fill="#444444"></path>
<path d="M188 160h-28v32h28c2.168 0 4-1.832 4-4v-24c0-2.168-1.832-4-4-4z" fill="#444444"></path>
<path d="M128 0c-70.692 0-128 57.307-128 128s57.307 128 128 128 128-57.308 128-128-57.308-128-128-128zM144.024 95.129c0.508-11.864 11.303-19.736 20.398-24.284 8.685-4.343 17.275-6.515 17.637-6.606 4.286-1.072 8.63 1.534 9.702 5.821 1.071 4.286-1.535 8.63-5.821 9.701-4.406 1.112-9.631 3.030-14.234 5.338 2.662 2.858 4.293 6.688 4.293 10.901 0 8.837-7.163 16-16 16s-16-7.163-16-16c0-0.293 0.010-0.582 0.025-0.871zM64.24 70.060c1.072-4.287 5.415-6.893 9.701-5.821 0.362 0.091 8.951 2.263 17.637 6.606 9.095 4.548 19.89 12.421 20.398 24.285 0.016 0.288 0.025 0.579 0.025 0.871 0 8.837-7.163 16-16 16s-16-7.163-16-16c0-4.213 1.632-8.044 4.293-10.901-4.603-2.308-9.828-4.225-14.234-5.338-4.285-1.072-6.892-5.415-5.82-9.701zM208 188c0 11.028-8.972 20-20 20h-120c-11.028 0-20-8.972-20-20v-24c0-11.028 8.972-20 20-20h120c11.028 0 20 8.972 20 20v24z" fill="#444444"></path>
</svg>
