<?xml version="1.0" encoding="utf-8"?>
<!-- Generated by IcoMoon.io -->
<!DOCTYPE svg PUBLIC "-//W3C//DTD SVG 1.1//EN" "http://www.w3.org/Graphics/SVG/1.1/DTD/svg11.dtd">
<svg version="1.1" xmlns="http://www.w3.org/2000/svg" xmlns:xlink="http://www.w3.org/1999/xlink" width="256" height="256" viewBox="0 0 256 256">
<path d="M91.578 70.844c-8.686-4.343-17.275-6.515-17.637-6.606-4.287-1.072-8.63 1.534-9.701 5.821s1.535 8.629 5.82 9.701c4.406 1.112 9.63 3.030 14.234 5.338-2.662 2.858-4.293 6.688-4.293 10.901 0 8.837 7.163 16 16 16s16-7.163 16-16c0-0.293-0.009-0.582-0.025-0.871-0.508-11.864-11.303-19.736-20.398-24.284z" fill="#444444"></path>
<path d="M128 0c-70.692 0-128 57.307-128 128s57.307 128 128 128 128-57.308 128-128-57.308-128-128-128zM59.124 205.916c2.676 1.331 5.689 2.084 8.876 2.084h120c3.186 0 6.199-0.753 8.875-2.084-18.345 16.228-42.457 26.084-68.876 26.084s-50.531-9.856-68.876-26.084zM64 188v-24c0-2.168 1.832-4 4-4h28v32h-28c-2.168 0-4-1.832-4-4zM112 192v-32h32v32h-32zM160 192v-32h28c2.168 0 4 1.832 4 4v24c0 2.168-1.832 4-4 4h-28zM205.916 196.875c1.332-2.677 2.084-5.689 2.084-8.875v-24c0-11.028-8.972-20-20-20h-120c-11.028 0-20 8.972-20 20v24c0 3.186 0.753 6.199 2.084 8.875-16.228-18.345-26.084-42.457-26.084-68.876 0-57.438 46.563-104 104-104s104 46.563 104 104c0 26.419-9.856 50.531-26.084 68.876z" fill="#444444"></path>
<path d="M182.059 64.239c-0.362 0.091-8.952 2.263-17.637 6.606-9.095 4.548-19.889 12.421-20.398 24.285-0.015 0.288-0.024 0.579-0.024 0.871 0 8.837 7.163 16 16 16s16-7.163 16-16c0-4.213-1.631-8.044-4.293-10.901 4.603-2.308 9.827-4.225 14.234-5.338 4.286-1.072 6.892-5.415 5.821-9.701-1.072-4.287-5.416-6.893-9.702-5.821z" fill="#444444"></path>
</svg>
