<?xml version="1.0" encoding="utf-8"?>
<!-- Generated by IcoMoon.io -->
<!DOCTYPE svg PUBLIC "-//W3C//DTD SVG 1.1//EN" "http://www.w3.org/Graphics/SVG/1.1/DTD/svg11.dtd">
<svg version="1.1" xmlns="http://www.w3.org/2000/svg" xmlns:xlink="http://www.w3.org/1999/xlink" width="256" height="256" viewBox="0 0 256 256">
<path d="M128 0c-70.692 0-128 57.307-128 128s57.306 128 128 128c70.692 0 128-57.308 128-128s-57.308-128-128-128zM176 59c15.99 0 29 13.010 29 29 0 1.594-0.137 3.219-0.407 4.828-0.405 2.408-2.489 4.172-4.931 4.172s-4.527-1.764-4.93-4.172c-1.54-9.171-9.417-13.328-18.732-13.328s-17.191 4.156-18.731 13.328c-0.404 2.408-2.489 4.172-4.93 4.172-0 0 0 0-0 0-2.441 0-4.526-1.764-4.93-4.172-0.271-1.609-0.407-3.234-0.407-4.828 0-15.99 13.010-29 29-29zM80 59c15.99 0 29 13.010 29 29 0 1.594-0.137 3.219-0.407 4.828-0.404 2.408-2.489 4.172-4.931 4.172s-4.526-1.764-4.93-4.172c-1.54-9.171-9.418-13.328-18.731-13.328s-17.192 4.156-18.731 13.328c-0.404 2.408-2.489 4.172-4.931 4.172 0 0 0 0 0 0-2.441 0-4.526-1.764-4.931-4.172-0.27-1.609-0.407-3.234-0.407-4.828 0-15.99 13.010-29 29-29zM48 144h48v61.962c-27.523-7.151-48-32.281-48-61.962zM112 208v-64h32v64h-32zM160 205.962v-61.962h48c0 29.68-20.476 54.81-48 61.962z" fill="#444444"></path>
</svg>
