<?xml version="1.0" encoding="utf-8"?>
<!-- Generated by IcoMoon.io -->
<!DOCTYPE svg PUBLIC "-//W3C//DTD SVG 1.1//EN" "http://www.w3.org/Graphics/SVG/1.1/DTD/svg11.dtd">
<svg version="1.1" xmlns="http://www.w3.org/2000/svg" xmlns:xlink="http://www.w3.org/1999/xlink" width="256" height="256" viewBox="0 0 256 256">
<path d="M128 256c70.692 0 128-57.308 128-128s-57.308-128-128-128-128 57.307-128 128 57.307 128 128 128zM128 24c57.438 0 104 46.563 104 104s-46.563 104-104 104-104-46.563-104-104 46.563-104 104-104zM48 128v16c0 35.2 28.8 64 64 64h32c35.2 0 64-28.8 64-64v-16h-160zM96 189.247c-6.635-2.364-12.731-6.206-17.886-11.362-9.102-9.101-14.114-21.135-14.114-33.886h32v45.247zM144 192h-32v-48h32v48zM177.886 177.886c-5.156 5.156-11.252 8.997-17.886 11.362v-45.247h32c0 12.75-5.012 24.785-14.114 33.886zM56.338 96c0.001 0 0 0 0 0 2.442 0 4.527-1.764 4.931-4.172 1.539-9.171 9.417-15.828 18.731-15.828s17.192 6.656 18.731 15.828c0.404 2.408 2.489 4.172 4.93 4.172s4.527-1.764 4.931-4.172c0.27-1.609 0.407-3.234 0.407-4.828 0-15.99-13.010-29-29-29s-29 13.010-29 29c0 1.594 0.137 3.219 0.407 4.828 0.405 2.408 2.49 4.172 4.931 4.172zM152.338 96c0 0 0 0 0 0 2.442 0 4.528-1.764 4.931-4.172 1.54-9.171 9.417-15.828 18.731-15.828s17.191 6.656 18.731 15.828c0.404 2.408 2.489 4.172 4.93 4.172s4.527-1.764 4.93-4.172c0.27-1.609 0.407-3.234 0.407-4.828 0-15.99-13.010-29-29-29s-29 13.010-29 29c0 1.594 0.136 3.219 0.406 4.828 0.406 2.408 2.491 4.172 4.933 4.172z" fill="#444444"></path>
</svg>
