<?xml version="1.0" encoding="utf-8"?>
<!-- Generated by IcoMoon.io -->
<!DOCTYPE svg PUBLIC "-//W3C//DTD SVG 1.1//EN" "http://www.w3.org/Graphics/SVG/1.1/DTD/svg11.dtd">
<svg version="1.1" xmlns="http://www.w3.org/2000/svg" xmlns:xlink="http://www.w3.org/1999/xlink" width="256" height="256" viewBox="0 0 256 256">
<path d="M128 256c70.692 0 128-57.308 128-128s-57.308-128-128-128-128 57.307-128 128 57.307 128 128 128zM128 24c57.438 0 104 46.563 104 104s-46.563 104-104 104-104-46.563-104-104 46.563-104 104-104zM128 149.69c28.988 0 56.558-7.702 80-21.23-3.643 44.609-38.282 79.54-80 79.54-41.717 0-76.356-34.968-80-79.576 23.442 13.528 51.013 21.266 80 21.266zM64 88c0-13.255 7.163-24 16-24s16 10.745 16 24c0 13.255-7.163 24-16 24s-16-10.745-16-24zM160 88c0-13.255 7.163-24 16-24s16 10.745 16 24c0 13.255-7.163 24-16 24s-16-10.745-16-24z" fill="#444444"></path>
</svg>
