<?xml version="1.0" encoding="utf-8"?>
<!-- Generated by IcoMoon.io -->
<!DOCTYPE svg PUBLIC "-//W3C//DTD SVG 1.1//EN" "http://www.w3.org/Graphics/SVG/1.1/DTD/svg11.dtd">
<svg version="1.1" xmlns="http://www.w3.org/2000/svg" xmlns:xlink="http://www.w3.org/1999/xlink" width="256" height="256" viewBox="0 0 256 256">
<path d="M128 0c-70.692 0-128 57.307-128 128s57.307 128 128 128 128-57.308 128-128-57.308-128-128-128zM176 64c8.837 0 16 10.745 16 24s-7.163 24-16 24-16-10.745-16-24 7.163-24 16-24zM80 64c8.837 0 16 10.745 16 24s-7.163 24-16 24-16-10.745-16-24 7.163-24 16-24zM128 224c-41.717 0-76.356-34.968-80-79.576 23.442 13.529 51.013 21.266 80 21.266s56.558-7.702 80-21.23c-3.643 44.609-38.282 79.54-80 79.54z" fill="#444444"></path>
</svg>
