<?xml version="1.0" encoding="utf-8"?>
<!-- Generated by IcoMoon.io -->
<!DOCTYPE svg PUBLIC "-//W3C//DTD SVG 1.1//EN" "http://www.w3.org/Graphics/SVG/1.1/DTD/svg11.dtd">
<svg version="1.1" xmlns="http://www.w3.org/2000/svg" xmlns:xlink="http://www.w3.org/1999/xlink" width="256" height="256" viewBox="0 0 256 256">
<path d="M128 0c-70.692 0-128 57.307-128 128s57.307 128 128 128 128-57.308 128-128-57.308-128-128-128zM176 64c8.837 0 16 7.163 16 16s-7.163 16-16 16-16-7.163-16-16 7.163-16 16-16zM80 64c8.837 0 16 7.163 16 16s-7.163 16-16 16-16-7.163-16-16 7.163-16 16-16zM135.95 169.844c-0.313-0.281-0.62-0.572-0.921-0.873-4.685-4.685-7.028-10.825-7.029-16.966-0.001 6.141-2.344 12.281-7.029 16.966-0.301 0.301-0.609 0.592-0.921 0.873-21.631 19.628-72.049-0.46-72.049-25.844 15.5 10 27.612 2.446 39.029-8.97 9.373-9.373 24.569-9.373 33.941 0 4.685 4.685 7.028 10.825 7.030 16.966 0.001-6.141 2.344-12.281 7.030-16.966 9.373-9.373 24.569-9.373 33.941 0 11.416 11.417 23.529 18.97 39.029 8.97 0 25.383-50.418 45.472-72.050 25.844z" fill="#444444"></path>
</svg>
