<?xml version="1.0" encoding="utf-8"?>
<!-- Generated by IcoMoon.io -->
<!DOCTYPE svg PUBLIC "-//W3C//DTD SVG 1.1//EN" "http://www.w3.org/Graphics/SVG/1.1/DTD/svg11.dtd">
<svg version="1.1" xmlns="http://www.w3.org/2000/svg" xmlns:xlink="http://www.w3.org/1999/xlink" width="256" height="256" viewBox="0 0 256 256">
<path d="M128 0c-70.692 0-128 57.307-128 128s57.306 128 128 128c70.692 0 128-57.308 128-128s-57.308-128-128-128zM160 192h-64v-16h64v16zM176 64c8.837 0 16 7.163 16 16s-7.163 16-16 16-16-7.163-16-16c0-8.837 7.163-16 16-16zM80 64c8.837 0 16 7.163 16 16s-7.163 16-16 16-16-7.163-16-16c0-8.837 7.163-16 16-16z" fill="#444444"></path>
</svg>
