<?xml version="1.0" encoding="utf-8"?>
<!-- Generated by IcoMoon.io -->
<!DOCTYPE svg PUBLIC "-//W3C//DTD SVG 1.1//EN" "http://www.w3.org/Graphics/SVG/1.1/DTD/svg11.dtd">
<svg version="1.1" xmlns="http://www.w3.org/2000/svg" xmlns:xlink="http://www.w3.org/1999/xlink" width="256" height="256" viewBox="0 0 256 256">
<path d="M128 0c-70.692 0-128 57.307-128 128s57.307 128 128 128 128-57.308 128-128-57.308-128-128-128zM77.657 82.656c-3.124 3.124-8.189 3.124-11.314 0s-3.124-8.189 0-11.314c11.132-11.133 32.181-11.133 43.313 0 3.124 3.124 3.124 8.189 0 11.314-1.562 1.563-3.609 2.344-5.657 2.344s-4.094-0.781-5.656-2.344c-4.834-4.833-15.853-4.833-20.686 0zM127.999 208c-17.674 0-32.001-17.909-32.001-40s14.327-40 32.001-40 32.001 17.909 32.001 40-14.327 40-32.001 40zM189.657 82.656c-1.562 1.563-3.609 2.344-5.657 2.344s-4.095-0.781-5.656-2.344c-4.833-4.833-15.853-4.833-20.686 0-3.124 3.124-8.19 3.124-11.314 0s-3.125-8.189 0-11.314c11.132-11.133 32.181-11.133 43.314 0 3.125 3.124 3.125 8.189 0 11.314z" fill="#444444"></path>
</svg>
