<?xml version="1.0" encoding="utf-8"?>
<!-- Generated by IcoMoon.io -->
<!DOCTYPE svg PUBLIC "-//W3C//DTD SVG 1.1//EN" "http://www.w3.org/Graphics/SVG/1.1/DTD/svg11.dtd">
<svg version="1.1" xmlns="http://www.w3.org/2000/svg" xmlns:xlink="http://www.w3.org/1999/xlink" width="256" height="256" viewBox="0 0 256 256">
<path d="M128 256c70.692 0 128-57.308 128-128s-57.308-128-128-128-128 57.307-128 128 57.307 128 128 128zM128 24c57.438 0 104 46.563 104 104s-46.563 104-104 104-104-46.563-104-104 46.563-104 104-104z" fill="#444444"></path>
<path d="M160 168c0 22.091-14.327 40-32.001 40s-32.001-17.909-32.001-40c0-22.091 14.327-40 32.001-40s32.001 17.909 32.001 40z" fill="#444444"></path>
<path d="M104 85c-2.047 0-4.094-0.781-5.656-2.344-4.834-4.833-15.853-4.833-20.686 0-3.124 3.124-8.189 3.124-11.314 0s-3.124-8.189 0-11.314c11.132-11.133 32.181-11.133 43.314 0 3.124 3.124 3.124 8.189 0 11.314-1.562 1.563-3.609 2.344-5.657 2.344z" fill="#444444"></path>
<path d="M184 85c-2.048 0-4.095-0.781-5.656-2.344-4.833-4.833-15.853-4.833-20.686 0-3.124 3.124-8.19 3.124-11.314 0s-3.125-8.189 0-11.314c11.132-11.133 32.181-11.133 43.314 0 3.125 3.124 3.125 8.189 0 11.314-1.562 1.563-3.609 2.344-5.657 2.344z" fill="#444444"></path>
</svg>
