<?xml version="1.0" encoding="utf-8"?>
<!-- Generated by IcoMoon.io -->
<!DOCTYPE svg PUBLIC "-//W3C//DTD SVG 1.1//EN" "http://www.w3.org/Graphics/SVG/1.1/DTD/svg11.dtd">
<svg version="1.1" xmlns="http://www.w3.org/2000/svg" xmlns:xlink="http://www.w3.org/1999/xlink" width="256" height="256" viewBox="0 0 256 256">
<path d="M128 256c70.692 0 128-57.308 128-128s-57.308-128-128-128-128 57.307-128 128 57.307 128 128 128zM128 24c57.438 0 104 46.563 104 104s-46.563 104-104 104-104-46.563-104-104 46.563-104 104-104zM64 80c0-8.837 7.163-16 16-16s16 7.163 16 16c0 8.837-7.163 16-16 16s-16-7.163-16-16zM160 80c0-8.837 7.163-16 16-16s16 7.163 16 16c0 8.837-7.163 16-16 16s-16-7.163-16-16zM176.024 156.815l20.582 12.349c-13.99 23.267-39.479 38.836-68.606 38.836s-54.616-15.569-68.606-38.836l20.582-12.349c9.793 16.287 27.636 27.185 48.025 27.185s38.231-10.898 48.025-27.185z" fill="#444444"></path>
</svg>
