<?xml version="1.0" encoding="utf-8"?>
<!-- Generated by IcoMoon.io -->
<!DOCTYPE svg PUBLIC "-//W3C//DTD SVG 1.1//EN" "http://www.w3.org/Graphics/SVG/1.1/DTD/svg11.dtd">
<svg version="1.1" xmlns="http://www.w3.org/2000/svg" xmlns:xlink="http://www.w3.org/1999/xlink" width="256" height="256" viewBox="0 0 256 256">
<path d="M128 0c-70.692 0-128 57.307-128 128s57.307 128 128 128c70.692 0 128-57.308 128-128s-57.308-128-128-128zM176 64c8.837 0 16 10.745 16 24s-7.163 24-16 24-16-10.745-16-24 7.163-24 16-24zM88 78.016c14.912 0 25.5 5.583 25.5 14.32 0 1.85 0.953 10.748-0.043 12.398-3.707-6.144-13.703-10.547-25.457-10.547s-21.751 4.403-25.457 10.547c-0.995-1.65-0.042-10.549-0.042-12.398 0-8.737 10.589-14.32 25.5-14.32zM125.086 208c-29.811 0-55.965-16.070-70.723-40.238 17.602 13.765 48.633 16.452 81.322 9.994 35.062-6.927 62.278-22.886 72.113-44.148-5.413 41.99-40.38 74.392-82.713 74.392z" fill="#444444"></path>
</svg>
