<?xml version="1.0" encoding="utf-8"?>
<!-- Generated by IcoMoon.io -->
<!DOCTYPE svg PUBLIC "-//W3C//DTD SVG 1.1//EN" "http://www.w3.org/Graphics/SVG/1.1/DTD/svg11.dtd">
<svg version="1.1" xmlns="http://www.w3.org/2000/svg" xmlns:xlink="http://www.w3.org/1999/xlink" width="256" height="256" viewBox="0 0 256 256">
<path d="M128 256c70.692 0 128-57.308 128-128s-57.308-128-128-128-128 57.307-128 128 57.307 128 128 128zM128 24c57.438 0 104 46.563 104 104s-46.563 104-104 104-104-46.563-104-104 46.563-104 104-104zM135.685 177.757c35.062-6.927 62.278-22.886 72.113-44.149-5.413 41.989-40.38 74.392-82.713 74.392-29.811 0-55.965-16.071-70.723-40.237 17.603 13.764 48.633 16.452 81.322 9.994zM160 88c0-13.255 7.163-24 16-24s16 10.745 16 24c0 13.255-7.163 24-16 24s-16-10.745-16-24zM88 92.875c-10.449 0-19.334 3.914-22.629 9.375-0.885-1.466-1.371-8.043-1.371-9.688 0-7.766 10.745-14.063 24-14.063s24 6.296 24 14.063c0 1.644-0.486 8.221-1.371 9.688-3.296-5.461-12.18-9.375-22.629-9.375z" fill="#444444"></path>
</svg>
