<?xml version="1.0" encoding="utf-8"?>
<!-- Generated by IcoMoon.io -->
<!DOCTYPE svg PUBLIC "-//W3C//DTD SVG 1.1//EN" "http://www.w3.org/Graphics/SVG/1.1/DTD/svg11.dtd">
<svg version="1.1" xmlns="http://www.w3.org/2000/svg" xmlns:xlink="http://www.w3.org/1999/xlink" width="128" height="128" viewBox="0 0 128 128">
<path d="M64 0c-35.346 0-64 28.654-64 64s28.653 64 64 64c35.346 0 64-28.654 64-64s-28.654-64-64-64zM88 32c4.418 0 8 3.582 8 8s-3.582 8-8 8-8-3.582-8-8c0-4.418 3.582-8 8-8zM40 32c4.418 0 8 3.582 8 8s-3.582 8-8 8-8-3.582-8-8c0-4.418 3.582-8 8-8zM85.876 101.32c-10.363 3.772-21.862-1.589-25.635-11.952-2.264-6.218-9.163-9.435-15.381-7.171-5.695 2.073-8.87 8.037-7.623 13.803h-8.108c-1.155-9.064 4.056-18.067 12.995-21.32 10.363-3.772 21.863 1.589 25.635 11.952 2.263 6.218 9.163 9.434 15.381 7.171 5.695-2.073 8.87-8.037 7.624-13.803h8.108c1.155 9.063-4.057 18.067-12.995 21.32z" fill="#444444"></path>
</svg>
