<?xml version="1.0" encoding="utf-8"?>
<!-- Generated by IcoMoon.io -->
<!DOCTYPE svg PUBLIC "-//W3C//DTD SVG 1.1//EN" "http://www.w3.org/Graphics/SVG/1.1/DTD/svg11.dtd">
<svg version="1.1" xmlns="http://www.w3.org/2000/svg" xmlns:xlink="http://www.w3.org/1999/xlink" width="128" height="128" viewBox="0 0 128 128">
<path d="M64 128c35.346 0 64-28.654 64-64s-28.654-64-64-64-64 28.654-64 64 28.654 64 64 64zM64 12c28.719 0 52 23.281 52 52s-23.281 52-52 52-52-23.281-52-52 23.281-52 52-52zM100 32c2.2 0 4 1.8 4 4v12c0 4.4-3.6 8-8 8h-16c-4.4 0-8-3.6-8-8h-16c0 4.4-3.6 8-8 8h-16c-4.4 0-8-3.6-8-8v-12c0-2.2 1.8-4 4-4h24c2.2 0 4 1.8 4 4v4h16v-4c0-2.2 1.8-4 4-4h24zM64 96c11.651 0 21.846-6.227 27.443-15.535l6.86 4.117c-6.996 11.634-19.74 19.418-34.303 19.418-6.057 0-11.798-1.35-16.942-3.76l4.145-6.91c3.919 1.714 8.245 2.67 12.797 2.67z" fill="#444444"></path>
</svg>
