<?xml version="1.0" encoding="utf-8"?>
<!-- Generated by IcoMoon.io -->
<!DOCTYPE svg PUBLIC "-//W3C//DTD SVG 1.1//EN" "http://www.w3.org/Graphics/SVG/1.1/DTD/svg11.dtd">
<svg version="1.1" xmlns="http://www.w3.org/2000/svg" xmlns:xlink="http://www.w3.org/1999/xlink" width="128" height="128" viewBox="0 0 128 128">
<path d="M64 0c-35.346 0-64 28.654-64 64s28.654 64 64 64 64-28.654 64-64-28.654-64-64-64zM40 92c0 2.209-1.791 4-4 4s-4-1.791-4-4v-8c0-2.209 1.791-4 4-4s4 1.791 4 4v8zM40 68c0 2.209-1.791 4-4 4s-4-1.791-4-4v-8c0-2.209 1.791-4 4-4s4 1.791 4 4v8zM44 48h-16c-2.209 0-4-1.791-4-4s1.791-4 4-4h16c2.209 0 4 1.791 4 4s-1.791 4-4 4zM78.828 105.828c-0.781 0.781-1.805 1.172-2.828 1.172s-2.047-0.391-2.828-1.172c-0.573-0.573-3.677-1.828-9.172-1.828s-8.599 1.255-9.172 1.828c-1.562 1.562-4.095 1.562-5.657 0s-1.562-4.095 0-5.657c3.765-3.765 11.624-4.171 14.828-4.171s11.063 0.406 14.828 4.172c1.562 1.562 1.562 4.094 0 5.656zM96 92c0 2.209-1.791 4-4 4s-4-1.791-4-4v-8c0-2.209 1.791-4 4-4s4 1.791 4 4v8zM96 68c0 2.209-1.791 4-4 4s-4-1.791-4-4v-8c0-2.209 1.791-4 4-4s4 1.791 4 4v8zM100 48h-16c-2.209 0-4-1.791-4-4s1.791-4 4-4h16c2.209 0 4 1.791 4 4s-1.791 4-4 4z" fill="#444444"></path>
</svg>
