<?xml version="1.0" encoding="utf-8"?>
<!-- Generated by IcoMoon.io -->
<!DOCTYPE svg PUBLIC "-//W3C//DTD SVG 1.1//EN" "http://www.w3.org/Graphics/SVG/1.1/DTD/svg11.dtd">
<svg version="1.1" xmlns="http://www.w3.org/2000/svg" xmlns:xlink="http://www.w3.org/1999/xlink" width="128" height="128" viewBox="0 0 128 128">
<path d="M128 8c0-5.689-1.191-11.1-3.332-16-4.197 9.604-12.056 17.241-21.812 21.147-10.774-8.245-24.242-13.147-38.857-13.147s-28.083 4.902-38.857 13.147c-9.756-3.906-17.615-11.543-21.812-21.147-2.141 4.9-3.332 10.31-3.332 16 0 9.197 3.106 17.666 8.323 24.422-5.296 9.318-8.323 20.094-8.323 31.578 0 35.346 28.654 64 64 64s64-28.654 64-64c0-11.484-3.027-22.26-8.323-31.578 5.217-6.756 8.323-15.226 8.323-24.422zM72.012 47.565c0.254-5.932 5.651-9.868 10.199-12.142 4.343-2.172 8.638-3.258 8.819-3.303 2.143-0.536 4.315 0.767 4.851 2.91s-0.767 4.315-2.91 4.851c-2.203 0.556-4.815 1.515-7.117 2.669 1.331 1.429 2.147 3.344 2.147 5.451 0 4.418-3.582 8-8 8s-8-3.582-8-8c0-0.146 0.005-0.291 0.013-0.436zM32.12 35.030c0.536-2.143 2.708-3.447 4.851-2.91 0.181 0.045 4.476 1.132 8.819 3.303 4.547 2.274 9.945 6.21 10.199 12.142 0.008 0.144 0.012 0.289 0.012 0.435 0 4.418-3.582 8-8 8s-8-3.582-8-8c0-2.107 0.816-4.022 2.147-5.451-2.302-1.154-4.914-2.112-7.117-2.669-2.143-0.536-3.446-2.708-2.91-4.851zM64 104c-14.564 0-27.308-7.784-34.303-19.418l10.291-6.174c4.897 8.144 13.818 13.593 24.012 13.593s19.115-5.449 24.012-13.593l10.291 6.174c-6.995 11.634-19.739 19.418-34.303 19.418z" fill="#444444"></path>
</svg>
