<?xml version="1.0" encoding="utf-8"?>
<!-- Generated by IcoMoon.io -->
<!DOCTYPE svg PUBLIC "-//W3C//DTD SVG 1.1//EN" "http://www.w3.org/Graphics/SVG/1.1/DTD/svg11.dtd">
<svg version="1.1" xmlns="http://www.w3.org/2000/svg" xmlns:xlink="http://www.w3.org/1999/xlink" width="128" height="128" viewBox="0 0 128 128">
<path d="M32 82v12c0 1.084 0.916 2 2 2h14v-16h-14c-1.084 0-2 0.916-2 2z" fill="#444444"></path>
<path d="M56 80h16v16h-16v-16z" fill="#444444"></path>
<path d="M94 80h-14v16h14c1.084 0 2-0.916 2-2v-12c0-1.084-0.916-2-2-2z" fill="#444444"></path>
<path d="M64 0c-35.346 0-64 28.654-64 64s28.654 64 64 64 64-28.654 64-64-28.654-64-64-64zM72.012 47.565c0.254-5.932 5.651-9.868 10.199-12.142 4.343-2.171 8.638-3.258 8.819-3.303 2.143-0.536 4.315 0.767 4.851 2.91s-0.767 4.315-2.91 4.85c-2.203 0.556-4.815 1.515-7.117 2.669 1.331 1.429 2.147 3.344 2.147 5.451 0 4.418-3.582 8-8 8s-8-3.582-8-8c0-0.146 0.005-0.291 0.013-0.435zM32.12 35.030c0.536-2.143 2.708-3.447 4.851-2.91 0.181 0.045 4.476 1.132 8.819 3.303 4.547 2.274 9.945 6.21 10.199 12.142 0.008 0.144 0.012 0.289 0.012 0.435 0 4.418-3.582 8-8 8s-8-3.582-8-8c0-2.107 0.816-4.022 2.147-5.451-2.302-1.154-4.914-2.112-7.117-2.669-2.143-0.536-3.446-2.708-2.91-4.851zM104 94c0 5.514-4.486 10-10 10h-60c-5.514 0-10-4.486-10-10v-12c0-5.514 4.486-10 10-10h60c5.514 0 10 4.486 10 10v12z" fill="#444444"></path>
</svg>
