<?xml version="1.0" encoding="utf-8"?>
<!-- Generated by IcoMoon.io -->
<!DOCTYPE svg PUBLIC "-//W3C//DTD SVG 1.1//EN" "http://www.w3.org/Graphics/SVG/1.1/DTD/svg11.dtd">
<svg version="1.1" xmlns="http://www.w3.org/2000/svg" xmlns:xlink="http://www.w3.org/1999/xlink" width="128" height="128" viewBox="0 0 128 128">
<path d="M45.789 35.422c-4.343-2.171-8.638-3.258-8.819-3.303-2.143-0.536-4.315 0.767-4.851 2.91s0.767 4.315 2.91 4.851c2.203 0.556 4.815 1.515 7.117 2.669-1.331 1.429-2.147 3.344-2.147 5.451 0 4.418 3.582 8 8 8s8-3.582 8-8c0-0.146-0.005-0.291-0.012-0.435-0.254-5.932-5.651-9.868-10.199-12.142z" fill="#444444"></path>
<path d="M64 0c-35.346 0-64 28.654-64 64s28.654 64 64 64 64-28.654 64-64-28.654-64-64-64zM29.562 102.958c1.338 0.665 2.845 1.042 4.438 1.042h60c1.593 0 3.1-0.376 4.438-1.042-9.172 8.114-21.228 13.042-34.438 13.042s-25.265-4.928-34.438-13.042zM32 94v-12c0-1.084 0.916-2 2-2h14v16h-14c-1.084 0-2-0.916-2-2zM56 96v-16h16v16h-16zM80 96v-16h14c1.084 0 2 0.916 2 2v12c0 1.084-0.916 2-2 2h-14zM102.958 98.438c0.666-1.338 1.042-2.844 1.042-4.438v-12c0-5.514-4.486-10-10-10h-60c-5.514 0-10 4.486-10 10v12c0 1.593 0.377 3.1 1.042 4.438-8.114-9.172-13.042-21.228-13.042-34.438 0-28.719 23.281-52 52-52s52 23.281 52 52c0 13.209-4.928 25.265-13.042 34.438z" fill="#444444"></path>
<path d="M91.029 32.12c-0.181 0.045-4.476 1.132-8.819 3.303-4.547 2.274-9.945 6.21-10.199 12.142-0.007 0.144-0.012 0.289-0.012 0.435 0 4.418 3.582 8 8 8s8-3.582 8-8c0-2.107-0.816-4.022-2.147-5.451 2.302-1.154 4.914-2.112 7.117-2.669 2.143-0.536 3.446-2.708 2.91-4.851s-2.708-3.447-4.851-2.91z" fill="#444444"></path>
</svg>
