<?xml version="1.0" encoding="utf-8"?>
<!-- Generated by IcoMoon.io -->
<!DOCTYPE svg PUBLIC "-//W3C//DTD SVG 1.1//EN" "http://www.w3.org/Graphics/SVG/1.1/DTD/svg11.dtd">
<svg version="1.1" xmlns="http://www.w3.org/2000/svg" xmlns:xlink="http://www.w3.org/1999/xlink" width="128" height="128" viewBox="0 0 128 128">
<path d="M64 128c35.346 0 64-28.654 64-64s-28.654-64-64-64-64 28.654-64 64 28.654 64 64 64zM64 12c28.719 0 52 23.281 52 52s-23.281 52-52 52-52-23.281-52-52 23.281-52 52-52zM24 64v8c0 17.6 14.4 32 32 32h16c17.6 0 32-14.4 32-32v-8h-80zM48 94.624c-3.317-1.182-6.365-3.103-8.943-5.681-4.551-4.55-7.057-10.567-7.057-16.943h16v22.624zM72 96h-16v-24h16v24zM88.943 88.943c-2.578 2.578-5.626 4.498-8.943 5.681v-22.624h16c0 6.375-2.506 12.392-7.057 16.943zM28.169 48c0 0 0 0 0 0 1.221 0 2.264-0.882 2.465-2.086 0.77-4.586 4.708-7.914 9.366-7.914s8.596 3.328 9.365 7.914c0.202 1.204 1.245 2.086 2.465 2.086s2.264-0.882 2.465-2.086c0.135-0.804 0.203-1.617 0.203-2.414 0-7.995-6.505-14.5-14.5-14.5s-14.5 6.505-14.5 14.5c0 0.797 0.069 1.609 0.203 2.414 0.203 1.204 1.245 2.086 2.466 2.086zM76.169 48c0 0 0 0 0 0 1.221 0 2.264-0.882 2.466-2.086 0.77-4.586 4.709-7.914 9.365-7.914s8.596 3.328 9.365 7.914c0.202 1.204 1.245 2.086 2.465 2.086s2.263-0.882 2.465-2.086c0.135-0.804 0.204-1.617 0.204-2.414 0-7.995-6.505-14.5-14.5-14.5s-14.5 6.505-14.5 14.5c0 0.797 0.068 1.609 0.203 2.414 0.203 1.204 1.246 2.086 2.466 2.086z" fill="#444444"></path>
</svg>
