<?xml version="1.0" encoding="utf-8"?>
<!-- Generated by IcoMoon.io -->
<!DOCTYPE svg PUBLIC "-//W3C//DTD SVG 1.1//EN" "http://www.w3.org/Graphics/SVG/1.1/DTD/svg11.dtd">
<svg version="1.1" xmlns="http://www.w3.org/2000/svg" xmlns:xlink="http://www.w3.org/1999/xlink" width="128" height="128" viewBox="0 0 128 128">
<path d="M64 0c-35.346 0-64 28.654-64 64s28.653 64 64 64c35.346 0 64-28.654 64-64s-28.654-64-64-64zM88 29.5c7.995 0 14.5 6.505 14.5 14.5 0 0.797-0.068 1.609-0.204 2.414-0.202 1.204-1.245 2.086-2.466 2.086s-2.263-0.882-2.465-2.086c-0.77-4.586-4.709-6.664-9.366-6.664s-8.596 2.078-9.365 6.664c-0.202 1.204-1.245 2.086-2.465 2.086-0 0 0 0-0 0-1.221 0-2.263-0.882-2.465-2.086-0.135-0.804-0.204-1.617-0.204-2.414 0-7.995 6.505-14.5 14.5-14.5zM40 29.5c7.995 0 14.5 6.505 14.5 14.5 0 0.797-0.069 1.609-0.203 2.414-0.202 1.204-1.245 2.086-2.465 2.086s-2.263-0.882-2.465-2.086c-0.77-4.586-4.709-6.664-9.366-6.664s-8.596 2.078-9.366 6.664c-0.202 1.204-1.244 2.086-2.465 2.086 0 0 0 0 0 0-1.221 0-2.263-0.882-2.465-2.086-0.135-0.804-0.204-1.617-0.204-2.414 0-7.995 6.505-14.5 14.5-14.5zM24 72h24v30.981c-13.762-3.576-24-16.141-24-30.981zM56 104v-32h16v32h-16zM80 102.981v-30.981h24c0 14.84-10.238 27.405-24 30.981z" fill="#444444"></path>
</svg>
