<?xml version="1.0" encoding="utf-8"?>
<!-- Generated by IcoMoon.io -->
<!DOCTYPE svg PUBLIC "-//W3C//DTD SVG 1.1//EN" "http://www.w3.org/Graphics/SVG/1.1/DTD/svg11.dtd">
<svg version="1.1" xmlns="http://www.w3.org/2000/svg" xmlns:xlink="http://www.w3.org/1999/xlink" width="128" height="128" viewBox="0 0 128 128">
<path d="M64 0c-35.346 0-64 28.654-64 64s28.654 64 64 64 64-28.654 64-64-28.654-64-64-64zM88 32c4.418 0 8 5.373 8 12s-3.582 12-8 12-8-5.373-8-12 3.582-12 8-12zM40 32c4.418 0 8 5.373 8 12s-3.582 12-8 12-8-5.373-8-12 3.582-12 8-12zM64 112c-20.858 0-38.178-17.484-40-39.788 11.721 6.764 25.506 10.633 40 10.633s28.279-3.851 40-10.615c-1.822 22.305-19.141 39.77-40 39.77z" fill="#444444"></path>
</svg>
