<?xml version="1.0" encoding="utf-8"?>
<!-- Generated by IcoMoon.io -->
<!DOCTYPE svg PUBLIC "-//W3C//DTD SVG 1.1//EN" "http://www.w3.org/Graphics/SVG/1.1/DTD/svg11.dtd">
<svg version="1.1" xmlns="http://www.w3.org/2000/svg" xmlns:xlink="http://www.w3.org/1999/xlink" width="128" height="128" viewBox="0 0 128 128">
<path d="M64 128c35.346 0 64-28.654 64-64s-28.654-64-64-64-64 28.654-64 64 28.654 64 64 64zM64 12c28.719 0 52 23.281 52 52s-23.281 52-52 52-52-23.281-52-52 23.281-52 52-52zM64 74.845c14.494 0 28.279-3.851 40-10.615-1.822 22.305-19.141 39.77-40 39.77s-38.178-17.484-40-39.788c11.721 6.764 25.506 10.633 40 10.633zM32 44c0-6.627 3.582-12 8-12s8 5.373 8 12c0 6.627-3.582 12-8 12s-8-5.373-8-12zM80 44c0-6.627 3.582-12 8-12s8 5.373 8 12c0 6.627-3.582 12-8 12s-8-5.373-8-12z" fill="#444444"></path>
</svg>
