<?xml version="1.0" encoding="utf-8"?>
<!-- Generated by IcoMoon.io -->
<!DOCTYPE svg PUBLIC "-//W3C//DTD SVG 1.1//EN" "http://www.w3.org/Graphics/SVG/1.1/DTD/svg11.dtd">
<svg version="1.1" xmlns="http://www.w3.org/2000/svg" xmlns:xlink="http://www.w3.org/1999/xlink" width="128" height="128" viewBox="0 0 128 128">
<path d="M64 0c-35.346 0-64 28.654-64 64s28.654 64 64 64 64-28.654 64-64-28.654-64-64-64zM88 32c4.418 0 8 3.582 8 8s-3.582 8-8 8-8-3.582-8-8 3.582-8 8-8zM40 32c4.418 0 8 3.582 8 8s-3.582 8-8 8-8-3.582-8-8 3.582-8 8-8zM67.975 84.922c-0.156-0.141-0.31-0.286-0.46-0.436-2.343-2.343-3.514-5.412-3.515-8.483-0.001 3.070-1.172 6.141-3.515 8.483-0.151 0.15-0.304 0.296-0.461 0.436-10.816 9.814-36.025-0.23-36.025-12.922 7.75 5 13.806 1.223 19.515-4.485 4.686-4.686 12.285-4.686 16.971 0 2.343 2.343 3.514 5.412 3.515 8.483 0.001-3.070 1.172-6.141 3.515-8.483 4.686-4.686 12.284-4.686 16.971 0 5.708 5.709 11.764 9.485 19.514 4.485 0 12.692-25.209 22.736-36.025 12.922z" fill="#444444"></path>
</svg>
