<?xml version="1.0" encoding="utf-8"?>
<!-- Generated by IcoMoon.io -->
<!DOCTYPE svg PUBLIC "-//W3C//DTD SVG 1.1//EN" "http://www.w3.org/Graphics/SVG/1.1/DTD/svg11.dtd">
<svg version="1.1" xmlns="http://www.w3.org/2000/svg" xmlns:xlink="http://www.w3.org/1999/xlink" width="128" height="128" viewBox="0 0 128 128">
<path d="M64 128c35.346 0 64-28.654 64-64s-28.654-64-64-64-64 28.654-64 64 28.654 64 64 64zM64 12c28.719 0 52 23.281 52 52s-23.281 52-52 52-52-23.281-52-52 23.281-52 52-52zM32 40c0-4.418 3.582-8 8-8s8 3.582 8 8-3.582 8-8 8-8-3.582-8-8zM80 40c0-4.418 3.582-8 8-8s8 3.582 8 8-3.582 8-8 8-8-3.582-8-8z" fill="#444444"></path>
<path d="M84.485 67.515c-4.686-4.686-12.284-4.686-16.971 0s-4.686 12.284 0 16.971c0.15 0.15 0.304 0.296 0.46 0.436 10.816 9.814 36.025-0.23 36.025-12.922-7.75 5-13.806 1.223-19.515-4.485z" fill="#444444"></path>
<path d="M43.515 67.515c4.686-4.686 12.285-4.686 16.971 0s4.686 12.284 0 16.971c-0.151 0.15-0.304 0.296-0.461 0.436-10.816 9.814-36.025-0.23-36.025-12.922 7.75 5 13.806 1.223 19.515-4.485z" fill="#444444"></path>
</svg>
