<?xml version="1.0" encoding="utf-8"?>
<!-- Generated by IcoMoon.io -->
<!DOCTYPE svg PUBLIC "-//W3C//DTD SVG 1.1//EN" "http://www.w3.org/Graphics/SVG/1.1/DTD/svg11.dtd">
<svg version="1.1" xmlns="http://www.w3.org/2000/svg" xmlns:xlink="http://www.w3.org/1999/xlink" width="128" height="128" viewBox="0 0 128 128">
<path d="M64 128c35.346 0 64-28.654 64-64s-28.654-64-64-64-64 28.654-64 64 28.654 64 64 64zM64 12c28.719 0 52 23.281 52 52s-23.281 52-52 52-52-23.281-52-52 23.281-52 52-52zM48 88c0-8.837 7.163-16 16-16s16 7.163 16 16c0 8.837-7.163 16-16 16s-16-7.163-16-16zM80 44c0-6.627 3.582-12 8-12s8 5.373 8 12c0 6.627-3.582 12-8 12s-8-5.373-8-12zM32 44c0-6.627 3.582-12 8-12s8 5.373 8 12c0 6.627-3.582 12-8 12s-8-5.373-8-12z" fill="#444444"></path>
</svg>
