<?xml version="1.0" encoding="utf-8"?>
<!-- Generated by IcoMoon.io -->
<!DOCTYPE svg PUBLIC "-//W3C//DTD SVG 1.1//EN" "http://www.w3.org/Graphics/SVG/1.1/DTD/svg11.dtd">
<svg version="1.1" xmlns="http://www.w3.org/2000/svg" xmlns:xlink="http://www.w3.org/1999/xlink" width="128" height="128" viewBox="0 0 128 128">
<path d="M64 128c35.346 0 64-28.654 64-64s-28.654-64-64-64-64 28.654-64 64 28.654 64 64 64zM64 12c28.719 0 52 23.281 52 52s-23.281 52-52 52-52-23.281-52-52 23.281-52 52-52z" fill="#444444"></path>
<path d="M80 84c0 11.046-7.163 20-16 20s-16-8.954-16-20c0-11.046 7.163-20 16-20s16 8.954 16 20z" fill="#444444"></path>
<path d="M52 42.5c-1.024 0-2.047-0.391-2.828-1.172-2.417-2.416-7.926-2.416-10.343 0-1.562 1.562-4.095 1.562-5.657 0s-1.562-4.095 0-5.657c5.566-5.566 16.091-5.566 21.657 0 1.562 1.562 1.562 4.095 0 5.657-0.781 0.781-1.805 1.172-2.828 1.172z" fill="#444444"></path>
<path d="M92 42.5c-1.024 0-2.047-0.391-2.828-1.172-2.416-2.416-7.927-2.416-10.343 0-1.562 1.562-4.095 1.562-5.657 0s-1.562-4.095 0-5.657c5.566-5.566 16.091-5.566 21.657 0 1.562 1.562 1.562 4.095 0 5.657-0.781 0.781-1.805 1.172-2.829 1.172z" fill="#444444"></path>
</svg>
