<?xml version="1.0" encoding="utf-8"?>
<!-- Generated by IcoMoon.io -->
<!DOCTYPE svg PUBLIC "-//W3C//DTD SVG 1.1//EN" "http://www.w3.org/Graphics/SVG/1.1/DTD/svg11.dtd">
<svg version="1.1" xmlns="http://www.w3.org/2000/svg" xmlns:xlink="http://www.w3.org/1999/xlink" width="128" height="128" viewBox="0 0 128 128">
<path d="M64 0c-35.346 0-64 28.654-64 64s28.654 64 64 64 64-28.654 64-64-28.654-64-64-64zM38.828 41.328c-1.562 1.562-4.095 1.562-5.657 0s-1.562-4.095 0-5.657c5.566-5.566 16.091-5.566 21.657 0 1.562 1.562 1.562 4.095 0 5.657-0.781 0.781-1.805 1.172-2.828 1.172s-2.047-0.391-2.828-1.172c-2.417-2.416-7.926-2.416-10.343 0zM64 104c-8.837 0-16-8.954-16-20s7.163-20 16-20 16 8.954 16 20-7.163 20-16 20zM94.829 41.328c-0.781 0.781-1.805 1.172-2.829 1.172s-2.047-0.391-2.828-1.172c-2.416-2.416-7.927-2.416-10.343 0-1.562 1.562-4.095 1.562-5.657 0s-1.562-4.095 0-5.657c5.566-5.566 16.091-5.566 21.657 0 1.562 1.562 1.562 4.095 0 5.657z" fill="#444444"></path>
</svg>
