<?xml version="1.0" encoding="utf-8"?>
<!-- Generated by IcoMoon.io -->
<!DOCTYPE svg PUBLIC "-//W3C//DTD SVG 1.1//EN" "http://www.w3.org/Graphics/SVG/1.1/DTD/svg11.dtd">
<svg version="1.1" xmlns="http://www.w3.org/2000/svg" xmlns:xlink="http://www.w3.org/1999/xlink" width="128" height="128" viewBox="0 0 128 128">
<path d="M64 128c35.346 0 64-28.654 64-64s-28.654-64-64-64-64 28.654-64 64 28.654 64 64 64zM64 12c28.719 0 52 23.281 52 52s-23.281 52-52 52-52-23.281-52-52 23.281-52 52-52zM67.843 88.879c17.531-3.463 31.139-11.443 36.057-22.074-2.707 20.995-20.19 37.196-41.356 37.196-14.905 0-27.982-8.035-35.361-20.118 8.801 6.882 24.317 8.226 40.661 4.997zM80 44c0-6.627 3.582-12 8-12s8 5.373 8 12c0 6.627-3.582 12-8 12s-8-5.373-8-12zM44 46.438c-5.224 0-9.667 1.957-11.315 4.688-0.443-0.733-0.686-4.022-0.686-4.844 0-3.883 5.372-7.031 12-7.031s12 3.148 12 7.031c0 0.822-0.243 4.111-0.685 4.844-1.648-2.73-6.090-4.688-11.315-4.688z" fill="#444444"></path>
</svg>
