<?xml version="1.0" encoding="utf-8"?>
<!-- Generated by IcoMoon.io -->
<!DOCTYPE svg PUBLIC "-//W3C//DTD SVG 1.1//EN" "http://www.w3.org/Graphics/SVG/1.1/DTD/svg11.dtd">
<svg version="1.1" xmlns="http://www.w3.org/2000/svg" xmlns:xlink="http://www.w3.org/1999/xlink" width="128" height="128" viewBox="0 0 128 128">
<path d="M64 0c-35.346 0-64 28.654-64 64s28.654 64 64 64c35.346 0 64-28.654 64-64s-28.654-64-64-64zM88 32c4.418 0 8 5.373 8 12s-3.582 12-8 12-8-5.373-8-12 3.582-12 8-12zM44 39.008c7.456 0 12.75 2.791 12.75 7.16 0 0.925 0.477 5.374-0.021 6.199-1.853-3.072-6.851-5.273-12.729-5.273s-10.875 2.202-12.729 5.273c-0.498-0.825-0.021-5.275-0.021-6.199 0-4.369 5.294-7.16 12.75-7.16zM62.543 104c-14.905 0-27.982-8.035-35.361-20.119 8.801 6.882 24.317 8.226 40.661 4.997 17.531-3.463 31.139-11.443 36.057-22.074-2.707 20.995-20.19 37.196-41.356 37.196z" fill="#444444"></path>
</svg>
