<?xml version="1.0" encoding="utf-8"?>
<svg version="1.1" baseProfile="full"  width="530" height="530" viewBox="0 0 530 530"
		 xmlns="http://www.w3.org/2000/svg" xmlns:xlink="http://www.w3.org/1999/xlink" xmlns:ev="http://www.w3.org/2001/xml-events">
<desc></desc>
<rect width="530" height="530" fill="#ffffff" cx="0" cy="0" />
<defs>
<rect id="p" width="10" height="10" />
</defs>
<g fill="#000000">
<use x="20" y="20" xlink:href="#p" />
<use x="20" y="30" xlink:href="#p" />
<use x="20" y="40" xlink:href="#p" />
<use x="20" y="50" xlink:href="#p" />
<use x="20" y="60" xlink:href="#p" />
<use x="20" y="70" xlink:href="#p" />
<use x="20" y="80" xlink:href="#p" />
<use x="20" y="100" xlink:href="#p" />
<use x="20" y="110" xlink:href="#p" />
<use x="20" y="120" xlink:href="#p" />
<use x="20" y="130" xlink:href="#p" />
<use x="20" y="140" xlink:href="#p" />
<use x="20" y="160" xlink:href="#p" />
<use x="20" y="230" xlink:href="#p" />
<use x="20" y="240" xlink:href="#p" />
<use x="20" y="250" xlink:href="#p" />
<use x="20" y="260" xlink:href="#p" />
<use x="20" y="280" xlink:href="#p" />
<use x="20" y="290" xlink:href="#p" />
<use x="20" y="310" xlink:href="#p" />
<use x="20" y="320" xlink:href="#p" />
<use x="20" y="330" xlink:href="#p" />
<use x="20" y="340" xlink:href="#p" />
<use x="20" y="350" xlink:href="#p" />
<use x="20" y="360" xlink:href="#p" />
<use x="20" y="380" xlink:href="#p" />
<use x="20" y="420" xlink:href="#p" />
<use x="20" y="440" xlink:href="#p" />
<use x="20" y="450" xlink:href="#p" />
<use x="20" y="460" xlink:href="#p" />
<use x="20" y="470" xlink:href="#p" />
<use x="20" y="480" xlink:href="#p" />
<use x="20" y="490" xlink:href="#p" />
<use x="20" y="500" xlink:href="#p" />
<use x="30" y="20" xlink:href="#p" />
<use x="30" y="80" xlink:href="#p" />
<use x="30" y="100" xlink:href="#p" />
<use x="30" y="130" xlink:href="#p" />
<use x="30" y="140" xlink:href="#p" />
<use x="30" y="160" xlink:href="#p" />
<use x="30" y="200" xlink:href="#p" />
<use x="30" y="220" xlink:href="#p" />
<use x="30" y="270" xlink:href="#p" />
<use x="30" y="290" xlink:href="#p" />
<use x="30" y="300" xlink:href="#p" />
<use x="30" y="310" xlink:href="#p" />
<use x="30" y="320" xlink:href="#p" />
<use x="30" y="340" xlink:href="#p" />
<use x="30" y="350" xlink:href="#p" />
<use x="30" y="360" xlink:href="#p" />
<use x="30" y="370" xlink:href="#p" />
<use x="30" y="380" xlink:href="#p" />
<use x="30" y="390" xlink:href="#p" />
<use x="30" y="400" xlink:href="#p" />
<use x="30" y="410" xlink:href="#p" />
<use x="30" y="420" xlink:href="#p" />
<use x="30" y="440" xlink:href="#p" />
<use x="30" y="500" xlink:href="#p" />
<use x="40" y="20" xlink:href="#p" />
<use x="40" y="40" xlink:href="#p" />
<use x="40" y="50" xlink:href="#p" />
<use x="40" y="60" xlink:href="#p" />
<use x="40" y="80" xlink:href="#p" />
<use x="40" y="100" xlink:href="#p" />
<use x="40" y="110" xlink:href="#p" />
<use x="40" y="140" xlink:href="#p" />
<use x="40" y="150" xlink:href="#p" />
<use x="40" y="180" xlink:href="#p" />
<use x="40" y="210" xlink:href="#p" />
<use x="40" y="220" xlink:href="#p" />
<use x="40" y="250" xlink:href="#p" />
<use x="40" y="260" xlink:href="#p" />
<use x="40" y="270" xlink:href="#p" />
<use x="40" y="280" xlink:href="#p" />
<use x="40" y="300" xlink:href="#p" />
<use x="40" y="310" xlink:href="#p" />
<use x="40" y="320" xlink:href="#p" />
<use x="40" y="330" xlink:href="#p" />
<use x="40" y="370" xlink:href="#p" />
<use x="40" y="380" xlink:href="#p" />
<use x="40" y="390" xlink:href="#p" />
<use x="40" y="410" xlink:href="#p" />
<use x="40" y="420" xlink:href="#p" />
<use x="40" y="440" xlink:href="#p" />
<use x="40" y="460" xlink:href="#p" />
<use x="40" y="470" xlink:href="#p" />
<use x="40" y="480" xlink:href="#p" />
<use x="40" y="500" xlink:href="#p" />
<use x="50" y="20" xlink:href="#p" />
<use x="50" y="40" xlink:href="#p" />
<use x="50" y="50" xlink:href="#p" />
<use x="50" y="60" xlink:href="#p" />
<use x="50" y="80" xlink:href="#p" />
<use x="50" y="100" xlink:href="#p" />
<use x="50" y="120" xlink:href="#p" />
<use x="50" y="180" xlink:href="#p" />
<use x="50" y="200" xlink:href="#p" />
<use x="50" y="250" xlink:href="#p" />
<use x="50" y="280" xlink:href="#p" />
<use x="50" y="310" xlink:href="#p" />
<use x="50" y="330" xlink:href="#p" />
<use x="50" y="340" xlink:href="#p" />
<use x="50" y="370" xlink:href="#p" />
<use x="50" y="380" xlink:href="#p" />
<use x="50" y="410" xlink:href="#p" />
<use x="50" y="440" xlink:href="#p" />
<use x="50" y="460" xlink:href="#p" />
<use x="50" y="470" xlink:href="#p" />
<use x="50" y="480" xlink:href="#p" />
<use x="50" y="500" xlink:href="#p" />
<use x="60" y="20" xlink:href="#p" />
<use x="60" y="40" xlink:href="#p" />
<use x="60" y="50" xlink:href="#p" />
<use x="60" y="60" xlink:href="#p" />
<use x="60" y="80" xlink:href="#p" />
<use x="60" y="100" xlink:href="#p" />
<use x="60" y="110" xlink:href="#p" />
<use x="60" y="120" xlink:href="#p" />
<use x="60" y="130" xlink:href="#p" />
<use x="60" y="150" xlink:href="#p" />
<use x="60" y="160" xlink:href="#p" />
<use x="60" y="170" xlink:href="#p" />
<use x="60" y="180" xlink:href="#p" />
<use x="60" y="200" xlink:href="#p" />
<use x="60" y="210" xlink:href="#p" />
<use x="60" y="240" xlink:href="#p" />
<use x="60" y="250" xlink:href="#p" />
<use x="60" y="260" xlink:href="#p" />
<use x="60" y="270" xlink:href="#p" />
<use x="60" y="280" xlink:href="#p" />
<use x="60" y="310" xlink:href="#p" />
<use x="60" y="320" xlink:href="#p" />
<use x="60" y="350" xlink:href="#p" />
<use x="60" y="360" xlink:href="#p" />
<use x="60" y="370" xlink:href="#p" />
<use x="60" y="380" xlink:href="#p" />
<use x="60" y="440" xlink:href="#p" />
<use x="60" y="460" xlink:href="#p" />
<use x="60" y="470" xlink:href="#p" />
<use x="60" y="480" xlink:href="#p" />
<use x="60" y="500" xlink:href="#p" />
<use x="70" y="20" xlink:href="#p" />
<use x="70" y="80" xlink:href="#p" />
<use x="70" y="120" xlink:href="#p" />
<use x="70" y="140" xlink:href="#p" />
<use x="70" y="160" xlink:href="#p" />
<use x="70" y="190" xlink:href="#p" />
<use x="70" y="200" xlink:href="#p" />
<use x="70" y="210" xlink:href="#p" />
<use x="70" y="230" xlink:href="#p" />
<use x="70" y="240" xlink:href="#p" />
<use x="70" y="280" xlink:href="#p" />
<use x="70" y="300" xlink:href="#p" />
<use x="70" y="310" xlink:href="#p" />
<use x="70" y="320" xlink:href="#p" />
<use x="70" y="370" xlink:href="#p" />
<use x="70" y="380" xlink:href="#p" />
<use x="70" y="400" xlink:href="#p" />
<use x="70" y="440" xlink:href="#p" />
<use x="70" y="500" xlink:href="#p" />
<use x="80" y="20" xlink:href="#p" />
<use x="80" y="30" xlink:href="#p" />
<use x="80" y="40" xlink:href="#p" />
<use x="80" y="50" xlink:href="#p" />
<use x="80" y="60" xlink:href="#p" />
<use x="80" y="70" xlink:href="#p" />
<use x="80" y="80" xlink:href="#p" />
<use x="80" y="100" xlink:href="#p" />
<use x="80" y="120" xlink:href="#p" />
<use x="80" y="140" xlink:href="#p" />
<use x="80" y="160" xlink:href="#p" />
<use x="80" y="180" xlink:href="#p" />
<use x="80" y="200" xlink:href="#p" />
<use x="80" y="220" xlink:href="#p" />
<use x="80" y="240" xlink:href="#p" />
<use x="80" y="260" xlink:href="#p" />
<use x="80" y="280" xlink:href="#p" />
<use x="80" y="300" xlink:href="#p" />
<use x="80" y="320" xlink:href="#p" />
<use x="80" y="340" xlink:href="#p" />
<use x="80" y="360" xlink:href="#p" />
<use x="80" y="380" xlink:href="#p" />
<use x="80" y="400" xlink:href="#p" />
<use x="80" y="420" xlink:href="#p" />
<use x="80" y="440" xlink:href="#p" />
<use x="80" y="450" xlink:href="#p" />
<use x="80" y="460" xlink:href="#p" />
<use x="80" y="470" xlink:href="#p" />
<use x="80" y="480" xlink:href="#p" />
<use x="80" y="490" xlink:href="#p" />
<use x="80" y="500" xlink:href="#p" />
<use x="90" y="100" xlink:href="#p" />
<use x="90" y="130" xlink:href="#p" />
<use x="90" y="140" xlink:href="#p" />
<use x="90" y="150" xlink:href="#p" />
<use x="90" y="170" xlink:href="#p" />
<use x="90" y="220" xlink:href="#p" />
<use x="90" y="230" xlink:href="#p" />
<use x="90" y="240" xlink:href="#p" />
<use x="90" y="280" xlink:href="#p" />
<use x="90" y="310" xlink:href="#p" />
<use x="90" y="330" xlink:href="#p" />
<use x="90" y="350" xlink:href="#p" />
<use x="90" y="390" xlink:href="#p" />
<use x="90" y="410" xlink:href="#p" />
<use x="90" y="420" xlink:href="#p" />
<use x="100" y="30" xlink:href="#p" />
<use x="100" y="50" xlink:href="#p" />
<use x="100" y="70" xlink:href="#p" />
<use x="100" y="80" xlink:href="#p" />
<use x="100" y="100" xlink:href="#p" />
<use x="100" y="120" xlink:href="#p" />
<use x="100" y="150" xlink:href="#p" />
<use x="100" y="160" xlink:href="#p" />
<use x="100" y="170" xlink:href="#p" />
<use x="100" y="180" xlink:href="#p" />
<use x="100" y="190" xlink:href="#p" />
<use x="100" y="200" xlink:href="#p" />
<use x="100" y="210" xlink:href="#p" />
<use x="100" y="240" xlink:href="#p" />
<use x="100" y="250" xlink:href="#p" />
<use x="100" y="260" xlink:href="#p" />
<use x="100" y="270" xlink:href="#p" />
<use x="100" y="280" xlink:href="#p" />
<use x="100" y="290" xlink:href="#p" />
<use x="100" y="310" xlink:href="#p" />
<use x="100" y="350" xlink:href="#p" />
<use x="100" y="360" xlink:href="#p" />
<use x="100" y="390" xlink:href="#p" />
<use x="100" y="420" xlink:href="#p" />
<use x="100" y="430" xlink:href="#p" />
<use x="100" y="440" xlink:href="#p" />
<use x="100" y="460" xlink:href="#p" />
<use x="100" y="470" xlink:href="#p" />
<use x="100" y="480" xlink:href="#p" />
<use x="100" y="490" xlink:href="#p" />
<use x="100" y="500" xlink:href="#p" />
<use x="110" y="60" xlink:href="#p" />
<use x="110" y="70" xlink:href="#p" />
<use x="110" y="100" xlink:href="#p" />
<use x="110" y="110" xlink:href="#p" />
<use x="110" y="120" xlink:href="#p" />
<use x="110" y="130" xlink:href="#p" />
<use x="110" y="140" xlink:href="#p" />
<use x="110" y="150" xlink:href="#p" />
<use x="110" y="160" xlink:href="#p" />
<use x="110" y="180" xlink:href="#p" />
<use x="110" y="190" xlink:href="#p" />
<use x="110" y="210" xlink:href="#p" />
<use x="110" y="240" xlink:href="#p" />
<use x="110" y="250" xlink:href="#p" />
<use x="110" y="280" xlink:href="#p" />
<use x="110" y="290" xlink:href="#p" />
<use x="110" y="320" xlink:href="#p" />
<use x="110" y="340" xlink:href="#p" />
<use x="110" y="380" xlink:href="#p" />
<use x="110" y="450" xlink:href="#p" />
<use x="110" y="460" xlink:href="#p" />
<use x="110" y="480" xlink:href="#p" />
<use x="110" y="490" xlink:href="#p" />
<use x="110" y="500" xlink:href="#p" />
<use x="120" y="40" xlink:href="#p" />
<use x="120" y="50" xlink:href="#p" />
<use x="120" y="60" xlink:href="#p" />
<use x="120" y="80" xlink:href="#p" />
<use x="120" y="90" xlink:href="#p" />
<use x="120" y="110" xlink:href="#p" />
<use x="120" y="130" xlink:href="#p" />
<use x="120" y="140" xlink:href="#p" />
<use x="120" y="150" xlink:href="#p" />
<use x="120" y="160" xlink:href="#p" />
<use x="120" y="170" xlink:href="#p" />
<use x="120" y="190" xlink:href="#p" />
<use x="120" y="200" xlink:href="#p" />
<use x="120" y="230" xlink:href="#p" />
<use x="120" y="260" xlink:href="#p" />
<use x="120" y="270" xlink:href="#p" />
<use x="120" y="280" xlink:href="#p" />
<use x="120" y="290" xlink:href="#p" />
<use x="120" y="300" xlink:href="#p" />
<use x="120" y="320" xlink:href="#p" />
<use x="120" y="370" xlink:href="#p" />
<use x="120" y="380" xlink:href="#p" />
<use x="120" y="400" xlink:href="#p" />
<use x="120" y="440" xlink:href="#p" />
<use x="120" y="460" xlink:href="#p" />
<use x="120" y="480" xlink:href="#p" />
<use x="120" y="490" xlink:href="#p" />
<use x="120" y="500" xlink:href="#p" />
<use x="130" y="40" xlink:href="#p" />
<use x="130" y="50" xlink:href="#p" />
<use x="130" y="60" xlink:href="#p" />
<use x="130" y="90" xlink:href="#p" />
<use x="130" y="110" xlink:href="#p" />
<use x="130" y="140" xlink:href="#p" />
<use x="130" y="150" xlink:href="#p" />
<use x="130" y="170" xlink:href="#p" />
<use x="130" y="250" xlink:href="#p" />
<use x="130" y="260" xlink:href="#p" />
<use x="130" y="280" xlink:href="#p" />
<use x="130" y="330" xlink:href="#p" />
<use x="130" y="340" xlink:href="#p" />
<use x="130" y="350" xlink:href="#p" />
<use x="130" y="390" xlink:href="#p" />
<use x="130" y="410" xlink:href="#p" />
<use x="130" y="420" xlink:href="#p" />
<use x="130" y="430" xlink:href="#p" />
<use x="130" y="440" xlink:href="#p" />
<use x="130" y="460" xlink:href="#p" />
<use x="130" y="480" xlink:href="#p" />
<use x="140" y="30" xlink:href="#p" />
<use x="140" y="40" xlink:href="#p" />
<use x="140" y="50" xlink:href="#p" />
<use x="140" y="80" xlink:href="#p" />
<use x="140" y="130" xlink:href="#p" />
<use x="140" y="140" xlink:href="#p" />
<use x="140" y="150" xlink:href="#p" />
<use x="140" y="160" xlink:href="#p" />
<use x="140" y="200" xlink:href="#p" />
<use x="140" y="210" xlink:href="#p" />
<use x="140" y="220" xlink:href="#p" />
<use x="140" y="230" xlink:href="#p" />
<use x="140" y="250" xlink:href="#p" />
<use x="140" y="260" xlink:href="#p" />
<use x="140" y="280" xlink:href="#p" />
<use x="140" y="290" xlink:href="#p" />
<use x="140" y="300" xlink:href="#p" />
<use x="140" y="310" xlink:href="#p" />
<use x="140" y="330" xlink:href="#p" />
<use x="140" y="350" xlink:href="#p" />
<use x="140" y="360" xlink:href="#p" />
<use x="140" y="380" xlink:href="#p" />
<use x="140" y="430" xlink:href="#p" />
<use x="140" y="440" xlink:href="#p" />
<use x="140" y="460" xlink:href="#p" />
<use x="140" y="470" xlink:href="#p" />
<use x="140" y="480" xlink:href="#p" />
<use x="140" y="490" xlink:href="#p" />
<use x="150" y="40" xlink:href="#p" />
<use x="150" y="60" xlink:href="#p" />
<use x="150" y="90" xlink:href="#p" />
<use x="150" y="100" xlink:href="#p" />
<use x="150" y="110" xlink:href="#p" />
<use x="150" y="120" xlink:href="#p" />
<use x="150" y="140" xlink:href="#p" />
<use x="150" y="180" xlink:href="#p" />
<use x="150" y="210" xlink:href="#p" />
<use x="150" y="230" xlink:href="#p" />
<use x="150" y="240" xlink:href="#p" />
<use x="150" y="250" xlink:href="#p" />
<use x="150" y="260" xlink:href="#p" />
<use x="150" y="280" xlink:href="#p" />
<use x="150" y="300" xlink:href="#p" />
<use x="150" y="320" xlink:href="#p" />
<use x="150" y="370" xlink:href="#p" />
<use x="150" y="390" xlink:href="#p" />
<use x="150" y="420" xlink:href="#p" />
<use x="150" y="440" xlink:href="#p" />
<use x="150" y="460" xlink:href="#p" />
<use x="150" y="480" xlink:href="#p" />
<use x="150" y="500" xlink:href="#p" />
<use x="160" y="20" xlink:href="#p" />
<use x="160" y="70" xlink:href="#p" />
<use x="160" y="80" xlink:href="#p" />
<use x="160" y="110" xlink:href="#p" />
<use x="160" y="120" xlink:href="#p" />
<use x="160" y="130" xlink:href="#p" />
<use x="160" y="140" xlink:href="#p" />
<use x="160" y="160" xlink:href="#p" />
<use x="160" y="170" xlink:href="#p" />
<use x="160" y="190" xlink:href="#p" />
<use x="160" y="270" xlink:href="#p" />
<use x="160" y="280" xlink:href="#p" />
<use x="160" y="290" xlink:href="#p" />
<use x="160" y="300" xlink:href="#p" />
<use x="160" y="320" xlink:href="#p" />
<use x="160" y="330" xlink:href="#p" />
<use x="160" y="350" xlink:href="#p" />
<use x="160" y="430" xlink:href="#p" />
<use x="160" y="440" xlink:href="#p" />
<use x="160" y="450" xlink:href="#p" />
<use x="160" y="460" xlink:href="#p" />
<use x="170" y="30" xlink:href="#p" />
<use x="170" y="50" xlink:href="#p" />
<use x="170" y="70" xlink:href="#p" />
<use x="170" y="130" xlink:href="#p" />
<use x="170" y="150" xlink:href="#p" />
<use x="170" y="170" xlink:href="#p" />
<use x="170" y="180" xlink:href="#p" />
<use x="170" y="210" xlink:href="#p" />
<use x="170" y="220" xlink:href="#p" />
<use x="170" y="240" xlink:href="#p" />
<use x="170" y="260" xlink:href="#p" />
<use x="170" y="280" xlink:href="#p" />
<use x="170" y="290" xlink:href="#p" />
<use x="170" y="310" xlink:href="#p" />
<use x="170" y="330" xlink:href="#p" />
<use x="170" y="340" xlink:href="#p" />
<use x="170" y="350" xlink:href="#p" />
<use x="170" y="370" xlink:href="#p" />
<use x="170" y="380" xlink:href="#p" />
<use x="170" y="400" xlink:href="#p" />
<use x="170" y="420" xlink:href="#p" />
<use x="170" y="430" xlink:href="#p" />
<use x="170" y="440" xlink:href="#p" />
<use x="170" y="450" xlink:href="#p" />
<use x="170" y="470" xlink:href="#p" />
<use x="170" y="490" xlink:href="#p" />
<use x="170" y="500" xlink:href="#p" />
<use x="180" y="60" xlink:href="#p" />
<use x="180" y="70" xlink:href="#p" />
<use x="180" y="80" xlink:href="#p" />
<use x="180" y="90" xlink:href="#p" />
<use x="180" y="100" xlink:href="#p" />
<use x="180" y="130" xlink:href="#p" />
<use x="180" y="180" xlink:href="#p" />
<use x="180" y="200" xlink:href="#p" />
<use x="180" y="230" xlink:href="#p" />
<use x="180" y="240" xlink:href="#p" />
<use x="180" y="250" xlink:href="#p" />
<use x="180" y="260" xlink:href="#p" />
<use x="180" y="340" xlink:href="#p" />
<use x="180" y="360" xlink:href="#p" />
<use x="180" y="370" xlink:href="#p" />
<use x="180" y="390" xlink:href="#p" />
<use x="180" y="400" xlink:href="#p" />
<use x="180" y="410" xlink:href="#p" />
<use x="180" y="420" xlink:href="#p" />
<use x="180" y="500" xlink:href="#p" />
<use x="190" y="20" xlink:href="#p" />
<use x="190" y="40" xlink:href="#p" />
<use x="190" y="60" xlink:href="#p" />
<use x="190" y="70" xlink:href="#p" />
<use x="190" y="100" xlink:href="#p" />
<use x="190" y="120" xlink:href="#p" />
<use x="190" y="140" xlink:href="#p" />
<use x="190" y="180" xlink:href="#p" />
<use x="190" y="210" xlink:href="#p" />
<use x="190" y="230" xlink:href="#p" />
<use x="190" y="250" xlink:href="#p" />
<use x="190" y="260" xlink:href="#p" />
<use x="190" y="280" xlink:href="#p" />
<use x="190" y="300" xlink:href="#p" />
<use x="190" y="330" xlink:href="#p" />
<use x="190" y="340" xlink:href="#p" />
<use x="190" y="350" xlink:href="#p" />
<use x="190" y="370" xlink:href="#p" />
<use x="190" y="390" xlink:href="#p" />
<use x="190" y="420" xlink:href="#p" />
<use x="190" y="440" xlink:href="#p" />
<use x="190" y="460" xlink:href="#p" />
<use x="190" y="480" xlink:href="#p" />
<use x="190" y="490" xlink:href="#p" />
<use x="200" y="30" xlink:href="#p" />
<use x="200" y="40" xlink:href="#p" />
<use x="200" y="50" xlink:href="#p" />
<use x="200" y="60" xlink:href="#p" />
<use x="200" y="70" xlink:href="#p" />
<use x="200" y="80" xlink:href="#p" />
<use x="200" y="90" xlink:href="#p" />
<use x="200" y="100" xlink:href="#p" />
<use x="200" y="150" xlink:href="#p" />
<use x="200" y="170" xlink:href="#p" />
<use x="200" y="180" xlink:href="#p" />
<use x="200" y="200" xlink:href="#p" />
<use x="200" y="210" xlink:href="#p" />
<use x="200" y="220" xlink:href="#p" />
<use x="200" y="230" xlink:href="#p" />
<use x="200" y="240" xlink:href="#p" />
<use x="200" y="260" xlink:href="#p" />
<use x="200" y="310" xlink:href="#p" />
<use x="200" y="320" xlink:href="#p" />
<use x="200" y="330" xlink:href="#p" />
<use x="200" y="340" xlink:href="#p" />
<use x="200" y="360" xlink:href="#p" />
<use x="200" y="370" xlink:href="#p" />
<use x="200" y="380" xlink:href="#p" />
<use x="200" y="390" xlink:href="#p" />
<use x="200" y="400" xlink:href="#p" />
<use x="200" y="420" xlink:href="#p" />
<use x="200" y="470" xlink:href="#p" />
<use x="200" y="480" xlink:href="#p" />
<use x="200" y="490" xlink:href="#p" />
<use x="200" y="500" xlink:href="#p" />
<use x="210" y="20" xlink:href="#p" />
<use x="210" y="40" xlink:href="#p" />
<use x="210" y="60" xlink:href="#p" />
<use x="210" y="90" xlink:href="#p" />
<use x="210" y="110" xlink:href="#p" />
<use x="210" y="120" xlink:href="#p" />
<use x="210" y="140" xlink:href="#p" />
<use x="210" y="160" xlink:href="#p" />
<use x="210" y="190" xlink:href="#p" />
<use x="210" y="200" xlink:href="#p" />
<use x="210" y="210" xlink:href="#p" />
<use x="210" y="230" xlink:href="#p" />
<use x="210" y="250" xlink:href="#p" />
<use x="210" y="270" xlink:href="#p" />
<use x="210" y="300" xlink:href="#p" />
<use x="210" y="320" xlink:href="#p" />
<use x="210" y="350" xlink:href="#p" />
<use x="210" y="390" xlink:href="#p" />
<use x="210" y="410" xlink:href="#p" />
<use x="210" y="450" xlink:href="#p" />
<use x="210" y="460" xlink:href="#p" />
<use x="210" y="480" xlink:href="#p" />
<use x="220" y="40" xlink:href="#p" />
<use x="220" y="60" xlink:href="#p" />
<use x="220" y="70" xlink:href="#p" />
<use x="220" y="80" xlink:href="#p" />
<use x="220" y="90" xlink:href="#p" />
<use x="220" y="100" xlink:href="#p" />
<use x="220" y="180" xlink:href="#p" />
<use x="220" y="230" xlink:href="#p" />
<use x="220" y="240" xlink:href="#p" />
<use x="220" y="250" xlink:href="#p" />
<use x="220" y="260" xlink:href="#p" />
<use x="220" y="290" xlink:href="#p" />
<use x="220" y="340" xlink:href="#p" />
<use x="220" y="390" xlink:href="#p" />
<use x="220" y="400" xlink:href="#p" />
<use x="220" y="410" xlink:href="#p" />
<use x="220" y="420" xlink:href="#p" />
<use x="220" y="440" xlink:href="#p" />
<use x="220" y="500" xlink:href="#p" />
<use x="230" y="50" xlink:href="#p" />
<use x="230" y="90" xlink:href="#p" />
<use x="230" y="100" xlink:href="#p" />
<use x="230" y="120" xlink:href="#p" />
<use x="230" y="140" xlink:href="#p" />
<use x="230" y="150" xlink:href="#p" />
<use x="230" y="170" xlink:href="#p" />
<use x="230" y="190" xlink:href="#p" />
<use x="230" y="220" xlink:href="#p" />
<use x="230" y="250" xlink:href="#p" />
<use x="230" y="280" xlink:href="#p" />
<use x="230" y="310" xlink:href="#p" />
<use x="230" y="330" xlink:href="#p" />
<use x="230" y="340" xlink:href="#p" />
<use x="230" y="350" xlink:href="#p" />
<use x="230" y="360" xlink:href="#p" />
<use x="230" y="390" xlink:href="#p" />
<use x="230" y="440" xlink:href="#p" />
<use x="230" y="470" xlink:href="#p" />
<use x="230" y="480" xlink:href="#p" />
<use x="230" y="490" xlink:href="#p" />
<use x="230" y="500" xlink:href="#p" />
<use x="240" y="30" xlink:href="#p" />
<use x="240" y="40" xlink:href="#p" />
<use x="240" y="50" xlink:href="#p" />
<use x="240" y="60" xlink:href="#p" />
<use x="240" y="70" xlink:href="#p" />
<use x="240" y="80" xlink:href="#p" />
<use x="240" y="90" xlink:href="#p" />
<use x="240" y="100" xlink:href="#p" />
<use x="240" y="140" xlink:href="#p" />
<use x="240" y="190" xlink:href="#p" />
<use x="240" y="220" xlink:href="#p" />
<use x="240" y="230" xlink:href="#p" />
<use x="240" y="240" xlink:href="#p" />
<use x="240" y="250" xlink:href="#p" />
<use x="240" y="260" xlink:href="#p" />
<use x="240" y="270" xlink:href="#p" />
<use x="240" y="280" xlink:href="#p" />
<use x="240" y="300" xlink:href="#p" />
<use x="240" y="310" xlink:href="#p" />
<use x="240" y="320" xlink:href="#p" />
<use x="240" y="350" xlink:href="#p" />
<use x="240" y="370" xlink:href="#p" />
<use x="240" y="380" xlink:href="#p" />
<use x="240" y="420" xlink:href="#p" />
<use x="240" y="430" xlink:href="#p" />
<use x="240" y="440" xlink:href="#p" />
<use x="240" y="450" xlink:href="#p" />
<use x="240" y="460" xlink:href="#p" />
<use x="250" y="20" xlink:href="#p" />
<use x="250" y="40" xlink:href="#p" />
<use x="250" y="60" xlink:href="#p" />
<use x="250" y="100" xlink:href="#p" />
<use x="250" y="110" xlink:href="#p" />
<use x="250" y="140" xlink:href="#p" />
<use x="250" y="150" xlink:href="#p" />
<use x="250" y="180" xlink:href="#p" />
<use x="250" y="200" xlink:href="#p" />
<use x="250" y="220" xlink:href="#p" />
<use x="250" y="230" xlink:href="#p" />
<use x="250" y="240" xlink:href="#p" />
<use x="250" y="280" xlink:href="#p" />
<use x="250" y="290" xlink:href="#p" />
<use x="250" y="300" xlink:href="#p" />
<use x="250" y="320" xlink:href="#p" />
<use x="250" y="340" xlink:href="#p" />
<use x="250" y="350" xlink:href="#p" />
<use x="250" y="370" xlink:href="#p" />
<use x="250" y="390" xlink:href="#p" />
<use x="250" y="410" xlink:href="#p" />
<use x="250" y="420" xlink:href="#p" />
<use x="250" y="460" xlink:href="#p" />
<use x="250" y="480" xlink:href="#p" />
<use x="250" y="490" xlink:href="#p" />
<use x="250" y="500" xlink:href="#p" />
<use x="260" y="20" xlink:href="#p" />
<use x="260" y="30" xlink:href="#p" />
<use x="260" y="40" xlink:href="#p" />
<use x="260" y="50" xlink:href="#p" />
<use x="260" y="60" xlink:href="#p" />
<use x="260" y="80" xlink:href="#p" />
<use x="260" y="100" xlink:href="#p" />
<use x="260" y="110" xlink:href="#p" />
<use x="260" y="120" xlink:href="#p" />
<use x="260" y="140" xlink:href="#p" />
<use x="260" y="160" xlink:href="#p" />
<use x="260" y="170" xlink:href="#p" />
<use x="260" y="220" xlink:href="#p" />
<use x="260" y="230" xlink:href="#p" />
<use x="260" y="240" xlink:href="#p" />
<use x="260" y="260" xlink:href="#p" />
<use x="260" y="280" xlink:href="#p" />
<use x="260" y="290" xlink:href="#p" />
<use x="260" y="300" xlink:href="#p" />
<use x="260" y="310" xlink:href="#p" />
<use x="260" y="320" xlink:href="#p" />
<use x="260" y="330" xlink:href="#p" />
<use x="260" y="350" xlink:href="#p" />
<use x="260" y="360" xlink:href="#p" />
<use x="260" y="370" xlink:href="#p" />
<use x="260" y="380" xlink:href="#p" />
<use x="260" y="420" xlink:href="#p" />
<use x="260" y="440" xlink:href="#p" />
<use x="260" y="460" xlink:href="#p" />
<use x="260" y="480" xlink:href="#p" />
<use x="260" y="490" xlink:href="#p" />
<use x="260" y="500" xlink:href="#p" />
<use x="270" y="20" xlink:href="#p" />
<use x="270" y="60" xlink:href="#p" />
<use x="270" y="100" xlink:href="#p" />
<use x="270" y="110" xlink:href="#p" />
<use x="270" y="130" xlink:href="#p" />
<use x="270" y="140" xlink:href="#p" />
<use x="270" y="150" xlink:href="#p" />
<use x="270" y="160" xlink:href="#p" />
<use x="270" y="170" xlink:href="#p" />
<use x="270" y="180" xlink:href="#p" />
<use x="270" y="190" xlink:href="#p" />
<use x="270" y="210" xlink:href="#p" />
<use x="270" y="230" xlink:href="#p" />
<use x="270" y="240" xlink:href="#p" />
<use x="270" y="280" xlink:href="#p" />
<use x="270" y="290" xlink:href="#p" />
<use x="270" y="300" xlink:href="#p" />
<use x="270" y="310" xlink:href="#p" />
<use x="270" y="340" xlink:href="#p" />
<use x="270" y="350" xlink:href="#p" />
<use x="270" y="360" xlink:href="#p" />
<use x="270" y="370" xlink:href="#p" />
<use x="270" y="400" xlink:href="#p" />
<use x="270" y="420" xlink:href="#p" />
<use x="270" y="460" xlink:href="#p" />
<use x="270" y="480" xlink:href="#p" />
<use x="280" y="50" xlink:href="#p" />
<use x="280" y="60" xlink:href="#p" />
<use x="280" y="70" xlink:href="#p" />
<use x="280" y="80" xlink:href="#p" />
<use x="280" y="90" xlink:href="#p" />
<use x="280" y="100" xlink:href="#p" />
<use x="280" y="120" xlink:href="#p" />
<use x="280" y="130" xlink:href="#p" />
<use x="280" y="140" xlink:href="#p" />
<use x="280" y="200" xlink:href="#p" />
<use x="280" y="240" xlink:href="#p" />
<use x="280" y="250" xlink:href="#p" />
<use x="280" y="260" xlink:href="#p" />
<use x="280" y="270" xlink:href="#p" />
<use x="280" y="280" xlink:href="#p" />
<use x="280" y="330" xlink:href="#p" />
<use x="280" y="410" xlink:href="#p" />
<use x="280" y="420" xlink:href="#p" />
<use x="280" y="430" xlink:href="#p" />
<use x="280" y="440" xlink:href="#p" />
<use x="280" y="450" xlink:href="#p" />
<use x="280" y="460" xlink:href="#p" />
<use x="280" y="480" xlink:href="#p" />
<use x="290" y="20" xlink:href="#p" />
<use x="290" y="30" xlink:href="#p" />
<use x="290" y="60" xlink:href="#p" />
<use x="290" y="110" xlink:href="#p" />
<use x="290" y="130" xlink:href="#p" />
<use x="290" y="150" xlink:href="#p" />
<use x="290" y="160" xlink:href="#p" />
<use x="290" y="170" xlink:href="#p" />
<use x="290" y="190" xlink:href="#p" />
<use x="290" y="200" xlink:href="#p" />
<use x="290" y="210" xlink:href="#p" />
<use x="290" y="220" xlink:href="#p" />
<use x="290" y="240" xlink:href="#p" />
<use x="290" y="280" xlink:href="#p" />
<use x="290" y="290" xlink:href="#p" />
<use x="290" y="300" xlink:href="#p" />
<use x="290" y="310" xlink:href="#p" />
<use x="290" y="320" xlink:href="#p" />
<use x="290" y="360" xlink:href="#p" />
<use x="290" y="370" xlink:href="#p" />
<use x="290" y="380" xlink:href="#p" />
<use x="290" y="390" xlink:href="#p" />
<use x="290" y="400" xlink:href="#p" />
<use x="290" y="410" xlink:href="#p" />
<use x="290" y="420" xlink:href="#p" />
<use x="290" y="450" xlink:href="#p" />
<use x="290" y="460" xlink:href="#p" />
<use x="290" y="470" xlink:href="#p" />
<use x="290" y="500" xlink:href="#p" />
<use x="300" y="40" xlink:href="#p" />
<use x="300" y="60" xlink:href="#p" />
<use x="300" y="80" xlink:href="#p" />
<use x="300" y="110" xlink:href="#p" />
<use x="300" y="190" xlink:href="#p" />
<use x="300" y="210" xlink:href="#p" />
<use x="300" y="230" xlink:href="#p" />
<use x="300" y="240" xlink:href="#p" />
<use x="300" y="250" xlink:href="#p" />
<use x="300" y="290" xlink:href="#p" />
<use x="300" y="330" xlink:href="#p" />
<use x="300" y="350" xlink:href="#p" />
<use x="300" y="370" xlink:href="#p" />
<use x="300" y="390" xlink:href="#p" />
<use x="300" y="410" xlink:href="#p" />
<use x="300" y="430" xlink:href="#p" />
<use x="300" y="440" xlink:href="#p" />
<use x="300" y="450" xlink:href="#p" />
<use x="300" y="480" xlink:href="#p" />
<use x="300" y="490" xlink:href="#p" />
<use x="310" y="20" xlink:href="#p" />
<use x="310" y="30" xlink:href="#p" />
<use x="310" y="60" xlink:href="#p" />
<use x="310" y="70" xlink:href="#p" />
<use x="310" y="130" xlink:href="#p" />
<use x="310" y="170" xlink:href="#p" />
<use x="310" y="190" xlink:href="#p" />
<use x="310" y="230" xlink:href="#p" />
<use x="310" y="250" xlink:href="#p" />
<use x="310" y="260" xlink:href="#p" />
<use x="310" y="270" xlink:href="#p" />
<use x="310" y="280" xlink:href="#p" />
<use x="310" y="290" xlink:href="#p" />
<use x="310" y="300" xlink:href="#p" />
<use x="310" y="310" xlink:href="#p" />
<use x="310" y="320" xlink:href="#p" />
<use x="310" y="350" xlink:href="#p" />
<use x="310" y="390" xlink:href="#p" />
<use x="310" y="410" xlink:href="#p" />
<use x="310" y="420" xlink:href="#p" />
<use x="310" y="460" xlink:href="#p" />
<use x="310" y="470" xlink:href="#p" />
<use x="310" y="480" xlink:href="#p" />
<use x="310" y="490" xlink:href="#p" />
<use x="310" y="500" xlink:href="#p" />
<use x="320" y="20" xlink:href="#p" />
<use x="320" y="40" xlink:href="#p" />
<use x="320" y="50" xlink:href="#p" />
<use x="320" y="60" xlink:href="#p" />
<use x="320" y="70" xlink:href="#p" />
<use x="320" y="80" xlink:href="#p" />
<use x="320" y="90" xlink:href="#p" />
<use x="320" y="110" xlink:href="#p" />
<use x="320" y="140" xlink:href="#p" />
<use x="320" y="150" xlink:href="#p" />
<use x="320" y="190" xlink:href="#p" />
<use x="320" y="210" xlink:href="#p" />
<use x="320" y="230" xlink:href="#p" />
<use x="320" y="240" xlink:href="#p" />
<use x="320" y="270" xlink:href="#p" />
<use x="320" y="290" xlink:href="#p" />
<use x="320" y="300" xlink:href="#p" />
<use x="320" y="310" xlink:href="#p" />
<use x="320" y="320" xlink:href="#p" />
<use x="320" y="330" xlink:href="#p" />
<use x="320" y="350" xlink:href="#p" />
<use x="320" y="370" xlink:href="#p" />
<use x="320" y="390" xlink:href="#p" />
<use x="320" y="400" xlink:href="#p" />
<use x="320" y="410" xlink:href="#p" />
<use x="320" y="430" xlink:href="#p" />
<use x="320" y="450" xlink:href="#p" />
<use x="320" y="460" xlink:href="#p" />
<use x="320" y="470" xlink:href="#p" />
<use x="320" y="480" xlink:href="#p" />
<use x="330" y="20" xlink:href="#p" />
<use x="330" y="30" xlink:href="#p" />
<use x="330" y="70" xlink:href="#p" />
<use x="330" y="100" xlink:href="#p" />
<use x="330" y="120" xlink:href="#p" />
<use x="330" y="180" xlink:href="#p" />
<use x="330" y="190" xlink:href="#p" />
<use x="330" y="250" xlink:href="#p" />
<use x="330" y="260" xlink:href="#p" />
<use x="330" y="280" xlink:href="#p" />
<use x="330" y="320" xlink:href="#p" />
<use x="330" y="330" xlink:href="#p" />
<use x="330" y="340" xlink:href="#p" />
<use x="330" y="350" xlink:href="#p" />
<use x="330" y="360" xlink:href="#p" />
<use x="330" y="370" xlink:href="#p" />
<use x="330" y="380" xlink:href="#p" />
<use x="330" y="390" xlink:href="#p" />
<use x="330" y="400" xlink:href="#p" />
<use x="330" y="410" xlink:href="#p" />
<use x="330" y="420" xlink:href="#p" />
<use x="330" y="430" xlink:href="#p" />
<use x="330" y="440" xlink:href="#p" />
<use x="330" y="450" xlink:href="#p" />
<use x="330" y="460" xlink:href="#p" />
<use x="330" y="470" xlink:href="#p" />
<use x="330" y="500" xlink:href="#p" />
<use x="340" y="40" xlink:href="#p" />
<use x="340" y="60" xlink:href="#p" />
<use x="340" y="80" xlink:href="#p" />
<use x="340" y="90" xlink:href="#p" />
<use x="340" y="120" xlink:href="#p" />
<use x="340" y="130" xlink:href="#p" />
<use x="340" y="170" xlink:href="#p" />
<use x="340" y="200" xlink:href="#p" />
<use x="340" y="210" xlink:href="#p" />
<use x="340" y="230" xlink:href="#p" />
<use x="340" y="250" xlink:href="#p" />
<use x="340" y="290" xlink:href="#p" />
<use x="340" y="320" xlink:href="#p" />
<use x="340" y="350" xlink:href="#p" />
<use x="340" y="390" xlink:href="#p" />
<use x="340" y="410" xlink:href="#p" />
<use x="340" y="490" xlink:href="#p" />
<use x="350" y="40" xlink:href="#p" />
<use x="350" y="50" xlink:href="#p" />
<use x="350" y="110" xlink:href="#p" />
<use x="350" y="120" xlink:href="#p" />
<use x="350" y="140" xlink:href="#p" />
<use x="350" y="150" xlink:href="#p" />
<use x="350" y="160" xlink:href="#p" />
<use x="350" y="180" xlink:href="#p" />
<use x="350" y="200" xlink:href="#p" />
<use x="350" y="210" xlink:href="#p" />
<use x="350" y="220" xlink:href="#p" />
<use x="350" y="240" xlink:href="#p" />
<use x="350" y="280" xlink:href="#p" />
<use x="350" y="290" xlink:href="#p" />
<use x="350" y="320" xlink:href="#p" />
<use x="350" y="330" xlink:href="#p" />
<use x="350" y="400" xlink:href="#p" />
<use x="350" y="420" xlink:href="#p" />
<use x="350" y="440" xlink:href="#p" />
<use x="350" y="460" xlink:href="#p" />
<use x="350" y="480" xlink:href="#p" />
<use x="350" y="490" xlink:href="#p" />
<use x="350" y="500" xlink:href="#p" />
<use x="360" y="30" xlink:href="#p" />
<use x="360" y="80" xlink:href="#p" />
<use x="360" y="100" xlink:href="#p" />
<use x="360" y="120" xlink:href="#p" />
<use x="360" y="130" xlink:href="#p" />
<use x="360" y="160" xlink:href="#p" />
<use x="360" y="170" xlink:href="#p" />
<use x="360" y="180" xlink:href="#p" />
<use x="360" y="220" xlink:href="#p" />
<use x="360" y="250" xlink:href="#p" />
<use x="360" y="280" xlink:href="#p" />
<use x="360" y="300" xlink:href="#p" />
<use x="360" y="360" xlink:href="#p" />
<use x="360" y="440" xlink:href="#p" />
<use x="360" y="490" xlink:href="#p" />
<use x="370" y="20" xlink:href="#p" />
<use x="370" y="30" xlink:href="#p" />
<use x="370" y="70" xlink:href="#p" />
<use x="370" y="90" xlink:href="#p" />
<use x="370" y="100" xlink:href="#p" />
<use x="370" y="110" xlink:href="#p" />
<use x="370" y="120" xlink:href="#p" />
<use x="370" y="140" xlink:href="#p" />
<use x="370" y="150" xlink:href="#p" />
<use x="370" y="160" xlink:href="#p" />
<use x="370" y="170" xlink:href="#p" />
<use x="370" y="180" xlink:href="#p" />
<use x="370" y="220" xlink:href="#p" />
<use x="370" y="320" xlink:href="#p" />
<use x="370" y="360" xlink:href="#p" />
<use x="370" y="380" xlink:href="#p" />
<use x="370" y="390" xlink:href="#p" />
<use x="370" y="400" xlink:href="#p" />
<use x="370" y="460" xlink:href="#p" />
<use x="370" y="470" xlink:href="#p" />
<use x="370" y="490" xlink:href="#p" />
<use x="370" y="500" xlink:href="#p" />
<use x="380" y="30" xlink:href="#p" />
<use x="380" y="50" xlink:href="#p" />
<use x="380" y="70" xlink:href="#p" />
<use x="380" y="80" xlink:href="#p" />
<use x="380" y="100" xlink:href="#p" />
<use x="380" y="120" xlink:href="#p" />
<use x="380" y="140" xlink:href="#p" />
<use x="380" y="180" xlink:href="#p" />
<use x="380" y="220" xlink:href="#p" />
<use x="380" y="230" xlink:href="#p" />
<use x="380" y="240" xlink:href="#p" />
<use x="380" y="250" xlink:href="#p" />
<use x="380" y="260" xlink:href="#p" />
<use x="380" y="300" xlink:href="#p" />
<use x="380" y="330" xlink:href="#p" />
<use x="380" y="340" xlink:href="#p" />
<use x="380" y="380" xlink:href="#p" />
<use x="380" y="420" xlink:href="#p" />
<use x="380" y="430" xlink:href="#p" />
<use x="380" y="460" xlink:href="#p" />
<use x="380" y="470" xlink:href="#p" />
<use x="380" y="500" xlink:href="#p" />
<use x="390" y="30" xlink:href="#p" />
<use x="390" y="50" xlink:href="#p" />
<use x="390" y="60" xlink:href="#p" />
<use x="390" y="90" xlink:href="#p" />
<use x="390" y="100" xlink:href="#p" />
<use x="390" y="110" xlink:href="#p" />
<use x="390" y="130" xlink:href="#p" />
<use x="390" y="150" xlink:href="#p" />
<use x="390" y="170" xlink:href="#p" />
<use x="390" y="180" xlink:href="#p" />
<use x="390" y="190" xlink:href="#p" />
<use x="390" y="220" xlink:href="#p" />
<use x="390" y="230" xlink:href="#p" />
<use x="390" y="250" xlink:href="#p" />
<use x="390" y="260" xlink:href="#p" />
<use x="390" y="300" xlink:href="#p" />
<use x="390" y="310" xlink:href="#p" />
<use x="390" y="350" xlink:href="#p" />
<use x="390" y="360" xlink:href="#p" />
<use x="390" y="380" xlink:href="#p" />
<use x="390" y="390" xlink:href="#p" />
<use x="390" y="400" xlink:href="#p" />
<use x="390" y="410" xlink:href="#p" />
<use x="390" y="430" xlink:href="#p" />
<use x="390" y="450" xlink:href="#p" />
<use x="390" y="470" xlink:href="#p" />
<use x="390" y="500" xlink:href="#p" />
<use x="400" y="30" xlink:href="#p" />
<use x="400" y="70" xlink:href="#p" />
<use x="400" y="80" xlink:href="#p" />
<use x="400" y="90" xlink:href="#p" />
<use x="400" y="100" xlink:href="#p" />
<use x="400" y="120" xlink:href="#p" />
<use x="400" y="140" xlink:href="#p" />
<use x="400" y="160" xlink:href="#p" />
<use x="400" y="170" xlink:href="#p" />
<use x="400" y="200" xlink:href="#p" />
<use x="400" y="210" xlink:href="#p" />
<use x="400" y="240" xlink:href="#p" />
<use x="400" y="280" xlink:href="#p" />
<use x="400" y="300" xlink:href="#p" />
<use x="400" y="320" xlink:href="#p" />
<use x="400" y="360" xlink:href="#p" />
<use x="400" y="400" xlink:href="#p" />
<use x="400" y="440" xlink:href="#p" />
<use x="400" y="480" xlink:href="#p" />
<use x="410" y="30" xlink:href="#p" />
<use x="410" y="40" xlink:href="#p" />
<use x="410" y="50" xlink:href="#p" />
<use x="410" y="90" xlink:href="#p" />
<use x="410" y="100" xlink:href="#p" />
<use x="410" y="130" xlink:href="#p" />
<use x="410" y="140" xlink:href="#p" />
<use x="410" y="160" xlink:href="#p" />
<use x="410" y="180" xlink:href="#p" />
<use x="410" y="200" xlink:href="#p" />
<use x="410" y="250" xlink:href="#p" />
<use x="410" y="260" xlink:href="#p" />
<use x="410" y="270" xlink:href="#p" />
<use x="410" y="280" xlink:href="#p" />
<use x="410" y="300" xlink:href="#p" />
<use x="410" y="310" xlink:href="#p" />
<use x="410" y="340" xlink:href="#p" />
<use x="410" y="360" xlink:href="#p" />
<use x="410" y="380" xlink:href="#p" />
<use x="410" y="390" xlink:href="#p" />
<use x="410" y="400" xlink:href="#p" />
<use x="410" y="420" xlink:href="#p" />
<use x="410" y="430" xlink:href="#p" />
<use x="410" y="440" xlink:href="#p" />
<use x="410" y="450" xlink:href="#p" />
<use x="410" y="460" xlink:href="#p" />
<use x="410" y="470" xlink:href="#p" />
<use x="410" y="480" xlink:href="#p" />
<use x="410" y="490" xlink:href="#p" />
<use x="420" y="20" xlink:href="#p" />
<use x="420" y="30" xlink:href="#p" />
<use x="420" y="40" xlink:href="#p" />
<use x="420" y="80" xlink:href="#p" />
<use x="420" y="90" xlink:href="#p" />
<use x="420" y="100" xlink:href="#p" />
<use x="420" y="120" xlink:href="#p" />
<use x="420" y="140" xlink:href="#p" />
<use x="420" y="180" xlink:href="#p" />
<use x="420" y="200" xlink:href="#p" />
<use x="420" y="210" xlink:href="#p" />
<use x="420" y="220" xlink:href="#p" />
<use x="420" y="240" xlink:href="#p" />
<use x="420" y="250" xlink:href="#p" />
<use x="420" y="260" xlink:href="#p" />
<use x="420" y="270" xlink:href="#p" />
<use x="420" y="280" xlink:href="#p" />
<use x="420" y="290" xlink:href="#p" />
<use x="420" y="300" xlink:href="#p" />
<use x="420" y="330" xlink:href="#p" />
<use x="420" y="370" xlink:href="#p" />
<use x="420" y="400" xlink:href="#p" />
<use x="420" y="410" xlink:href="#p" />
<use x="420" y="420" xlink:href="#p" />
<use x="420" y="430" xlink:href="#p" />
<use x="420" y="440" xlink:href="#p" />
<use x="420" y="450" xlink:href="#p" />
<use x="420" y="460" xlink:href="#p" />
<use x="420" y="470" xlink:href="#p" />
<use x="430" y="100" xlink:href="#p" />
<use x="430" y="110" xlink:href="#p" />
<use x="430" y="150" xlink:href="#p" />
<use x="430" y="160" xlink:href="#p" />
<use x="430" y="170" xlink:href="#p" />
<use x="430" y="190" xlink:href="#p" />
<use x="430" y="210" xlink:href="#p" />
<use x="430" y="230" xlink:href="#p" />
<use x="430" y="240" xlink:href="#p" />
<use x="430" y="280" xlink:href="#p" />
<use x="430" y="290" xlink:href="#p" />
<use x="430" y="300" xlink:href="#p" />
<use x="430" y="320" xlink:href="#p" />
<use x="430" y="350" xlink:href="#p" />
<use x="430" y="390" xlink:href="#p" />
<use x="430" y="400" xlink:href="#p" />
<use x="430" y="410" xlink:href="#p" />
<use x="430" y="420" xlink:href="#p" />
<use x="430" y="460" xlink:href="#p" />
<use x="430" y="470" xlink:href="#p" />
<use x="440" y="20" xlink:href="#p" />
<use x="440" y="30" xlink:href="#p" />
<use x="440" y="40" xlink:href="#p" />
<use x="440" y="50" xlink:href="#p" />
<use x="440" y="60" xlink:href="#p" />
<use x="440" y="70" xlink:href="#p" />
<use x="440" y="80" xlink:href="#p" />
<use x="440" y="110" xlink:href="#p" />
<use x="440" y="140" xlink:href="#p" />
<use x="440" y="150" xlink:href="#p" />
<use x="440" y="170" xlink:href="#p" />
<use x="440" y="190" xlink:href="#p" />
<use x="440" y="210" xlink:href="#p" />
<use x="440" y="220" xlink:href="#p" />
<use x="440" y="230" xlink:href="#p" />
<use x="440" y="240" xlink:href="#p" />
<use x="440" y="260" xlink:href="#p" />
<use x="440" y="280" xlink:href="#p" />
<use x="440" y="310" xlink:href="#p" />
<use x="440" y="320" xlink:href="#p" />
<use x="440" y="340" xlink:href="#p" />
<use x="440" y="360" xlink:href="#p" />
<use x="440" y="380" xlink:href="#p" />
<use x="440" y="390" xlink:href="#p" />
<use x="440" y="400" xlink:href="#p" />
<use x="440" y="420" xlink:href="#p" />
<use x="440" y="440" xlink:href="#p" />
<use x="440" y="460" xlink:href="#p" />
<use x="440" y="480" xlink:href="#p" />
<use x="440" y="490" xlink:href="#p" />
<use x="450" y="20" xlink:href="#p" />
<use x="450" y="80" xlink:href="#p" />
<use x="450" y="100" xlink:href="#p" />
<use x="450" y="140" xlink:href="#p" />
<use x="450" y="150" xlink:href="#p" />
<use x="450" y="160" xlink:href="#p" />
<use x="450" y="190" xlink:href="#p" />
<use x="450" y="200" xlink:href="#p" />
<use x="450" y="220" xlink:href="#p" />
<use x="450" y="230" xlink:href="#p" />
<use x="450" y="240" xlink:href="#p" />
<use x="450" y="280" xlink:href="#p" />
<use x="450" y="320" xlink:href="#p" />
<use x="450" y="350" xlink:href="#p" />
<use x="450" y="380" xlink:href="#p" />
<use x="450" y="400" xlink:href="#p" />
<use x="450" y="420" xlink:href="#p" />
<use x="450" y="460" xlink:href="#p" />
<use x="450" y="470" xlink:href="#p" />
<use x="450" y="480" xlink:href="#p" />
<use x="460" y="20" xlink:href="#p" />
<use x="460" y="40" xlink:href="#p" />
<use x="460" y="50" xlink:href="#p" />
<use x="460" y="60" xlink:href="#p" />
<use x="460" y="80" xlink:href="#p" />
<use x="460" y="130" xlink:href="#p" />
<use x="460" y="150" xlink:href="#p" />
<use x="460" y="170" xlink:href="#p" />
<use x="460" y="210" xlink:href="#p" />
<use x="460" y="240" xlink:href="#p" />
<use x="460" y="250" xlink:href="#p" />
<use x="460" y="260" xlink:href="#p" />
<use x="460" y="270" xlink:href="#p" />
<use x="460" y="280" xlink:href="#p" />
<use x="460" y="290" xlink:href="#p" />
<use x="460" y="300" xlink:href="#p" />
<use x="460" y="320" xlink:href="#p" />
<use x="460" y="340" xlink:href="#p" />
<use x="460" y="360" xlink:href="#p" />
<use x="460" y="380" xlink:href="#p" />
<use x="460" y="420" xlink:href="#p" />
<use x="460" y="430" xlink:href="#p" />
<use x="460" y="440" xlink:href="#p" />
<use x="460" y="450" xlink:href="#p" />
<use x="460" y="460" xlink:href="#p" />
<use x="460" y="470" xlink:href="#p" />
<use x="470" y="20" xlink:href="#p" />
<use x="470" y="40" xlink:href="#p" />
<use x="470" y="50" xlink:href="#p" />
<use x="470" y="60" xlink:href="#p" />
<use x="470" y="80" xlink:href="#p" />
<use x="470" y="100" xlink:href="#p" />
<use x="470" y="140" xlink:href="#p" />
<use x="470" y="160" xlink:href="#p" />
<use x="470" y="200" xlink:href="#p" />
<use x="470" y="230" xlink:href="#p" />
<use x="470" y="250" xlink:href="#p" />
<use x="470" y="260" xlink:href="#p" />
<use x="470" y="280" xlink:href="#p" />
<use x="470" y="290" xlink:href="#p" />
<use x="470" y="300" xlink:href="#p" />
<use x="470" y="310" xlink:href="#p" />
<use x="470" y="320" xlink:href="#p" />
<use x="470" y="330" xlink:href="#p" />
<use x="470" y="340" xlink:href="#p" />
<use x="470" y="390" xlink:href="#p" />
<use x="470" y="410" xlink:href="#p" />
<use x="470" y="420" xlink:href="#p" />
<use x="470" y="430" xlink:href="#p" />
<use x="470" y="450" xlink:href="#p" />
<use x="470" y="460" xlink:href="#p" />
<use x="470" y="470" xlink:href="#p" />
<use x="470" y="480" xlink:href="#p" />
<use x="470" y="490" xlink:href="#p" />
<use x="480" y="20" xlink:href="#p" />
<use x="480" y="40" xlink:href="#p" />
<use x="480" y="50" xlink:href="#p" />
<use x="480" y="60" xlink:href="#p" />
<use x="480" y="80" xlink:href="#p" />
<use x="480" y="140" xlink:href="#p" />
<use x="480" y="180" xlink:href="#p" />
<use x="480" y="190" xlink:href="#p" />
<use x="480" y="200" xlink:href="#p" />
<use x="480" y="240" xlink:href="#p" />
<use x="480" y="260" xlink:href="#p" />
<use x="480" y="270" xlink:href="#p" />
<use x="480" y="300" xlink:href="#p" />
<use x="480" y="340" xlink:href="#p" />
<use x="480" y="360" xlink:href="#p" />
<use x="480" y="380" xlink:href="#p" />
<use x="480" y="390" xlink:href="#p" />
<use x="480" y="400" xlink:href="#p" />
<use x="480" y="420" xlink:href="#p" />
<use x="480" y="440" xlink:href="#p" />
<use x="480" y="460" xlink:href="#p" />
<use x="480" y="500" xlink:href="#p" />
<use x="490" y="20" xlink:href="#p" />
<use x="490" y="80" xlink:href="#p" />
<use x="490" y="100" xlink:href="#p" />
<use x="490" y="120" xlink:href="#p" />
<use x="490" y="140" xlink:href="#p" />
<use x="490" y="160" xlink:href="#p" />
<use x="490" y="170" xlink:href="#p" />
<use x="490" y="180" xlink:href="#p" />
<use x="490" y="200" xlink:href="#p" />
<use x="490" y="210" xlink:href="#p" />
<use x="490" y="220" xlink:href="#p" />
<use x="490" y="240" xlink:href="#p" />
<use x="490" y="250" xlink:href="#p" />
<use x="490" y="260" xlink:href="#p" />
<use x="490" y="280" xlink:href="#p" />
<use x="490" y="300" xlink:href="#p" />
<use x="490" y="320" xlink:href="#p" />
<use x="490" y="330" xlink:href="#p" />
<use x="490" y="340" xlink:href="#p" />
<use x="490" y="360" xlink:href="#p" />
<use x="490" y="370" xlink:href="#p" />
<use x="490" y="390" xlink:href="#p" />
<use x="490" y="400" xlink:href="#p" />
<use x="490" y="410" xlink:href="#p" />
<use x="490" y="420" xlink:href="#p" />
<use x="490" y="440" xlink:href="#p" />
<use x="490" y="460" xlink:href="#p" />
<use x="490" y="470" xlink:href="#p" />
<use x="490" y="500" xlink:href="#p" />
<use x="500" y="20" xlink:href="#p" />
<use x="500" y="30" xlink:href="#p" />
<use x="500" y="40" xlink:href="#p" />
<use x="500" y="50" xlink:href="#p" />
<use x="500" y="60" xlink:href="#p" />
<use x="500" y="70" xlink:href="#p" />
<use x="500" y="80" xlink:href="#p" />
<use x="500" y="120" xlink:href="#p" />
<use x="500" y="160" xlink:href="#p" />
<use x="500" y="170" xlink:href="#p" />
<use x="500" y="200" xlink:href="#p" />
<use x="500" y="210" xlink:href="#p" />
<use x="500" y="220" xlink:href="#p" />
<use x="500" y="240" xlink:href="#p" />
<use x="500" y="280" xlink:href="#p" />
<use x="500" y="290" xlink:href="#p" />
<use x="500" y="300" xlink:href="#p" />
<use x="500" y="320" xlink:href="#p" />
<use x="500" y="340" xlink:href="#p" />
<use x="500" y="360" xlink:href="#p" />
<use x="500" y="370" xlink:href="#p" />
<use x="500" y="390" xlink:href="#p" />
<use x="500" y="400" xlink:href="#p" />
<use x="500" y="410" xlink:href="#p" />
<use x="500" y="440" xlink:href="#p" />
<use x="500" y="460" xlink:href="#p" />
<use x="500" y="470" xlink:href="#p" />
<use x="500" y="490" xlink:href="#p" />
<use x="500" y="500" xlink:href="#p" />
</g>

</svg>