<?xml version="1.0" encoding="utf-8"?>
<svg version="1.1" baseProfile="full"  width="265" height="265" viewBox="0 0 265 265"
		 xmlns="http://www.w3.org/2000/svg" xmlns:xlink="http://www.w3.org/1999/xlink" xmlns:ev="http://www.w3.org/2001/xml-events">
<desc></desc>
<rect width="265" height="265" fill="#ffffff" cx="0" cy="0" />
<defs>
<rect id="p" width="5" height="5" />
</defs>
<g fill="#000000">
<use x="10" y="10" xlink:href="#p" />
<use x="10" y="15" xlink:href="#p" />
<use x="10" y="20" xlink:href="#p" />
<use x="10" y="25" xlink:href="#p" />
<use x="10" y="30" xlink:href="#p" />
<use x="10" y="35" xlink:href="#p" />
<use x="10" y="40" xlink:href="#p" />
<use x="10" y="50" xlink:href="#p" />
<use x="10" y="55" xlink:href="#p" />
<use x="10" y="60" xlink:href="#p" />
<use x="10" y="65" xlink:href="#p" />
<use x="10" y="70" xlink:href="#p" />
<use x="10" y="80" xlink:href="#p" />
<use x="10" y="115" xlink:href="#p" />
<use x="10" y="120" xlink:href="#p" />
<use x="10" y="125" xlink:href="#p" />
<use x="10" y="130" xlink:href="#p" />
<use x="10" y="140" xlink:href="#p" />
<use x="10" y="145" xlink:href="#p" />
<use x="10" y="155" xlink:href="#p" />
<use x="10" y="160" xlink:href="#p" />
<use x="10" y="165" xlink:href="#p" />
<use x="10" y="170" xlink:href="#p" />
<use x="10" y="175" xlink:href="#p" />
<use x="10" y="180" xlink:href="#p" />
<use x="10" y="190" xlink:href="#p" />
<use x="10" y="210" xlink:href="#p" />
<use x="10" y="220" xlink:href="#p" />
<use x="10" y="225" xlink:href="#p" />
<use x="10" y="230" xlink:href="#p" />
<use x="10" y="235" xlink:href="#p" />
<use x="10" y="240" xlink:href="#p" />
<use x="10" y="245" xlink:href="#p" />
<use x="10" y="250" xlink:href="#p" />
<use x="15" y="10" xlink:href="#p" />
<use x="15" y="40" xlink:href="#p" />
<use x="15" y="50" xlink:href="#p" />
<use x="15" y="65" xlink:href="#p" />
<use x="15" y="70" xlink:href="#p" />
<use x="15" y="80" xlink:href="#p" />
<use x="15" y="100" xlink:href="#p" />
<use x="15" y="110" xlink:href="#p" />
<use x="15" y="135" xlink:href="#p" />
<use x="15" y="145" xlink:href="#p" />
<use x="15" y="150" xlink:href="#p" />
<use x="15" y="155" xlink:href="#p" />
<use x="15" y="160" xlink:href="#p" />
<use x="15" y="170" xlink:href="#p" />
<use x="15" y="175" xlink:href="#p" />
<use x="15" y="180" xlink:href="#p" />
<use x="15" y="185" xlink:href="#p" />
<use x="15" y="190" xlink:href="#p" />
<use x="15" y="195" xlink:href="#p" />
<use x="15" y="200" xlink:href="#p" />
<use x="15" y="205" xlink:href="#p" />
<use x="15" y="210" xlink:href="#p" />
<use x="15" y="220" xlink:href="#p" />
<use x="15" y="250" xlink:href="#p" />
<use x="20" y="10" xlink:href="#p" />
<use x="20" y="20" xlink:href="#p" />
<use x="20" y="25" xlink:href="#p" />
<use x="20" y="30" xlink:href="#p" />
<use x="20" y="40" xlink:href="#p" />
<use x="20" y="50" xlink:href="#p" />
<use x="20" y="55" xlink:href="#p" />
<use x="20" y="70" xlink:href="#p" />
<use x="20" y="75" xlink:href="#p" />
<use x="20" y="90" xlink:href="#p" />
<use x="20" y="105" xlink:href="#p" />
<use x="20" y="110" xlink:href="#p" />
<use x="20" y="125" xlink:href="#p" />
<use x="20" y="130" xlink:href="#p" />
<use x="20" y="135" xlink:href="#p" />
<use x="20" y="140" xlink:href="#p" />
<use x="20" y="150" xlink:href="#p" />
<use x="20" y="155" xlink:href="#p" />
<use x="20" y="160" xlink:href="#p" />
<use x="20" y="165" xlink:href="#p" />
<use x="20" y="185" xlink:href="#p" />
<use x="20" y="190" xlink:href="#p" />
<use x="20" y="195" xlink:href="#p" />
<use x="20" y="205" xlink:href="#p" />
<use x="20" y="210" xlink:href="#p" />
<use x="20" y="220" xlink:href="#p" />
<use x="20" y="230" xlink:href="#p" />
<use x="20" y="235" xlink:href="#p" />
<use x="20" y="240" xlink:href="#p" />
<use x="20" y="250" xlink:href="#p" />
<use x="25" y="10" xlink:href="#p" />
<use x="25" y="20" xlink:href="#p" />
<use x="25" y="25" xlink:href="#p" />
<use x="25" y="30" xlink:href="#p" />
<use x="25" y="40" xlink:href="#p" />
<use x="25" y="50" xlink:href="#p" />
<use x="25" y="60" xlink:href="#p" />
<use x="25" y="90" xlink:href="#p" />
<use x="25" y="100" xlink:href="#p" />
<use x="25" y="125" xlink:href="#p" />
<use x="25" y="140" xlink:href="#p" />
<use x="25" y="155" xlink:href="#p" />
<use x="25" y="165" xlink:href="#p" />
<use x="25" y="170" xlink:href="#p" />
<use x="25" y="185" xlink:href="#p" />
<use x="25" y="190" xlink:href="#p" />
<use x="25" y="205" xlink:href="#p" />
<use x="25" y="220" xlink:href="#p" />
<use x="25" y="230" xlink:href="#p" />
<use x="25" y="235" xlink:href="#p" />
<use x="25" y="240" xlink:href="#p" />
<use x="25" y="250" xlink:href="#p" />
<use x="30" y="10" xlink:href="#p" />
<use x="30" y="20" xlink:href="#p" />
<use x="30" y="25" xlink:href="#p" />
<use x="30" y="30" xlink:href="#p" />
<use x="30" y="40" xlink:href="#p" />
<use x="30" y="50" xlink:href="#p" />
<use x="30" y="55" xlink:href="#p" />
<use x="30" y="60" xlink:href="#p" />
<use x="30" y="65" xlink:href="#p" />
<use x="30" y="75" xlink:href="#p" />
<use x="30" y="80" xlink:href="#p" />
<use x="30" y="85" xlink:href="#p" />
<use x="30" y="90" xlink:href="#p" />
<use x="30" y="100" xlink:href="#p" />
<use x="30" y="105" xlink:href="#p" />
<use x="30" y="120" xlink:href="#p" />
<use x="30" y="125" xlink:href="#p" />
<use x="30" y="130" xlink:href="#p" />
<use x="30" y="135" xlink:href="#p" />
<use x="30" y="140" xlink:href="#p" />
<use x="30" y="155" xlink:href="#p" />
<use x="30" y="160" xlink:href="#p" />
<use x="30" y="175" xlink:href="#p" />
<use x="30" y="180" xlink:href="#p" />
<use x="30" y="185" xlink:href="#p" />
<use x="30" y="190" xlink:href="#p" />
<use x="30" y="220" xlink:href="#p" />
<use x="30" y="230" xlink:href="#p" />
<use x="30" y="235" xlink:href="#p" />
<use x="30" y="240" xlink:href="#p" />
<use x="30" y="250" xlink:href="#p" />
<use x="35" y="10" xlink:href="#p" />
<use x="35" y="40" xlink:href="#p" />
<use x="35" y="60" xlink:href="#p" />
<use x="35" y="70" xlink:href="#p" />
<use x="35" y="80" xlink:href="#p" />
<use x="35" y="95" xlink:href="#p" />
<use x="35" y="100" xlink:href="#p" />
<use x="35" y="105" xlink:href="#p" />
<use x="35" y="115" xlink:href="#p" />
<use x="35" y="120" xlink:href="#p" />
<use x="35" y="140" xlink:href="#p" />
<use x="35" y="150" xlink:href="#p" />
<use x="35" y="155" xlink:href="#p" />
<use x="35" y="160" xlink:href="#p" />
<use x="35" y="185" xlink:href="#p" />
<use x="35" y="190" xlink:href="#p" />
<use x="35" y="200" xlink:href="#p" />
<use x="35" y="220" xlink:href="#p" />
<use x="35" y="250" xlink:href="#p" />
<use x="40" y="10" xlink:href="#p" />
<use x="40" y="15" xlink:href="#p" />
<use x="40" y="20" xlink:href="#p" />
<use x="40" y="25" xlink:href="#p" />
<use x="40" y="30" xlink:href="#p" />
<use x="40" y="35" xlink:href="#p" />
<use x="40" y="40" xlink:href="#p" />
<use x="40" y="50" xlink:href="#p" />
<use x="40" y="60" xlink:href="#p" />
<use x="40" y="70" xlink:href="#p" />
<use x="40" y="80" xlink:href="#p" />
<use x="40" y="90" xlink:href="#p" />
<use x="40" y="100" xlink:href="#p" />
<use x="40" y="110" xlink:href="#p" />
<use x="40" y="120" xlink:href="#p" />
<use x="40" y="130" xlink:href="#p" />
<use x="40" y="140" xlink:href="#p" />
<use x="40" y="150" xlink:href="#p" />
<use x="40" y="160" xlink:href="#p" />
<use x="40" y="170" xlink:href="#p" />
<use x="40" y="180" xlink:href="#p" />
<use x="40" y="190" xlink:href="#p" />
<use x="40" y="200" xlink:href="#p" />
<use x="40" y="210" xlink:href="#p" />
<use x="40" y="220" xlink:href="#p" />
<use x="40" y="225" xlink:href="#p" />
<use x="40" y="230" xlink:href="#p" />
<use x="40" y="235" xlink:href="#p" />
<use x="40" y="240" xlink:href="#p" />
<use x="40" y="245" xlink:href="#p" />
<use x="40" y="250" xlink:href="#p" />
<use x="45" y="50" xlink:href="#p" />
<use x="45" y="65" xlink:href="#p" />
<use x="45" y="70" xlink:href="#p" />
<use x="45" y="75" xlink:href="#p" />
<use x="45" y="85" xlink:href="#p" />
<use x="45" y="110" xlink:href="#p" />
<use x="45" y="115" xlink:href="#p" />
<use x="45" y="120" xlink:href="#p" />
<use x="45" y="140" xlink:href="#p" />
<use x="45" y="155" xlink:href="#p" />
<use x="45" y="165" xlink:href="#p" />
<use x="45" y="175" xlink:href="#p" />
<use x="45" y="195" xlink:href="#p" />
<use x="45" y="205" xlink:href="#p" />
<use x="45" y="210" xlink:href="#p" />
<use x="50" y="15" xlink:href="#p" />
<use x="50" y="25" xlink:href="#p" />
<use x="50" y="35" xlink:href="#p" />
<use x="50" y="40" xlink:href="#p" />
<use x="50" y="50" xlink:href="#p" />
<use x="50" y="60" xlink:href="#p" />
<use x="50" y="75" xlink:href="#p" />
<use x="50" y="80" xlink:href="#p" />
<use x="50" y="85" xlink:href="#p" />
<use x="50" y="90" xlink:href="#p" />
<use x="50" y="95" xlink:href="#p" />
<use x="50" y="100" xlink:href="#p" />
<use x="50" y="105" xlink:href="#p" />
<use x="50" y="120" xlink:href="#p" />
<use x="50" y="125" xlink:href="#p" />
<use x="50" y="130" xlink:href="#p" />
<use x="50" y="135" xlink:href="#p" />
<use x="50" y="140" xlink:href="#p" />
<use x="50" y="145" xlink:href="#p" />
<use x="50" y="155" xlink:href="#p" />
<use x="50" y="175" xlink:href="#p" />
<use x="50" y="180" xlink:href="#p" />
<use x="50" y="195" xlink:href="#p" />
<use x="50" y="210" xlink:href="#p" />
<use x="50" y="215" xlink:href="#p" />
<use x="50" y="220" xlink:href="#p" />
<use x="50" y="230" xlink:href="#p" />
<use x="50" y="235" xlink:href="#p" />
<use x="50" y="240" xlink:href="#p" />
<use x="50" y="245" xlink:href="#p" />
<use x="50" y="250" xlink:href="#p" />
<use x="55" y="30" xlink:href="#p" />
<use x="55" y="35" xlink:href="#p" />
<use x="55" y="50" xlink:href="#p" />
<use x="55" y="55" xlink:href="#p" />
<use x="55" y="60" xlink:href="#p" />
<use x="55" y="65" xlink:href="#p" />
<use x="55" y="70" xlink:href="#p" />
<use x="55" y="75" xlink:href="#p" />
<use x="55" y="80" xlink:href="#p" />
<use x="55" y="90" xlink:href="#p" />
<use x="55" y="95" xlink:href="#p" />
<use x="55" y="105" xlink:href="#p" />
<use x="55" y="120" xlink:href="#p" />
<use x="55" y="125" xlink:href="#p" />
<use x="55" y="140" xlink:href="#p" />
<use x="55" y="145" xlink:href="#p" />
<use x="55" y="160" xlink:href="#p" />
<use x="55" y="170" xlink:href="#p" />
<use x="55" y="190" xlink:href="#p" />
<use x="55" y="225" xlink:href="#p" />
<use x="55" y="230" xlink:href="#p" />
<use x="55" y="240" xlink:href="#p" />
<use x="55" y="245" xlink:href="#p" />
<use x="55" y="250" xlink:href="#p" />
<use x="60" y="20" xlink:href="#p" />
<use x="60" y="25" xlink:href="#p" />
<use x="60" y="30" xlink:href="#p" />
<use x="60" y="40" xlink:href="#p" />
<use x="60" y="45" xlink:href="#p" />
<use x="60" y="55" xlink:href="#p" />
<use x="60" y="65" xlink:href="#p" />
<use x="60" y="70" xlink:href="#p" />
<use x="60" y="75" xlink:href="#p" />
<use x="60" y="80" xlink:href="#p" />
<use x="60" y="85" xlink:href="#p" />
<use x="60" y="95" xlink:href="#p" />
<use x="60" y="100" xlink:href="#p" />
<use x="60" y="115" xlink:href="#p" />
<use x="60" y="130" xlink:href="#p" />
<use x="60" y="135" xlink:href="#p" />
<use x="60" y="140" xlink:href="#p" />
<use x="60" y="145" xlink:href="#p" />
<use x="60" y="150" xlink:href="#p" />
<use x="60" y="160" xlink:href="#p" />
<use x="60" y="185" xlink:href="#p" />
<use x="60" y="190" xlink:href="#p" />
<use x="60" y="200" xlink:href="#p" />
<use x="60" y="220" xlink:href="#p" />
<use x="60" y="230" xlink:href="#p" />
<use x="60" y="240" xlink:href="#p" />
<use x="60" y="245" xlink:href="#p" />
<use x="60" y="250" xlink:href="#p" />
<use x="65" y="20" xlink:href="#p" />
<use x="65" y="25" xlink:href="#p" />
<use x="65" y="30" xlink:href="#p" />
<use x="65" y="45" xlink:href="#p" />
<use x="65" y="55" xlink:href="#p" />
<use x="65" y="70" xlink:href="#p" />
<use x="65" y="75" xlink:href="#p" />
<use x="65" y="85" xlink:href="#p" />
<use x="65" y="125" xlink:href="#p" />
<use x="65" y="130" xlink:href="#p" />
<use x="65" y="140" xlink:href="#p" />
<use x="65" y="165" xlink:href="#p" />
<use x="65" y="170" xlink:href="#p" />
<use x="65" y="175" xlink:href="#p" />
<use x="65" y="195" xlink:href="#p" />
<use x="65" y="205" xlink:href="#p" />
<use x="65" y="210" xlink:href="#p" />
<use x="65" y="215" xlink:href="#p" />
<use x="65" y="220" xlink:href="#p" />
<use x="65" y="230" xlink:href="#p" />
<use x="65" y="240" xlink:href="#p" />
<use x="70" y="15" xlink:href="#p" />
<use x="70" y="20" xlink:href="#p" />
<use x="70" y="25" xlink:href="#p" />
<use x="70" y="40" xlink:href="#p" />
<use x="70" y="65" xlink:href="#p" />
<use x="70" y="70" xlink:href="#p" />
<use x="70" y="75" xlink:href="#p" />
<use x="70" y="80" xlink:href="#p" />
<use x="70" y="100" xlink:href="#p" />
<use x="70" y="105" xlink:href="#p" />
<use x="70" y="110" xlink:href="#p" />
<use x="70" y="115" xlink:href="#p" />
<use x="70" y="125" xlink:href="#p" />
<use x="70" y="130" xlink:href="#p" />
<use x="70" y="140" xlink:href="#p" />
<use x="70" y="145" xlink:href="#p" />
<use x="70" y="150" xlink:href="#p" />
<use x="70" y="155" xlink:href="#p" />
<use x="70" y="165" xlink:href="#p" />
<use x="70" y="175" xlink:href="#p" />
<use x="70" y="180" xlink:href="#p" />
<use x="70" y="190" xlink:href="#p" />
<use x="70" y="215" xlink:href="#p" />
<use x="70" y="220" xlink:href="#p" />
<use x="70" y="230" xlink:href="#p" />
<use x="70" y="235" xlink:href="#p" />
<use x="70" y="240" xlink:href="#p" />
<use x="70" y="245" xlink:href="#p" />
<use x="75" y="20" xlink:href="#p" />
<use x="75" y="30" xlink:href="#p" />
<use x="75" y="45" xlink:href="#p" />
<use x="75" y="50" xlink:href="#p" />
<use x="75" y="55" xlink:href="#p" />
<use x="75" y="60" xlink:href="#p" />
<use x="75" y="70" xlink:href="#p" />
<use x="75" y="90" xlink:href="#p" />
<use x="75" y="105" xlink:href="#p" />
<use x="75" y="115" xlink:href="#p" />
<use x="75" y="120" xlink:href="#p" />
<use x="75" y="125" xlink:href="#p" />
<use x="75" y="130" xlink:href="#p" />
<use x="75" y="140" xlink:href="#p" />
<use x="75" y="150" xlink:href="#p" />
<use x="75" y="160" xlink:href="#p" />
<use x="75" y="185" xlink:href="#p" />
<use x="75" y="195" xlink:href="#p" />
<use x="75" y="210" xlink:href="#p" />
<use x="75" y="220" xlink:href="#p" />
<use x="75" y="230" xlink:href="#p" />
<use x="75" y="240" xlink:href="#p" />
<use x="75" y="250" xlink:href="#p" />
<use x="80" y="10" xlink:href="#p" />
<use x="80" y="35" xlink:href="#p" />
<use x="80" y="40" xlink:href="#p" />
<use x="80" y="55" xlink:href="#p" />
<use x="80" y="60" xlink:href="#p" />
<use x="80" y="65" xlink:href="#p" />
<use x="80" y="70" xlink:href="#p" />
<use x="80" y="80" xlink:href="#p" />
<use x="80" y="85" xlink:href="#p" />
<use x="80" y="95" xlink:href="#p" />
<use x="80" y="135" xlink:href="#p" />
<use x="80" y="140" xlink:href="#p" />
<use x="80" y="145" xlink:href="#p" />
<use x="80" y="150" xlink:href="#p" />
<use x="80" y="160" xlink:href="#p" />
<use x="80" y="165" xlink:href="#p" />
<use x="80" y="175" xlink:href="#p" />
<use x="80" y="215" xlink:href="#p" />
<use x="80" y="220" xlink:href="#p" />
<use x="80" y="225" xlink:href="#p" />
<use x="80" y="230" xlink:href="#p" />
<use x="85" y="15" xlink:href="#p" />
<use x="85" y="25" xlink:href="#p" />
<use x="85" y="35" xlink:href="#p" />
<use x="85" y="65" xlink:href="#p" />
<use x="85" y="75" xlink:href="#p" />
<use x="85" y="85" xlink:href="#p" />
<use x="85" y="90" xlink:href="#p" />
<use x="85" y="105" xlink:href="#p" />
<use x="85" y="110" xlink:href="#p" />
<use x="85" y="120" xlink:href="#p" />
<use x="85" y="130" xlink:href="#p" />
<use x="85" y="140" xlink:href="#p" />
<use x="85" y="145" xlink:href="#p" />
<use x="85" y="155" xlink:href="#p" />
<use x="85" y="165" xlink:href="#p" />
<use x="85" y="170" xlink:href="#p" />
<use x="85" y="175" xlink:href="#p" />
<use x="85" y="185" xlink:href="#p" />
<use x="85" y="190" xlink:href="#p" />
<use x="85" y="200" xlink:href="#p" />
<use x="85" y="210" xlink:href="#p" />
<use x="85" y="215" xlink:href="#p" />
<use x="85" y="220" xlink:href="#p" />
<use x="85" y="225" xlink:href="#p" />
<use x="85" y="235" xlink:href="#p" />
<use x="85" y="245" xlink:href="#p" />
<use x="85" y="250" xlink:href="#p" />
<use x="90" y="30" xlink:href="#p" />
<use x="90" y="35" xlink:href="#p" />
<use x="90" y="40" xlink:href="#p" />
<use x="90" y="45" xlink:href="#p" />
<use x="90" y="50" xlink:href="#p" />
<use x="90" y="65" xlink:href="#p" />
<use x="90" y="90" xlink:href="#p" />
<use x="90" y="100" xlink:href="#p" />
<use x="90" y="115" xlink:href="#p" />
<use x="90" y="120" xlink:href="#p" />
<use x="90" y="125" xlink:href="#p" />
<use x="90" y="130" xlink:href="#p" />
<use x="90" y="170" xlink:href="#p" />
<use x="90" y="180" xlink:href="#p" />
<use x="90" y="185" xlink:href="#p" />
<use x="90" y="195" xlink:href="#p" />
<use x="90" y="200" xlink:href="#p" />
<use x="90" y="205" xlink:href="#p" />
<use x="90" y="210" xlink:href="#p" />
<use x="90" y="250" xlink:href="#p" />
<use x="95" y="10" xlink:href="#p" />
<use x="95" y="20" xlink:href="#p" />
<use x="95" y="30" xlink:href="#p" />
<use x="95" y="35" xlink:href="#p" />
<use x="95" y="50" xlink:href="#p" />
<use x="95" y="60" xlink:href="#p" />
<use x="95" y="70" xlink:href="#p" />
<use x="95" y="90" xlink:href="#p" />
<use x="95" y="105" xlink:href="#p" />
<use x="95" y="115" xlink:href="#p" />
<use x="95" y="125" xlink:href="#p" />
<use x="95" y="130" xlink:href="#p" />
<use x="95" y="140" xlink:href="#p" />
<use x="95" y="150" xlink:href="#p" />
<use x="95" y="165" xlink:href="#p" />
<use x="95" y="170" xlink:href="#p" />
<use x="95" y="175" xlink:href="#p" />
<use x="95" y="185" xlink:href="#p" />
<use x="95" y="195" xlink:href="#p" />
<use x="95" y="210" xlink:href="#p" />
<use x="95" y="220" xlink:href="#p" />
<use x="95" y="230" xlink:href="#p" />
<use x="95" y="240" xlink:href="#p" />
<use x="95" y="245" xlink:href="#p" />
<use x="100" y="15" xlink:href="#p" />
<use x="100" y="20" xlink:href="#p" />
<use x="100" y="25" xlink:href="#p" />
<use x="100" y="30" xlink:href="#p" />
<use x="100" y="35" xlink:href="#p" />
<use x="100" y="40" xlink:href="#p" />
<use x="100" y="45" xlink:href="#p" />
<use x="100" y="50" xlink:href="#p" />
<use x="100" y="75" xlink:href="#p" />
<use x="100" y="85" xlink:href="#p" />
<use x="100" y="90" xlink:href="#p" />
<use x="100" y="100" xlink:href="#p" />
<use x="100" y="105" xlink:href="#p" />
<use x="100" y="110" xlink:href="#p" />
<use x="100" y="115" xlink:href="#p" />
<use x="100" y="120" xlink:href="#p" />
<use x="100" y="130" xlink:href="#p" />
<use x="100" y="155" xlink:href="#p" />
<use x="100" y="160" xlink:href="#p" />
<use x="100" y="165" xlink:href="#p" />
<use x="100" y="170" xlink:href="#p" />
<use x="100" y="180" xlink:href="#p" />
<use x="100" y="185" xlink:href="#p" />
<use x="100" y="190" xlink:href="#p" />
<use x="100" y="195" xlink:href="#p" />
<use x="100" y="200" xlink:href="#p" />
<use x="100" y="210" xlink:href="#p" />
<use x="100" y="235" xlink:href="#p" />
<use x="100" y="240" xlink:href="#p" />
<use x="100" y="245" xlink:href="#p" />
<use x="100" y="250" xlink:href="#p" />
<use x="105" y="10" xlink:href="#p" />
<use x="105" y="20" xlink:href="#p" />
<use x="105" y="30" xlink:href="#p" />
<use x="105" y="45" xlink:href="#p" />
<use x="105" y="55" xlink:href="#p" />
<use x="105" y="60" xlink:href="#p" />
<use x="105" y="70" xlink:href="#p" />
<use x="105" y="80" xlink:href="#p" />
<use x="105" y="95" xlink:href="#p" />
<use x="105" y="100" xlink:href="#p" />
<use x="105" y="105" xlink:href="#p" />
<use x="105" y="115" xlink:href="#p" />
<use x="105" y="125" xlink:href="#p" />
<use x="105" y="135" xlink:href="#p" />
<use x="105" y="150" xlink:href="#p" />
<use x="105" y="160" xlink:href="#p" />
<use x="105" y="175" xlink:href="#p" />
<use x="105" y="195" xlink:href="#p" />
<use x="105" y="205" xlink:href="#p" />
<use x="105" y="225" xlink:href="#p" />
<use x="105" y="230" xlink:href="#p" />
<use x="105" y="240" xlink:href="#p" />
<use x="110" y="20" xlink:href="#p" />
<use x="110" y="30" xlink:href="#p" />
<use x="110" y="35" xlink:href="#p" />
<use x="110" y="40" xlink:href="#p" />
<use x="110" y="45" xlink:href="#p" />
<use x="110" y="50" xlink:href="#p" />
<use x="110" y="90" xlink:href="#p" />
<use x="110" y="115" xlink:href="#p" />
<use x="110" y="120" xlink:href="#p" />
<use x="110" y="125" xlink:href="#p" />
<use x="110" y="130" xlink:href="#p" />
<use x="110" y="145" xlink:href="#p" />
<use x="110" y="170" xlink:href="#p" />
<use x="110" y="195" xlink:href="#p" />
<use x="110" y="200" xlink:href="#p" />
<use x="110" y="205" xlink:href="#p" />
<use x="110" y="210" xlink:href="#p" />
<use x="110" y="220" xlink:href="#p" />
<use x="110" y="250" xlink:href="#p" />
<use x="115" y="25" xlink:href="#p" />
<use x="115" y="45" xlink:href="#p" />
<use x="115" y="50" xlink:href="#p" />
<use x="115" y="60" xlink:href="#p" />
<use x="115" y="70" xlink:href="#p" />
<use x="115" y="75" xlink:href="#p" />
<use x="115" y="85" xlink:href="#p" />
<use x="115" y="95" xlink:href="#p" />
<use x="115" y="110" xlink:href="#p" />
<use x="115" y="125" xlink:href="#p" />
<use x="115" y="140" xlink:href="#p" />
<use x="115" y="155" xlink:href="#p" />
<use x="115" y="165" xlink:href="#p" />
<use x="115" y="170" xlink:href="#p" />
<use x="115" y="175" xlink:href="#p" />
<use x="115" y="180" xlink:href="#p" />
<use x="115" y="195" xlink:href="#p" />
<use x="115" y="220" xlink:href="#p" />
<use x="115" y="235" xlink:href="#p" />
<use x="115" y="240" xlink:href="#p" />
<use x="115" y="245" xlink:href="#p" />
<use x="115" y="250" xlink:href="#p" />
<use x="120" y="15" xlink:href="#p" />
<use x="120" y="20" xlink:href="#p" />
<use x="120" y="25" xlink:href="#p" />
<use x="120" y="30" xlink:href="#p" />
<use x="120" y="35" xlink:href="#p" />
<use x="120" y="40" xlink:href="#p" />
<use x="120" y="45" xlink:href="#p" />
<use x="120" y="50" xlink:href="#p" />
<use x="120" y="70" xlink:href="#p" />
<use x="120" y="95" xlink:href="#p" />
<use x="120" y="110" xlink:href="#p" />
<use x="120" y="115" xlink:href="#p" />
<use x="120" y="120" xlink:href="#p" />
<use x="120" y="125" xlink:href="#p" />
<use x="120" y="130" xlink:href="#p" />
<use x="120" y="135" xlink:href="#p" />
<use x="120" y="140" xlink:href="#p" />
<use x="120" y="150" xlink:href="#p" />
<use x="120" y="155" xlink:href="#p" />
<use x="120" y="160" xlink:href="#p" />
<use x="120" y="175" xlink:href="#p" />
<use x="120" y="185" xlink:href="#p" />
<use x="120" y="190" xlink:href="#p" />
<use x="120" y="210" xlink:href="#p" />
<use x="120" y="215" xlink:href="#p" />
<use x="120" y="220" xlink:href="#p" />
<use x="120" y="225" xlink:href="#p" />
<use x="120" y="230" xlink:href="#p" />
<use x="125" y="10" xlink:href="#p" />
<use x="125" y="20" xlink:href="#p" />
<use x="125" y="30" xlink:href="#p" />
<use x="125" y="50" xlink:href="#p" />
<use x="125" y="55" xlink:href="#p" />
<use x="125" y="70" xlink:href="#p" />
<use x="125" y="75" xlink:href="#p" />
<use x="125" y="90" xlink:href="#p" />
<use x="125" y="100" xlink:href="#p" />
<use x="125" y="110" xlink:href="#p" />
<use x="125" y="115" xlink:href="#p" />
<use x="125" y="120" xlink:href="#p" />
<use x="125" y="140" xlink:href="#p" />
<use x="125" y="145" xlink:href="#p" />
<use x="125" y="150" xlink:href="#p" />
<use x="125" y="160" xlink:href="#p" />
<use x="125" y="170" xlink:href="#p" />
<use x="125" y="175" xlink:href="#p" />
<use x="125" y="185" xlink:href="#p" />
<use x="125" y="195" xlink:href="#p" />
<use x="125" y="205" xlink:href="#p" />
<use x="125" y="210" xlink:href="#p" />
<use x="125" y="230" xlink:href="#p" />
<use x="125" y="240" xlink:href="#p" />
<use x="125" y="245" xlink:href="#p" />
<use x="125" y="250" xlink:href="#p" />
<use x="130" y="10" xlink:href="#p" />
<use x="130" y="15" xlink:href="#p" />
<use x="130" y="20" xlink:href="#p" />
<use x="130" y="25" xlink:href="#p" />
<use x="130" y="30" xlink:href="#p" />
<use x="130" y="40" xlink:href="#p" />
<use x="130" y="50" xlink:href="#p" />
<use x="130" y="55" xlink:href="#p" />
<use x="130" y="60" xlink:href="#p" />
<use x="130" y="70" xlink:href="#p" />
<use x="130" y="80" xlink:href="#p" />
<use x="130" y="85" xlink:href="#p" />
<use x="130" y="110" xlink:href="#p" />
<use x="130" y="115" xlink:href="#p" />
<use x="130" y="120" xlink:href="#p" />
<use x="130" y="130" xlink:href="#p" />
<use x="130" y="140" xlink:href="#p" />
<use x="130" y="145" xlink:href="#p" />
<use x="130" y="150" xlink:href="#p" />
<use x="130" y="155" xlink:href="#p" />
<use x="130" y="160" xlink:href="#p" />
<use x="130" y="165" xlink:href="#p" />
<use x="130" y="175" xlink:href="#p" />
<use x="130" y="180" xlink:href="#p" />
<use x="130" y="185" xlink:href="#p" />
<use x="130" y="190" xlink:href="#p" />
<use x="130" y="210" xlink:href="#p" />
<use x="130" y="220" xlink:href="#p" />
<use x="130" y="230" xlink:href="#p" />
<use x="130" y="240" xlink:href="#p" />
<use x="130" y="245" xlink:href="#p" />
<use x="130" y="250" xlink:href="#p" />
<use x="135" y="10" xlink:href="#p" />
<use x="135" y="30" xlink:href="#p" />
<use x="135" y="50" xlink:href="#p" />
<use x="135" y="55" xlink:href="#p" />
<use x="135" y="65" xlink:href="#p" />
<use x="135" y="70" xlink:href="#p" />
<use x="135" y="75" xlink:href="#p" />
<use x="135" y="80" xlink:href="#p" />
<use x="135" y="85" xlink:href="#p" />
<use x="135" y="90" xlink:href="#p" />
<use x="135" y="95" xlink:href="#p" />
<use x="135" y="105" xlink:href="#p" />
<use x="135" y="115" xlink:href="#p" />
<use x="135" y="120" xlink:href="#p" />
<use x="135" y="140" xlink:href="#p" />
<use x="135" y="145" xlink:href="#p" />
<use x="135" y="150" xlink:href="#p" />
<use x="135" y="155" xlink:href="#p" />
<use x="135" y="170" xlink:href="#p" />
<use x="135" y="175" xlink:href="#p" />
<use x="135" y="180" xlink:href="#p" />
<use x="135" y="185" xlink:href="#p" />
<use x="135" y="200" xlink:href="#p" />
<use x="135" y="210" xlink:href="#p" />
<use x="135" y="230" xlink:href="#p" />
<use x="135" y="240" xlink:href="#p" />
<use x="140" y="25" xlink:href="#p" />
<use x="140" y="30" xlink:href="#p" />
<use x="140" y="35" xlink:href="#p" />
<use x="140" y="40" xlink:href="#p" />
<use x="140" y="45" xlink:href="#p" />
<use x="140" y="50" xlink:href="#p" />
<use x="140" y="60" xlink:href="#p" />
<use x="140" y="65" xlink:href="#p" />
<use x="140" y="70" xlink:href="#p" />
<use x="140" y="100" xlink:href="#p" />
<use x="140" y="120" xlink:href="#p" />
<use x="140" y="125" xlink:href="#p" />
<use x="140" y="130" xlink:href="#p" />
<use x="140" y="135" xlink:href="#p" />
<use x="140" y="140" xlink:href="#p" />
<use x="140" y="165" xlink:href="#p" />
<use x="140" y="205" xlink:href="#p" />
<use x="140" y="210" xlink:href="#p" />
<use x="140" y="215" xlink:href="#p" />
<use x="140" y="220" xlink:href="#p" />
<use x="140" y="225" xlink:href="#p" />
<use x="140" y="230" xlink:href="#p" />
<use x="140" y="240" xlink:href="#p" />
<use x="145" y="10" xlink:href="#p" />
<use x="145" y="15" xlink:href="#p" />
<use x="145" y="30" xlink:href="#p" />
<use x="145" y="55" xlink:href="#p" />
<use x="145" y="65" xlink:href="#p" />
<use x="145" y="75" xlink:href="#p" />
<use x="145" y="80" xlink:href="#p" />
<use x="145" y="85" xlink:href="#p" />
<use x="145" y="95" xlink:href="#p" />
<use x="145" y="100" xlink:href="#p" />
<use x="145" y="105" xlink:href="#p" />
<use x="145" y="110" xlink:href="#p" />
<use x="145" y="120" xlink:href="#p" />
<use x="145" y="140" xlink:href="#p" />
<use x="145" y="145" xlink:href="#p" />
<use x="145" y="150" xlink:href="#p" />
<use x="145" y="155" xlink:href="#p" />
<use x="145" y="160" xlink:href="#p" />
<use x="145" y="180" xlink:href="#p" />
<use x="145" y="185" xlink:href="#p" />
<use x="145" y="190" xlink:href="#p" />
<use x="145" y="195" xlink:href="#p" />
<use x="145" y="200" xlink:href="#p" />
<use x="145" y="205" xlink:href="#p" />
<use x="145" y="210" xlink:href="#p" />
<use x="145" y="225" xlink:href="#p" />
<use x="145" y="230" xlink:href="#p" />
<use x="145" y="235" xlink:href="#p" />
<use x="145" y="250" xlink:href="#p" />
<use x="150" y="20" xlink:href="#p" />
<use x="150" y="30" xlink:href="#p" />
<use x="150" y="40" xlink:href="#p" />
<use x="150" y="55" xlink:href="#p" />
<use x="150" y="95" xlink:href="#p" />
<use x="150" y="105" xlink:href="#p" />
<use x="150" y="115" xlink:href="#p" />
<use x="150" y="120" xlink:href="#p" />
<use x="150" y="125" xlink:href="#p" />
<use x="150" y="145" xlink:href="#p" />
<use x="150" y="165" xlink:href="#p" />
<use x="150" y="175" xlink:href="#p" />
<use x="150" y="185" xlink:href="#p" />
<use x="150" y="195" xlink:href="#p" />
<use x="150" y="205" xlink:href="#p" />
<use x="150" y="215" xlink:href="#p" />
<use x="150" y="220" xlink:href="#p" />
<use x="150" y="225" xlink:href="#p" />
<use x="150" y="240" xlink:href="#p" />
<use x="150" y="245" xlink:href="#p" />
<use x="155" y="10" xlink:href="#p" />
<use x="155" y="15" xlink:href="#p" />
<use x="155" y="30" xlink:href="#p" />
<use x="155" y="35" xlink:href="#p" />
<use x="155" y="65" xlink:href="#p" />
<use x="155" y="85" xlink:href="#p" />
<use x="155" y="95" xlink:href="#p" />
<use x="155" y="115" xlink:href="#p" />
<use x="155" y="125" xlink:href="#p" />
<use x="155" y="130" xlink:href="#p" />
<use x="155" y="135" xlink:href="#p" />
<use x="155" y="140" xlink:href="#p" />
<use x="155" y="145" xlink:href="#p" />
<use x="155" y="150" xlink:href="#p" />
<use x="155" y="155" xlink:href="#p" />
<use x="155" y="160" xlink:href="#p" />
<use x="155" y="175" xlink:href="#p" />
<use x="155" y="195" xlink:href="#p" />
<use x="155" y="205" xlink:href="#p" />
<use x="155" y="210" xlink:href="#p" />
<use x="155" y="230" xlink:href="#p" />
<use x="155" y="235" xlink:href="#p" />
<use x="155" y="240" xlink:href="#p" />
<use x="155" y="245" xlink:href="#p" />
<use x="155" y="250" xlink:href="#p" />
<use x="160" y="10" xlink:href="#p" />
<use x="160" y="20" xlink:href="#p" />
<use x="160" y="25" xlink:href="#p" />
<use x="160" y="30" xlink:href="#p" />
<use x="160" y="35" xlink:href="#p" />
<use x="160" y="40" xlink:href="#p" />
<use x="160" y="45" xlink:href="#p" />
<use x="160" y="55" xlink:href="#p" />
<use x="160" y="70" xlink:href="#p" />
<use x="160" y="75" xlink:href="#p" />
<use x="160" y="95" xlink:href="#p" />
<use x="160" y="105" xlink:href="#p" />
<use x="160" y="115" xlink:href="#p" />
<use x="160" y="120" xlink:href="#p" />
<use x="160" y="135" xlink:href="#p" />
<use x="160" y="145" xlink:href="#p" />
<use x="160" y="150" xlink:href="#p" />
<use x="160" y="155" xlink:href="#p" />
<use x="160" y="160" xlink:href="#p" />
<use x="160" y="165" xlink:href="#p" />
<use x="160" y="175" xlink:href="#p" />
<use x="160" y="185" xlink:href="#p" />
<use x="160" y="195" xlink:href="#p" />
<use x="160" y="200" xlink:href="#p" />
<use x="160" y="205" xlink:href="#p" />
<use x="160" y="215" xlink:href="#p" />
<use x="160" y="225" xlink:href="#p" />
<use x="160" y="230" xlink:href="#p" />
<use x="160" y="235" xlink:href="#p" />
<use x="160" y="240" xlink:href="#p" />
<use x="165" y="10" xlink:href="#p" />
<use x="165" y="15" xlink:href="#p" />
<use x="165" y="35" xlink:href="#p" />
<use x="165" y="50" xlink:href="#p" />
<use x="165" y="60" xlink:href="#p" />
<use x="165" y="90" xlink:href="#p" />
<use x="165" y="95" xlink:href="#p" />
<use x="165" y="125" xlink:href="#p" />
<use x="165" y="130" xlink:href="#p" />
<use x="165" y="140" xlink:href="#p" />
<use x="165" y="160" xlink:href="#p" />
<use x="165" y="165" xlink:href="#p" />
<use x="165" y="170" xlink:href="#p" />
<use x="165" y="175" xlink:href="#p" />
<use x="165" y="180" xlink:href="#p" />
<use x="165" y="185" xlink:href="#p" />
<use x="165" y="190" xlink:href="#p" />
<use x="165" y="195" xlink:href="#p" />
<use x="165" y="200" xlink:href="#p" />
<use x="165" y="205" xlink:href="#p" />
<use x="165" y="210" xlink:href="#p" />
<use x="165" y="215" xlink:href="#p" />
<use x="165" y="220" xlink:href="#p" />
<use x="165" y="225" xlink:href="#p" />
<use x="165" y="230" xlink:href="#p" />
<use x="165" y="235" xlink:href="#p" />
<use x="165" y="250" xlink:href="#p" />
<use x="170" y="20" xlink:href="#p" />
<use x="170" y="30" xlink:href="#p" />
<use x="170" y="40" xlink:href="#p" />
<use x="170" y="45" xlink:href="#p" />
<use x="170" y="60" xlink:href="#p" />
<use x="170" y="65" xlink:href="#p" />
<use x="170" y="85" xlink:href="#p" />
<use x="170" y="100" xlink:href="#p" />
<use x="170" y="105" xlink:href="#p" />
<use x="170" y="115" xlink:href="#p" />
<use x="170" y="125" xlink:href="#p" />
<use x="170" y="145" xlink:href="#p" />
<use x="170" y="160" xlink:href="#p" />
<use x="170" y="175" xlink:href="#p" />
<use x="170" y="195" xlink:href="#p" />
<use x="170" y="205" xlink:href="#p" />
<use x="170" y="245" xlink:href="#p" />
<use x="175" y="20" xlink:href="#p" />
<use x="175" y="25" xlink:href="#p" />
<use x="175" y="55" xlink:href="#p" />
<use x="175" y="60" xlink:href="#p" />
<use x="175" y="70" xlink:href="#p" />
<use x="175" y="75" xlink:href="#p" />
<use x="175" y="80" xlink:href="#p" />
<use x="175" y="90" xlink:href="#p" />
<use x="175" y="100" xlink:href="#p" />
<use x="175" y="105" xlink:href="#p" />
<use x="175" y="110" xlink:href="#p" />
<use x="175" y="120" xlink:href="#p" />
<use x="175" y="140" xlink:href="#p" />
<use x="175" y="145" xlink:href="#p" />
<use x="175" y="160" xlink:href="#p" />
<use x="175" y="165" xlink:href="#p" />
<use x="175" y="200" xlink:href="#p" />
<use x="175" y="210" xlink:href="#p" />
<use x="175" y="220" xlink:href="#p" />
<use x="175" y="230" xlink:href="#p" />
<use x="175" y="240" xlink:href="#p" />
<use x="175" y="245" xlink:href="#p" />
<use x="175" y="250" xlink:href="#p" />
<use x="180" y="15" xlink:href="#p" />
<use x="180" y="40" xlink:href="#p" />
<use x="180" y="50" xlink:href="#p" />
<use x="180" y="60" xlink:href="#p" />
<use x="180" y="65" xlink:href="#p" />
<use x="180" y="80" xlink:href="#p" />
<use x="180" y="85" xlink:href="#p" />
<use x="180" y="90" xlink:href="#p" />
<use x="180" y="110" xlink:href="#p" />
<use x="180" y="125" xlink:href="#p" />
<use x="180" y="140" xlink:href="#p" />
<use x="180" y="150" xlink:href="#p" />
<use x="180" y="180" xlink:href="#p" />
<use x="180" y="220" xlink:href="#p" />
<use x="180" y="245" xlink:href="#p" />
<use x="185" y="10" xlink:href="#p" />
<use x="185" y="15" xlink:href="#p" />
<use x="185" y="35" xlink:href="#p" />
<use x="185" y="45" xlink:href="#p" />
<use x="185" y="50" xlink:href="#p" />
<use x="185" y="55" xlink:href="#p" />
<use x="185" y="60" xlink:href="#p" />
<use x="185" y="70" xlink:href="#p" />
<use x="185" y="75" xlink:href="#p" />
<use x="185" y="80" xlink:href="#p" />
<use x="185" y="85" xlink:href="#p" />
<use x="185" y="90" xlink:href="#p" />
<use x="185" y="110" xlink:href="#p" />
<use x="185" y="160" xlink:href="#p" />
<use x="185" y="180" xlink:href="#p" />
<use x="185" y="190" xlink:href="#p" />
<use x="185" y="195" xlink:href="#p" />
<use x="185" y="200" xlink:href="#p" />
<use x="185" y="230" xlink:href="#p" />
<use x="185" y="235" xlink:href="#p" />
<use x="185" y="245" xlink:href="#p" />
<use x="185" y="250" xlink:href="#p" />
<use x="190" y="15" xlink:href="#p" />
<use x="190" y="25" xlink:href="#p" />
<use x="190" y="35" xlink:href="#p" />
<use x="190" y="40" xlink:href="#p" />
<use x="190" y="50" xlink:href="#p" />
<use x="190" y="60" xlink:href="#p" />
<use x="190" y="70" xlink:href="#p" />
<use x="190" y="90" xlink:href="#p" />
<use x="190" y="110" xlink:href="#p" />
<use x="190" y="115" xlink:href="#p" />
<use x="190" y="120" xlink:href="#p" />
<use x="190" y="125" xlink:href="#p" />
<use x="190" y="130" xlink:href="#p" />
<use x="190" y="150" xlink:href="#p" />
<use x="190" y="165" xlink:href="#p" />
<use x="190" y="170" xlink:href="#p" />
<use x="190" y="190" xlink:href="#p" />
<use x="190" y="210" xlink:href="#p" />
<use x="190" y="215" xlink:href="#p" />
<use x="190" y="230" xlink:href="#p" />
<use x="190" y="235" xlink:href="#p" />
<use x="190" y="250" xlink:href="#p" />
<use x="195" y="15" xlink:href="#p" />
<use x="195" y="25" xlink:href="#p" />
<use x="195" y="30" xlink:href="#p" />
<use x="195" y="45" xlink:href="#p" />
<use x="195" y="50" xlink:href="#p" />
<use x="195" y="55" xlink:href="#p" />
<use x="195" y="65" xlink:href="#p" />
<use x="195" y="75" xlink:href="#p" />
<use x="195" y="85" xlink:href="#p" />
<use x="195" y="90" xlink:href="#p" />
<use x="195" y="95" xlink:href="#p" />
<use x="195" y="110" xlink:href="#p" />
<use x="195" y="115" xlink:href="#p" />
<use x="195" y="125" xlink:href="#p" />
<use x="195" y="130" xlink:href="#p" />
<use x="195" y="150" xlink:href="#p" />
<use x="195" y="155" xlink:href="#p" />
<use x="195" y="175" xlink:href="#p" />
<use x="195" y="180" xlink:href="#p" />
<use x="195" y="190" xlink:href="#p" />
<use x="195" y="195" xlink:href="#p" />
<use x="195" y="200" xlink:href="#p" />
<use x="195" y="205" xlink:href="#p" />
<use x="195" y="215" xlink:href="#p" />
<use x="195" y="225" xlink:href="#p" />
<use x="195" y="235" xlink:href="#p" />
<use x="195" y="250" xlink:href="#p" />
<use x="200" y="15" xlink:href="#p" />
<use x="200" y="35" xlink:href="#p" />
<use x="200" y="40" xlink:href="#p" />
<use x="200" y="45" xlink:href="#p" />
<use x="200" y="50" xlink:href="#p" />
<use x="200" y="60" xlink:href="#p" />
<use x="200" y="70" xlink:href="#p" />
<use x="200" y="80" xlink:href="#p" />
<use x="200" y="85" xlink:href="#p" />
<use x="200" y="100" xlink:href="#p" />
<use x="200" y="105" xlink:href="#p" />
<use x="200" y="120" xlink:href="#p" />
<use x="200" y="140" xlink:href="#p" />
<use x="200" y="150" xlink:href="#p" />
<use x="200" y="160" xlink:href="#p" />
<use x="200" y="180" xlink:href="#p" />
<use x="200" y="200" xlink:href="#p" />
<use x="200" y="220" xlink:href="#p" />
<use x="200" y="240" xlink:href="#p" />
<use x="205" y="15" xlink:href="#p" />
<use x="205" y="20" xlink:href="#p" />
<use x="205" y="25" xlink:href="#p" />
<use x="205" y="45" xlink:href="#p" />
<use x="205" y="50" xlink:href="#p" />
<use x="205" y="65" xlink:href="#p" />
<use x="205" y="70" xlink:href="#p" />
<use x="205" y="80" xlink:href="#p" />
<use x="205" y="90" xlink:href="#p" />
<use x="205" y="100" xlink:href="#p" />
<use x="205" y="125" xlink:href="#p" />
<use x="205" y="130" xlink:href="#p" />
<use x="205" y="135" xlink:href="#p" />
<use x="205" y="140" xlink:href="#p" />
<use x="205" y="150" xlink:href="#p" />
<use x="205" y="155" xlink:href="#p" />
<use x="205" y="170" xlink:href="#p" />
<use x="205" y="180" xlink:href="#p" />
<use x="205" y="190" xlink:href="#p" />
<use x="205" y="195" xlink:href="#p" />
<use x="205" y="200" xlink:href="#p" />
<use x="205" y="210" xlink:href="#p" />
<use x="205" y="215" xlink:href="#p" />
<use x="205" y="220" xlink:href="#p" />
<use x="205" y="225" xlink:href="#p" />
<use x="205" y="230" xlink:href="#p" />
<use x="205" y="235" xlink:href="#p" />
<use x="205" y="240" xlink:href="#p" />
<use x="205" y="245" xlink:href="#p" />
<use x="210" y="10" xlink:href="#p" />
<use x="210" y="15" xlink:href="#p" />
<use x="210" y="20" xlink:href="#p" />
<use x="210" y="40" xlink:href="#p" />
<use x="210" y="45" xlink:href="#p" />
<use x="210" y="50" xlink:href="#p" />
<use x="210" y="60" xlink:href="#p" />
<use x="210" y="70" xlink:href="#p" />
<use x="210" y="90" xlink:href="#p" />
<use x="210" y="100" xlink:href="#p" />
<use x="210" y="105" xlink:href="#p" />
<use x="210" y="110" xlink:href="#p" />
<use x="210" y="120" xlink:href="#p" />
<use x="210" y="125" xlink:href="#p" />
<use x="210" y="130" xlink:href="#p" />
<use x="210" y="135" xlink:href="#p" />
<use x="210" y="140" xlink:href="#p" />
<use x="210" y="145" xlink:href="#p" />
<use x="210" y="150" xlink:href="#p" />
<use x="210" y="165" xlink:href="#p" />
<use x="210" y="185" xlink:href="#p" />
<use x="210" y="200" xlink:href="#p" />
<use x="210" y="205" xlink:href="#p" />
<use x="210" y="210" xlink:href="#p" />
<use x="210" y="215" xlink:href="#p" />
<use x="210" y="220" xlink:href="#p" />
<use x="210" y="225" xlink:href="#p" />
<use x="210" y="230" xlink:href="#p" />
<use x="210" y="235" xlink:href="#p" />
<use x="215" y="50" xlink:href="#p" />
<use x="215" y="55" xlink:href="#p" />
<use x="215" y="75" xlink:href="#p" />
<use x="215" y="80" xlink:href="#p" />
<use x="215" y="85" xlink:href="#p" />
<use x="215" y="95" xlink:href="#p" />
<use x="215" y="105" xlink:href="#p" />
<use x="215" y="115" xlink:href="#p" />
<use x="215" y="120" xlink:href="#p" />
<use x="215" y="140" xlink:href="#p" />
<use x="215" y="145" xlink:href="#p" />
<use x="215" y="150" xlink:href="#p" />
<use x="215" y="160" xlink:href="#p" />
<use x="215" y="175" xlink:href="#p" />
<use x="215" y="195" xlink:href="#p" />
<use x="215" y="200" xlink:href="#p" />
<use x="215" y="205" xlink:href="#p" />
<use x="215" y="210" xlink:href="#p" />
<use x="215" y="230" xlink:href="#p" />
<use x="215" y="235" xlink:href="#p" />
<use x="220" y="10" xlink:href="#p" />
<use x="220" y="15" xlink:href="#p" />
<use x="220" y="20" xlink:href="#p" />
<use x="220" y="25" xlink:href="#p" />
<use x="220" y="30" xlink:href="#p" />
<use x="220" y="35" xlink:href="#p" />
<use x="220" y="40" xlink:href="#p" />
<use x="220" y="55" xlink:href="#p" />
<use x="220" y="70" xlink:href="#p" />
<use x="220" y="75" xlink:href="#p" />
<use x="220" y="85" xlink:href="#p" />
<use x="220" y="95" xlink:href="#p" />
<use x="220" y="105" xlink:href="#p" />
<use x="220" y="110" xlink:href="#p" />
<use x="220" y="115" xlink:href="#p" />
<use x="220" y="120" xlink:href="#p" />
<use x="220" y="130" xlink:href="#p" />
<use x="220" y="140" xlink:href="#p" />
<use x="220" y="155" xlink:href="#p" />
<use x="220" y="160" xlink:href="#p" />
<use x="220" y="170" xlink:href="#p" />
<use x="220" y="180" xlink:href="#p" />
<use x="220" y="190" xlink:href="#p" />
<use x="220" y="195" xlink:href="#p" />
<use x="220" y="200" xlink:href="#p" />
<use x="220" y="210" xlink:href="#p" />
<use x="220" y="220" xlink:href="#p" />
<use x="220" y="230" xlink:href="#p" />
<use x="220" y="240" xlink:href="#p" />
<use x="220" y="245" xlink:href="#p" />
<use x="225" y="10" xlink:href="#p" />
<use x="225" y="40" xlink:href="#p" />
<use x="225" y="50" xlink:href="#p" />
<use x="225" y="70" xlink:href="#p" />
<use x="225" y="75" xlink:href="#p" />
<use x="225" y="80" xlink:href="#p" />
<use x="225" y="95" xlink:href="#p" />
<use x="225" y="100" xlink:href="#p" />
<use x="225" y="110" xlink:href="#p" />
<use x="225" y="115" xlink:href="#p" />
<use x="225" y="120" xlink:href="#p" />
<use x="225" y="140" xlink:href="#p" />
<use x="225" y="160" xlink:href="#p" />
<use x="225" y="175" xlink:href="#p" />
<use x="225" y="190" xlink:href="#p" />
<use x="225" y="200" xlink:href="#p" />
<use x="225" y="210" xlink:href="#p" />
<use x="225" y="230" xlink:href="#p" />
<use x="225" y="235" xlink:href="#p" />
<use x="225" y="240" xlink:href="#p" />
<use x="230" y="10" xlink:href="#p" />
<use x="230" y="20" xlink:href="#p" />
<use x="230" y="25" xlink:href="#p" />
<use x="230" y="30" xlink:href="#p" />
<use x="230" y="40" xlink:href="#p" />
<use x="230" y="65" xlink:href="#p" />
<use x="230" y="75" xlink:href="#p" />
<use x="230" y="85" xlink:href="#p" />
<use x="230" y="105" xlink:href="#p" />
<use x="230" y="120" xlink:href="#p" />
<use x="230" y="125" xlink:href="#p" />
<use x="230" y="130" xlink:href="#p" />
<use x="230" y="135" xlink:href="#p" />
<use x="230" y="140" xlink:href="#p" />
<use x="230" y="145" xlink:href="#p" />
<use x="230" y="150" xlink:href="#p" />
<use x="230" y="160" xlink:href="#p" />
<use x="230" y="170" xlink:href="#p" />
<use x="230" y="180" xlink:href="#p" />
<use x="230" y="190" xlink:href="#p" />
<use x="230" y="210" xlink:href="#p" />
<use x="230" y="215" xlink:href="#p" />
<use x="230" y="220" xlink:href="#p" />
<use x="230" y="225" xlink:href="#p" />
<use x="230" y="230" xlink:href="#p" />
<use x="230" y="235" xlink:href="#p" />
<use x="235" y="10" xlink:href="#p" />
<use x="235" y="20" xlink:href="#p" />
<use x="235" y="25" xlink:href="#p" />
<use x="235" y="30" xlink:href="#p" />
<use x="235" y="40" xlink:href="#p" />
<use x="235" y="50" xlink:href="#p" />
<use x="235" y="70" xlink:href="#p" />
<use x="235" y="80" xlink:href="#p" />
<use x="235" y="100" xlink:href="#p" />
<use x="235" y="115" xlink:href="#p" />
<use x="235" y="125" xlink:href="#p" />
<use x="235" y="130" xlink:href="#p" />
<use x="235" y="140" xlink:href="#p" />
<use x="235" y="145" xlink:href="#p" />
<use x="235" y="150" xlink:href="#p" />
<use x="235" y="155" xlink:href="#p" />
<use x="235" y="160" xlink:href="#p" />
<use x="235" y="165" xlink:href="#p" />
<use x="235" y="170" xlink:href="#p" />
<use x="235" y="195" xlink:href="#p" />
<use x="235" y="205" xlink:href="#p" />
<use x="235" y="210" xlink:href="#p" />
<use x="235" y="215" xlink:href="#p" />
<use x="235" y="225" xlink:href="#p" />
<use x="235" y="230" xlink:href="#p" />
<use x="235" y="235" xlink:href="#p" />
<use x="235" y="240" xlink:href="#p" />
<use x="235" y="245" xlink:href="#p" />
<use x="240" y="10" xlink:href="#p" />
<use x="240" y="20" xlink:href="#p" />
<use x="240" y="25" xlink:href="#p" />
<use x="240" y="30" xlink:href="#p" />
<use x="240" y="40" xlink:href="#p" />
<use x="240" y="70" xlink:href="#p" />
<use x="240" y="90" xlink:href="#p" />
<use x="240" y="95" xlink:href="#p" />
<use x="240" y="100" xlink:href="#p" />
<use x="240" y="120" xlink:href="#p" />
<use x="240" y="130" xlink:href="#p" />
<use x="240" y="135" xlink:href="#p" />
<use x="240" y="150" xlink:href="#p" />
<use x="240" y="170" xlink:href="#p" />
<use x="240" y="180" xlink:href="#p" />
<use x="240" y="190" xlink:href="#p" />
<use x="240" y="195" xlink:href="#p" />
<use x="240" y="200" xlink:href="#p" />
<use x="240" y="210" xlink:href="#p" />
<use x="240" y="220" xlink:href="#p" />
<use x="240" y="230" xlink:href="#p" />
<use x="240" y="250" xlink:href="#p" />
<use x="245" y="10" xlink:href="#p" />
<use x="245" y="40" xlink:href="#p" />
<use x="245" y="50" xlink:href="#p" />
<use x="245" y="60" xlink:href="#p" />
<use x="245" y="70" xlink:href="#p" />
<use x="245" y="80" xlink:href="#p" />
<use x="245" y="85" xlink:href="#p" />
<use x="245" y="90" xlink:href="#p" />
<use x="245" y="100" xlink:href="#p" />
<use x="245" y="105" xlink:href="#p" />
<use x="245" y="110" xlink:href="#p" />
<use x="245" y="120" xlink:href="#p" />
<use x="245" y="125" xlink:href="#p" />
<use x="245" y="130" xlink:href="#p" />
<use x="245" y="140" xlink:href="#p" />
<use x="245" y="150" xlink:href="#p" />
<use x="245" y="160" xlink:href="#p" />
<use x="245" y="165" xlink:href="#p" />
<use x="245" y="170" xlink:href="#p" />
<use x="245" y="180" xlink:href="#p" />
<use x="245" y="185" xlink:href="#p" />
<use x="245" y="195" xlink:href="#p" />
<use x="245" y="200" xlink:href="#p" />
<use x="245" y="205" xlink:href="#p" />
<use x="245" y="210" xlink:href="#p" />
<use x="245" y="220" xlink:href="#p" />
<use x="245" y="230" xlink:href="#p" />
<use x="245" y="235" xlink:href="#p" />
<use x="245" y="250" xlink:href="#p" />
<use x="250" y="10" xlink:href="#p" />
<use x="250" y="15" xlink:href="#p" />
<use x="250" y="20" xlink:href="#p" />
<use x="250" y="25" xlink:href="#p" />
<use x="250" y="30" xlink:href="#p" />
<use x="250" y="35" xlink:href="#p" />
<use x="250" y="40" xlink:href="#p" />
<use x="250" y="60" xlink:href="#p" />
<use x="250" y="80" xlink:href="#p" />
<use x="250" y="85" xlink:href="#p" />
<use x="250" y="100" xlink:href="#p" />
<use x="250" y="105" xlink:href="#p" />
<use x="250" y="110" xlink:href="#p" />
<use x="250" y="120" xlink:href="#p" />
<use x="250" y="140" xlink:href="#p" />
<use x="250" y="145" xlink:href="#p" />
<use x="250" y="150" xlink:href="#p" />
<use x="250" y="160" xlink:href="#p" />
<use x="250" y="170" xlink:href="#p" />
<use x="250" y="180" xlink:href="#p" />
<use x="250" y="185" xlink:href="#p" />
<use x="250" y="195" xlink:href="#p" />
<use x="250" y="200" xlink:href="#p" />
<use x="250" y="205" xlink:href="#p" />
<use x="250" y="220" xlink:href="#p" />
<use x="250" y="230" xlink:href="#p" />
<use x="250" y="235" xlink:href="#p" />
<use x="250" y="245" xlink:href="#p" />
<use x="250" y="250" xlink:href="#p" />
</g>

</svg>