<?xml version="1.0" encoding="utf-8"?>
<svg version="1.1" baseProfile="full"  width="795" height="795" viewBox="0 0 795 795"
		 xmlns="http://www.w3.org/2000/svg" xmlns:xlink="http://www.w3.org/1999/xlink" xmlns:ev="http://www.w3.org/2001/xml-events">
<desc></desc>
<rect width="795" height="795" fill="#ffffff" cx="0" cy="0" />
<defs>
<rect id="p" width="15" height="15" />
</defs>
<g fill="#000000">
<use x="30" y="30" xlink:href="#p" />
<use x="30" y="45" xlink:href="#p" />
<use x="30" y="60" xlink:href="#p" />
<use x="30" y="75" xlink:href="#p" />
<use x="30" y="90" xlink:href="#p" />
<use x="30" y="105" xlink:href="#p" />
<use x="30" y="120" xlink:href="#p" />
<use x="30" y="150" xlink:href="#p" />
<use x="30" y="165" xlink:href="#p" />
<use x="30" y="180" xlink:href="#p" />
<use x="30" y="195" xlink:href="#p" />
<use x="30" y="210" xlink:href="#p" />
<use x="30" y="240" xlink:href="#p" />
<use x="30" y="345" xlink:href="#p" />
<use x="30" y="360" xlink:href="#p" />
<use x="30" y="375" xlink:href="#p" />
<use x="30" y="390" xlink:href="#p" />
<use x="30" y="420" xlink:href="#p" />
<use x="30" y="435" xlink:href="#p" />
<use x="30" y="465" xlink:href="#p" />
<use x="30" y="480" xlink:href="#p" />
<use x="30" y="495" xlink:href="#p" />
<use x="30" y="510" xlink:href="#p" />
<use x="30" y="525" xlink:href="#p" />
<use x="30" y="540" xlink:href="#p" />
<use x="30" y="570" xlink:href="#p" />
<use x="30" y="630" xlink:href="#p" />
<use x="30" y="660" xlink:href="#p" />
<use x="30" y="675" xlink:href="#p" />
<use x="30" y="690" xlink:href="#p" />
<use x="30" y="705" xlink:href="#p" />
<use x="30" y="720" xlink:href="#p" />
<use x="30" y="735" xlink:href="#p" />
<use x="30" y="750" xlink:href="#p" />
<use x="45" y="30" xlink:href="#p" />
<use x="45" y="120" xlink:href="#p" />
<use x="45" y="150" xlink:href="#p" />
<use x="45" y="195" xlink:href="#p" />
<use x="45" y="210" xlink:href="#p" />
<use x="45" y="240" xlink:href="#p" />
<use x="45" y="300" xlink:href="#p" />
<use x="45" y="330" xlink:href="#p" />
<use x="45" y="405" xlink:href="#p" />
<use x="45" y="435" xlink:href="#p" />
<use x="45" y="450" xlink:href="#p" />
<use x="45" y="465" xlink:href="#p" />
<use x="45" y="480" xlink:href="#p" />
<use x="45" y="510" xlink:href="#p" />
<use x="45" y="525" xlink:href="#p" />
<use x="45" y="540" xlink:href="#p" />
<use x="45" y="555" xlink:href="#p" />
<use x="45" y="570" xlink:href="#p" />
<use x="45" y="585" xlink:href="#p" />
<use x="45" y="600" xlink:href="#p" />
<use x="45" y="615" xlink:href="#p" />
<use x="45" y="630" xlink:href="#p" />
<use x="45" y="660" xlink:href="#p" />
<use x="45" y="750" xlink:href="#p" />
<use x="60" y="30" xlink:href="#p" />
<use x="60" y="60" xlink:href="#p" />
<use x="60" y="75" xlink:href="#p" />
<use x="60" y="90" xlink:href="#p" />
<use x="60" y="120" xlink:href="#p" />
<use x="60" y="150" xlink:href="#p" />
<use x="60" y="165" xlink:href="#p" />
<use x="60" y="210" xlink:href="#p" />
<use x="60" y="225" xlink:href="#p" />
<use x="60" y="270" xlink:href="#p" />
<use x="60" y="315" xlink:href="#p" />
<use x="60" y="330" xlink:href="#p" />
<use x="60" y="375" xlink:href="#p" />
<use x="60" y="390" xlink:href="#p" />
<use x="60" y="405" xlink:href="#p" />
<use x="60" y="420" xlink:href="#p" />
<use x="60" y="450" xlink:href="#p" />
<use x="60" y="465" xlink:href="#p" />
<use x="60" y="480" xlink:href="#p" />
<use x="60" y="495" xlink:href="#p" />
<use x="60" y="555" xlink:href="#p" />
<use x="60" y="570" xlink:href="#p" />
<use x="60" y="585" xlink:href="#p" />
<use x="60" y="615" xlink:href="#p" />
<use x="60" y="630" xlink:href="#p" />
<use x="60" y="660" xlink:href="#p" />
<use x="60" y="690" xlink:href="#p" />
<use x="60" y="705" xlink:href="#p" />
<use x="60" y="720" xlink:href="#p" />
<use x="60" y="750" xlink:href="#p" />
<use x="75" y="30" xlink:href="#p" />
<use x="75" y="60" xlink:href="#p" />
<use x="75" y="75" xlink:href="#p" />
<use x="75" y="90" xlink:href="#p" />
<use x="75" y="120" xlink:href="#p" />
<use x="75" y="150" xlink:href="#p" />
<use x="75" y="180" xlink:href="#p" />
<use x="75" y="270" xlink:href="#p" />
<use x="75" y="300" xlink:href="#p" />
<use x="75" y="375" xlink:href="#p" />
<use x="75" y="420" xlink:href="#p" />
<use x="75" y="465" xlink:href="#p" />
<use x="75" y="495" xlink:href="#p" />
<use x="75" y="510" xlink:href="#p" />
<use x="75" y="555" xlink:href="#p" />
<use x="75" y="570" xlink:href="#p" />
<use x="75" y="615" xlink:href="#p" />
<use x="75" y="660" xlink:href="#p" />
<use x="75" y="690" xlink:href="#p" />
<use x="75" y="705" xlink:href="#p" />
<use x="75" y="720" xlink:href="#p" />
<use x="75" y="750" xlink:href="#p" />
<use x="90" y="30" xlink:href="#p" />
<use x="90" y="60" xlink:href="#p" />
<use x="90" y="75" xlink:href="#p" />
<use x="90" y="90" xlink:href="#p" />
<use x="90" y="120" xlink:href="#p" />
<use x="90" y="150" xlink:href="#p" />
<use x="90" y="165" xlink:href="#p" />
<use x="90" y="180" xlink:href="#p" />
<use x="90" y="195" xlink:href="#p" />
<use x="90" y="225" xlink:href="#p" />
<use x="90" y="240" xlink:href="#p" />
<use x="90" y="255" xlink:href="#p" />
<use x="90" y="270" xlink:href="#p" />
<use x="90" y="300" xlink:href="#p" />
<use x="90" y="315" xlink:href="#p" />
<use x="90" y="360" xlink:href="#p" />
<use x="90" y="375" xlink:href="#p" />
<use x="90" y="390" xlink:href="#p" />
<use x="90" y="405" xlink:href="#p" />
<use x="90" y="420" xlink:href="#p" />
<use x="90" y="465" xlink:href="#p" />
<use x="90" y="480" xlink:href="#p" />
<use x="90" y="525" xlink:href="#p" />
<use x="90" y="540" xlink:href="#p" />
<use x="90" y="555" xlink:href="#p" />
<use x="90" y="570" xlink:href="#p" />
<use x="90" y="660" xlink:href="#p" />
<use x="90" y="690" xlink:href="#p" />
<use x="90" y="705" xlink:href="#p" />
<use x="90" y="720" xlink:href="#p" />
<use x="90" y="750" xlink:href="#p" />
<use x="105" y="30" xlink:href="#p" />
<use x="105" y="120" xlink:href="#p" />
<use x="105" y="180" xlink:href="#p" />
<use x="105" y="210" xlink:href="#p" />
<use x="105" y="240" xlink:href="#p" />
<use x="105" y="285" xlink:href="#p" />
<use x="105" y="300" xlink:href="#p" />
<use x="105" y="315" xlink:href="#p" />
<use x="105" y="345" xlink:href="#p" />
<use x="105" y="360" xlink:href="#p" />
<use x="105" y="420" xlink:href="#p" />
<use x="105" y="450" xlink:href="#p" />
<use x="105" y="465" xlink:href="#p" />
<use x="105" y="480" xlink:href="#p" />
<use x="105" y="555" xlink:href="#p" />
<use x="105" y="570" xlink:href="#p" />
<use x="105" y="600" xlink:href="#p" />
<use x="105" y="660" xlink:href="#p" />
<use x="105" y="750" xlink:href="#p" />
<use x="120" y="30" xlink:href="#p" />
<use x="120" y="45" xlink:href="#p" />
<use x="120" y="60" xlink:href="#p" />
<use x="120" y="75" xlink:href="#p" />
<use x="120" y="90" xlink:href="#p" />
<use x="120" y="105" xlink:href="#p" />
<use x="120" y="120" xlink:href="#p" />
<use x="120" y="150" xlink:href="#p" />
<use x="120" y="180" xlink:href="#p" />
<use x="120" y="210" xlink:href="#p" />
<use x="120" y="240" xlink:href="#p" />
<use x="120" y="270" xlink:href="#p" />
<use x="120" y="300" xlink:href="#p" />
<use x="120" y="330" xlink:href="#p" />
<use x="120" y="360" xlink:href="#p" />
<use x="120" y="390" xlink:href="#p" />
<use x="120" y="420" xlink:href="#p" />
<use x="120" y="450" xlink:href="#p" />
<use x="120" y="480" xlink:href="#p" />
<use x="120" y="510" xlink:href="#p" />
<use x="120" y="540" xlink:href="#p" />
<use x="120" y="570" xlink:href="#p" />
<use x="120" y="600" xlink:href="#p" />
<use x="120" y="630" xlink:href="#p" />
<use x="120" y="660" xlink:href="#p" />
<use x="120" y="675" xlink:href="#p" />
<use x="120" y="690" xlink:href="#p" />
<use x="120" y="705" xlink:href="#p" />
<use x="120" y="720" xlink:href="#p" />
<use x="120" y="735" xlink:href="#p" />
<use x="120" y="750" xlink:href="#p" />
<use x="135" y="150" xlink:href="#p" />
<use x="135" y="195" xlink:href="#p" />
<use x="135" y="210" xlink:href="#p" />
<use x="135" y="225" xlink:href="#p" />
<use x="135" y="255" xlink:href="#p" />
<use x="135" y="330" xlink:href="#p" />
<use x="135" y="345" xlink:href="#p" />
<use x="135" y="360" xlink:href="#p" />
<use x="135" y="420" xlink:href="#p" />
<use x="135" y="465" xlink:href="#p" />
<use x="135" y="495" xlink:href="#p" />
<use x="135" y="525" xlink:href="#p" />
<use x="135" y="585" xlink:href="#p" />
<use x="135" y="615" xlink:href="#p" />
<use x="135" y="630" xlink:href="#p" />
<use x="150" y="45" xlink:href="#p" />
<use x="150" y="75" xlink:href="#p" />
<use x="150" y="105" xlink:href="#p" />
<use x="150" y="120" xlink:href="#p" />
<use x="150" y="150" xlink:href="#p" />
<use x="150" y="180" xlink:href="#p" />
<use x="150" y="225" xlink:href="#p" />
<use x="150" y="240" xlink:href="#p" />
<use x="150" y="255" xlink:href="#p" />
<use x="150" y="270" xlink:href="#p" />
<use x="150" y="285" xlink:href="#p" />
<use x="150" y="300" xlink:href="#p" />
<use x="150" y="315" xlink:href="#p" />
<use x="150" y="360" xlink:href="#p" />
<use x="150" y="375" xlink:href="#p" />
<use x="150" y="390" xlink:href="#p" />
<use x="150" y="405" xlink:href="#p" />
<use x="150" y="420" xlink:href="#p" />
<use x="150" y="435" xlink:href="#p" />
<use x="150" y="465" xlink:href="#p" />
<use x="150" y="525" xlink:href="#p" />
<use x="150" y="540" xlink:href="#p" />
<use x="150" y="585" xlink:href="#p" />
<use x="150" y="630" xlink:href="#p" />
<use x="150" y="645" xlink:href="#p" />
<use x="150" y="660" xlink:href="#p" />
<use x="150" y="690" xlink:href="#p" />
<use x="150" y="705" xlink:href="#p" />
<use x="150" y="720" xlink:href="#p" />
<use x="150" y="735" xlink:href="#p" />
<use x="150" y="750" xlink:href="#p" />
<use x="165" y="90" xlink:href="#p" />
<use x="165" y="105" xlink:href="#p" />
<use x="165" y="150" xlink:href="#p" />
<use x="165" y="165" xlink:href="#p" />
<use x="165" y="180" xlink:href="#p" />
<use x="165" y="195" xlink:href="#p" />
<use x="165" y="210" xlink:href="#p" />
<use x="165" y="225" xlink:href="#p" />
<use x="165" y="240" xlink:href="#p" />
<use x="165" y="270" xlink:href="#p" />
<use x="165" y="285" xlink:href="#p" />
<use x="165" y="315" xlink:href="#p" />
<use x="165" y="360" xlink:href="#p" />
<use x="165" y="375" xlink:href="#p" />
<use x="165" y="420" xlink:href="#p" />
<use x="165" y="435" xlink:href="#p" />
<use x="165" y="480" xlink:href="#p" />
<use x="165" y="510" xlink:href="#p" />
<use x="165" y="570" xlink:href="#p" />
<use x="165" y="675" xlink:href="#p" />
<use x="165" y="690" xlink:href="#p" />
<use x="165" y="720" xlink:href="#p" />
<use x="165" y="735" xlink:href="#p" />
<use x="165" y="750" xlink:href="#p" />
<use x="180" y="60" xlink:href="#p" />
<use x="180" y="75" xlink:href="#p" />
<use x="180" y="90" xlink:href="#p" />
<use x="180" y="120" xlink:href="#p" />
<use x="180" y="135" xlink:href="#p" />
<use x="180" y="165" xlink:href="#p" />
<use x="180" y="195" xlink:href="#p" />
<use x="180" y="210" xlink:href="#p" />
<use x="180" y="225" xlink:href="#p" />
<use x="180" y="240" xlink:href="#p" />
<use x="180" y="255" xlink:href="#p" />
<use x="180" y="285" xlink:href="#p" />
<use x="180" y="300" xlink:href="#p" />
<use x="180" y="345" xlink:href="#p" />
<use x="180" y="390" xlink:href="#p" />
<use x="180" y="405" xlink:href="#p" />
<use x="180" y="420" xlink:href="#p" />
<use x="180" y="435" xlink:href="#p" />
<use x="180" y="450" xlink:href="#p" />
<use x="180" y="480" xlink:href="#p" />
<use x="180" y="555" xlink:href="#p" />
<use x="180" y="570" xlink:href="#p" />
<use x="180" y="600" xlink:href="#p" />
<use x="180" y="660" xlink:href="#p" />
<use x="180" y="690" xlink:href="#p" />
<use x="180" y="720" xlink:href="#p" />
<use x="180" y="735" xlink:href="#p" />
<use x="180" y="750" xlink:href="#p" />
<use x="195" y="60" xlink:href="#p" />
<use x="195" y="75" xlink:href="#p" />
<use x="195" y="90" xlink:href="#p" />
<use x="195" y="135" xlink:href="#p" />
<use x="195" y="165" xlink:href="#p" />
<use x="195" y="210" xlink:href="#p" />
<use x="195" y="225" xlink:href="#p" />
<use x="195" y="255" xlink:href="#p" />
<use x="195" y="375" xlink:href="#p" />
<use x="195" y="390" xlink:href="#p" />
<use x="195" y="420" xlink:href="#p" />
<use x="195" y="495" xlink:href="#p" />
<use x="195" y="510" xlink:href="#p" />
<use x="195" y="525" xlink:href="#p" />
<use x="195" y="585" xlink:href="#p" />
<use x="195" y="615" xlink:href="#p" />
<use x="195" y="630" xlink:href="#p" />
<use x="195" y="645" xlink:href="#p" />
<use x="195" y="660" xlink:href="#p" />
<use x="195" y="690" xlink:href="#p" />
<use x="195" y="720" xlink:href="#p" />
<use x="210" y="45" xlink:href="#p" />
<use x="210" y="60" xlink:href="#p" />
<use x="210" y="75" xlink:href="#p" />
<use x="210" y="120" xlink:href="#p" />
<use x="210" y="195" xlink:href="#p" />
<use x="210" y="210" xlink:href="#p" />
<use x="210" y="225" xlink:href="#p" />
<use x="210" y="240" xlink:href="#p" />
<use x="210" y="300" xlink:href="#p" />
<use x="210" y="315" xlink:href="#p" />
<use x="210" y="330" xlink:href="#p" />
<use x="210" y="345" xlink:href="#p" />
<use x="210" y="375" xlink:href="#p" />
<use x="210" y="390" xlink:href="#p" />
<use x="210" y="420" xlink:href="#p" />
<use x="210" y="435" xlink:href="#p" />
<use x="210" y="450" xlink:href="#p" />
<use x="210" y="465" xlink:href="#p" />
<use x="210" y="495" xlink:href="#p" />
<use x="210" y="525" xlink:href="#p" />
<use x="210" y="540" xlink:href="#p" />
<use x="210" y="570" xlink:href="#p" />
<use x="210" y="645" xlink:href="#p" />
<use x="210" y="660" xlink:href="#p" />
<use x="210" y="690" xlink:href="#p" />
<use x="210" y="705" xlink:href="#p" />
<use x="210" y="720" xlink:href="#p" />
<use x="210" y="735" xlink:href="#p" />
<use x="225" y="60" xlink:href="#p" />
<use x="225" y="90" xlink:href="#p" />
<use x="225" y="135" xlink:href="#p" />
<use x="225" y="150" xlink:href="#p" />
<use x="225" y="165" xlink:href="#p" />
<use x="225" y="180" xlink:href="#p" />
<use x="225" y="210" xlink:href="#p" />
<use x="225" y="270" xlink:href="#p" />
<use x="225" y="315" xlink:href="#p" />
<use x="225" y="345" xlink:href="#p" />
<use x="225" y="360" xlink:href="#p" />
<use x="225" y="375" xlink:href="#p" />
<use x="225" y="390" xlink:href="#p" />
<use x="225" y="420" xlink:href="#p" />
<use x="225" y="450" xlink:href="#p" />
<use x="225" y="480" xlink:href="#p" />
<use x="225" y="555" xlink:href="#p" />
<use x="225" y="585" xlink:href="#p" />
<use x="225" y="630" xlink:href="#p" />
<use x="225" y="660" xlink:href="#p" />
<use x="225" y="690" xlink:href="#p" />
<use x="225" y="720" xlink:href="#p" />
<use x="225" y="750" xlink:href="#p" />
<use x="240" y="30" xlink:href="#p" />
<use x="240" y="105" xlink:href="#p" />
<use x="240" y="120" xlink:href="#p" />
<use x="240" y="165" xlink:href="#p" />
<use x="240" y="180" xlink:href="#p" />
<use x="240" y="195" xlink:href="#p" />
<use x="240" y="210" xlink:href="#p" />
<use x="240" y="240" xlink:href="#p" />
<use x="240" y="255" xlink:href="#p" />
<use x="240" y="285" xlink:href="#p" />
<use x="240" y="405" xlink:href="#p" />
<use x="240" y="420" xlink:href="#p" />
<use x="240" y="435" xlink:href="#p" />
<use x="240" y="450" xlink:href="#p" />
<use x="240" y="480" xlink:href="#p" />
<use x="240" y="495" xlink:href="#p" />
<use x="240" y="525" xlink:href="#p" />
<use x="240" y="645" xlink:href="#p" />
<use x="240" y="660" xlink:href="#p" />
<use x="240" y="675" xlink:href="#p" />
<use x="240" y="690" xlink:href="#p" />
<use x="255" y="45" xlink:href="#p" />
<use x="255" y="75" xlink:href="#p" />
<use x="255" y="105" xlink:href="#p" />
<use x="255" y="195" xlink:href="#p" />
<use x="255" y="225" xlink:href="#p" />
<use x="255" y="255" xlink:href="#p" />
<use x="255" y="270" xlink:href="#p" />
<use x="255" y="315" xlink:href="#p" />
<use x="255" y="330" xlink:href="#p" />
<use x="255" y="360" xlink:href="#p" />
<use x="255" y="390" xlink:href="#p" />
<use x="255" y="420" xlink:href="#p" />
<use x="255" y="435" xlink:href="#p" />
<use x="255" y="465" xlink:href="#p" />
<use x="255" y="495" xlink:href="#p" />
<use x="255" y="510" xlink:href="#p" />
<use x="255" y="525" xlink:href="#p" />
<use x="255" y="555" xlink:href="#p" />
<use x="255" y="570" xlink:href="#p" />
<use x="255" y="600" xlink:href="#p" />
<use x="255" y="630" xlink:href="#p" />
<use x="255" y="645" xlink:href="#p" />
<use x="255" y="660" xlink:href="#p" />
<use x="255" y="675" xlink:href="#p" />
<use x="255" y="705" xlink:href="#p" />
<use x="255" y="735" xlink:href="#p" />
<use x="255" y="750" xlink:href="#p" />
<use x="270" y="90" xlink:href="#p" />
<use x="270" y="105" xlink:href="#p" />
<use x="270" y="120" xlink:href="#p" />
<use x="270" y="135" xlink:href="#p" />
<use x="270" y="150" xlink:href="#p" />
<use x="270" y="195" xlink:href="#p" />
<use x="270" y="270" xlink:href="#p" />
<use x="270" y="300" xlink:href="#p" />
<use x="270" y="345" xlink:href="#p" />
<use x="270" y="360" xlink:href="#p" />
<use x="270" y="375" xlink:href="#p" />
<use x="270" y="390" xlink:href="#p" />
<use x="270" y="510" xlink:href="#p" />
<use x="270" y="540" xlink:href="#p" />
<use x="270" y="555" xlink:href="#p" />
<use x="270" y="585" xlink:href="#p" />
<use x="270" y="600" xlink:href="#p" />
<use x="270" y="615" xlink:href="#p" />
<use x="270" y="630" xlink:href="#p" />
<use x="270" y="750" xlink:href="#p" />
<use x="285" y="30" xlink:href="#p" />
<use x="285" y="60" xlink:href="#p" />
<use x="285" y="90" xlink:href="#p" />
<use x="285" y="105" xlink:href="#p" />
<use x="285" y="150" xlink:href="#p" />
<use x="285" y="180" xlink:href="#p" />
<use x="285" y="210" xlink:href="#p" />
<use x="285" y="270" xlink:href="#p" />
<use x="285" y="315" xlink:href="#p" />
<use x="285" y="345" xlink:href="#p" />
<use x="285" y="375" xlink:href="#p" />
<use x="285" y="390" xlink:href="#p" />
<use x="285" y="420" xlink:href="#p" />
<use x="285" y="450" xlink:href="#p" />
<use x="285" y="495" xlink:href="#p" />
<use x="285" y="510" xlink:href="#p" />
<use x="285" y="525" xlink:href="#p" />
<use x="285" y="555" xlink:href="#p" />
<use x="285" y="585" xlink:href="#p" />
<use x="285" y="630" xlink:href="#p" />
<use x="285" y="660" xlink:href="#p" />
<use x="285" y="690" xlink:href="#p" />
<use x="285" y="720" xlink:href="#p" />
<use x="285" y="735" xlink:href="#p" />
<use x="300" y="45" xlink:href="#p" />
<use x="300" y="60" xlink:href="#p" />
<use x="300" y="75" xlink:href="#p" />
<use x="300" y="90" xlink:href="#p" />
<use x="300" y="105" xlink:href="#p" />
<use x="300" y="120" xlink:href="#p" />
<use x="300" y="135" xlink:href="#p" />
<use x="300" y="150" xlink:href="#p" />
<use x="300" y="225" xlink:href="#p" />
<use x="300" y="255" xlink:href="#p" />
<use x="300" y="270" xlink:href="#p" />
<use x="300" y="300" xlink:href="#p" />
<use x="300" y="315" xlink:href="#p" />
<use x="300" y="330" xlink:href="#p" />
<use x="300" y="345" xlink:href="#p" />
<use x="300" y="360" xlink:href="#p" />
<use x="300" y="390" xlink:href="#p" />
<use x="300" y="465" xlink:href="#p" />
<use x="300" y="480" xlink:href="#p" />
<use x="300" y="495" xlink:href="#p" />
<use x="300" y="510" xlink:href="#p" />
<use x="300" y="540" xlink:href="#p" />
<use x="300" y="555" xlink:href="#p" />
<use x="300" y="570" xlink:href="#p" />
<use x="300" y="585" xlink:href="#p" />
<use x="300" y="600" xlink:href="#p" />
<use x="300" y="630" xlink:href="#p" />
<use x="300" y="705" xlink:href="#p" />
<use x="300" y="720" xlink:href="#p" />
<use x="300" y="735" xlink:href="#p" />
<use x="300" y="750" xlink:href="#p" />
<use x="315" y="30" xlink:href="#p" />
<use x="315" y="60" xlink:href="#p" />
<use x="315" y="90" xlink:href="#p" />
<use x="315" y="135" xlink:href="#p" />
<use x="315" y="165" xlink:href="#p" />
<use x="315" y="180" xlink:href="#p" />
<use x="315" y="210" xlink:href="#p" />
<use x="315" y="240" xlink:href="#p" />
<use x="315" y="285" xlink:href="#p" />
<use x="315" y="300" xlink:href="#p" />
<use x="315" y="315" xlink:href="#p" />
<use x="315" y="345" xlink:href="#p" />
<use x="315" y="375" xlink:href="#p" />
<use x="315" y="405" xlink:href="#p" />
<use x="315" y="450" xlink:href="#p" />
<use x="315" y="480" xlink:href="#p" />
<use x="315" y="525" xlink:href="#p" />
<use x="315" y="585" xlink:href="#p" />
<use x="315" y="615" xlink:href="#p" />
<use x="315" y="675" xlink:href="#p" />
<use x="315" y="690" xlink:href="#p" />
<use x="315" y="720" xlink:href="#p" />
<use x="330" y="60" xlink:href="#p" />
<use x="330" y="90" xlink:href="#p" />
<use x="330" y="105" xlink:href="#p" />
<use x="330" y="120" xlink:href="#p" />
<use x="330" y="135" xlink:href="#p" />
<use x="330" y="150" xlink:href="#p" />
<use x="330" y="270" xlink:href="#p" />
<use x="330" y="345" xlink:href="#p" />
<use x="330" y="360" xlink:href="#p" />
<use x="330" y="375" xlink:href="#p" />
<use x="330" y="390" xlink:href="#p" />
<use x="330" y="435" xlink:href="#p" />
<use x="330" y="510" xlink:href="#p" />
<use x="330" y="585" xlink:href="#p" />
<use x="330" y="600" xlink:href="#p" />
<use x="330" y="615" xlink:href="#p" />
<use x="330" y="630" xlink:href="#p" />
<use x="330" y="660" xlink:href="#p" />
<use x="330" y="750" xlink:href="#p" />
<use x="345" y="75" xlink:href="#p" />
<use x="345" y="135" xlink:href="#p" />
<use x="345" y="150" xlink:href="#p" />
<use x="345" y="180" xlink:href="#p" />
<use x="345" y="210" xlink:href="#p" />
<use x="345" y="225" xlink:href="#p" />
<use x="345" y="255" xlink:href="#p" />
<use x="345" y="285" xlink:href="#p" />
<use x="345" y="330" xlink:href="#p" />
<use x="345" y="375" xlink:href="#p" />
<use x="345" y="420" xlink:href="#p" />
<use x="345" y="465" xlink:href="#p" />
<use x="345" y="495" xlink:href="#p" />
<use x="345" y="510" xlink:href="#p" />
<use x="345" y="525" xlink:href="#p" />
<use x="345" y="540" xlink:href="#p" />
<use x="345" y="585" xlink:href="#p" />
<use x="345" y="660" xlink:href="#p" />
<use x="345" y="705" xlink:href="#p" />
<use x="345" y="720" xlink:href="#p" />
<use x="345" y="735" xlink:href="#p" />
<use x="345" y="750" xlink:href="#p" />
<use x="360" y="45" xlink:href="#p" />
<use x="360" y="60" xlink:href="#p" />
<use x="360" y="75" xlink:href="#p" />
<use x="360" y="90" xlink:href="#p" />
<use x="360" y="105" xlink:href="#p" />
<use x="360" y="120" xlink:href="#p" />
<use x="360" y="135" xlink:href="#p" />
<use x="360" y="150" xlink:href="#p" />
<use x="360" y="210" xlink:href="#p" />
<use x="360" y="285" xlink:href="#p" />
<use x="360" y="330" xlink:href="#p" />
<use x="360" y="345" xlink:href="#p" />
<use x="360" y="360" xlink:href="#p" />
<use x="360" y="375" xlink:href="#p" />
<use x="360" y="390" xlink:href="#p" />
<use x="360" y="405" xlink:href="#p" />
<use x="360" y="420" xlink:href="#p" />
<use x="360" y="450" xlink:href="#p" />
<use x="360" y="465" xlink:href="#p" />
<use x="360" y="480" xlink:href="#p" />
<use x="360" y="525" xlink:href="#p" />
<use x="360" y="555" xlink:href="#p" />
<use x="360" y="570" xlink:href="#p" />
<use x="360" y="630" xlink:href="#p" />
<use x="360" y="645" xlink:href="#p" />
<use x="360" y="660" xlink:href="#p" />
<use x="360" y="675" xlink:href="#p" />
<use x="360" y="690" xlink:href="#p" />
<use x="375" y="30" xlink:href="#p" />
<use x="375" y="60" xlink:href="#p" />
<use x="375" y="90" xlink:href="#p" />
<use x="375" y="150" xlink:href="#p" />
<use x="375" y="165" xlink:href="#p" />
<use x="375" y="210" xlink:href="#p" />
<use x="375" y="225" xlink:href="#p" />
<use x="375" y="270" xlink:href="#p" />
<use x="375" y="300" xlink:href="#p" />
<use x="375" y="330" xlink:href="#p" />
<use x="375" y="345" xlink:href="#p" />
<use x="375" y="360" xlink:href="#p" />
<use x="375" y="420" xlink:href="#p" />
<use x="375" y="435" xlink:href="#p" />
<use x="375" y="450" xlink:href="#p" />
<use x="375" y="480" xlink:href="#p" />
<use x="375" y="510" xlink:href="#p" />
<use x="375" y="525" xlink:href="#p" />
<use x="375" y="555" xlink:href="#p" />
<use x="375" y="585" xlink:href="#p" />
<use x="375" y="615" xlink:href="#p" />
<use x="375" y="630" xlink:href="#p" />
<use x="375" y="690" xlink:href="#p" />
<use x="375" y="720" xlink:href="#p" />
<use x="375" y="735" xlink:href="#p" />
<use x="375" y="750" xlink:href="#p" />
<use x="390" y="30" xlink:href="#p" />
<use x="390" y="45" xlink:href="#p" />
<use x="390" y="60" xlink:href="#p" />
<use x="390" y="75" xlink:href="#p" />
<use x="390" y="90" xlink:href="#p" />
<use x="390" y="120" xlink:href="#p" />
<use x="390" y="150" xlink:href="#p" />
<use x="390" y="165" xlink:href="#p" />
<use x="390" y="180" xlink:href="#p" />
<use x="390" y="210" xlink:href="#p" />
<use x="390" y="240" xlink:href="#p" />
<use x="390" y="255" xlink:href="#p" />
<use x="390" y="330" xlink:href="#p" />
<use x="390" y="345" xlink:href="#p" />
<use x="390" y="360" xlink:href="#p" />
<use x="390" y="390" xlink:href="#p" />
<use x="390" y="420" xlink:href="#p" />
<use x="390" y="435" xlink:href="#p" />
<use x="390" y="450" xlink:href="#p" />
<use x="390" y="465" xlink:href="#p" />
<use x="390" y="480" xlink:href="#p" />
<use x="390" y="495" xlink:href="#p" />
<use x="390" y="525" xlink:href="#p" />
<use x="390" y="540" xlink:href="#p" />
<use x="390" y="555" xlink:href="#p" />
<use x="390" y="570" xlink:href="#p" />
<use x="390" y="630" xlink:href="#p" />
<use x="390" y="660" xlink:href="#p" />
<use x="390" y="690" xlink:href="#p" />
<use x="390" y="720" xlink:href="#p" />
<use x="390" y="735" xlink:href="#p" />
<use x="390" y="750" xlink:href="#p" />
<use x="405" y="30" xlink:href="#p" />
<use x="405" y="90" xlink:href="#p" />
<use x="405" y="150" xlink:href="#p" />
<use x="405" y="165" xlink:href="#p" />
<use x="405" y="195" xlink:href="#p" />
<use x="405" y="210" xlink:href="#p" />
<use x="405" y="225" xlink:href="#p" />
<use x="405" y="240" xlink:href="#p" />
<use x="405" y="255" xlink:href="#p" />
<use x="405" y="270" xlink:href="#p" />
<use x="405" y="285" xlink:href="#p" />
<use x="405" y="315" xlink:href="#p" />
<use x="405" y="345" xlink:href="#p" />
<use x="405" y="360" xlink:href="#p" />
<use x="405" y="420" xlink:href="#p" />
<use x="405" y="435" xlink:href="#p" />
<use x="405" y="450" xlink:href="#p" />
<use x="405" y="465" xlink:href="#p" />
<use x="405" y="510" xlink:href="#p" />
<use x="405" y="525" xlink:href="#p" />
<use x="405" y="540" xlink:href="#p" />
<use x="405" y="555" xlink:href="#p" />
<use x="405" y="600" xlink:href="#p" />
<use x="405" y="630" xlink:href="#p" />
<use x="405" y="690" xlink:href="#p" />
<use x="405" y="720" xlink:href="#p" />
<use x="420" y="75" xlink:href="#p" />
<use x="420" y="90" xlink:href="#p" />
<use x="420" y="105" xlink:href="#p" />
<use x="420" y="120" xlink:href="#p" />
<use x="420" y="135" xlink:href="#p" />
<use x="420" y="150" xlink:href="#p" />
<use x="420" y="180" xlink:href="#p" />
<use x="420" y="195" xlink:href="#p" />
<use x="420" y="210" xlink:href="#p" />
<use x="420" y="300" xlink:href="#p" />
<use x="420" y="360" xlink:href="#p" />
<use x="420" y="375" xlink:href="#p" />
<use x="420" y="390" xlink:href="#p" />
<use x="420" y="405" xlink:href="#p" />
<use x="420" y="420" xlink:href="#p" />
<use x="420" y="495" xlink:href="#p" />
<use x="420" y="615" xlink:href="#p" />
<use x="420" y="630" xlink:href="#p" />
<use x="420" y="645" xlink:href="#p" />
<use x="420" y="660" xlink:href="#p" />
<use x="420" y="675" xlink:href="#p" />
<use x="420" y="690" xlink:href="#p" />
<use x="420" y="720" xlink:href="#p" />
<use x="435" y="30" xlink:href="#p" />
<use x="435" y="45" xlink:href="#p" />
<use x="435" y="90" xlink:href="#p" />
<use x="435" y="165" xlink:href="#p" />
<use x="435" y="195" xlink:href="#p" />
<use x="435" y="225" xlink:href="#p" />
<use x="435" y="240" xlink:href="#p" />
<use x="435" y="255" xlink:href="#p" />
<use x="435" y="285" xlink:href="#p" />
<use x="435" y="300" xlink:href="#p" />
<use x="435" y="315" xlink:href="#p" />
<use x="435" y="330" xlink:href="#p" />
<use x="435" y="360" xlink:href="#p" />
<use x="435" y="420" xlink:href="#p" />
<use x="435" y="435" xlink:href="#p" />
<use x="435" y="450" xlink:href="#p" />
<use x="435" y="465" xlink:href="#p" />
<use x="435" y="480" xlink:href="#p" />
<use x="435" y="540" xlink:href="#p" />
<use x="435" y="555" xlink:href="#p" />
<use x="435" y="570" xlink:href="#p" />
<use x="435" y="585" xlink:href="#p" />
<use x="435" y="600" xlink:href="#p" />
<use x="435" y="615" xlink:href="#p" />
<use x="435" y="630" xlink:href="#p" />
<use x="435" y="675" xlink:href="#p" />
<use x="435" y="690" xlink:href="#p" />
<use x="435" y="705" xlink:href="#p" />
<use x="435" y="750" xlink:href="#p" />
<use x="450" y="60" xlink:href="#p" />
<use x="450" y="90" xlink:href="#p" />
<use x="450" y="120" xlink:href="#p" />
<use x="450" y="165" xlink:href="#p" />
<use x="450" y="285" xlink:href="#p" />
<use x="450" y="315" xlink:href="#p" />
<use x="450" y="345" xlink:href="#p" />
<use x="450" y="360" xlink:href="#p" />
<use x="450" y="375" xlink:href="#p" />
<use x="450" y="435" xlink:href="#p" />
<use x="450" y="495" xlink:href="#p" />
<use x="450" y="525" xlink:href="#p" />
<use x="450" y="555" xlink:href="#p" />
<use x="450" y="585" xlink:href="#p" />
<use x="450" y="615" xlink:href="#p" />
<use x="450" y="645" xlink:href="#p" />
<use x="450" y="660" xlink:href="#p" />
<use x="450" y="675" xlink:href="#p" />
<use x="450" y="720" xlink:href="#p" />
<use x="450" y="735" xlink:href="#p" />
<use x="465" y="30" xlink:href="#p" />
<use x="465" y="45" xlink:href="#p" />
<use x="465" y="90" xlink:href="#p" />
<use x="465" y="105" xlink:href="#p" />
<use x="465" y="195" xlink:href="#p" />
<use x="465" y="255" xlink:href="#p" />
<use x="465" y="285" xlink:href="#p" />
<use x="465" y="345" xlink:href="#p" />
<use x="465" y="375" xlink:href="#p" />
<use x="465" y="390" xlink:href="#p" />
<use x="465" y="405" xlink:href="#p" />
<use x="465" y="420" xlink:href="#p" />
<use x="465" y="435" xlink:href="#p" />
<use x="465" y="450" xlink:href="#p" />
<use x="465" y="465" xlink:href="#p" />
<use x="465" y="480" xlink:href="#p" />
<use x="465" y="525" xlink:href="#p" />
<use x="465" y="585" xlink:href="#p" />
<use x="465" y="615" xlink:href="#p" />
<use x="465" y="630" xlink:href="#p" />
<use x="465" y="690" xlink:href="#p" />
<use x="465" y="705" xlink:href="#p" />
<use x="465" y="720" xlink:href="#p" />
<use x="465" y="735" xlink:href="#p" />
<use x="465" y="750" xlink:href="#p" />
<use x="480" y="30" xlink:href="#p" />
<use x="480" y="60" xlink:href="#p" />
<use x="480" y="75" xlink:href="#p" />
<use x="480" y="90" xlink:href="#p" />
<use x="480" y="105" xlink:href="#p" />
<use x="480" y="120" xlink:href="#p" />
<use x="480" y="135" xlink:href="#p" />
<use x="480" y="165" xlink:href="#p" />
<use x="480" y="210" xlink:href="#p" />
<use x="480" y="225" xlink:href="#p" />
<use x="480" y="285" xlink:href="#p" />
<use x="480" y="315" xlink:href="#p" />
<use x="480" y="345" xlink:href="#p" />
<use x="480" y="360" xlink:href="#p" />
<use x="480" y="405" xlink:href="#p" />
<use x="480" y="435" xlink:href="#p" />
<use x="480" y="450" xlink:href="#p" />
<use x="480" y="465" xlink:href="#p" />
<use x="480" y="480" xlink:href="#p" />
<use x="480" y="495" xlink:href="#p" />
<use x="480" y="525" xlink:href="#p" />
<use x="480" y="555" xlink:href="#p" />
<use x="480" y="585" xlink:href="#p" />
<use x="480" y="600" xlink:href="#p" />
<use x="480" y="615" xlink:href="#p" />
<use x="480" y="645" xlink:href="#p" />
<use x="480" y="675" xlink:href="#p" />
<use x="480" y="690" xlink:href="#p" />
<use x="480" y="705" xlink:href="#p" />
<use x="480" y="720" xlink:href="#p" />
<use x="495" y="30" xlink:href="#p" />
<use x="495" y="45" xlink:href="#p" />
<use x="495" y="105" xlink:href="#p" />
<use x="495" y="150" xlink:href="#p" />
<use x="495" y="180" xlink:href="#p" />
<use x="495" y="270" xlink:href="#p" />
<use x="495" y="285" xlink:href="#p" />
<use x="495" y="375" xlink:href="#p" />
<use x="495" y="390" xlink:href="#p" />
<use x="495" y="420" xlink:href="#p" />
<use x="495" y="480" xlink:href="#p" />
<use x="495" y="495" xlink:href="#p" />
<use x="495" y="510" xlink:href="#p" />
<use x="495" y="525" xlink:href="#p" />
<use x="495" y="540" xlink:href="#p" />
<use x="495" y="555" xlink:href="#p" />
<use x="495" y="570" xlink:href="#p" />
<use x="495" y="585" xlink:href="#p" />
<use x="495" y="600" xlink:href="#p" />
<use x="495" y="615" xlink:href="#p" />
<use x="495" y="630" xlink:href="#p" />
<use x="495" y="645" xlink:href="#p" />
<use x="495" y="660" xlink:href="#p" />
<use x="495" y="675" xlink:href="#p" />
<use x="495" y="690" xlink:href="#p" />
<use x="495" y="705" xlink:href="#p" />
<use x="495" y="750" xlink:href="#p" />
<use x="510" y="60" xlink:href="#p" />
<use x="510" y="90" xlink:href="#p" />
<use x="510" y="120" xlink:href="#p" />
<use x="510" y="135" xlink:href="#p" />
<use x="510" y="180" xlink:href="#p" />
<use x="510" y="195" xlink:href="#p" />
<use x="510" y="255" xlink:href="#p" />
<use x="510" y="300" xlink:href="#p" />
<use x="510" y="315" xlink:href="#p" />
<use x="510" y="345" xlink:href="#p" />
<use x="510" y="375" xlink:href="#p" />
<use x="510" y="435" xlink:href="#p" />
<use x="510" y="480" xlink:href="#p" />
<use x="510" y="525" xlink:href="#p" />
<use x="510" y="585" xlink:href="#p" />
<use x="510" y="615" xlink:href="#p" />
<use x="510" y="735" xlink:href="#p" />
<use x="525" y="60" xlink:href="#p" />
<use x="525" y="75" xlink:href="#p" />
<use x="525" y="165" xlink:href="#p" />
<use x="525" y="180" xlink:href="#p" />
<use x="525" y="210" xlink:href="#p" />
<use x="525" y="225" xlink:href="#p" />
<use x="525" y="240" xlink:href="#p" />
<use x="525" y="270" xlink:href="#p" />
<use x="525" y="300" xlink:href="#p" />
<use x="525" y="315" xlink:href="#p" />
<use x="525" y="330" xlink:href="#p" />
<use x="525" y="360" xlink:href="#p" />
<use x="525" y="420" xlink:href="#p" />
<use x="525" y="435" xlink:href="#p" />
<use x="525" y="480" xlink:href="#p" />
<use x="525" y="495" xlink:href="#p" />
<use x="525" y="600" xlink:href="#p" />
<use x="525" y="630" xlink:href="#p" />
<use x="525" y="660" xlink:href="#p" />
<use x="525" y="690" xlink:href="#p" />
<use x="525" y="720" xlink:href="#p" />
<use x="525" y="735" xlink:href="#p" />
<use x="525" y="750" xlink:href="#p" />
<use x="540" y="45" xlink:href="#p" />
<use x="540" y="120" xlink:href="#p" />
<use x="540" y="150" xlink:href="#p" />
<use x="540" y="180" xlink:href="#p" />
<use x="540" y="195" xlink:href="#p" />
<use x="540" y="240" xlink:href="#p" />
<use x="540" y="255" xlink:href="#p" />
<use x="540" y="270" xlink:href="#p" />
<use x="540" y="330" xlink:href="#p" />
<use x="540" y="375" xlink:href="#p" />
<use x="540" y="420" xlink:href="#p" />
<use x="540" y="450" xlink:href="#p" />
<use x="540" y="540" xlink:href="#p" />
<use x="540" y="660" xlink:href="#p" />
<use x="540" y="735" xlink:href="#p" />
<use x="555" y="30" xlink:href="#p" />
<use x="555" y="45" xlink:href="#p" />
<use x="555" y="105" xlink:href="#p" />
<use x="555" y="135" xlink:href="#p" />
<use x="555" y="150" xlink:href="#p" />
<use x="555" y="165" xlink:href="#p" />
<use x="555" y="180" xlink:href="#p" />
<use x="555" y="210" xlink:href="#p" />
<use x="555" y="225" xlink:href="#p" />
<use x="555" y="240" xlink:href="#p" />
<use x="555" y="255" xlink:href="#p" />
<use x="555" y="270" xlink:href="#p" />
<use x="555" y="330" xlink:href="#p" />
<use x="555" y="480" xlink:href="#p" />
<use x="555" y="540" xlink:href="#p" />
<use x="555" y="570" xlink:href="#p" />
<use x="555" y="585" xlink:href="#p" />
<use x="555" y="600" xlink:href="#p" />
<use x="555" y="690" xlink:href="#p" />
<use x="555" y="705" xlink:href="#p" />
<use x="555" y="735" xlink:href="#p" />
<use x="555" y="750" xlink:href="#p" />
<use x="570" y="45" xlink:href="#p" />
<use x="570" y="75" xlink:href="#p" />
<use x="570" y="105" xlink:href="#p" />
<use x="570" y="120" xlink:href="#p" />
<use x="570" y="150" xlink:href="#p" />
<use x="570" y="180" xlink:href="#p" />
<use x="570" y="210" xlink:href="#p" />
<use x="570" y="270" xlink:href="#p" />
<use x="570" y="330" xlink:href="#p" />
<use x="570" y="345" xlink:href="#p" />
<use x="570" y="360" xlink:href="#p" />
<use x="570" y="375" xlink:href="#p" />
<use x="570" y="390" xlink:href="#p" />
<use x="570" y="450" xlink:href="#p" />
<use x="570" y="495" xlink:href="#p" />
<use x="570" y="510" xlink:href="#p" />
<use x="570" y="570" xlink:href="#p" />
<use x="570" y="630" xlink:href="#p" />
<use x="570" y="645" xlink:href="#p" />
<use x="570" y="690" xlink:href="#p" />
<use x="570" y="705" xlink:href="#p" />
<use x="570" y="750" xlink:href="#p" />
<use x="585" y="45" xlink:href="#p" />
<use x="585" y="75" xlink:href="#p" />
<use x="585" y="90" xlink:href="#p" />
<use x="585" y="135" xlink:href="#p" />
<use x="585" y="150" xlink:href="#p" />
<use x="585" y="165" xlink:href="#p" />
<use x="585" y="195" xlink:href="#p" />
<use x="585" y="225" xlink:href="#p" />
<use x="585" y="255" xlink:href="#p" />
<use x="585" y="270" xlink:href="#p" />
<use x="585" y="285" xlink:href="#p" />
<use x="585" y="330" xlink:href="#p" />
<use x="585" y="345" xlink:href="#p" />
<use x="585" y="375" xlink:href="#p" />
<use x="585" y="390" xlink:href="#p" />
<use x="585" y="450" xlink:href="#p" />
<use x="585" y="465" xlink:href="#p" />
<use x="585" y="525" xlink:href="#p" />
<use x="585" y="540" xlink:href="#p" />
<use x="585" y="570" xlink:href="#p" />
<use x="585" y="585" xlink:href="#p" />
<use x="585" y="600" xlink:href="#p" />
<use x="585" y="615" xlink:href="#p" />
<use x="585" y="645" xlink:href="#p" />
<use x="585" y="675" xlink:href="#p" />
<use x="585" y="705" xlink:href="#p" />
<use x="585" y="750" xlink:href="#p" />
<use x="600" y="45" xlink:href="#p" />
<use x="600" y="105" xlink:href="#p" />
<use x="600" y="120" xlink:href="#p" />
<use x="600" y="135" xlink:href="#p" />
<use x="600" y="150" xlink:href="#p" />
<use x="600" y="180" xlink:href="#p" />
<use x="600" y="210" xlink:href="#p" />
<use x="600" y="240" xlink:href="#p" />
<use x="600" y="255" xlink:href="#p" />
<use x="600" y="300" xlink:href="#p" />
<use x="600" y="315" xlink:href="#p" />
<use x="600" y="360" xlink:href="#p" />
<use x="600" y="420" xlink:href="#p" />
<use x="600" y="450" xlink:href="#p" />
<use x="600" y="480" xlink:href="#p" />
<use x="600" y="540" xlink:href="#p" />
<use x="600" y="600" xlink:href="#p" />
<use x="600" y="660" xlink:href="#p" />
<use x="600" y="720" xlink:href="#p" />
<use x="615" y="45" xlink:href="#p" />
<use x="615" y="60" xlink:href="#p" />
<use x="615" y="75" xlink:href="#p" />
<use x="615" y="135" xlink:href="#p" />
<use x="615" y="150" xlink:href="#p" />
<use x="615" y="195" xlink:href="#p" />
<use x="615" y="210" xlink:href="#p" />
<use x="615" y="240" xlink:href="#p" />
<use x="615" y="270" xlink:href="#p" />
<use x="615" y="300" xlink:href="#p" />
<use x="615" y="375" xlink:href="#p" />
<use x="615" y="390" xlink:href="#p" />
<use x="615" y="405" xlink:href="#p" />
<use x="615" y="420" xlink:href="#p" />
<use x="615" y="450" xlink:href="#p" />
<use x="615" y="465" xlink:href="#p" />
<use x="615" y="510" xlink:href="#p" />
<use x="615" y="540" xlink:href="#p" />
<use x="615" y="570" xlink:href="#p" />
<use x="615" y="585" xlink:href="#p" />
<use x="615" y="600" xlink:href="#p" />
<use x="615" y="630" xlink:href="#p" />
<use x="615" y="645" xlink:href="#p" />
<use x="615" y="660" xlink:href="#p" />
<use x="615" y="675" xlink:href="#p" />
<use x="615" y="690" xlink:href="#p" />
<use x="615" y="705" xlink:href="#p" />
<use x="615" y="720" xlink:href="#p" />
<use x="615" y="735" xlink:href="#p" />
<use x="630" y="30" xlink:href="#p" />
<use x="630" y="45" xlink:href="#p" />
<use x="630" y="60" xlink:href="#p" />
<use x="630" y="120" xlink:href="#p" />
<use x="630" y="135" xlink:href="#p" />
<use x="630" y="150" xlink:href="#p" />
<use x="630" y="180" xlink:href="#p" />
<use x="630" y="210" xlink:href="#p" />
<use x="630" y="270" xlink:href="#p" />
<use x="630" y="300" xlink:href="#p" />
<use x="630" y="315" xlink:href="#p" />
<use x="630" y="330" xlink:href="#p" />
<use x="630" y="360" xlink:href="#p" />
<use x="630" y="375" xlink:href="#p" />
<use x="630" y="390" xlink:href="#p" />
<use x="630" y="405" xlink:href="#p" />
<use x="630" y="420" xlink:href="#p" />
<use x="630" y="435" xlink:href="#p" />
<use x="630" y="450" xlink:href="#p" />
<use x="630" y="495" xlink:href="#p" />
<use x="630" y="555" xlink:href="#p" />
<use x="630" y="600" xlink:href="#p" />
<use x="630" y="615" xlink:href="#p" />
<use x="630" y="630" xlink:href="#p" />
<use x="630" y="645" xlink:href="#p" />
<use x="630" y="660" xlink:href="#p" />
<use x="630" y="675" xlink:href="#p" />
<use x="630" y="690" xlink:href="#p" />
<use x="630" y="705" xlink:href="#p" />
<use x="645" y="150" xlink:href="#p" />
<use x="645" y="165" xlink:href="#p" />
<use x="645" y="225" xlink:href="#p" />
<use x="645" y="240" xlink:href="#p" />
<use x="645" y="255" xlink:href="#p" />
<use x="645" y="285" xlink:href="#p" />
<use x="645" y="315" xlink:href="#p" />
<use x="645" y="345" xlink:href="#p" />
<use x="645" y="360" xlink:href="#p" />
<use x="645" y="420" xlink:href="#p" />
<use x="645" y="435" xlink:href="#p" />
<use x="645" y="450" xlink:href="#p" />
<use x="645" y="480" xlink:href="#p" />
<use x="645" y="525" xlink:href="#p" />
<use x="645" y="585" xlink:href="#p" />
<use x="645" y="600" xlink:href="#p" />
<use x="645" y="615" xlink:href="#p" />
<use x="645" y="630" xlink:href="#p" />
<use x="645" y="690" xlink:href="#p" />
<use x="645" y="705" xlink:href="#p" />
<use x="660" y="30" xlink:href="#p" />
<use x="660" y="45" xlink:href="#p" />
<use x="660" y="60" xlink:href="#p" />
<use x="660" y="75" xlink:href="#p" />
<use x="660" y="90" xlink:href="#p" />
<use x="660" y="105" xlink:href="#p" />
<use x="660" y="120" xlink:href="#p" />
<use x="660" y="165" xlink:href="#p" />
<use x="660" y="210" xlink:href="#p" />
<use x="660" y="225" xlink:href="#p" />
<use x="660" y="255" xlink:href="#p" />
<use x="660" y="285" xlink:href="#p" />
<use x="660" y="315" xlink:href="#p" />
<use x="660" y="330" xlink:href="#p" />
<use x="660" y="345" xlink:href="#p" />
<use x="660" y="360" xlink:href="#p" />
<use x="660" y="390" xlink:href="#p" />
<use x="660" y="420" xlink:href="#p" />
<use x="660" y="465" xlink:href="#p" />
<use x="660" y="480" xlink:href="#p" />
<use x="660" y="510" xlink:href="#p" />
<use x="660" y="540" xlink:href="#p" />
<use x="660" y="570" xlink:href="#p" />
<use x="660" y="585" xlink:href="#p" />
<use x="660" y="600" xlink:href="#p" />
<use x="660" y="630" xlink:href="#p" />
<use x="660" y="660" xlink:href="#p" />
<use x="660" y="690" xlink:href="#p" />
<use x="660" y="720" xlink:href="#p" />
<use x="660" y="735" xlink:href="#p" />
<use x="675" y="30" xlink:href="#p" />
<use x="675" y="120" xlink:href="#p" />
<use x="675" y="150" xlink:href="#p" />
<use x="675" y="210" xlink:href="#p" />
<use x="675" y="225" xlink:href="#p" />
<use x="675" y="240" xlink:href="#p" />
<use x="675" y="285" xlink:href="#p" />
<use x="675" y="300" xlink:href="#p" />
<use x="675" y="330" xlink:href="#p" />
<use x="675" y="345" xlink:href="#p" />
<use x="675" y="360" xlink:href="#p" />
<use x="675" y="420" xlink:href="#p" />
<use x="675" y="480" xlink:href="#p" />
<use x="675" y="525" xlink:href="#p" />
<use x="675" y="570" xlink:href="#p" />
<use x="675" y="600" xlink:href="#p" />
<use x="675" y="630" xlink:href="#p" />
<use x="675" y="690" xlink:href="#p" />
<use x="675" y="705" xlink:href="#p" />
<use x="675" y="720" xlink:href="#p" />
<use x="690" y="30" xlink:href="#p" />
<use x="690" y="60" xlink:href="#p" />
<use x="690" y="75" xlink:href="#p" />
<use x="690" y="90" xlink:href="#p" />
<use x="690" y="120" xlink:href="#p" />
<use x="690" y="195" xlink:href="#p" />
<use x="690" y="225" xlink:href="#p" />
<use x="690" y="255" xlink:href="#p" />
<use x="690" y="315" xlink:href="#p" />
<use x="690" y="360" xlink:href="#p" />
<use x="690" y="375" xlink:href="#p" />
<use x="690" y="390" xlink:href="#p" />
<use x="690" y="405" xlink:href="#p" />
<use x="690" y="420" xlink:href="#p" />
<use x="690" y="435" xlink:href="#p" />
<use x="690" y="450" xlink:href="#p" />
<use x="690" y="480" xlink:href="#p" />
<use x="690" y="510" xlink:href="#p" />
<use x="690" y="540" xlink:href="#p" />
<use x="690" y="570" xlink:href="#p" />
<use x="690" y="630" xlink:href="#p" />
<use x="690" y="645" xlink:href="#p" />
<use x="690" y="660" xlink:href="#p" />
<use x="690" y="675" xlink:href="#p" />
<use x="690" y="690" xlink:href="#p" />
<use x="690" y="705" xlink:href="#p" />
<use x="705" y="30" xlink:href="#p" />
<use x="705" y="60" xlink:href="#p" />
<use x="705" y="75" xlink:href="#p" />
<use x="705" y="90" xlink:href="#p" />
<use x="705" y="120" xlink:href="#p" />
<use x="705" y="150" xlink:href="#p" />
<use x="705" y="210" xlink:href="#p" />
<use x="705" y="240" xlink:href="#p" />
<use x="705" y="300" xlink:href="#p" />
<use x="705" y="345" xlink:href="#p" />
<use x="705" y="375" xlink:href="#p" />
<use x="705" y="390" xlink:href="#p" />
<use x="705" y="420" xlink:href="#p" />
<use x="705" y="435" xlink:href="#p" />
<use x="705" y="450" xlink:href="#p" />
<use x="705" y="465" xlink:href="#p" />
<use x="705" y="480" xlink:href="#p" />
<use x="705" y="495" xlink:href="#p" />
<use x="705" y="510" xlink:href="#p" />
<use x="705" y="585" xlink:href="#p" />
<use x="705" y="615" xlink:href="#p" />
<use x="705" y="630" xlink:href="#p" />
<use x="705" y="645" xlink:href="#p" />
<use x="705" y="675" xlink:href="#p" />
<use x="705" y="690" xlink:href="#p" />
<use x="705" y="705" xlink:href="#p" />
<use x="705" y="720" xlink:href="#p" />
<use x="705" y="735" xlink:href="#p" />
<use x="720" y="30" xlink:href="#p" />
<use x="720" y="60" xlink:href="#p" />
<use x="720" y="75" xlink:href="#p" />
<use x="720" y="90" xlink:href="#p" />
<use x="720" y="120" xlink:href="#p" />
<use x="720" y="210" xlink:href="#p" />
<use x="720" y="270" xlink:href="#p" />
<use x="720" y="285" xlink:href="#p" />
<use x="720" y="300" xlink:href="#p" />
<use x="720" y="360" xlink:href="#p" />
<use x="720" y="390" xlink:href="#p" />
<use x="720" y="405" xlink:href="#p" />
<use x="720" y="450" xlink:href="#p" />
<use x="720" y="510" xlink:href="#p" />
<use x="720" y="540" xlink:href="#p" />
<use x="720" y="570" xlink:href="#p" />
<use x="720" y="585" xlink:href="#p" />
<use x="720" y="600" xlink:href="#p" />
<use x="720" y="630" xlink:href="#p" />
<use x="720" y="660" xlink:href="#p" />
<use x="720" y="690" xlink:href="#p" />
<use x="720" y="750" xlink:href="#p" />
<use x="735" y="30" xlink:href="#p" />
<use x="735" y="120" xlink:href="#p" />
<use x="735" y="150" xlink:href="#p" />
<use x="735" y="180" xlink:href="#p" />
<use x="735" y="210" xlink:href="#p" />
<use x="735" y="240" xlink:href="#p" />
<use x="735" y="255" xlink:href="#p" />
<use x="735" y="270" xlink:href="#p" />
<use x="735" y="300" xlink:href="#p" />
<use x="735" y="315" xlink:href="#p" />
<use x="735" y="330" xlink:href="#p" />
<use x="735" y="360" xlink:href="#p" />
<use x="735" y="375" xlink:href="#p" />
<use x="735" y="390" xlink:href="#p" />
<use x="735" y="420" xlink:href="#p" />
<use x="735" y="450" xlink:href="#p" />
<use x="735" y="480" xlink:href="#p" />
<use x="735" y="495" xlink:href="#p" />
<use x="735" y="510" xlink:href="#p" />
<use x="735" y="540" xlink:href="#p" />
<use x="735" y="555" xlink:href="#p" />
<use x="735" y="585" xlink:href="#p" />
<use x="735" y="600" xlink:href="#p" />
<use x="735" y="615" xlink:href="#p" />
<use x="735" y="630" xlink:href="#p" />
<use x="735" y="660" xlink:href="#p" />
<use x="735" y="690" xlink:href="#p" />
<use x="735" y="705" xlink:href="#p" />
<use x="735" y="750" xlink:href="#p" />
<use x="750" y="30" xlink:href="#p" />
<use x="750" y="45" xlink:href="#p" />
<use x="750" y="60" xlink:href="#p" />
<use x="750" y="75" xlink:href="#p" />
<use x="750" y="90" xlink:href="#p" />
<use x="750" y="105" xlink:href="#p" />
<use x="750" y="120" xlink:href="#p" />
<use x="750" y="180" xlink:href="#p" />
<use x="750" y="240" xlink:href="#p" />
<use x="750" y="255" xlink:href="#p" />
<use x="750" y="300" xlink:href="#p" />
<use x="750" y="315" xlink:href="#p" />
<use x="750" y="330" xlink:href="#p" />
<use x="750" y="360" xlink:href="#p" />
<use x="750" y="420" xlink:href="#p" />
<use x="750" y="435" xlink:href="#p" />
<use x="750" y="450" xlink:href="#p" />
<use x="750" y="480" xlink:href="#p" />
<use x="750" y="510" xlink:href="#p" />
<use x="750" y="540" xlink:href="#p" />
<use x="750" y="555" xlink:href="#p" />
<use x="750" y="585" xlink:href="#p" />
<use x="750" y="600" xlink:href="#p" />
<use x="750" y="615" xlink:href="#p" />
<use x="750" y="660" xlink:href="#p" />
<use x="750" y="690" xlink:href="#p" />
<use x="750" y="705" xlink:href="#p" />
<use x="750" y="735" xlink:href="#p" />
<use x="750" y="750" xlink:href="#p" />
</g>

</svg>