<?xml version="1.0" encoding="utf-8"?>
<svg version="1.1" baseProfile="full"  width="159" height="159" viewBox="0 0 159 159"
		 xmlns="http://www.w3.org/2000/svg" xmlns:xlink="http://www.w3.org/1999/xlink" xmlns:ev="http://www.w3.org/2001/xml-events">
<desc></desc>
<rect width="159" height="159" fill="#ffffff" cx="0" cy="0" />
<defs>
<rect id="p" width="3" height="3" />
</defs>
<g fill="#000000">
<use x="6" y="6" xlink:href="#p" />
<use x="6" y="9" xlink:href="#p" />
<use x="6" y="12" xlink:href="#p" />
<use x="6" y="15" xlink:href="#p" />
<use x="6" y="18" xlink:href="#p" />
<use x="6" y="21" xlink:href="#p" />
<use x="6" y="24" xlink:href="#p" />
<use x="6" y="30" xlink:href="#p" />
<use x="6" y="33" xlink:href="#p" />
<use x="6" y="36" xlink:href="#p" />
<use x="6" y="39" xlink:href="#p" />
<use x="6" y="42" xlink:href="#p" />
<use x="6" y="48" xlink:href="#p" />
<use x="6" y="69" xlink:href="#p" />
<use x="6" y="72" xlink:href="#p" />
<use x="6" y="75" xlink:href="#p" />
<use x="6" y="78" xlink:href="#p" />
<use x="6" y="84" xlink:href="#p" />
<use x="6" y="87" xlink:href="#p" />
<use x="6" y="93" xlink:href="#p" />
<use x="6" y="96" xlink:href="#p" />
<use x="6" y="99" xlink:href="#p" />
<use x="6" y="102" xlink:href="#p" />
<use x="6" y="105" xlink:href="#p" />
<use x="6" y="108" xlink:href="#p" />
<use x="6" y="114" xlink:href="#p" />
<use x="6" y="126" xlink:href="#p" />
<use x="6" y="132" xlink:href="#p" />
<use x="6" y="135" xlink:href="#p" />
<use x="6" y="138" xlink:href="#p" />
<use x="6" y="141" xlink:href="#p" />
<use x="6" y="144" xlink:href="#p" />
<use x="6" y="147" xlink:href="#p" />
<use x="6" y="150" xlink:href="#p" />
<use x="9" y="6" xlink:href="#p" />
<use x="9" y="24" xlink:href="#p" />
<use x="9" y="30" xlink:href="#p" />
<use x="9" y="39" xlink:href="#p" />
<use x="9" y="42" xlink:href="#p" />
<use x="9" y="48" xlink:href="#p" />
<use x="9" y="60" xlink:href="#p" />
<use x="9" y="66" xlink:href="#p" />
<use x="9" y="81" xlink:href="#p" />
<use x="9" y="87" xlink:href="#p" />
<use x="9" y="90" xlink:href="#p" />
<use x="9" y="93" xlink:href="#p" />
<use x="9" y="96" xlink:href="#p" />
<use x="9" y="102" xlink:href="#p" />
<use x="9" y="105" xlink:href="#p" />
<use x="9" y="108" xlink:href="#p" />
<use x="9" y="111" xlink:href="#p" />
<use x="9" y="114" xlink:href="#p" />
<use x="9" y="117" xlink:href="#p" />
<use x="9" y="120" xlink:href="#p" />
<use x="9" y="123" xlink:href="#p" />
<use x="9" y="126" xlink:href="#p" />
<use x="9" y="132" xlink:href="#p" />
<use x="9" y="150" xlink:href="#p" />
<use x="12" y="6" xlink:href="#p" />
<use x="12" y="12" xlink:href="#p" />
<use x="12" y="15" xlink:href="#p" />
<use x="12" y="18" xlink:href="#p" />
<use x="12" y="24" xlink:href="#p" />
<use x="12" y="30" xlink:href="#p" />
<use x="12" y="33" xlink:href="#p" />
<use x="12" y="42" xlink:href="#p" />
<use x="12" y="45" xlink:href="#p" />
<use x="12" y="54" xlink:href="#p" />
<use x="12" y="63" xlink:href="#p" />
<use x="12" y="66" xlink:href="#p" />
<use x="12" y="75" xlink:href="#p" />
<use x="12" y="78" xlink:href="#p" />
<use x="12" y="81" xlink:href="#p" />
<use x="12" y="84" xlink:href="#p" />
<use x="12" y="90" xlink:href="#p" />
<use x="12" y="93" xlink:href="#p" />
<use x="12" y="96" xlink:href="#p" />
<use x="12" y="99" xlink:href="#p" />
<use x="12" y="111" xlink:href="#p" />
<use x="12" y="114" xlink:href="#p" />
<use x="12" y="117" xlink:href="#p" />
<use x="12" y="123" xlink:href="#p" />
<use x="12" y="126" xlink:href="#p" />
<use x="12" y="132" xlink:href="#p" />
<use x="12" y="138" xlink:href="#p" />
<use x="12" y="141" xlink:href="#p" />
<use x="12" y="144" xlink:href="#p" />
<use x="12" y="150" xlink:href="#p" />
<use x="15" y="6" xlink:href="#p" />
<use x="15" y="12" xlink:href="#p" />
<use x="15" y="15" xlink:href="#p" />
<use x="15" y="18" xlink:href="#p" />
<use x="15" y="24" xlink:href="#p" />
<use x="15" y="30" xlink:href="#p" />
<use x="15" y="36" xlink:href="#p" />
<use x="15" y="54" xlink:href="#p" />
<use x="15" y="60" xlink:href="#p" />
<use x="15" y="75" xlink:href="#p" />
<use x="15" y="84" xlink:href="#p" />
<use x="15" y="93" xlink:href="#p" />
<use x="15" y="99" xlink:href="#p" />
<use x="15" y="102" xlink:href="#p" />
<use x="15" y="111" xlink:href="#p" />
<use x="15" y="114" xlink:href="#p" />
<use x="15" y="123" xlink:href="#p" />
<use x="15" y="132" xlink:href="#p" />
<use x="15" y="138" xlink:href="#p" />
<use x="15" y="141" xlink:href="#p" />
<use x="15" y="144" xlink:href="#p" />
<use x="15" y="150" xlink:href="#p" />
<use x="18" y="6" xlink:href="#p" />
<use x="18" y="12" xlink:href="#p" />
<use x="18" y="15" xlink:href="#p" />
<use x="18" y="18" xlink:href="#p" />
<use x="18" y="24" xlink:href="#p" />
<use x="18" y="30" xlink:href="#p" />
<use x="18" y="33" xlink:href="#p" />
<use x="18" y="36" xlink:href="#p" />
<use x="18" y="39" xlink:href="#p" />
<use x="18" y="45" xlink:href="#p" />
<use x="18" y="48" xlink:href="#p" />
<use x="18" y="51" xlink:href="#p" />
<use x="18" y="54" xlink:href="#p" />
<use x="18" y="60" xlink:href="#p" />
<use x="18" y="63" xlink:href="#p" />
<use x="18" y="72" xlink:href="#p" />
<use x="18" y="75" xlink:href="#p" />
<use x="18" y="78" xlink:href="#p" />
<use x="18" y="81" xlink:href="#p" />
<use x="18" y="84" xlink:href="#p" />
<use x="18" y="93" xlink:href="#p" />
<use x="18" y="96" xlink:href="#p" />
<use x="18" y="105" xlink:href="#p" />
<use x="18" y="108" xlink:href="#p" />
<use x="18" y="111" xlink:href="#p" />
<use x="18" y="114" xlink:href="#p" />
<use x="18" y="132" xlink:href="#p" />
<use x="18" y="138" xlink:href="#p" />
<use x="18" y="141" xlink:href="#p" />
<use x="18" y="144" xlink:href="#p" />
<use x="18" y="150" xlink:href="#p" />
<use x="21" y="6" xlink:href="#p" />
<use x="21" y="24" xlink:href="#p" />
<use x="21" y="36" xlink:href="#p" />
<use x="21" y="42" xlink:href="#p" />
<use x="21" y="48" xlink:href="#p" />
<use x="21" y="57" xlink:href="#p" />
<use x="21" y="60" xlink:href="#p" />
<use x="21" y="63" xlink:href="#p" />
<use x="21" y="69" xlink:href="#p" />
<use x="21" y="72" xlink:href="#p" />
<use x="21" y="84" xlink:href="#p" />
<use x="21" y="90" xlink:href="#p" />
<use x="21" y="93" xlink:href="#p" />
<use x="21" y="96" xlink:href="#p" />
<use x="21" y="111" xlink:href="#p" />
<use x="21" y="114" xlink:href="#p" />
<use x="21" y="120" xlink:href="#p" />
<use x="21" y="132" xlink:href="#p" />
<use x="21" y="150" xlink:href="#p" />
<use x="24" y="6" xlink:href="#p" />
<use x="24" y="9" xlink:href="#p" />
<use x="24" y="12" xlink:href="#p" />
<use x="24" y="15" xlink:href="#p" />
<use x="24" y="18" xlink:href="#p" />
<use x="24" y="21" xlink:href="#p" />
<use x="24" y="24" xlink:href="#p" />
<use x="24" y="30" xlink:href="#p" />
<use x="24" y="36" xlink:href="#p" />
<use x="24" y="42" xlink:href="#p" />
<use x="24" y="48" xlink:href="#p" />
<use x="24" y="54" xlink:href="#p" />
<use x="24" y="60" xlink:href="#p" />
<use x="24" y="66" xlink:href="#p" />
<use x="24" y="72" xlink:href="#p" />
<use x="24" y="78" xlink:href="#p" />
<use x="24" y="84" xlink:href="#p" />
<use x="24" y="90" xlink:href="#p" />
<use x="24" y="96" xlink:href="#p" />
<use x="24" y="102" xlink:href="#p" />
<use x="24" y="108" xlink:href="#p" />
<use x="24" y="114" xlink:href="#p" />
<use x="24" y="120" xlink:href="#p" />
<use x="24" y="126" xlink:href="#p" />
<use x="24" y="132" xlink:href="#p" />
<use x="24" y="135" xlink:href="#p" />
<use x="24" y="138" xlink:href="#p" />
<use x="24" y="141" xlink:href="#p" />
<use x="24" y="144" xlink:href="#p" />
<use x="24" y="147" xlink:href="#p" />
<use x="24" y="150" xlink:href="#p" />
<use x="27" y="30" xlink:href="#p" />
<use x="27" y="39" xlink:href="#p" />
<use x="27" y="42" xlink:href="#p" />
<use x="27" y="45" xlink:href="#p" />
<use x="27" y="51" xlink:href="#p" />
<use x="27" y="66" xlink:href="#p" />
<use x="27" y="69" xlink:href="#p" />
<use x="27" y="72" xlink:href="#p" />
<use x="27" y="84" xlink:href="#p" />
<use x="27" y="93" xlink:href="#p" />
<use x="27" y="99" xlink:href="#p" />
<use x="27" y="105" xlink:href="#p" />
<use x="27" y="117" xlink:href="#p" />
<use x="27" y="123" xlink:href="#p" />
<use x="27" y="126" xlink:href="#p" />
<use x="30" y="9" xlink:href="#p" />
<use x="30" y="15" xlink:href="#p" />
<use x="30" y="21" xlink:href="#p" />
<use x="30" y="24" xlink:href="#p" />
<use x="30" y="30" xlink:href="#p" />
<use x="30" y="36" xlink:href="#p" />
<use x="30" y="45" xlink:href="#p" />
<use x="30" y="48" xlink:href="#p" />
<use x="30" y="51" xlink:href="#p" />
<use x="30" y="54" xlink:href="#p" />
<use x="30" y="57" xlink:href="#p" />
<use x="30" y="60" xlink:href="#p" />
<use x="30" y="63" xlink:href="#p" />
<use x="30" y="72" xlink:href="#p" />
<use x="30" y="75" xlink:href="#p" />
<use x="30" y="78" xlink:href="#p" />
<use x="30" y="81" xlink:href="#p" />
<use x="30" y="84" xlink:href="#p" />
<use x="30" y="87" xlink:href="#p" />
<use x="30" y="93" xlink:href="#p" />
<use x="30" y="105" xlink:href="#p" />
<use x="30" y="108" xlink:href="#p" />
<use x="30" y="117" xlink:href="#p" />
<use x="30" y="126" xlink:href="#p" />
<use x="30" y="129" xlink:href="#p" />
<use x="30" y="132" xlink:href="#p" />
<use x="30" y="138" xlink:href="#p" />
<use x="30" y="141" xlink:href="#p" />
<use x="30" y="144" xlink:href="#p" />
<use x="30" y="147" xlink:href="#p" />
<use x="30" y="150" xlink:href="#p" />
<use x="33" y="18" xlink:href="#p" />
<use x="33" y="21" xlink:href="#p" />
<use x="33" y="30" xlink:href="#p" />
<use x="33" y="33" xlink:href="#p" />
<use x="33" y="36" xlink:href="#p" />
<use x="33" y="39" xlink:href="#p" />
<use x="33" y="42" xlink:href="#p" />
<use x="33" y="45" xlink:href="#p" />
<use x="33" y="48" xlink:href="#p" />
<use x="33" y="54" xlink:href="#p" />
<use x="33" y="57" xlink:href="#p" />
<use x="33" y="63" xlink:href="#p" />
<use x="33" y="72" xlink:href="#p" />
<use x="33" y="75" xlink:href="#p" />
<use x="33" y="84" xlink:href="#p" />
<use x="33" y="87" xlink:href="#p" />
<use x="33" y="96" xlink:href="#p" />
<use x="33" y="102" xlink:href="#p" />
<use x="33" y="114" xlink:href="#p" />
<use x="33" y="135" xlink:href="#p" />
<use x="33" y="138" xlink:href="#p" />
<use x="33" y="144" xlink:href="#p" />
<use x="33" y="147" xlink:href="#p" />
<use x="33" y="150" xlink:href="#p" />
<use x="36" y="12" xlink:href="#p" />
<use x="36" y="15" xlink:href="#p" />
<use x="36" y="18" xlink:href="#p" />
<use x="36" y="24" xlink:href="#p" />
<use x="36" y="27" xlink:href="#p" />
<use x="36" y="33" xlink:href="#p" />
<use x="36" y="39" xlink:href="#p" />
<use x="36" y="42" xlink:href="#p" />
<use x="36" y="45" xlink:href="#p" />
<use x="36" y="48" xlink:href="#p" />
<use x="36" y="51" xlink:href="#p" />
<use x="36" y="57" xlink:href="#p" />
<use x="36" y="60" xlink:href="#p" />
<use x="36" y="69" xlink:href="#p" />
<use x="36" y="78" xlink:href="#p" />
<use x="36" y="81" xlink:href="#p" />
<use x="36" y="84" xlink:href="#p" />
<use x="36" y="87" xlink:href="#p" />
<use x="36" y="90" xlink:href="#p" />
<use x="36" y="96" xlink:href="#p" />
<use x="36" y="111" xlink:href="#p" />
<use x="36" y="114" xlink:href="#p" />
<use x="36" y="120" xlink:href="#p" />
<use x="36" y="132" xlink:href="#p" />
<use x="36" y="138" xlink:href="#p" />
<use x="36" y="144" xlink:href="#p" />
<use x="36" y="147" xlink:href="#p" />
<use x="36" y="150" xlink:href="#p" />
<use x="39" y="12" xlink:href="#p" />
<use x="39" y="15" xlink:href="#p" />
<use x="39" y="18" xlink:href="#p" />
<use x="39" y="27" xlink:href="#p" />
<use x="39" y="33" xlink:href="#p" />
<use x="39" y="42" xlink:href="#p" />
<use x="39" y="45" xlink:href="#p" />
<use x="39" y="51" xlink:href="#p" />
<use x="39" y="75" xlink:href="#p" />
<use x="39" y="78" xlink:href="#p" />
<use x="39" y="84" xlink:href="#p" />
<use x="39" y="99" xlink:href="#p" />
<use x="39" y="102" xlink:href="#p" />
<use x="39" y="105" xlink:href="#p" />
<use x="39" y="117" xlink:href="#p" />
<use x="39" y="123" xlink:href="#p" />
<use x="39" y="126" xlink:href="#p" />
<use x="39" y="129" xlink:href="#p" />
<use x="39" y="132" xlink:href="#p" />
<use x="39" y="138" xlink:href="#p" />
<use x="39" y="144" xlink:href="#p" />
<use x="42" y="9" xlink:href="#p" />
<use x="42" y="12" xlink:href="#p" />
<use x="42" y="15" xlink:href="#p" />
<use x="42" y="24" xlink:href="#p" />
<use x="42" y="39" xlink:href="#p" />
<use x="42" y="42" xlink:href="#p" />
<use x="42" y="45" xlink:href="#p" />
<use x="42" y="48" xlink:href="#p" />
<use x="42" y="60" xlink:href="#p" />
<use x="42" y="63" xlink:href="#p" />
<use x="42" y="66" xlink:href="#p" />
<use x="42" y="69" xlink:href="#p" />
<use x="42" y="75" xlink:href="#p" />
<use x="42" y="78" xlink:href="#p" />
<use x="42" y="84" xlink:href="#p" />
<use x="42" y="87" xlink:href="#p" />
<use x="42" y="90" xlink:href="#p" />
<use x="42" y="93" xlink:href="#p" />
<use x="42" y="99" xlink:href="#p" />
<use x="42" y="105" xlink:href="#p" />
<use x="42" y="108" xlink:href="#p" />
<use x="42" y="114" xlink:href="#p" />
<use x="42" y="129" xlink:href="#p" />
<use x="42" y="132" xlink:href="#p" />
<use x="42" y="138" xlink:href="#p" />
<use x="42" y="141" xlink:href="#p" />
<use x="42" y="144" xlink:href="#p" />
<use x="42" y="147" xlink:href="#p" />
<use x="45" y="12" xlink:href="#p" />
<use x="45" y="18" xlink:href="#p" />
<use x="45" y="27" xlink:href="#p" />
<use x="45" y="30" xlink:href="#p" />
<use x="45" y="33" xlink:href="#p" />
<use x="45" y="36" xlink:href="#p" />
<use x="45" y="42" xlink:href="#p" />
<use x="45" y="54" xlink:href="#p" />
<use x="45" y="63" xlink:href="#p" />
<use x="45" y="69" xlink:href="#p" />
<use x="45" y="72" xlink:href="#p" />
<use x="45" y="75" xlink:href="#p" />
<use x="45" y="78" xlink:href="#p" />
<use x="45" y="84" xlink:href="#p" />
<use x="45" y="90" xlink:href="#p" />
<use x="45" y="96" xlink:href="#p" />
<use x="45" y="111" xlink:href="#p" />
<use x="45" y="117" xlink:href="#p" />
<use x="45" y="126" xlink:href="#p" />
<use x="45" y="132" xlink:href="#p" />
<use x="45" y="138" xlink:href="#p" />
<use x="45" y="144" xlink:href="#p" />
<use x="45" y="150" xlink:href="#p" />
<use x="48" y="6" xlink:href="#p" />
<use x="48" y="21" xlink:href="#p" />
<use x="48" y="24" xlink:href="#p" />
<use x="48" y="33" xlink:href="#p" />
<use x="48" y="36" xlink:href="#p" />
<use x="48" y="39" xlink:href="#p" />
<use x="48" y="42" xlink:href="#p" />
<use x="48" y="48" xlink:href="#p" />
<use x="48" y="51" xlink:href="#p" />
<use x="48" y="57" xlink:href="#p" />
<use x="48" y="81" xlink:href="#p" />
<use x="48" y="84" xlink:href="#p" />
<use x="48" y="87" xlink:href="#p" />
<use x="48" y="90" xlink:href="#p" />
<use x="48" y="96" xlink:href="#p" />
<use x="48" y="99" xlink:href="#p" />
<use x="48" y="105" xlink:href="#p" />
<use x="48" y="129" xlink:href="#p" />
<use x="48" y="132" xlink:href="#p" />
<use x="48" y="135" xlink:href="#p" />
<use x="48" y="138" xlink:href="#p" />
<use x="51" y="9" xlink:href="#p" />
<use x="51" y="15" xlink:href="#p" />
<use x="51" y="21" xlink:href="#p" />
<use x="51" y="39" xlink:href="#p" />
<use x="51" y="45" xlink:href="#p" />
<use x="51" y="51" xlink:href="#p" />
<use x="51" y="54" xlink:href="#p" />
<use x="51" y="63" xlink:href="#p" />
<use x="51" y="66" xlink:href="#p" />
<use x="51" y="72" xlink:href="#p" />
<use x="51" y="78" xlink:href="#p" />
<use x="51" y="84" xlink:href="#p" />
<use x="51" y="87" xlink:href="#p" />
<use x="51" y="93" xlink:href="#p" />
<use x="51" y="99" xlink:href="#p" />
<use x="51" y="102" xlink:href="#p" />
<use x="51" y="105" xlink:href="#p" />
<use x="51" y="111" xlink:href="#p" />
<use x="51" y="114" xlink:href="#p" />
<use x="51" y="120" xlink:href="#p" />
<use x="51" y="126" xlink:href="#p" />
<use x="51" y="129" xlink:href="#p" />
<use x="51" y="132" xlink:href="#p" />
<use x="51" y="135" xlink:href="#p" />
<use x="51" y="141" xlink:href="#p" />
<use x="51" y="147" xlink:href="#p" />
<use x="51" y="150" xlink:href="#p" />
<use x="54" y="18" xlink:href="#p" />
<use x="54" y="21" xlink:href="#p" />
<use x="54" y="24" xlink:href="#p" />
<use x="54" y="27" xlink:href="#p" />
<use x="54" y="30" xlink:href="#p" />
<use x="54" y="39" xlink:href="#p" />
<use x="54" y="54" xlink:href="#p" />
<use x="54" y="60" xlink:href="#p" />
<use x="54" y="69" xlink:href="#p" />
<use x="54" y="72" xlink:href="#p" />
<use x="54" y="75" xlink:href="#p" />
<use x="54" y="78" xlink:href="#p" />
<use x="54" y="102" xlink:href="#p" />
<use x="54" y="108" xlink:href="#p" />
<use x="54" y="111" xlink:href="#p" />
<use x="54" y="117" xlink:href="#p" />
<use x="54" y="120" xlink:href="#p" />
<use x="54" y="123" xlink:href="#p" />
<use x="54" y="126" xlink:href="#p" />
<use x="54" y="150" xlink:href="#p" />
<use x="57" y="6" xlink:href="#p" />
<use x="57" y="12" xlink:href="#p" />
<use x="57" y="18" xlink:href="#p" />
<use x="57" y="21" xlink:href="#p" />
<use x="57" y="30" xlink:href="#p" />
<use x="57" y="36" xlink:href="#p" />
<use x="57" y="42" xlink:href="#p" />
<use x="57" y="54" xlink:href="#p" />
<use x="57" y="63" xlink:href="#p" />
<use x="57" y="69" xlink:href="#p" />
<use x="57" y="75" xlink:href="#p" />
<use x="57" y="78" xlink:href="#p" />
<use x="57" y="84" xlink:href="#p" />
<use x="57" y="90" xlink:href="#p" />
<use x="57" y="99" xlink:href="#p" />
<use x="57" y="102" xlink:href="#p" />
<use x="57" y="105" xlink:href="#p" />
<use x="57" y="111" xlink:href="#p" />
<use x="57" y="117" xlink:href="#p" />
<use x="57" y="126" xlink:href="#p" />
<use x="57" y="132" xlink:href="#p" />
<use x="57" y="138" xlink:href="#p" />
<use x="57" y="144" xlink:href="#p" />
<use x="57" y="147" xlink:href="#p" />
<use x="60" y="9" xlink:href="#p" />
<use x="60" y="12" xlink:href="#p" />
<use x="60" y="15" xlink:href="#p" />
<use x="60" y="18" xlink:href="#p" />
<use x="60" y="21" xlink:href="#p" />
<use x="60" y="24" xlink:href="#p" />
<use x="60" y="27" xlink:href="#p" />
<use x="60" y="30" xlink:href="#p" />
<use x="60" y="45" xlink:href="#p" />
<use x="60" y="51" xlink:href="#p" />
<use x="60" y="54" xlink:href="#p" />
<use x="60" y="60" xlink:href="#p" />
<use x="60" y="63" xlink:href="#p" />
<use x="60" y="66" xlink:href="#p" />
<use x="60" y="69" xlink:href="#p" />
<use x="60" y="72" xlink:href="#p" />
<use x="60" y="78" xlink:href="#p" />
<use x="60" y="93" xlink:href="#p" />
<use x="60" y="96" xlink:href="#p" />
<use x="60" y="99" xlink:href="#p" />
<use x="60" y="102" xlink:href="#p" />
<use x="60" y="108" xlink:href="#p" />
<use x="60" y="111" xlink:href="#p" />
<use x="60" y="114" xlink:href="#p" />
<use x="60" y="117" xlink:href="#p" />
<use x="60" y="120" xlink:href="#p" />
<use x="60" y="126" xlink:href="#p" />
<use x="60" y="141" xlink:href="#p" />
<use x="60" y="144" xlink:href="#p" />
<use x="60" y="147" xlink:href="#p" />
<use x="60" y="150" xlink:href="#p" />
<use x="63" y="6" xlink:href="#p" />
<use x="63" y="12" xlink:href="#p" />
<use x="63" y="18" xlink:href="#p" />
<use x="63" y="27" xlink:href="#p" />
<use x="63" y="33" xlink:href="#p" />
<use x="63" y="36" xlink:href="#p" />
<use x="63" y="42" xlink:href="#p" />
<use x="63" y="48" xlink:href="#p" />
<use x="63" y="57" xlink:href="#p" />
<use x="63" y="60" xlink:href="#p" />
<use x="63" y="63" xlink:href="#p" />
<use x="63" y="69" xlink:href="#p" />
<use x="63" y="75" xlink:href="#p" />
<use x="63" y="81" xlink:href="#p" />
<use x="63" y="90" xlink:href="#p" />
<use x="63" y="96" xlink:href="#p" />
<use x="63" y="105" xlink:href="#p" />
<use x="63" y="117" xlink:href="#p" />
<use x="63" y="123" xlink:href="#p" />
<use x="63" y="135" xlink:href="#p" />
<use x="63" y="138" xlink:href="#p" />
<use x="63" y="144" xlink:href="#p" />
<use x="66" y="12" xlink:href="#p" />
<use x="66" y="18" xlink:href="#p" />
<use x="66" y="21" xlink:href="#p" />
<use x="66" y="24" xlink:href="#p" />
<use x="66" y="27" xlink:href="#p" />
<use x="66" y="30" xlink:href="#p" />
<use x="66" y="54" xlink:href="#p" />
<use x="66" y="69" xlink:href="#p" />
<use x="66" y="72" xlink:href="#p" />
<use x="66" y="75" xlink:href="#p" />
<use x="66" y="78" xlink:href="#p" />
<use x="66" y="87" xlink:href="#p" />
<use x="66" y="102" xlink:href="#p" />
<use x="66" y="117" xlink:href="#p" />
<use x="66" y="120" xlink:href="#p" />
<use x="66" y="123" xlink:href="#p" />
<use x="66" y="126" xlink:href="#p" />
<use x="66" y="132" xlink:href="#p" />
<use x="66" y="150" xlink:href="#p" />
<use x="69" y="15" xlink:href="#p" />
<use x="69" y="27" xlink:href="#p" />
<use x="69" y="30" xlink:href="#p" />
<use x="69" y="36" xlink:href="#p" />
<use x="69" y="42" xlink:href="#p" />
<use x="69" y="45" xlink:href="#p" />
<use x="69" y="51" xlink:href="#p" />
<use x="69" y="57" xlink:href="#p" />
<use x="69" y="66" xlink:href="#p" />
<use x="69" y="75" xlink:href="#p" />
<use x="69" y="84" xlink:href="#p" />
<use x="69" y="93" xlink:href="#p" />
<use x="69" y="99" xlink:href="#p" />
<use x="69" y="102" xlink:href="#p" />
<use x="69" y="105" xlink:href="#p" />
<use x="69" y="108" xlink:href="#p" />
<use x="69" y="117" xlink:href="#p" />
<use x="69" y="132" xlink:href="#p" />
<use x="69" y="141" xlink:href="#p" />
<use x="69" y="144" xlink:href="#p" />
<use x="69" y="147" xlink:href="#p" />
<use x="69" y="150" xlink:href="#p" />
<use x="72" y="9" xlink:href="#p" />
<use x="72" y="12" xlink:href="#p" />
<use x="72" y="15" xlink:href="#p" />
<use x="72" y="18" xlink:href="#p" />
<use x="72" y="21" xlink:href="#p" />
<use x="72" y="24" xlink:href="#p" />
<use x="72" y="27" xlink:href="#p" />
<use x="72" y="30" xlink:href="#p" />
<use x="72" y="42" xlink:href="#p" />
<use x="72" y="57" xlink:href="#p" />
<use x="72" y="66" xlink:href="#p" />
<use x="72" y="69" xlink:href="#p" />
<use x="72" y="72" xlink:href="#p" />
<use x="72" y="75" xlink:href="#p" />
<use x="72" y="78" xlink:href="#p" />
<use x="72" y="81" xlink:href="#p" />
<use x="72" y="84" xlink:href="#p" />
<use x="72" y="90" xlink:href="#p" />
<use x="72" y="93" xlink:href="#p" />
<use x="72" y="96" xlink:href="#p" />
<use x="72" y="105" xlink:href="#p" />
<use x="72" y="111" xlink:href="#p" />
<use x="72" y="114" xlink:href="#p" />
<use x="72" y="126" xlink:href="#p" />
<use x="72" y="129" xlink:href="#p" />
<use x="72" y="132" xlink:href="#p" />
<use x="72" y="135" xlink:href="#p" />
<use x="72" y="138" xlink:href="#p" />
<use x="75" y="6" xlink:href="#p" />
<use x="75" y="12" xlink:href="#p" />
<use x="75" y="18" xlink:href="#p" />
<use x="75" y="30" xlink:href="#p" />
<use x="75" y="33" xlink:href="#p" />
<use x="75" y="42" xlink:href="#p" />
<use x="75" y="45" xlink:href="#p" />
<use x="75" y="54" xlink:href="#p" />
<use x="75" y="60" xlink:href="#p" />
<use x="75" y="66" xlink:href="#p" />
<use x="75" y="69" xlink:href="#p" />
<use x="75" y="72" xlink:href="#p" />
<use x="75" y="84" xlink:href="#p" />
<use x="75" y="87" xlink:href="#p" />
<use x="75" y="90" xlink:href="#p" />
<use x="75" y="96" xlink:href="#p" />
<use x="75" y="102" xlink:href="#p" />
<use x="75" y="105" xlink:href="#p" />
<use x="75" y="111" xlink:href="#p" />
<use x="75" y="117" xlink:href="#p" />
<use x="75" y="123" xlink:href="#p" />
<use x="75" y="126" xlink:href="#p" />
<use x="75" y="138" xlink:href="#p" />
<use x="75" y="144" xlink:href="#p" />
<use x="75" y="147" xlink:href="#p" />
<use x="75" y="150" xlink:href="#p" />
<use x="78" y="6" xlink:href="#p" />
<use x="78" y="9" xlink:href="#p" />
<use x="78" y="12" xlink:href="#p" />
<use x="78" y="15" xlink:href="#p" />
<use x="78" y="18" xlink:href="#p" />
<use x="78" y="24" xlink:href="#p" />
<use x="78" y="30" xlink:href="#p" />
<use x="78" y="33" xlink:href="#p" />
<use x="78" y="36" xlink:href="#p" />
<use x="78" y="42" xlink:href="#p" />
<use x="78" y="48" xlink:href="#p" />
<use x="78" y="51" xlink:href="#p" />
<use x="78" y="66" xlink:href="#p" />
<use x="78" y="69" xlink:href="#p" />
<use x="78" y="72" xlink:href="#p" />
<use x="78" y="78" xlink:href="#p" />
<use x="78" y="84" xlink:href="#p" />
<use x="78" y="87" xlink:href="#p" />
<use x="78" y="90" xlink:href="#p" />
<use x="78" y="93" xlink:href="#p" />
<use x="78" y="96" xlink:href="#p" />
<use x="78" y="99" xlink:href="#p" />
<use x="78" y="105" xlink:href="#p" />
<use x="78" y="108" xlink:href="#p" />
<use x="78" y="111" xlink:href="#p" />
<use x="78" y="114" xlink:href="#p" />
<use x="78" y="126" xlink:href="#p" />
<use x="78" y="132" xlink:href="#p" />
<use x="78" y="138" xlink:href="#p" />
<use x="78" y="144" xlink:href="#p" />
<use x="78" y="147" xlink:href="#p" />
<use x="78" y="150" xlink:href="#p" />
<use x="81" y="6" xlink:href="#p" />
<use x="81" y="18" xlink:href="#p" />
<use x="81" y="30" xlink:href="#p" />
<use x="81" y="33" xlink:href="#p" />
<use x="81" y="39" xlink:href="#p" />
<use x="81" y="42" xlink:href="#p" />
<use x="81" y="45" xlink:href="#p" />
<use x="81" y="48" xlink:href="#p" />
<use x="81" y="51" xlink:href="#p" />
<use x="81" y="54" xlink:href="#p" />
<use x="81" y="57" xlink:href="#p" />
<use x="81" y="63" xlink:href="#p" />
<use x="81" y="69" xlink:href="#p" />
<use x="81" y="72" xlink:href="#p" />
<use x="81" y="84" xlink:href="#p" />
<use x="81" y="87" xlink:href="#p" />
<use x="81" y="90" xlink:href="#p" />
<use x="81" y="93" xlink:href="#p" />
<use x="81" y="102" xlink:href="#p" />
<use x="81" y="105" xlink:href="#p" />
<use x="81" y="108" xlink:href="#p" />
<use x="81" y="111" xlink:href="#p" />
<use x="81" y="120" xlink:href="#p" />
<use x="81" y="126" xlink:href="#p" />
<use x="81" y="138" xlink:href="#p" />
<use x="81" y="144" xlink:href="#p" />
<use x="84" y="15" xlink:href="#p" />
<use x="84" y="18" xlink:href="#p" />
<use x="84" y="21" xlink:href="#p" />
<use x="84" y="24" xlink:href="#p" />
<use x="84" y="27" xlink:href="#p" />
<use x="84" y="30" xlink:href="#p" />
<use x="84" y="36" xlink:href="#p" />
<use x="84" y="39" xlink:href="#p" />
<use x="84" y="42" xlink:href="#p" />
<use x="84" y="60" xlink:href="#p" />
<use x="84" y="72" xlink:href="#p" />
<use x="84" y="75" xlink:href="#p" />
<use x="84" y="78" xlink:href="#p" />
<use x="84" y="81" xlink:href="#p" />
<use x="84" y="84" xlink:href="#p" />
<use x="84" y="99" xlink:href="#p" />
<use x="84" y="123" xlink:href="#p" />
<use x="84" y="126" xlink:href="#p" />
<use x="84" y="129" xlink:href="#p" />
<use x="84" y="132" xlink:href="#p" />
<use x="84" y="135" xlink:href="#p" />
<use x="84" y="138" xlink:href="#p" />
<use x="84" y="144" xlink:href="#p" />
<use x="87" y="6" xlink:href="#p" />
<use x="87" y="9" xlink:href="#p" />
<use x="87" y="18" xlink:href="#p" />
<use x="87" y="33" xlink:href="#p" />
<use x="87" y="39" xlink:href="#p" />
<use x="87" y="45" xlink:href="#p" />
<use x="87" y="48" xlink:href="#p" />
<use x="87" y="51" xlink:href="#p" />
<use x="87" y="57" xlink:href="#p" />
<use x="87" y="60" xlink:href="#p" />
<use x="87" y="63" xlink:href="#p" />
<use x="87" y="66" xlink:href="#p" />
<use x="87" y="72" xlink:href="#p" />
<use x="87" y="84" xlink:href="#p" />
<use x="87" y="87" xlink:href="#p" />
<use x="87" y="90" xlink:href="#p" />
<use x="87" y="93" xlink:href="#p" />
<use x="87" y="96" xlink:href="#p" />
<use x="87" y="108" xlink:href="#p" />
<use x="87" y="111" xlink:href="#p" />
<use x="87" y="114" xlink:href="#p" />
<use x="87" y="117" xlink:href="#p" />
<use x="87" y="120" xlink:href="#p" />
<use x="87" y="123" xlink:href="#p" />
<use x="87" y="126" xlink:href="#p" />
<use x="87" y="135" xlink:href="#p" />
<use x="87" y="138" xlink:href="#p" />
<use x="87" y="141" xlink:href="#p" />
<use x="87" y="150" xlink:href="#p" />
<use x="90" y="12" xlink:href="#p" />
<use x="90" y="18" xlink:href="#p" />
<use x="90" y="24" xlink:href="#p" />
<use x="90" y="33" xlink:href="#p" />
<use x="90" y="57" xlink:href="#p" />
<use x="90" y="63" xlink:href="#p" />
<use x="90" y="69" xlink:href="#p" />
<use x="90" y="72" xlink:href="#p" />
<use x="90" y="75" xlink:href="#p" />
<use x="90" y="87" xlink:href="#p" />
<use x="90" y="99" xlink:href="#p" />
<use x="90" y="105" xlink:href="#p" />
<use x="90" y="111" xlink:href="#p" />
<use x="90" y="117" xlink:href="#p" />
<use x="90" y="123" xlink:href="#p" />
<use x="90" y="129" xlink:href="#p" />
<use x="90" y="132" xlink:href="#p" />
<use x="90" y="135" xlink:href="#p" />
<use x="90" y="144" xlink:href="#p" />
<use x="90" y="147" xlink:href="#p" />
<use x="93" y="6" xlink:href="#p" />
<use x="93" y="9" xlink:href="#p" />
<use x="93" y="18" xlink:href="#p" />
<use x="93" y="21" xlink:href="#p" />
<use x="93" y="39" xlink:href="#p" />
<use x="93" y="51" xlink:href="#p" />
<use x="93" y="57" xlink:href="#p" />
<use x="93" y="69" xlink:href="#p" />
<use x="93" y="75" xlink:href="#p" />
<use x="93" y="78" xlink:href="#p" />
<use x="93" y="81" xlink:href="#p" />
<use x="93" y="84" xlink:href="#p" />
<use x="93" y="87" xlink:href="#p" />
<use x="93" y="90" xlink:href="#p" />
<use x="93" y="93" xlink:href="#p" />
<use x="93" y="96" xlink:href="#p" />
<use x="93" y="105" xlink:href="#p" />
<use x="93" y="117" xlink:href="#p" />
<use x="93" y="123" xlink:href="#p" />
<use x="93" y="126" xlink:href="#p" />
<use x="93" y="138" xlink:href="#p" />
<use x="93" y="141" xlink:href="#p" />
<use x="93" y="144" xlink:href="#p" />
<use x="93" y="147" xlink:href="#p" />
<use x="93" y="150" xlink:href="#p" />
<use x="96" y="6" xlink:href="#p" />
<use x="96" y="12" xlink:href="#p" />
<use x="96" y="15" xlink:href="#p" />
<use x="96" y="18" xlink:href="#p" />
<use x="96" y="21" xlink:href="#p" />
<use x="96" y="24" xlink:href="#p" />
<use x="96" y="27" xlink:href="#p" />
<use x="96" y="33" xlink:href="#p" />
<use x="96" y="42" xlink:href="#p" />
<use x="96" y="45" xlink:href="#p" />
<use x="96" y="57" xlink:href="#p" />
<use x="96" y="63" xlink:href="#p" />
<use x="96" y="69" xlink:href="#p" />
<use x="96" y="72" xlink:href="#p" />
<use x="96" y="81" xlink:href="#p" />
<use x="96" y="87" xlink:href="#p" />
<use x="96" y="90" xlink:href="#p" />
<use x="96" y="93" xlink:href="#p" />
<use x="96" y="96" xlink:href="#p" />
<use x="96" y="99" xlink:href="#p" />
<use x="96" y="105" xlink:href="#p" />
<use x="96" y="111" xlink:href="#p" />
<use x="96" y="117" xlink:href="#p" />
<use x="96" y="120" xlink:href="#p" />
<use x="96" y="123" xlink:href="#p" />
<use x="96" y="129" xlink:href="#p" />
<use x="96" y="135" xlink:href="#p" />
<use x="96" y="138" xlink:href="#p" />
<use x="96" y="141" xlink:href="#p" />
<use x="96" y="144" xlink:href="#p" />
<use x="99" y="6" xlink:href="#p" />
<use x="99" y="9" xlink:href="#p" />
<use x="99" y="21" xlink:href="#p" />
<use x="99" y="30" xlink:href="#p" />
<use x="99" y="36" xlink:href="#p" />
<use x="99" y="54" xlink:href="#p" />
<use x="99" y="57" xlink:href="#p" />
<use x="99" y="75" xlink:href="#p" />
<use x="99" y="78" xlink:href="#p" />
<use x="99" y="84" xlink:href="#p" />
<use x="99" y="96" xlink:href="#p" />
<use x="99" y="99" xlink:href="#p" />
<use x="99" y="102" xlink:href="#p" />
<use x="99" y="105" xlink:href="#p" />
<use x="99" y="108" xlink:href="#p" />
<use x="99" y="111" xlink:href="#p" />
<use x="99" y="114" xlink:href="#p" />
<use x="99" y="117" xlink:href="#p" />
<use x="99" y="120" xlink:href="#p" />
<use x="99" y="123" xlink:href="#p" />
<use x="99" y="126" xlink:href="#p" />
<use x="99" y="129" xlink:href="#p" />
<use x="99" y="132" xlink:href="#p" />
<use x="99" y="135" xlink:href="#p" />
<use x="99" y="138" xlink:href="#p" />
<use x="99" y="141" xlink:href="#p" />
<use x="99" y="150" xlink:href="#p" />
<use x="102" y="12" xlink:href="#p" />
<use x="102" y="18" xlink:href="#p" />
<use x="102" y="24" xlink:href="#p" />
<use x="102" y="27" xlink:href="#p" />
<use x="102" y="36" xlink:href="#p" />
<use x="102" y="39" xlink:href="#p" />
<use x="102" y="51" xlink:href="#p" />
<use x="102" y="60" xlink:href="#p" />
<use x="102" y="63" xlink:href="#p" />
<use x="102" y="69" xlink:href="#p" />
<use x="102" y="75" xlink:href="#p" />
<use x="102" y="87" xlink:href="#p" />
<use x="102" y="96" xlink:href="#p" />
<use x="102" y="105" xlink:href="#p" />
<use x="102" y="117" xlink:href="#p" />
<use x="102" y="123" xlink:href="#p" />
<use x="102" y="147" xlink:href="#p" />
<use x="105" y="12" xlink:href="#p" />
<use x="105" y="15" xlink:href="#p" />
<use x="105" y="33" xlink:href="#p" />
<use x="105" y="36" xlink:href="#p" />
<use x="105" y="42" xlink:href="#p" />
<use x="105" y="45" xlink:href="#p" />
<use x="105" y="48" xlink:href="#p" />
<use x="105" y="54" xlink:href="#p" />
<use x="105" y="60" xlink:href="#p" />
<use x="105" y="63" xlink:href="#p" />
<use x="105" y="66" xlink:href="#p" />
<use x="105" y="72" xlink:href="#p" />
<use x="105" y="84" xlink:href="#p" />
<use x="105" y="87" xlink:href="#p" />
<use x="105" y="96" xlink:href="#p" />
<use x="105" y="99" xlink:href="#p" />
<use x="105" y="120" xlink:href="#p" />
<use x="105" y="126" xlink:href="#p" />
<use x="105" y="132" xlink:href="#p" />
<use x="105" y="138" xlink:href="#p" />
<use x="105" y="144" xlink:href="#p" />
<use x="105" y="147" xlink:href="#p" />
<use x="105" y="150" xlink:href="#p" />
<use x="108" y="9" xlink:href="#p" />
<use x="108" y="24" xlink:href="#p" />
<use x="108" y="30" xlink:href="#p" />
<use x="108" y="36" xlink:href="#p" />
<use x="108" y="39" xlink:href="#p" />
<use x="108" y="48" xlink:href="#p" />
<use x="108" y="51" xlink:href="#p" />
<use x="108" y="54" xlink:href="#p" />
<use x="108" y="66" xlink:href="#p" />
<use x="108" y="75" xlink:href="#p" />
<use x="108" y="84" xlink:href="#p" />
<use x="108" y="90" xlink:href="#p" />
<use x="108" y="108" xlink:href="#p" />
<use x="108" y="132" xlink:href="#p" />
<use x="108" y="147" xlink:href="#p" />
<use x="111" y="6" xlink:href="#p" />
<use x="111" y="9" xlink:href="#p" />
<use x="111" y="21" xlink:href="#p" />
<use x="111" y="27" xlink:href="#p" />
<use x="111" y="30" xlink:href="#p" />
<use x="111" y="33" xlink:href="#p" />
<use x="111" y="36" xlink:href="#p" />
<use x="111" y="42" xlink:href="#p" />
<use x="111" y="45" xlink:href="#p" />
<use x="111" y="48" xlink:href="#p" />
<use x="111" y="51" xlink:href="#p" />
<use x="111" y="54" xlink:href="#p" />
<use x="111" y="66" xlink:href="#p" />
<use x="111" y="96" xlink:href="#p" />
<use x="111" y="108" xlink:href="#p" />
<use x="111" y="114" xlink:href="#p" />
<use x="111" y="117" xlink:href="#p" />
<use x="111" y="120" xlink:href="#p" />
<use x="111" y="138" xlink:href="#p" />
<use x="111" y="141" xlink:href="#p" />
<use x="111" y="147" xlink:href="#p" />
<use x="111" y="150" xlink:href="#p" />
<use x="114" y="9" xlink:href="#p" />
<use x="114" y="15" xlink:href="#p" />
<use x="114" y="21" xlink:href="#p" />
<use x="114" y="24" xlink:href="#p" />
<use x="114" y="30" xlink:href="#p" />
<use x="114" y="36" xlink:href="#p" />
<use x="114" y="42" xlink:href="#p" />
<use x="114" y="54" xlink:href="#p" />
<use x="114" y="66" xlink:href="#p" />
<use x="114" y="69" xlink:href="#p" />
<use x="114" y="72" xlink:href="#p" />
<use x="114" y="75" xlink:href="#p" />
<use x="114" y="78" xlink:href="#p" />
<use x="114" y="90" xlink:href="#p" />
<use x="114" y="99" xlink:href="#p" />
<use x="114" y="102" xlink:href="#p" />
<use x="114" y="114" xlink:href="#p" />
<use x="114" y="126" xlink:href="#p" />
<use x="114" y="129" xlink:href="#p" />
<use x="114" y="138" xlink:href="#p" />
<use x="114" y="141" xlink:href="#p" />
<use x="114" y="150" xlink:href="#p" />
<use x="117" y="9" xlink:href="#p" />
<use x="117" y="15" xlink:href="#p" />
<use x="117" y="18" xlink:href="#p" />
<use x="117" y="27" xlink:href="#p" />
<use x="117" y="30" xlink:href="#p" />
<use x="117" y="33" xlink:href="#p" />
<use x="117" y="39" xlink:href="#p" />
<use x="117" y="45" xlink:href="#p" />
<use x="117" y="51" xlink:href="#p" />
<use x="117" y="54" xlink:href="#p" />
<use x="117" y="57" xlink:href="#p" />
<use x="117" y="66" xlink:href="#p" />
<use x="117" y="69" xlink:href="#p" />
<use x="117" y="75" xlink:href="#p" />
<use x="117" y="78" xlink:href="#p" />
<use x="117" y="90" xlink:href="#p" />
<use x="117" y="93" xlink:href="#p" />
<use x="117" y="105" xlink:href="#p" />
<use x="117" y="108" xlink:href="#p" />
<use x="117" y="114" xlink:href="#p" />
<use x="117" y="117" xlink:href="#p" />
<use x="117" y="120" xlink:href="#p" />
<use x="117" y="123" xlink:href="#p" />
<use x="117" y="129" xlink:href="#p" />
<use x="117" y="135" xlink:href="#p" />
<use x="117" y="141" xlink:href="#p" />
<use x="117" y="150" xlink:href="#p" />
<use x="120" y="9" xlink:href="#p" />
<use x="120" y="21" xlink:href="#p" />
<use x="120" y="24" xlink:href="#p" />
<use x="120" y="27" xlink:href="#p" />
<use x="120" y="30" xlink:href="#p" />
<use x="120" y="36" xlink:href="#p" />
<use x="120" y="42" xlink:href="#p" />
<use x="120" y="48" xlink:href="#p" />
<use x="120" y="51" xlink:href="#p" />
<use x="120" y="60" xlink:href="#p" />
<use x="120" y="63" xlink:href="#p" />
<use x="120" y="72" xlink:href="#p" />
<use x="120" y="84" xlink:href="#p" />
<use x="120" y="90" xlink:href="#p" />
<use x="120" y="96" xlink:href="#p" />
<use x="120" y="108" xlink:href="#p" />
<use x="120" y="120" xlink:href="#p" />
<use x="120" y="132" xlink:href="#p" />
<use x="120" y="144" xlink:href="#p" />
<use x="123" y="9" xlink:href="#p" />
<use x="123" y="12" xlink:href="#p" />
<use x="123" y="15" xlink:href="#p" />
<use x="123" y="27" xlink:href="#p" />
<use x="123" y="30" xlink:href="#p" />
<use x="123" y="39" xlink:href="#p" />
<use x="123" y="42" xlink:href="#p" />
<use x="123" y="48" xlink:href="#p" />
<use x="123" y="54" xlink:href="#p" />
<use x="123" y="60" xlink:href="#p" />
<use x="123" y="75" xlink:href="#p" />
<use x="123" y="78" xlink:href="#p" />
<use x="123" y="81" xlink:href="#p" />
<use x="123" y="84" xlink:href="#p" />
<use x="123" y="90" xlink:href="#p" />
<use x="123" y="93" xlink:href="#p" />
<use x="123" y="102" xlink:href="#p" />
<use x="123" y="108" xlink:href="#p" />
<use x="123" y="114" xlink:href="#p" />
<use x="123" y="117" xlink:href="#p" />
<use x="123" y="120" xlink:href="#p" />
<use x="123" y="126" xlink:href="#p" />
<use x="123" y="129" xlink:href="#p" />
<use x="123" y="132" xlink:href="#p" />
<use x="123" y="135" xlink:href="#p" />
<use x="123" y="138" xlink:href="#p" />
<use x="123" y="141" xlink:href="#p" />
<use x="123" y="144" xlink:href="#p" />
<use x="123" y="147" xlink:href="#p" />
<use x="126" y="6" xlink:href="#p" />
<use x="126" y="9" xlink:href="#p" />
<use x="126" y="12" xlink:href="#p" />
<use x="126" y="24" xlink:href="#p" />
<use x="126" y="27" xlink:href="#p" />
<use x="126" y="30" xlink:href="#p" />
<use x="126" y="36" xlink:href="#p" />
<use x="126" y="42" xlink:href="#p" />
<use x="126" y="54" xlink:href="#p" />
<use x="126" y="60" xlink:href="#p" />
<use x="126" y="63" xlink:href="#p" />
<use x="126" y="66" xlink:href="#p" />
<use x="126" y="72" xlink:href="#p" />
<use x="126" y="75" xlink:href="#p" />
<use x="126" y="78" xlink:href="#p" />
<use x="126" y="81" xlink:href="#p" />
<use x="126" y="84" xlink:href="#p" />
<use x="126" y="87" xlink:href="#p" />
<use x="126" y="90" xlink:href="#p" />
<use x="126" y="99" xlink:href="#p" />
<use x="126" y="111" xlink:href="#p" />
<use x="126" y="120" xlink:href="#p" />
<use x="126" y="123" xlink:href="#p" />
<use x="126" y="126" xlink:href="#p" />
<use x="126" y="129" xlink:href="#p" />
<use x="126" y="132" xlink:href="#p" />
<use x="126" y="135" xlink:href="#p" />
<use x="126" y="138" xlink:href="#p" />
<use x="126" y="141" xlink:href="#p" />
<use x="129" y="30" xlink:href="#p" />
<use x="129" y="33" xlink:href="#p" />
<use x="129" y="45" xlink:href="#p" />
<use x="129" y="48" xlink:href="#p" />
<use x="129" y="51" xlink:href="#p" />
<use x="129" y="57" xlink:href="#p" />
<use x="129" y="63" xlink:href="#p" />
<use x="129" y="69" xlink:href="#p" />
<use x="129" y="72" xlink:href="#p" />
<use x="129" y="84" xlink:href="#p" />
<use x="129" y="87" xlink:href="#p" />
<use x="129" y="90" xlink:href="#p" />
<use x="129" y="96" xlink:href="#p" />
<use x="129" y="105" xlink:href="#p" />
<use x="129" y="117" xlink:href="#p" />
<use x="129" y="120" xlink:href="#p" />
<use x="129" y="123" xlink:href="#p" />
<use x="129" y="126" xlink:href="#p" />
<use x="129" y="138" xlink:href="#p" />
<use x="129" y="141" xlink:href="#p" />
<use x="132" y="6" xlink:href="#p" />
<use x="132" y="9" xlink:href="#p" />
<use x="132" y="12" xlink:href="#p" />
<use x="132" y="15" xlink:href="#p" />
<use x="132" y="18" xlink:href="#p" />
<use x="132" y="21" xlink:href="#p" />
<use x="132" y="24" xlink:href="#p" />
<use x="132" y="33" xlink:href="#p" />
<use x="132" y="42" xlink:href="#p" />
<use x="132" y="45" xlink:href="#p" />
<use x="132" y="51" xlink:href="#p" />
<use x="132" y="57" xlink:href="#p" />
<use x="132" y="63" xlink:href="#p" />
<use x="132" y="66" xlink:href="#p" />
<use x="132" y="69" xlink:href="#p" />
<use x="132" y="72" xlink:href="#p" />
<use x="132" y="78" xlink:href="#p" />
<use x="132" y="84" xlink:href="#p" />
<use x="132" y="93" xlink:href="#p" />
<use x="132" y="96" xlink:href="#p" />
<use x="132" y="102" xlink:href="#p" />
<use x="132" y="108" xlink:href="#p" />
<use x="132" y="114" xlink:href="#p" />
<use x="132" y="117" xlink:href="#p" />
<use x="132" y="120" xlink:href="#p" />
<use x="132" y="126" xlink:href="#p" />
<use x="132" y="132" xlink:href="#p" />
<use x="132" y="138" xlink:href="#p" />
<use x="132" y="144" xlink:href="#p" />
<use x="132" y="147" xlink:href="#p" />
<use x="135" y="6" xlink:href="#p" />
<use x="135" y="24" xlink:href="#p" />
<use x="135" y="30" xlink:href="#p" />
<use x="135" y="42" xlink:href="#p" />
<use x="135" y="45" xlink:href="#p" />
<use x="135" y="48" xlink:href="#p" />
<use x="135" y="57" xlink:href="#p" />
<use x="135" y="60" xlink:href="#p" />
<use x="135" y="66" xlink:href="#p" />
<use x="135" y="69" xlink:href="#p" />
<use x="135" y="72" xlink:href="#p" />
<use x="135" y="84" xlink:href="#p" />
<use x="135" y="96" xlink:href="#p" />
<use x="135" y="105" xlink:href="#p" />
<use x="135" y="114" xlink:href="#p" />
<use x="135" y="120" xlink:href="#p" />
<use x="135" y="126" xlink:href="#p" />
<use x="135" y="138" xlink:href="#p" />
<use x="135" y="141" xlink:href="#p" />
<use x="135" y="144" xlink:href="#p" />
<use x="138" y="6" xlink:href="#p" />
<use x="138" y="12" xlink:href="#p" />
<use x="138" y="15" xlink:href="#p" />
<use x="138" y="18" xlink:href="#p" />
<use x="138" y="24" xlink:href="#p" />
<use x="138" y="39" xlink:href="#p" />
<use x="138" y="45" xlink:href="#p" />
<use x="138" y="51" xlink:href="#p" />
<use x="138" y="63" xlink:href="#p" />
<use x="138" y="72" xlink:href="#p" />
<use x="138" y="75" xlink:href="#p" />
<use x="138" y="78" xlink:href="#p" />
<use x="138" y="81" xlink:href="#p" />
<use x="138" y="84" xlink:href="#p" />
<use x="138" y="87" xlink:href="#p" />
<use x="138" y="90" xlink:href="#p" />
<use x="138" y="96" xlink:href="#p" />
<use x="138" y="102" xlink:href="#p" />
<use x="138" y="108" xlink:href="#p" />
<use x="138" y="114" xlink:href="#p" />
<use x="138" y="126" xlink:href="#p" />
<use x="138" y="129" xlink:href="#p" />
<use x="138" y="132" xlink:href="#p" />
<use x="138" y="135" xlink:href="#p" />
<use x="138" y="138" xlink:href="#p" />
<use x="138" y="141" xlink:href="#p" />
<use x="141" y="6" xlink:href="#p" />
<use x="141" y="12" xlink:href="#p" />
<use x="141" y="15" xlink:href="#p" />
<use x="141" y="18" xlink:href="#p" />
<use x="141" y="24" xlink:href="#p" />
<use x="141" y="30" xlink:href="#p" />
<use x="141" y="42" xlink:href="#p" />
<use x="141" y="48" xlink:href="#p" />
<use x="141" y="60" xlink:href="#p" />
<use x="141" y="69" xlink:href="#p" />
<use x="141" y="75" xlink:href="#p" />
<use x="141" y="78" xlink:href="#p" />
<use x="141" y="84" xlink:href="#p" />
<use x="141" y="87" xlink:href="#p" />
<use x="141" y="90" xlink:href="#p" />
<use x="141" y="93" xlink:href="#p" />
<use x="141" y="96" xlink:href="#p" />
<use x="141" y="99" xlink:href="#p" />
<use x="141" y="102" xlink:href="#p" />
<use x="141" y="117" xlink:href="#p" />
<use x="141" y="123" xlink:href="#p" />
<use x="141" y="126" xlink:href="#p" />
<use x="141" y="129" xlink:href="#p" />
<use x="141" y="135" xlink:href="#p" />
<use x="141" y="138" xlink:href="#p" />
<use x="141" y="141" xlink:href="#p" />
<use x="141" y="144" xlink:href="#p" />
<use x="141" y="147" xlink:href="#p" />
<use x="144" y="6" xlink:href="#p" />
<use x="144" y="12" xlink:href="#p" />
<use x="144" y="15" xlink:href="#p" />
<use x="144" y="18" xlink:href="#p" />
<use x="144" y="24" xlink:href="#p" />
<use x="144" y="42" xlink:href="#p" />
<use x="144" y="54" xlink:href="#p" />
<use x="144" y="57" xlink:href="#p" />
<use x="144" y="60" xlink:href="#p" />
<use x="144" y="72" xlink:href="#p" />
<use x="144" y="78" xlink:href="#p" />
<use x="144" y="81" xlink:href="#p" />
<use x="144" y="90" xlink:href="#p" />
<use x="144" y="102" xlink:href="#p" />
<use x="144" y="108" xlink:href="#p" />
<use x="144" y="114" xlink:href="#p" />
<use x="144" y="117" xlink:href="#p" />
<use x="144" y="120" xlink:href="#p" />
<use x="144" y="126" xlink:href="#p" />
<use x="144" y="132" xlink:href="#p" />
<use x="144" y="138" xlink:href="#p" />
<use x="144" y="150" xlink:href="#p" />
<use x="147" y="6" xlink:href="#p" />
<use x="147" y="24" xlink:href="#p" />
<use x="147" y="30" xlink:href="#p" />
<use x="147" y="36" xlink:href="#p" />
<use x="147" y="42" xlink:href="#p" />
<use x="147" y="48" xlink:href="#p" />
<use x="147" y="51" xlink:href="#p" />
<use x="147" y="54" xlink:href="#p" />
<use x="147" y="60" xlink:href="#p" />
<use x="147" y="63" xlink:href="#p" />
<use x="147" y="66" xlink:href="#p" />
<use x="147" y="72" xlink:href="#p" />
<use x="147" y="75" xlink:href="#p" />
<use x="147" y="78" xlink:href="#p" />
<use x="147" y="84" xlink:href="#p" />
<use x="147" y="90" xlink:href="#p" />
<use x="147" y="96" xlink:href="#p" />
<use x="147" y="99" xlink:href="#p" />
<use x="147" y="102" xlink:href="#p" />
<use x="147" y="108" xlink:href="#p" />
<use x="147" y="111" xlink:href="#p" />
<use x="147" y="117" xlink:href="#p" />
<use x="147" y="120" xlink:href="#p" />
<use x="147" y="123" xlink:href="#p" />
<use x="147" y="126" xlink:href="#p" />
<use x="147" y="132" xlink:href="#p" />
<use x="147" y="138" xlink:href="#p" />
<use x="147" y="141" xlink:href="#p" />
<use x="147" y="150" xlink:href="#p" />
<use x="150" y="6" xlink:href="#p" />
<use x="150" y="9" xlink:href="#p" />
<use x="150" y="12" xlink:href="#p" />
<use x="150" y="15" xlink:href="#p" />
<use x="150" y="18" xlink:href="#p" />
<use x="150" y="21" xlink:href="#p" />
<use x="150" y="24" xlink:href="#p" />
<use x="150" y="36" xlink:href="#p" />
<use x="150" y="48" xlink:href="#p" />
<use x="150" y="51" xlink:href="#p" />
<use x="150" y="60" xlink:href="#p" />
<use x="150" y="63" xlink:href="#p" />
<use x="150" y="66" xlink:href="#p" />
<use x="150" y="72" xlink:href="#p" />
<use x="150" y="84" xlink:href="#p" />
<use x="150" y="87" xlink:href="#p" />
<use x="150" y="90" xlink:href="#p" />
<use x="150" y="96" xlink:href="#p" />
<use x="150" y="102" xlink:href="#p" />
<use x="150" y="108" xlink:href="#p" />
<use x="150" y="111" xlink:href="#p" />
<use x="150" y="117" xlink:href="#p" />
<use x="150" y="120" xlink:href="#p" />
<use x="150" y="123" xlink:href="#p" />
<use x="150" y="132" xlink:href="#p" />
<use x="150" y="138" xlink:href="#p" />
<use x="150" y="141" xlink:href="#p" />
<use x="150" y="147" xlink:href="#p" />
<use x="150" y="150" xlink:href="#p" />
</g>

</svg>