<?xml version="1.0" encoding="utf-8"?>
<svg version="1.1" baseProfile="full"  width="1060" height="1060" viewBox="0 0 1060 1060"
		 xmlns="http://www.w3.org/2000/svg" xmlns:xlink="http://www.w3.org/1999/xlink" xmlns:ev="http://www.w3.org/2001/xml-events">
<desc></desc>
<rect width="1060" height="1060" fill="#ffffff" cx="0" cy="0" />
<defs>
<rect id="p" width="20" height="20" />
</defs>
<g fill="#000000">
<use x="40" y="40" xlink:href="#p" />
<use x="40" y="60" xlink:href="#p" />
<use x="40" y="80" xlink:href="#p" />
<use x="40" y="100" xlink:href="#p" />
<use x="40" y="120" xlink:href="#p" />
<use x="40" y="140" xlink:href="#p" />
<use x="40" y="160" xlink:href="#p" />
<use x="40" y="200" xlink:href="#p" />
<use x="40" y="220" xlink:href="#p" />
<use x="40" y="240" xlink:href="#p" />
<use x="40" y="260" xlink:href="#p" />
<use x="40" y="280" xlink:href="#p" />
<use x="40" y="320" xlink:href="#p" />
<use x="40" y="460" xlink:href="#p" />
<use x="40" y="480" xlink:href="#p" />
<use x="40" y="500" xlink:href="#p" />
<use x="40" y="520" xlink:href="#p" />
<use x="40" y="560" xlink:href="#p" />
<use x="40" y="580" xlink:href="#p" />
<use x="40" y="620" xlink:href="#p" />
<use x="40" y="640" xlink:href="#p" />
<use x="40" y="660" xlink:href="#p" />
<use x="40" y="680" xlink:href="#p" />
<use x="40" y="700" xlink:href="#p" />
<use x="40" y="720" xlink:href="#p" />
<use x="40" y="760" xlink:href="#p" />
<use x="40" y="840" xlink:href="#p" />
<use x="40" y="880" xlink:href="#p" />
<use x="40" y="900" xlink:href="#p" />
<use x="40" y="920" xlink:href="#p" />
<use x="40" y="940" xlink:href="#p" />
<use x="40" y="960" xlink:href="#p" />
<use x="40" y="980" xlink:href="#p" />
<use x="40" y="1000" xlink:href="#p" />
<use x="60" y="40" xlink:href="#p" />
<use x="60" y="160" xlink:href="#p" />
<use x="60" y="200" xlink:href="#p" />
<use x="60" y="260" xlink:href="#p" />
<use x="60" y="280" xlink:href="#p" />
<use x="60" y="320" xlink:href="#p" />
<use x="60" y="400" xlink:href="#p" />
<use x="60" y="440" xlink:href="#p" />
<use x="60" y="540" xlink:href="#p" />
<use x="60" y="580" xlink:href="#p" />
<use x="60" y="600" xlink:href="#p" />
<use x="60" y="620" xlink:href="#p" />
<use x="60" y="640" xlink:href="#p" />
<use x="60" y="680" xlink:href="#p" />
<use x="60" y="700" xlink:href="#p" />
<use x="60" y="720" xlink:href="#p" />
<use x="60" y="740" xlink:href="#p" />
<use x="60" y="760" xlink:href="#p" />
<use x="60" y="780" xlink:href="#p" />
<use x="60" y="800" xlink:href="#p" />
<use x="60" y="820" xlink:href="#p" />
<use x="60" y="840" xlink:href="#p" />
<use x="60" y="880" xlink:href="#p" />
<use x="60" y="1000" xlink:href="#p" />
<use x="80" y="40" xlink:href="#p" />
<use x="80" y="80" xlink:href="#p" />
<use x="80" y="100" xlink:href="#p" />
<use x="80" y="120" xlink:href="#p" />
<use x="80" y="160" xlink:href="#p" />
<use x="80" y="200" xlink:href="#p" />
<use x="80" y="220" xlink:href="#p" />
<use x="80" y="280" xlink:href="#p" />
<use x="80" y="300" xlink:href="#p" />
<use x="80" y="360" xlink:href="#p" />
<use x="80" y="420" xlink:href="#p" />
<use x="80" y="440" xlink:href="#p" />
<use x="80" y="500" xlink:href="#p" />
<use x="80" y="520" xlink:href="#p" />
<use x="80" y="540" xlink:href="#p" />
<use x="80" y="560" xlink:href="#p" />
<use x="80" y="600" xlink:href="#p" />
<use x="80" y="620" xlink:href="#p" />
<use x="80" y="640" xlink:href="#p" />
<use x="80" y="660" xlink:href="#p" />
<use x="80" y="740" xlink:href="#p" />
<use x="80" y="760" xlink:href="#p" />
<use x="80" y="780" xlink:href="#p" />
<use x="80" y="820" xlink:href="#p" />
<use x="80" y="840" xlink:href="#p" />
<use x="80" y="880" xlink:href="#p" />
<use x="80" y="920" xlink:href="#p" />
<use x="80" y="940" xlink:href="#p" />
<use x="80" y="960" xlink:href="#p" />
<use x="80" y="1000" xlink:href="#p" />
<use x="100" y="40" xlink:href="#p" />
<use x="100" y="80" xlink:href="#p" />
<use x="100" y="100" xlink:href="#p" />
<use x="100" y="120" xlink:href="#p" />
<use x="100" y="160" xlink:href="#p" />
<use x="100" y="200" xlink:href="#p" />
<use x="100" y="240" xlink:href="#p" />
<use x="100" y="360" xlink:href="#p" />
<use x="100" y="400" xlink:href="#p" />
<use x="100" y="500" xlink:href="#p" />
<use x="100" y="560" xlink:href="#p" />
<use x="100" y="620" xlink:href="#p" />
<use x="100" y="660" xlink:href="#p" />
<use x="100" y="680" xlink:href="#p" />
<use x="100" y="740" xlink:href="#p" />
<use x="100" y="760" xlink:href="#p" />
<use x="100" y="820" xlink:href="#p" />
<use x="100" y="880" xlink:href="#p" />
<use x="100" y="920" xlink:href="#p" />
<use x="100" y="940" xlink:href="#p" />
<use x="100" y="960" xlink:href="#p" />
<use x="100" y="1000" xlink:href="#p" />
<use x="120" y="40" xlink:href="#p" />
<use x="120" y="80" xlink:href="#p" />
<use x="120" y="100" xlink:href="#p" />
<use x="120" y="120" xlink:href="#p" />
<use x="120" y="160" xlink:href="#p" />
<use x="120" y="200" xlink:href="#p" />
<use x="120" y="220" xlink:href="#p" />
<use x="120" y="240" xlink:href="#p" />
<use x="120" y="260" xlink:href="#p" />
<use x="120" y="300" xlink:href="#p" />
<use x="120" y="320" xlink:href="#p" />
<use x="120" y="340" xlink:href="#p" />
<use x="120" y="360" xlink:href="#p" />
<use x="120" y="400" xlink:href="#p" />
<use x="120" y="420" xlink:href="#p" />
<use x="120" y="480" xlink:href="#p" />
<use x="120" y="500" xlink:href="#p" />
<use x="120" y="520" xlink:href="#p" />
<use x="120" y="540" xlink:href="#p" />
<use x="120" y="560" xlink:href="#p" />
<use x="120" y="620" xlink:href="#p" />
<use x="120" y="640" xlink:href="#p" />
<use x="120" y="700" xlink:href="#p" />
<use x="120" y="720" xlink:href="#p" />
<use x="120" y="740" xlink:href="#p" />
<use x="120" y="760" xlink:href="#p" />
<use x="120" y="880" xlink:href="#p" />
<use x="120" y="920" xlink:href="#p" />
<use x="120" y="940" xlink:href="#p" />
<use x="120" y="960" xlink:href="#p" />
<use x="120" y="1000" xlink:href="#p" />
<use x="140" y="40" xlink:href="#p" />
<use x="140" y="160" xlink:href="#p" />
<use x="140" y="240" xlink:href="#p" />
<use x="140" y="280" xlink:href="#p" />
<use x="140" y="320" xlink:href="#p" />
<use x="140" y="380" xlink:href="#p" />
<use x="140" y="400" xlink:href="#p" />
<use x="140" y="420" xlink:href="#p" />
<use x="140" y="460" xlink:href="#p" />
<use x="140" y="480" xlink:href="#p" />
<use x="140" y="560" xlink:href="#p" />
<use x="140" y="600" xlink:href="#p" />
<use x="140" y="620" xlink:href="#p" />
<use x="140" y="640" xlink:href="#p" />
<use x="140" y="740" xlink:href="#p" />
<use x="140" y="760" xlink:href="#p" />
<use x="140" y="800" xlink:href="#p" />
<use x="140" y="880" xlink:href="#p" />
<use x="140" y="1000" xlink:href="#p" />
<use x="160" y="40" xlink:href="#p" />
<use x="160" y="60" xlink:href="#p" />
<use x="160" y="80" xlink:href="#p" />
<use x="160" y="100" xlink:href="#p" />
<use x="160" y="120" xlink:href="#p" />
<use x="160" y="140" xlink:href="#p" />
<use x="160" y="160" xlink:href="#p" />
<use x="160" y="200" xlink:href="#p" />
<use x="160" y="240" xlink:href="#p" />
<use x="160" y="280" xlink:href="#p" />
<use x="160" y="320" xlink:href="#p" />
<use x="160" y="360" xlink:href="#p" />
<use x="160" y="400" xlink:href="#p" />
<use x="160" y="440" xlink:href="#p" />
<use x="160" y="480" xlink:href="#p" />
<use x="160" y="520" xlink:href="#p" />
<use x="160" y="560" xlink:href="#p" />
<use x="160" y="600" xlink:href="#p" />
<use x="160" y="640" xlink:href="#p" />
<use x="160" y="680" xlink:href="#p" />
<use x="160" y="720" xlink:href="#p" />
<use x="160" y="760" xlink:href="#p" />
<use x="160" y="800" xlink:href="#p" />
<use x="160" y="840" xlink:href="#p" />
<use x="160" y="880" xlink:href="#p" />
<use x="160" y="900" xlink:href="#p" />
<use x="160" y="920" xlink:href="#p" />
<use x="160" y="940" xlink:href="#p" />
<use x="160" y="960" xlink:href="#p" />
<use x="160" y="980" xlink:href="#p" />
<use x="160" y="1000" xlink:href="#p" />
<use x="180" y="200" xlink:href="#p" />
<use x="180" y="260" xlink:href="#p" />
<use x="180" y="280" xlink:href="#p" />
<use x="180" y="300" xlink:href="#p" />
<use x="180" y="340" xlink:href="#p" />
<use x="180" y="440" xlink:href="#p" />
<use x="180" y="460" xlink:href="#p" />
<use x="180" y="480" xlink:href="#p" />
<use x="180" y="560" xlink:href="#p" />
<use x="180" y="620" xlink:href="#p" />
<use x="180" y="660" xlink:href="#p" />
<use x="180" y="700" xlink:href="#p" />
<use x="180" y="780" xlink:href="#p" />
<use x="180" y="820" xlink:href="#p" />
<use x="180" y="840" xlink:href="#p" />
<use x="200" y="60" xlink:href="#p" />
<use x="200" y="100" xlink:href="#p" />
<use x="200" y="140" xlink:href="#p" />
<use x="200" y="160" xlink:href="#p" />
<use x="200" y="200" xlink:href="#p" />
<use x="200" y="240" xlink:href="#p" />
<use x="200" y="300" xlink:href="#p" />
<use x="200" y="320" xlink:href="#p" />
<use x="200" y="340" xlink:href="#p" />
<use x="200" y="360" xlink:href="#p" />
<use x="200" y="380" xlink:href="#p" />
<use x="200" y="400" xlink:href="#p" />
<use x="200" y="420" xlink:href="#p" />
<use x="200" y="480" xlink:href="#p" />
<use x="200" y="500" xlink:href="#p" />
<use x="200" y="520" xlink:href="#p" />
<use x="200" y="540" xlink:href="#p" />
<use x="200" y="560" xlink:href="#p" />
<use x="200" y="580" xlink:href="#p" />
<use x="200" y="620" xlink:href="#p" />
<use x="200" y="700" xlink:href="#p" />
<use x="200" y="720" xlink:href="#p" />
<use x="200" y="780" xlink:href="#p" />
<use x="200" y="840" xlink:href="#p" />
<use x="200" y="860" xlink:href="#p" />
<use x="200" y="880" xlink:href="#p" />
<use x="200" y="920" xlink:href="#p" />
<use x="200" y="940" xlink:href="#p" />
<use x="200" y="960" xlink:href="#p" />
<use x="200" y="980" xlink:href="#p" />
<use x="200" y="1000" xlink:href="#p" />
<use x="220" y="120" xlink:href="#p" />
<use x="220" y="140" xlink:href="#p" />
<use x="220" y="200" xlink:href="#p" />
<use x="220" y="220" xlink:href="#p" />
<use x="220" y="240" xlink:href="#p" />
<use x="220" y="260" xlink:href="#p" />
<use x="220" y="280" xlink:href="#p" />
<use x="220" y="300" xlink:href="#p" />
<use x="220" y="320" xlink:href="#p" />
<use x="220" y="360" xlink:href="#p" />
<use x="220" y="380" xlink:href="#p" />
<use x="220" y="420" xlink:href="#p" />
<use x="220" y="480" xlink:href="#p" />
<use x="220" y="500" xlink:href="#p" />
<use x="220" y="560" xlink:href="#p" />
<use x="220" y="580" xlink:href="#p" />
<use x="220" y="640" xlink:href="#p" />
<use x="220" y="680" xlink:href="#p" />
<use x="220" y="760" xlink:href="#p" />
<use x="220" y="900" xlink:href="#p" />
<use x="220" y="920" xlink:href="#p" />
<use x="220" y="960" xlink:href="#p" />
<use x="220" y="980" xlink:href="#p" />
<use x="220" y="1000" xlink:href="#p" />
<use x="240" y="80" xlink:href="#p" />
<use x="240" y="100" xlink:href="#p" />
<use x="240" y="120" xlink:href="#p" />
<use x="240" y="160" xlink:href="#p" />
<use x="240" y="180" xlink:href="#p" />
<use x="240" y="220" xlink:href="#p" />
<use x="240" y="260" xlink:href="#p" />
<use x="240" y="280" xlink:href="#p" />
<use x="240" y="300" xlink:href="#p" />
<use x="240" y="320" xlink:href="#p" />
<use x="240" y="340" xlink:href="#p" />
<use x="240" y="380" xlink:href="#p" />
<use x="240" y="400" xlink:href="#p" />
<use x="240" y="460" xlink:href="#p" />
<use x="240" y="520" xlink:href="#p" />
<use x="240" y="540" xlink:href="#p" />
<use x="240" y="560" xlink:href="#p" />
<use x="240" y="580" xlink:href="#p" />
<use x="240" y="600" xlink:href="#p" />
<use x="240" y="640" xlink:href="#p" />
<use x="240" y="740" xlink:href="#p" />
<use x="240" y="760" xlink:href="#p" />
<use x="240" y="800" xlink:href="#p" />
<use x="240" y="880" xlink:href="#p" />
<use x="240" y="920" xlink:href="#p" />
<use x="240" y="960" xlink:href="#p" />
<use x="240" y="980" xlink:href="#p" />
<use x="240" y="1000" xlink:href="#p" />
<use x="260" y="80" xlink:href="#p" />
<use x="260" y="100" xlink:href="#p" />
<use x="260" y="120" xlink:href="#p" />
<use x="260" y="180" xlink:href="#p" />
<use x="260" y="220" xlink:href="#p" />
<use x="260" y="280" xlink:href="#p" />
<use x="260" y="300" xlink:href="#p" />
<use x="260" y="340" xlink:href="#p" />
<use x="260" y="500" xlink:href="#p" />
<use x="260" y="520" xlink:href="#p" />
<use x="260" y="560" xlink:href="#p" />
<use x="260" y="660" xlink:href="#p" />
<use x="260" y="680" xlink:href="#p" />
<use x="260" y="700" xlink:href="#p" />
<use x="260" y="780" xlink:href="#p" />
<use x="260" y="820" xlink:href="#p" />
<use x="260" y="840" xlink:href="#p" />
<use x="260" y="860" xlink:href="#p" />
<use x="260" y="880" xlink:href="#p" />
<use x="260" y="920" xlink:href="#p" />
<use x="260" y="960" xlink:href="#p" />
<use x="280" y="60" xlink:href="#p" />
<use x="280" y="80" xlink:href="#p" />
<use x="280" y="100" xlink:href="#p" />
<use x="280" y="160" xlink:href="#p" />
<use x="280" y="260" xlink:href="#p" />
<use x="280" y="280" xlink:href="#p" />
<use x="280" y="300" xlink:href="#p" />
<use x="280" y="320" xlink:href="#p" />
<use x="280" y="400" xlink:href="#p" />
<use x="280" y="420" xlink:href="#p" />
<use x="280" y="440" xlink:href="#p" />
<use x="280" y="460" xlink:href="#p" />
<use x="280" y="500" xlink:href="#p" />
<use x="280" y="520" xlink:href="#p" />
<use x="280" y="560" xlink:href="#p" />
<use x="280" y="580" xlink:href="#p" />
<use x="280" y="600" xlink:href="#p" />
<use x="280" y="620" xlink:href="#p" />
<use x="280" y="660" xlink:href="#p" />
<use x="280" y="700" xlink:href="#p" />
<use x="280" y="720" xlink:href="#p" />
<use x="280" y="760" xlink:href="#p" />
<use x="280" y="860" xlink:href="#p" />
<use x="280" y="880" xlink:href="#p" />
<use x="280" y="920" xlink:href="#p" />
<use x="280" y="940" xlink:href="#p" />
<use x="280" y="960" xlink:href="#p" />
<use x="280" y="980" xlink:href="#p" />
<use x="300" y="80" xlink:href="#p" />
<use x="300" y="120" xlink:href="#p" />
<use x="300" y="180" xlink:href="#p" />
<use x="300" y="200" xlink:href="#p" />
<use x="300" y="220" xlink:href="#p" />
<use x="300" y="240" xlink:href="#p" />
<use x="300" y="280" xlink:href="#p" />
<use x="300" y="360" xlink:href="#p" />
<use x="300" y="420" xlink:href="#p" />
<use x="300" y="460" xlink:href="#p" />
<use x="300" y="480" xlink:href="#p" />
<use x="300" y="500" xlink:href="#p" />
<use x="300" y="520" xlink:href="#p" />
<use x="300" y="560" xlink:href="#p" />
<use x="300" y="600" xlink:href="#p" />
<use x="300" y="640" xlink:href="#p" />
<use x="300" y="740" xlink:href="#p" />
<use x="300" y="780" xlink:href="#p" />
<use x="300" y="840" xlink:href="#p" />
<use x="300" y="880" xlink:href="#p" />
<use x="300" y="920" xlink:href="#p" />
<use x="300" y="960" xlink:href="#p" />
<use x="300" y="1000" xlink:href="#p" />
<use x="320" y="40" xlink:href="#p" />
<use x="320" y="140" xlink:href="#p" />
<use x="320" y="160" xlink:href="#p" />
<use x="320" y="220" xlink:href="#p" />
<use x="320" y="240" xlink:href="#p" />
<use x="320" y="260" xlink:href="#p" />
<use x="320" y="280" xlink:href="#p" />
<use x="320" y="320" xlink:href="#p" />
<use x="320" y="340" xlink:href="#p" />
<use x="320" y="380" xlink:href="#p" />
<use x="320" y="540" xlink:href="#p" />
<use x="320" y="560" xlink:href="#p" />
<use x="320" y="580" xlink:href="#p" />
<use x="320" y="600" xlink:href="#p" />
<use x="320" y="640" xlink:href="#p" />
<use x="320" y="660" xlink:href="#p" />
<use x="320" y="700" xlink:href="#p" />
<use x="320" y="860" xlink:href="#p" />
<use x="320" y="880" xlink:href="#p" />
<use x="320" y="900" xlink:href="#p" />
<use x="320" y="920" xlink:href="#p" />
<use x="340" y="60" xlink:href="#p" />
<use x="340" y="100" xlink:href="#p" />
<use x="340" y="140" xlink:href="#p" />
<use x="340" y="260" xlink:href="#p" />
<use x="340" y="300" xlink:href="#p" />
<use x="340" y="340" xlink:href="#p" />
<use x="340" y="360" xlink:href="#p" />
<use x="340" y="420" xlink:href="#p" />
<use x="340" y="440" xlink:href="#p" />
<use x="340" y="480" xlink:href="#p" />
<use x="340" y="520" xlink:href="#p" />
<use x="340" y="560" xlink:href="#p" />
<use x="340" y="580" xlink:href="#p" />
<use x="340" y="620" xlink:href="#p" />
<use x="340" y="660" xlink:href="#p" />
<use x="340" y="680" xlink:href="#p" />
<use x="340" y="700" xlink:href="#p" />
<use x="340" y="740" xlink:href="#p" />
<use x="340" y="760" xlink:href="#p" />
<use x="340" y="800" xlink:href="#p" />
<use x="340" y="840" xlink:href="#p" />
<use x="340" y="860" xlink:href="#p" />
<use x="340" y="880" xlink:href="#p" />
<use x="340" y="900" xlink:href="#p" />
<use x="340" y="940" xlink:href="#p" />
<use x="340" y="980" xlink:href="#p" />
<use x="340" y="1000" xlink:href="#p" />
<use x="360" y="120" xlink:href="#p" />
<use x="360" y="140" xlink:href="#p" />
<use x="360" y="160" xlink:href="#p" />
<use x="360" y="180" xlink:href="#p" />
<use x="360" y="200" xlink:href="#p" />
<use x="360" y="260" xlink:href="#p" />
<use x="360" y="360" xlink:href="#p" />
<use x="360" y="400" xlink:href="#p" />
<use x="360" y="460" xlink:href="#p" />
<use x="360" y="480" xlink:href="#p" />
<use x="360" y="500" xlink:href="#p" />
<use x="360" y="520" xlink:href="#p" />
<use x="360" y="680" xlink:href="#p" />
<use x="360" y="720" xlink:href="#p" />
<use x="360" y="740" xlink:href="#p" />
<use x="360" y="780" xlink:href="#p" />
<use x="360" y="800" xlink:href="#p" />
<use x="360" y="820" xlink:href="#p" />
<use x="360" y="840" xlink:href="#p" />
<use x="360" y="1000" xlink:href="#p" />
<use x="380" y="40" xlink:href="#p" />
<use x="380" y="80" xlink:href="#p" />
<use x="380" y="120" xlink:href="#p" />
<use x="380" y="140" xlink:href="#p" />
<use x="380" y="200" xlink:href="#p" />
<use x="380" y="240" xlink:href="#p" />
<use x="380" y="280" xlink:href="#p" />
<use x="380" y="360" xlink:href="#p" />
<use x="380" y="420" xlink:href="#p" />
<use x="380" y="460" xlink:href="#p" />
<use x="380" y="500" xlink:href="#p" />
<use x="380" y="520" xlink:href="#p" />
<use x="380" y="560" xlink:href="#p" />
<use x="380" y="600" xlink:href="#p" />
<use x="380" y="660" xlink:href="#p" />
<use x="380" y="680" xlink:href="#p" />
<use x="380" y="700" xlink:href="#p" />
<use x="380" y="740" xlink:href="#p" />
<use x="380" y="780" xlink:href="#p" />
<use x="380" y="840" xlink:href="#p" />
<use x="380" y="880" xlink:href="#p" />
<use x="380" y="920" xlink:href="#p" />
<use x="380" y="960" xlink:href="#p" />
<use x="380" y="980" xlink:href="#p" />
<use x="400" y="60" xlink:href="#p" />
<use x="400" y="80" xlink:href="#p" />
<use x="400" y="100" xlink:href="#p" />
<use x="400" y="120" xlink:href="#p" />
<use x="400" y="140" xlink:href="#p" />
<use x="400" y="160" xlink:href="#p" />
<use x="400" y="180" xlink:href="#p" />
<use x="400" y="200" xlink:href="#p" />
<use x="400" y="300" xlink:href="#p" />
<use x="400" y="340" xlink:href="#p" />
<use x="400" y="360" xlink:href="#p" />
<use x="400" y="400" xlink:href="#p" />
<use x="400" y="420" xlink:href="#p" />
<use x="400" y="440" xlink:href="#p" />
<use x="400" y="460" xlink:href="#p" />
<use x="400" y="480" xlink:href="#p" />
<use x="400" y="520" xlink:href="#p" />
<use x="400" y="620" xlink:href="#p" />
<use x="400" y="640" xlink:href="#p" />
<use x="400" y="660" xlink:href="#p" />
<use x="400" y="680" xlink:href="#p" />
<use x="400" y="720" xlink:href="#p" />
<use x="400" y="740" xlink:href="#p" />
<use x="400" y="760" xlink:href="#p" />
<use x="400" y="780" xlink:href="#p" />
<use x="400" y="800" xlink:href="#p" />
<use x="400" y="840" xlink:href="#p" />
<use x="400" y="940" xlink:href="#p" />
<use x="400" y="960" xlink:href="#p" />
<use x="400" y="980" xlink:href="#p" />
<use x="400" y="1000" xlink:href="#p" />
<use x="420" y="40" xlink:href="#p" />
<use x="420" y="80" xlink:href="#p" />
<use x="420" y="120" xlink:href="#p" />
<use x="420" y="180" xlink:href="#p" />
<use x="420" y="220" xlink:href="#p" />
<use x="420" y="240" xlink:href="#p" />
<use x="420" y="280" xlink:href="#p" />
<use x="420" y="320" xlink:href="#p" />
<use x="420" y="380" xlink:href="#p" />
<use x="420" y="400" xlink:href="#p" />
<use x="420" y="420" xlink:href="#p" />
<use x="420" y="460" xlink:href="#p" />
<use x="420" y="500" xlink:href="#p" />
<use x="420" y="540" xlink:href="#p" />
<use x="420" y="600" xlink:href="#p" />
<use x="420" y="640" xlink:href="#p" />
<use x="420" y="700" xlink:href="#p" />
<use x="420" y="780" xlink:href="#p" />
<use x="420" y="820" xlink:href="#p" />
<use x="420" y="900" xlink:href="#p" />
<use x="420" y="920" xlink:href="#p" />
<use x="420" y="960" xlink:href="#p" />
<use x="440" y="80" xlink:href="#p" />
<use x="440" y="120" xlink:href="#p" />
<use x="440" y="140" xlink:href="#p" />
<use x="440" y="160" xlink:href="#p" />
<use x="440" y="180" xlink:href="#p" />
<use x="440" y="200" xlink:href="#p" />
<use x="440" y="360" xlink:href="#p" />
<use x="440" y="460" xlink:href="#p" />
<use x="440" y="480" xlink:href="#p" />
<use x="440" y="500" xlink:href="#p" />
<use x="440" y="520" xlink:href="#p" />
<use x="440" y="580" xlink:href="#p" />
<use x="440" y="680" xlink:href="#p" />
<use x="440" y="780" xlink:href="#p" />
<use x="440" y="800" xlink:href="#p" />
<use x="440" y="820" xlink:href="#p" />
<use x="440" y="840" xlink:href="#p" />
<use x="440" y="880" xlink:href="#p" />
<use x="440" y="1000" xlink:href="#p" />
<use x="460" y="100" xlink:href="#p" />
<use x="460" y="180" xlink:href="#p" />
<use x="460" y="200" xlink:href="#p" />
<use x="460" y="240" xlink:href="#p" />
<use x="460" y="280" xlink:href="#p" />
<use x="460" y="300" xlink:href="#p" />
<use x="460" y="340" xlink:href="#p" />
<use x="460" y="380" xlink:href="#p" />
<use x="460" y="440" xlink:href="#p" />
<use x="460" y="500" xlink:href="#p" />
<use x="460" y="560" xlink:href="#p" />
<use x="460" y="620" xlink:href="#p" />
<use x="460" y="660" xlink:href="#p" />
<use x="460" y="680" xlink:href="#p" />
<use x="460" y="700" xlink:href="#p" />
<use x="460" y="720" xlink:href="#p" />
<use x="460" y="780" xlink:href="#p" />
<use x="460" y="880" xlink:href="#p" />
<use x="460" y="940" xlink:href="#p" />
<use x="460" y="960" xlink:href="#p" />
<use x="460" y="980" xlink:href="#p" />
<use x="460" y="1000" xlink:href="#p" />
<use x="480" y="60" xlink:href="#p" />
<use x="480" y="80" xlink:href="#p" />
<use x="480" y="100" xlink:href="#p" />
<use x="480" y="120" xlink:href="#p" />
<use x="480" y="140" xlink:href="#p" />
<use x="480" y="160" xlink:href="#p" />
<use x="480" y="180" xlink:href="#p" />
<use x="480" y="200" xlink:href="#p" />
<use x="480" y="280" xlink:href="#p" />
<use x="480" y="380" xlink:href="#p" />
<use x="480" y="440" xlink:href="#p" />
<use x="480" y="460" xlink:href="#p" />
<use x="480" y="480" xlink:href="#p" />
<use x="480" y="500" xlink:href="#p" />
<use x="480" y="520" xlink:href="#p" />
<use x="480" y="540" xlink:href="#p" />
<use x="480" y="560" xlink:href="#p" />
<use x="480" y="600" xlink:href="#p" />
<use x="480" y="620" xlink:href="#p" />
<use x="480" y="640" xlink:href="#p" />
<use x="480" y="700" xlink:href="#p" />
<use x="480" y="740" xlink:href="#p" />
<use x="480" y="760" xlink:href="#p" />
<use x="480" y="840" xlink:href="#p" />
<use x="480" y="860" xlink:href="#p" />
<use x="480" y="880" xlink:href="#p" />
<use x="480" y="900" xlink:href="#p" />
<use x="480" y="920" xlink:href="#p" />
<use x="500" y="40" xlink:href="#p" />
<use x="500" y="80" xlink:href="#p" />
<use x="500" y="120" xlink:href="#p" />
<use x="500" y="200" xlink:href="#p" />
<use x="500" y="220" xlink:href="#p" />
<use x="500" y="280" xlink:href="#p" />
<use x="500" y="300" xlink:href="#p" />
<use x="500" y="360" xlink:href="#p" />
<use x="500" y="400" xlink:href="#p" />
<use x="500" y="440" xlink:href="#p" />
<use x="500" y="460" xlink:href="#p" />
<use x="500" y="480" xlink:href="#p" />
<use x="500" y="560" xlink:href="#p" />
<use x="500" y="580" xlink:href="#p" />
<use x="500" y="600" xlink:href="#p" />
<use x="500" y="640" xlink:href="#p" />
<use x="500" y="680" xlink:href="#p" />
<use x="500" y="700" xlink:href="#p" />
<use x="500" y="740" xlink:href="#p" />
<use x="500" y="780" xlink:href="#p" />
<use x="500" y="820" xlink:href="#p" />
<use x="500" y="840" xlink:href="#p" />
<use x="500" y="920" xlink:href="#p" />
<use x="500" y="960" xlink:href="#p" />
<use x="500" y="980" xlink:href="#p" />
<use x="500" y="1000" xlink:href="#p" />
<use x="520" y="40" xlink:href="#p" />
<use x="520" y="60" xlink:href="#p" />
<use x="520" y="80" xlink:href="#p" />
<use x="520" y="100" xlink:href="#p" />
<use x="520" y="120" xlink:href="#p" />
<use x="520" y="160" xlink:href="#p" />
<use x="520" y="200" xlink:href="#p" />
<use x="520" y="220" xlink:href="#p" />
<use x="520" y="240" xlink:href="#p" />
<use x="520" y="280" xlink:href="#p" />
<use x="520" y="320" xlink:href="#p" />
<use x="520" y="340" xlink:href="#p" />
<use x="520" y="440" xlink:href="#p" />
<use x="520" y="460" xlink:href="#p" />
<use x="520" y="480" xlink:href="#p" />
<use x="520" y="520" xlink:href="#p" />
<use x="520" y="560" xlink:href="#p" />
<use x="520" y="580" xlink:href="#p" />
<use x="520" y="600" xlink:href="#p" />
<use x="520" y="620" xlink:href="#p" />
<use x="520" y="640" xlink:href="#p" />
<use x="520" y="660" xlink:href="#p" />
<use x="520" y="700" xlink:href="#p" />
<use x="520" y="720" xlink:href="#p" />
<use x="520" y="740" xlink:href="#p" />
<use x="520" y="760" xlink:href="#p" />
<use x="520" y="840" xlink:href="#p" />
<use x="520" y="880" xlink:href="#p" />
<use x="520" y="920" xlink:href="#p" />
<use x="520" y="960" xlink:href="#p" />
<use x="520" y="980" xlink:href="#p" />
<use x="520" y="1000" xlink:href="#p" />
<use x="540" y="40" xlink:href="#p" />
<use x="540" y="120" xlink:href="#p" />
<use x="540" y="200" xlink:href="#p" />
<use x="540" y="220" xlink:href="#p" />
<use x="540" y="260" xlink:href="#p" />
<use x="540" y="280" xlink:href="#p" />
<use x="540" y="300" xlink:href="#p" />
<use x="540" y="320" xlink:href="#p" />
<use x="540" y="340" xlink:href="#p" />
<use x="540" y="360" xlink:href="#p" />
<use x="540" y="380" xlink:href="#p" />
<use x="540" y="420" xlink:href="#p" />
<use x="540" y="460" xlink:href="#p" />
<use x="540" y="480" xlink:href="#p" />
<use x="540" y="560" xlink:href="#p" />
<use x="540" y="580" xlink:href="#p" />
<use x="540" y="600" xlink:href="#p" />
<use x="540" y="620" xlink:href="#p" />
<use x="540" y="680" xlink:href="#p" />
<use x="540" y="700" xlink:href="#p" />
<use x="540" y="720" xlink:href="#p" />
<use x="540" y="740" xlink:href="#p" />
<use x="540" y="800" xlink:href="#p" />
<use x="540" y="840" xlink:href="#p" />
<use x="540" y="920" xlink:href="#p" />
<use x="540" y="960" xlink:href="#p" />
<use x="560" y="100" xlink:href="#p" />
<use x="560" y="120" xlink:href="#p" />
<use x="560" y="140" xlink:href="#p" />
<use x="560" y="160" xlink:href="#p" />
<use x="560" y="180" xlink:href="#p" />
<use x="560" y="200" xlink:href="#p" />
<use x="560" y="240" xlink:href="#p" />
<use x="560" y="260" xlink:href="#p" />
<use x="560" y="280" xlink:href="#p" />
<use x="560" y="400" xlink:href="#p" />
<use x="560" y="480" xlink:href="#p" />
<use x="560" y="500" xlink:href="#p" />
<use x="560" y="520" xlink:href="#p" />
<use x="560" y="540" xlink:href="#p" />
<use x="560" y="560" xlink:href="#p" />
<use x="560" y="660" xlink:href="#p" />
<use x="560" y="820" xlink:href="#p" />
<use x="560" y="840" xlink:href="#p" />
<use x="560" y="860" xlink:href="#p" />
<use x="560" y="880" xlink:href="#p" />
<use x="560" y="900" xlink:href="#p" />
<use x="560" y="920" xlink:href="#p" />
<use x="560" y="960" xlink:href="#p" />
<use x="580" y="40" xlink:href="#p" />
<use x="580" y="60" xlink:href="#p" />
<use x="580" y="120" xlink:href="#p" />
<use x="580" y="220" xlink:href="#p" />
<use x="580" y="260" xlink:href="#p" />
<use x="580" y="300" xlink:href="#p" />
<use x="580" y="320" xlink:href="#p" />
<use x="580" y="340" xlink:href="#p" />
<use x="580" y="380" xlink:href="#p" />
<use x="580" y="400" xlink:href="#p" />
<use x="580" y="420" xlink:href="#p" />
<use x="580" y="440" xlink:href="#p" />
<use x="580" y="480" xlink:href="#p" />
<use x="580" y="560" xlink:href="#p" />
<use x="580" y="580" xlink:href="#p" />
<use x="580" y="600" xlink:href="#p" />
<use x="580" y="620" xlink:href="#p" />
<use x="580" y="640" xlink:href="#p" />
<use x="580" y="720" xlink:href="#p" />
<use x="580" y="740" xlink:href="#p" />
<use x="580" y="760" xlink:href="#p" />
<use x="580" y="780" xlink:href="#p" />
<use x="580" y="800" xlink:href="#p" />
<use x="580" y="820" xlink:href="#p" />
<use x="580" y="840" xlink:href="#p" />
<use x="580" y="900" xlink:href="#p" />
<use x="580" y="920" xlink:href="#p" />
<use x="580" y="940" xlink:href="#p" />
<use x="580" y="1000" xlink:href="#p" />
<use x="600" y="80" xlink:href="#p" />
<use x="600" y="120" xlink:href="#p" />
<use x="600" y="160" xlink:href="#p" />
<use x="600" y="220" xlink:href="#p" />
<use x="600" y="380" xlink:href="#p" />
<use x="600" y="420" xlink:href="#p" />
<use x="600" y="460" xlink:href="#p" />
<use x="600" y="480" xlink:href="#p" />
<use x="600" y="500" xlink:href="#p" />
<use x="600" y="580" xlink:href="#p" />
<use x="600" y="660" xlink:href="#p" />
<use x="600" y="700" xlink:href="#p" />
<use x="600" y="740" xlink:href="#p" />
<use x="600" y="780" xlink:href="#p" />
<use x="600" y="820" xlink:href="#p" />
<use x="600" y="860" xlink:href="#p" />
<use x="600" y="880" xlink:href="#p" />
<use x="600" y="900" xlink:href="#p" />
<use x="600" y="960" xlink:href="#p" />
<use x="600" y="980" xlink:href="#p" />
<use x="620" y="40" xlink:href="#p" />
<use x="620" y="60" xlink:href="#p" />
<use x="620" y="120" xlink:href="#p" />
<use x="620" y="140" xlink:href="#p" />
<use x="620" y="260" xlink:href="#p" />
<use x="620" y="340" xlink:href="#p" />
<use x="620" y="380" xlink:href="#p" />
<use x="620" y="460" xlink:href="#p" />
<use x="620" y="500" xlink:href="#p" />
<use x="620" y="520" xlink:href="#p" />
<use x="620" y="540" xlink:href="#p" />
<use x="620" y="560" xlink:href="#p" />
<use x="620" y="580" xlink:href="#p" />
<use x="620" y="600" xlink:href="#p" />
<use x="620" y="620" xlink:href="#p" />
<use x="620" y="640" xlink:href="#p" />
<use x="620" y="700" xlink:href="#p" />
<use x="620" y="780" xlink:href="#p" />
<use x="620" y="820" xlink:href="#p" />
<use x="620" y="840" xlink:href="#p" />
<use x="620" y="920" xlink:href="#p" />
<use x="620" y="940" xlink:href="#p" />
<use x="620" y="960" xlink:href="#p" />
<use x="620" y="980" xlink:href="#p" />
<use x="620" y="1000" xlink:href="#p" />
<use x="640" y="40" xlink:href="#p" />
<use x="640" y="80" xlink:href="#p" />
<use x="640" y="100" xlink:href="#p" />
<use x="640" y="120" xlink:href="#p" />
<use x="640" y="140" xlink:href="#p" />
<use x="640" y="160" xlink:href="#p" />
<use x="640" y="180" xlink:href="#p" />
<use x="640" y="220" xlink:href="#p" />
<use x="640" y="280" xlink:href="#p" />
<use x="640" y="300" xlink:href="#p" />
<use x="640" y="380" xlink:href="#p" />
<use x="640" y="420" xlink:href="#p" />
<use x="640" y="460" xlink:href="#p" />
<use x="640" y="480" xlink:href="#p" />
<use x="640" y="540" xlink:href="#p" />
<use x="640" y="580" xlink:href="#p" />
<use x="640" y="600" xlink:href="#p" />
<use x="640" y="620" xlink:href="#p" />
<use x="640" y="640" xlink:href="#p" />
<use x="640" y="660" xlink:href="#p" />
<use x="640" y="700" xlink:href="#p" />
<use x="640" y="740" xlink:href="#p" />
<use x="640" y="780" xlink:href="#p" />
<use x="640" y="800" xlink:href="#p" />
<use x="640" y="820" xlink:href="#p" />
<use x="640" y="860" xlink:href="#p" />
<use x="640" y="900" xlink:href="#p" />
<use x="640" y="920" xlink:href="#p" />
<use x="640" y="940" xlink:href="#p" />
<use x="640" y="960" xlink:href="#p" />
<use x="660" y="40" xlink:href="#p" />
<use x="660" y="60" xlink:href="#p" />
<use x="660" y="140" xlink:href="#p" />
<use x="660" y="200" xlink:href="#p" />
<use x="660" y="240" xlink:href="#p" />
<use x="660" y="360" xlink:href="#p" />
<use x="660" y="380" xlink:href="#p" />
<use x="660" y="500" xlink:href="#p" />
<use x="660" y="520" xlink:href="#p" />
<use x="660" y="560" xlink:href="#p" />
<use x="660" y="640" xlink:href="#p" />
<use x="660" y="660" xlink:href="#p" />
<use x="660" y="680" xlink:href="#p" />
<use x="660" y="700" xlink:href="#p" />
<use x="660" y="720" xlink:href="#p" />
<use x="660" y="740" xlink:href="#p" />
<use x="660" y="760" xlink:href="#p" />
<use x="660" y="780" xlink:href="#p" />
<use x="660" y="800" xlink:href="#p" />
<use x="660" y="820" xlink:href="#p" />
<use x="660" y="840" xlink:href="#p" />
<use x="660" y="860" xlink:href="#p" />
<use x="660" y="880" xlink:href="#p" />
<use x="660" y="900" xlink:href="#p" />
<use x="660" y="920" xlink:href="#p" />
<use x="660" y="940" xlink:href="#p" />
<use x="660" y="1000" xlink:href="#p" />
<use x="680" y="80" xlink:href="#p" />
<use x="680" y="120" xlink:href="#p" />
<use x="680" y="160" xlink:href="#p" />
<use x="680" y="180" xlink:href="#p" />
<use x="680" y="240" xlink:href="#p" />
<use x="680" y="260" xlink:href="#p" />
<use x="680" y="340" xlink:href="#p" />
<use x="680" y="400" xlink:href="#p" />
<use x="680" y="420" xlink:href="#p" />
<use x="680" y="460" xlink:href="#p" />
<use x="680" y="500" xlink:href="#p" />
<use x="680" y="580" xlink:href="#p" />
<use x="680" y="640" xlink:href="#p" />
<use x="680" y="700" xlink:href="#p" />
<use x="680" y="780" xlink:href="#p" />
<use x="680" y="820" xlink:href="#p" />
<use x="680" y="980" xlink:href="#p" />
<use x="700" y="80" xlink:href="#p" />
<use x="700" y="100" xlink:href="#p" />
<use x="700" y="220" xlink:href="#p" />
<use x="700" y="240" xlink:href="#p" />
<use x="700" y="280" xlink:href="#p" />
<use x="700" y="300" xlink:href="#p" />
<use x="700" y="320" xlink:href="#p" />
<use x="700" y="360" xlink:href="#p" />
<use x="700" y="400" xlink:href="#p" />
<use x="700" y="420" xlink:href="#p" />
<use x="700" y="440" xlink:href="#p" />
<use x="700" y="480" xlink:href="#p" />
<use x="700" y="560" xlink:href="#p" />
<use x="700" y="580" xlink:href="#p" />
<use x="700" y="640" xlink:href="#p" />
<use x="700" y="660" xlink:href="#p" />
<use x="700" y="800" xlink:href="#p" />
<use x="700" y="840" xlink:href="#p" />
<use x="700" y="880" xlink:href="#p" />
<use x="700" y="920" xlink:href="#p" />
<use x="700" y="960" xlink:href="#p" />
<use x="700" y="980" xlink:href="#p" />
<use x="700" y="1000" xlink:href="#p" />
<use x="720" y="60" xlink:href="#p" />
<use x="720" y="160" xlink:href="#p" />
<use x="720" y="200" xlink:href="#p" />
<use x="720" y="240" xlink:href="#p" />
<use x="720" y="260" xlink:href="#p" />
<use x="720" y="320" xlink:href="#p" />
<use x="720" y="340" xlink:href="#p" />
<use x="720" y="360" xlink:href="#p" />
<use x="720" y="440" xlink:href="#p" />
<use x="720" y="500" xlink:href="#p" />
<use x="720" y="560" xlink:href="#p" />
<use x="720" y="600" xlink:href="#p" />
<use x="720" y="720" xlink:href="#p" />
<use x="720" y="880" xlink:href="#p" />
<use x="720" y="980" xlink:href="#p" />
<use x="740" y="40" xlink:href="#p" />
<use x="740" y="60" xlink:href="#p" />
<use x="740" y="140" xlink:href="#p" />
<use x="740" y="180" xlink:href="#p" />
<use x="740" y="200" xlink:href="#p" />
<use x="740" y="220" xlink:href="#p" />
<use x="740" y="240" xlink:href="#p" />
<use x="740" y="280" xlink:href="#p" />
<use x="740" y="300" xlink:href="#p" />
<use x="740" y="320" xlink:href="#p" />
<use x="740" y="340" xlink:href="#p" />
<use x="740" y="360" xlink:href="#p" />
<use x="740" y="440" xlink:href="#p" />
<use x="740" y="640" xlink:href="#p" />
<use x="740" y="720" xlink:href="#p" />
<use x="740" y="760" xlink:href="#p" />
<use x="740" y="780" xlink:href="#p" />
<use x="740" y="800" xlink:href="#p" />
<use x="740" y="920" xlink:href="#p" />
<use x="740" y="940" xlink:href="#p" />
<use x="740" y="980" xlink:href="#p" />
<use x="740" y="1000" xlink:href="#p" />
<use x="760" y="60" xlink:href="#p" />
<use x="760" y="100" xlink:href="#p" />
<use x="760" y="140" xlink:href="#p" />
<use x="760" y="160" xlink:href="#p" />
<use x="760" y="200" xlink:href="#p" />
<use x="760" y="240" xlink:href="#p" />
<use x="760" y="280" xlink:href="#p" />
<use x="760" y="360" xlink:href="#p" />
<use x="760" y="440" xlink:href="#p" />
<use x="760" y="460" xlink:href="#p" />
<use x="760" y="480" xlink:href="#p" />
<use x="760" y="500" xlink:href="#p" />
<use x="760" y="520" xlink:href="#p" />
<use x="760" y="600" xlink:href="#p" />
<use x="760" y="660" xlink:href="#p" />
<use x="760" y="680" xlink:href="#p" />
<use x="760" y="760" xlink:href="#p" />
<use x="760" y="840" xlink:href="#p" />
<use x="760" y="860" xlink:href="#p" />
<use x="760" y="920" xlink:href="#p" />
<use x="760" y="940" xlink:href="#p" />
<use x="760" y="1000" xlink:href="#p" />
<use x="780" y="60" xlink:href="#p" />
<use x="780" y="100" xlink:href="#p" />
<use x="780" y="120" xlink:href="#p" />
<use x="780" y="180" xlink:href="#p" />
<use x="780" y="200" xlink:href="#p" />
<use x="780" y="220" xlink:href="#p" />
<use x="780" y="260" xlink:href="#p" />
<use x="780" y="300" xlink:href="#p" />
<use x="780" y="340" xlink:href="#p" />
<use x="780" y="360" xlink:href="#p" />
<use x="780" y="380" xlink:href="#p" />
<use x="780" y="440" xlink:href="#p" />
<use x="780" y="460" xlink:href="#p" />
<use x="780" y="500" xlink:href="#p" />
<use x="780" y="520" xlink:href="#p" />
<use x="780" y="600" xlink:href="#p" />
<use x="780" y="620" xlink:href="#p" />
<use x="780" y="700" xlink:href="#p" />
<use x="780" y="720" xlink:href="#p" />
<use x="780" y="760" xlink:href="#p" />
<use x="780" y="780" xlink:href="#p" />
<use x="780" y="800" xlink:href="#p" />
<use x="780" y="820" xlink:href="#p" />
<use x="780" y="860" xlink:href="#p" />
<use x="780" y="900" xlink:href="#p" />
<use x="780" y="940" xlink:href="#p" />
<use x="780" y="1000" xlink:href="#p" />
<use x="800" y="60" xlink:href="#p" />
<use x="800" y="140" xlink:href="#p" />
<use x="800" y="160" xlink:href="#p" />
<use x="800" y="180" xlink:href="#p" />
<use x="800" y="200" xlink:href="#p" />
<use x="800" y="240" xlink:href="#p" />
<use x="800" y="280" xlink:href="#p" />
<use x="800" y="320" xlink:href="#p" />
<use x="800" y="340" xlink:href="#p" />
<use x="800" y="400" xlink:href="#p" />
<use x="800" y="420" xlink:href="#p" />
<use x="800" y="480" xlink:href="#p" />
<use x="800" y="560" xlink:href="#p" />
<use x="800" y="600" xlink:href="#p" />
<use x="800" y="640" xlink:href="#p" />
<use x="800" y="720" xlink:href="#p" />
<use x="800" y="800" xlink:href="#p" />
<use x="800" y="880" xlink:href="#p" />
<use x="800" y="960" xlink:href="#p" />
<use x="820" y="60" xlink:href="#p" />
<use x="820" y="80" xlink:href="#p" />
<use x="820" y="100" xlink:href="#p" />
<use x="820" y="180" xlink:href="#p" />
<use x="820" y="200" xlink:href="#p" />
<use x="820" y="260" xlink:href="#p" />
<use x="820" y="280" xlink:href="#p" />
<use x="820" y="320" xlink:href="#p" />
<use x="820" y="360" xlink:href="#p" />
<use x="820" y="400" xlink:href="#p" />
<use x="820" y="500" xlink:href="#p" />
<use x="820" y="520" xlink:href="#p" />
<use x="820" y="540" xlink:href="#p" />
<use x="820" y="560" xlink:href="#p" />
<use x="820" y="600" xlink:href="#p" />
<use x="820" y="620" xlink:href="#p" />
<use x="820" y="680" xlink:href="#p" />
<use x="820" y="720" xlink:href="#p" />
<use x="820" y="760" xlink:href="#p" />
<use x="820" y="780" xlink:href="#p" />
<use x="820" y="800" xlink:href="#p" />
<use x="820" y="840" xlink:href="#p" />
<use x="820" y="860" xlink:href="#p" />
<use x="820" y="880" xlink:href="#p" />
<use x="820" y="900" xlink:href="#p" />
<use x="820" y="920" xlink:href="#p" />
<use x="820" y="940" xlink:href="#p" />
<use x="820" y="960" xlink:href="#p" />
<use x="820" y="980" xlink:href="#p" />
<use x="840" y="40" xlink:href="#p" />
<use x="840" y="60" xlink:href="#p" />
<use x="840" y="80" xlink:href="#p" />
<use x="840" y="160" xlink:href="#p" />
<use x="840" y="180" xlink:href="#p" />
<use x="840" y="200" xlink:href="#p" />
<use x="840" y="240" xlink:href="#p" />
<use x="840" y="280" xlink:href="#p" />
<use x="840" y="360" xlink:href="#p" />
<use x="840" y="400" xlink:href="#p" />
<use x="840" y="420" xlink:href="#p" />
<use x="840" y="440" xlink:href="#p" />
<use x="840" y="480" xlink:href="#p" />
<use x="840" y="500" xlink:href="#p" />
<use x="840" y="520" xlink:href="#p" />
<use x="840" y="540" xlink:href="#p" />
<use x="840" y="560" xlink:href="#p" />
<use x="840" y="580" xlink:href="#p" />
<use x="840" y="600" xlink:href="#p" />
<use x="840" y="660" xlink:href="#p" />
<use x="840" y="740" xlink:href="#p" />
<use x="840" y="800" xlink:href="#p" />
<use x="840" y="820" xlink:href="#p" />
<use x="840" y="840" xlink:href="#p" />
<use x="840" y="860" xlink:href="#p" />
<use x="840" y="880" xlink:href="#p" />
<use x="840" y="900" xlink:href="#p" />
<use x="840" y="920" xlink:href="#p" />
<use x="840" y="940" xlink:href="#p" />
<use x="860" y="200" xlink:href="#p" />
<use x="860" y="220" xlink:href="#p" />
<use x="860" y="300" xlink:href="#p" />
<use x="860" y="320" xlink:href="#p" />
<use x="860" y="340" xlink:href="#p" />
<use x="860" y="380" xlink:href="#p" />
<use x="860" y="420" xlink:href="#p" />
<use x="860" y="460" xlink:href="#p" />
<use x="860" y="480" xlink:href="#p" />
<use x="860" y="560" xlink:href="#p" />
<use x="860" y="580" xlink:href="#p" />
<use x="860" y="600" xlink:href="#p" />
<use x="860" y="640" xlink:href="#p" />
<use x="860" y="700" xlink:href="#p" />
<use x="860" y="780" xlink:href="#p" />
<use x="860" y="800" xlink:href="#p" />
<use x="860" y="820" xlink:href="#p" />
<use x="860" y="840" xlink:href="#p" />
<use x="860" y="920" xlink:href="#p" />
<use x="860" y="940" xlink:href="#p" />
<use x="880" y="40" xlink:href="#p" />
<use x="880" y="60" xlink:href="#p" />
<use x="880" y="80" xlink:href="#p" />
<use x="880" y="100" xlink:href="#p" />
<use x="880" y="120" xlink:href="#p" />
<use x="880" y="140" xlink:href="#p" />
<use x="880" y="160" xlink:href="#p" />
<use x="880" y="220" xlink:href="#p" />
<use x="880" y="280" xlink:href="#p" />
<use x="880" y="300" xlink:href="#p" />
<use x="880" y="340" xlink:href="#p" />
<use x="880" y="380" xlink:href="#p" />
<use x="880" y="420" xlink:href="#p" />
<use x="880" y="440" xlink:href="#p" />
<use x="880" y="460" xlink:href="#p" />
<use x="880" y="480" xlink:href="#p" />
<use x="880" y="520" xlink:href="#p" />
<use x="880" y="560" xlink:href="#p" />
<use x="880" y="620" xlink:href="#p" />
<use x="880" y="640" xlink:href="#p" />
<use x="880" y="680" xlink:href="#p" />
<use x="880" y="720" xlink:href="#p" />
<use x="880" y="760" xlink:href="#p" />
<use x="880" y="780" xlink:href="#p" />
<use x="880" y="800" xlink:href="#p" />
<use x="880" y="840" xlink:href="#p" />
<use x="880" y="880" xlink:href="#p" />
<use x="880" y="920" xlink:href="#p" />
<use x="880" y="960" xlink:href="#p" />
<use x="880" y="980" xlink:href="#p" />
<use x="900" y="40" xlink:href="#p" />
<use x="900" y="160" xlink:href="#p" />
<use x="900" y="200" xlink:href="#p" />
<use x="900" y="280" xlink:href="#p" />
<use x="900" y="300" xlink:href="#p" />
<use x="900" y="320" xlink:href="#p" />
<use x="900" y="380" xlink:href="#p" />
<use x="900" y="400" xlink:href="#p" />
<use x="900" y="440" xlink:href="#p" />
<use x="900" y="460" xlink:href="#p" />
<use x="900" y="480" xlink:href="#p" />
<use x="900" y="560" xlink:href="#p" />
<use x="900" y="640" xlink:href="#p" />
<use x="900" y="700" xlink:href="#p" />
<use x="900" y="760" xlink:href="#p" />
<use x="900" y="800" xlink:href="#p" />
<use x="900" y="840" xlink:href="#p" />
<use x="900" y="920" xlink:href="#p" />
<use x="900" y="940" xlink:href="#p" />
<use x="900" y="960" xlink:href="#p" />
<use x="920" y="40" xlink:href="#p" />
<use x="920" y="80" xlink:href="#p" />
<use x="920" y="100" xlink:href="#p" />
<use x="920" y="120" xlink:href="#p" />
<use x="920" y="160" xlink:href="#p" />
<use x="920" y="260" xlink:href="#p" />
<use x="920" y="300" xlink:href="#p" />
<use x="920" y="340" xlink:href="#p" />
<use x="920" y="420" xlink:href="#p" />
<use x="920" y="480" xlink:href="#p" />
<use x="920" y="500" xlink:href="#p" />
<use x="920" y="520" xlink:href="#p" />
<use x="920" y="540" xlink:href="#p" />
<use x="920" y="560" xlink:href="#p" />
<use x="920" y="580" xlink:href="#p" />
<use x="920" y="600" xlink:href="#p" />
<use x="920" y="640" xlink:href="#p" />
<use x="920" y="680" xlink:href="#p" />
<use x="920" y="720" xlink:href="#p" />
<use x="920" y="760" xlink:href="#p" />
<use x="920" y="840" xlink:href="#p" />
<use x="920" y="860" xlink:href="#p" />
<use x="920" y="880" xlink:href="#p" />
<use x="920" y="900" xlink:href="#p" />
<use x="920" y="920" xlink:href="#p" />
<use x="920" y="940" xlink:href="#p" />
<use x="940" y="40" xlink:href="#p" />
<use x="940" y="80" xlink:href="#p" />
<use x="940" y="100" xlink:href="#p" />
<use x="940" y="120" xlink:href="#p" />
<use x="940" y="160" xlink:href="#p" />
<use x="940" y="200" xlink:href="#p" />
<use x="940" y="280" xlink:href="#p" />
<use x="940" y="320" xlink:href="#p" />
<use x="940" y="400" xlink:href="#p" />
<use x="940" y="460" xlink:href="#p" />
<use x="940" y="500" xlink:href="#p" />
<use x="940" y="520" xlink:href="#p" />
<use x="940" y="560" xlink:href="#p" />
<use x="940" y="580" xlink:href="#p" />
<use x="940" y="600" xlink:href="#p" />
<use x="940" y="620" xlink:href="#p" />
<use x="940" y="640" xlink:href="#p" />
<use x="940" y="660" xlink:href="#p" />
<use x="940" y="680" xlink:href="#p" />
<use x="940" y="780" xlink:href="#p" />
<use x="940" y="820" xlink:href="#p" />
<use x="940" y="840" xlink:href="#p" />
<use x="940" y="860" xlink:href="#p" />
<use x="940" y="900" xlink:href="#p" />
<use x="940" y="920" xlink:href="#p" />
<use x="940" y="940" xlink:href="#p" />
<use x="940" y="960" xlink:href="#p" />
<use x="940" y="980" xlink:href="#p" />
<use x="960" y="40" xlink:href="#p" />
<use x="960" y="80" xlink:href="#p" />
<use x="960" y="100" xlink:href="#p" />
<use x="960" y="120" xlink:href="#p" />
<use x="960" y="160" xlink:href="#p" />
<use x="960" y="280" xlink:href="#p" />
<use x="960" y="360" xlink:href="#p" />
<use x="960" y="380" xlink:href="#p" />
<use x="960" y="400" xlink:href="#p" />
<use x="960" y="480" xlink:href="#p" />
<use x="960" y="520" xlink:href="#p" />
<use x="960" y="540" xlink:href="#p" />
<use x="960" y="600" xlink:href="#p" />
<use x="960" y="680" xlink:href="#p" />
<use x="960" y="720" xlink:href="#p" />
<use x="960" y="760" xlink:href="#p" />
<use x="960" y="780" xlink:href="#p" />
<use x="960" y="800" xlink:href="#p" />
<use x="960" y="840" xlink:href="#p" />
<use x="960" y="880" xlink:href="#p" />
<use x="960" y="920" xlink:href="#p" />
<use x="960" y="1000" xlink:href="#p" />
<use x="980" y="40" xlink:href="#p" />
<use x="980" y="160" xlink:href="#p" />
<use x="980" y="200" xlink:href="#p" />
<use x="980" y="240" xlink:href="#p" />
<use x="980" y="280" xlink:href="#p" />
<use x="980" y="320" xlink:href="#p" />
<use x="980" y="340" xlink:href="#p" />
<use x="980" y="360" xlink:href="#p" />
<use x="980" y="400" xlink:href="#p" />
<use x="980" y="420" xlink:href="#p" />
<use x="980" y="440" xlink:href="#p" />
<use x="980" y="480" xlink:href="#p" />
<use x="980" y="500" xlink:href="#p" />
<use x="980" y="520" xlink:href="#p" />
<use x="980" y="560" xlink:href="#p" />
<use x="980" y="600" xlink:href="#p" />
<use x="980" y="640" xlink:href="#p" />
<use x="980" y="660" xlink:href="#p" />
<use x="980" y="680" xlink:href="#p" />
<use x="980" y="720" xlink:href="#p" />
<use x="980" y="740" xlink:href="#p" />
<use x="980" y="780" xlink:href="#p" />
<use x="980" y="800" xlink:href="#p" />
<use x="980" y="820" xlink:href="#p" />
<use x="980" y="840" xlink:href="#p" />
<use x="980" y="880" xlink:href="#p" />
<use x="980" y="920" xlink:href="#p" />
<use x="980" y="940" xlink:href="#p" />
<use x="980" y="1000" xlink:href="#p" />
<use x="1000" y="40" xlink:href="#p" />
<use x="1000" y="60" xlink:href="#p" />
<use x="1000" y="80" xlink:href="#p" />
<use x="1000" y="100" xlink:href="#p" />
<use x="1000" y="120" xlink:href="#p" />
<use x="1000" y="140" xlink:href="#p" />
<use x="1000" y="160" xlink:href="#p" />
<use x="1000" y="240" xlink:href="#p" />
<use x="1000" y="320" xlink:href="#p" />
<use x="1000" y="340" xlink:href="#p" />
<use x="1000" y="400" xlink:href="#p" />
<use x="1000" y="420" xlink:href="#p" />
<use x="1000" y="440" xlink:href="#p" />
<use x="1000" y="480" xlink:href="#p" />
<use x="1000" y="560" xlink:href="#p" />
<use x="1000" y="580" xlink:href="#p" />
<use x="1000" y="600" xlink:href="#p" />
<use x="1000" y="640" xlink:href="#p" />
<use x="1000" y="680" xlink:href="#p" />
<use x="1000" y="720" xlink:href="#p" />
<use x="1000" y="740" xlink:href="#p" />
<use x="1000" y="780" xlink:href="#p" />
<use x="1000" y="800" xlink:href="#p" />
<use x="1000" y="820" xlink:href="#p" />
<use x="1000" y="880" xlink:href="#p" />
<use x="1000" y="920" xlink:href="#p" />
<use x="1000" y="940" xlink:href="#p" />
<use x="1000" y="980" xlink:href="#p" />
<use x="1000" y="1000" xlink:href="#p" />
</g>

</svg>